<svg width="157" height="171" viewBox="0 0 157 171" fill="none" xmlns="http://www.w3.org/2000/svg">
<path d="M71.6895 29.8241C99.6375 22.6899 122.286 26.8908 137.407 40.5448C152.377 54.0622 158.117 75.1951 155.965 98.0272C153.828 120.694 145.825 138.957 132.229 151.543C118.621 164.141 100.281 170.244 79.041 170.244C57.8316 170.244 37.9295 164.024 23.2676 150.248C8.5113 136.383 0 115.744 0 88.828C0.000165553 24.8005 56.3083 -12.0793 109.979 3.59554L105.493 18.9539C61.7393 6.17523 16.0002 35.8057 16 88.828C16 112.264 23.3096 128.333 34.2236 138.588C45.2323 148.931 60.8516 154.244 79.041 154.244C97.1997 154.244 111.339 149.079 121.36 139.802C131.395 130.512 138.172 116.292 140.035 96.5262C141.883 76.9254 136.739 61.499 126.685 52.4198C116.781 43.4771 100.263 39.0432 75.6465 45.327L71.6895 29.8241Z" fill="#D0D9D4" style="mix-blend-mode:multiply"/>
</svg>
