<svg width="255" height="100" viewBox="0 0 255 100" fill="none" xmlns="http://www.w3.org/2000/svg">
<path fill-rule="evenodd" clip-rule="evenodd" d="M198.817 21.7455C197.102 21.7455 195.71 20.3535 195.71 18.639C195.71 16.9241 197.102 15.5325 198.817 15.5325C200.531 15.5325 201.923 16.9241 201.923 18.639C201.923 20.3535 200.531 21.7455 198.817 21.7455ZM198.817 34.1719C197.102 34.1719 195.71 32.7799 195.71 31.0654C195.71 29.3505 197.102 27.9585 198.817 27.9585C200.531 27.9585 201.923 29.3505 201.923 31.0654C201.923 32.7799 200.531 34.1719 198.817 34.1719ZM198.817 46.5979C197.102 46.5979 195.71 45.2059 195.71 43.4914C195.71 41.7769 197.102 40.3845 198.817 40.3845C200.531 40.3845 201.923 41.7769 201.923 43.4914C201.923 45.2059 200.531 46.5979 198.817 46.5979ZM198.817 59.0243C197.102 59.0243 195.71 57.6319 195.71 55.9174C195.71 54.2029 197.102 52.8109 198.817 52.8109C200.531 52.8109 201.923 54.2029 201.923 55.9174C201.923 57.6319 200.531 59.0243 198.817 59.0243ZM198.817 71.4499C197.102 71.4499 195.71 70.0583 195.71 68.3438C195.71 66.6289 197.102 65.2373 198.817 65.2373C200.531 65.2373 201.923 66.6289 201.923 68.3438C201.923 70.0583 200.531 71.4499 198.817 71.4499ZM198.817 83.8763C197.102 83.8763 195.71 82.4843 195.71 80.7698C195.71 79.0553 197.102 77.6633 198.817 77.6633C200.531 77.6633 201.923 79.0553 201.923 80.7698C201.923 82.4843 200.531 83.8763 198.817 83.8763ZM255 15.6249V9.37493C249.825 9.37493 245.625 5.17447 245.625 0H209.374C209.374 5.17447 205.174 9.37493 199.999 9.37493C194.824 9.37493 190.624 5.17447 190.624 0H9.37523C9.37523 5.17447 5.17518 9.37493 0 9.37493V15.6249C1.72468 15.6249 3.12495 17.0248 3.12495 18.7499C3.12495 20.4746 1.72468 21.8748 0 21.8748V28.1248C1.72468 28.1248 3.12495 29.5251 3.12495 31.2501C3.12495 32.9748 1.72468 34.3751 0 34.3751V40.6247C1.72468 40.6247 3.12495 42.0253 3.12495 43.75C3.12495 45.4747 1.72468 46.875 0 46.875V53.125C1.72468 53.125 3.12495 54.5253 3.12495 56.25C3.12495 57.9747 1.72468 59.3753 0 59.3753V65.6253C1.72468 65.6253 3.12495 67.0252 3.12495 68.7502C3.12495 70.4749 1.72468 71.8748 0 71.8748V78.1252C1.72468 78.1252 3.12495 79.5254 3.12495 81.2501C3.12495 82.9748 1.72468 84.3751 0 84.3751V90.6251C5.17518 90.6251 9.37523 94.8244 9.37523 100H190.624C190.624 94.8244 194.824 90.6251 199.999 90.6251C205.174 90.6251 209.374 94.8244 209.374 100H245.625C245.625 94.8244 249.825 90.6251 255 90.6251V84.3751C253.275 84.3751 251.875 82.9748 251.875 81.2501C251.875 79.5254 253.275 78.1252 255 78.1252V71.8748C253.275 71.8748 251.875 70.4749 251.875 68.7502C251.875 67.0252 253.275 65.6253 255 65.6253V59.3753C253.275 59.3753 251.875 57.9747 251.875 56.25C251.875 54.5253 253.275 53.125 255 53.125V46.875C253.275 46.875 251.875 45.4747 251.875 43.75C251.875 42.0253 253.275 40.6247 255 40.6247V34.3751C253.275 34.3751 251.875 32.9748 251.875 31.2501C251.875 29.5251 253.275 28.1248 255 28.1248V21.8748C253.275 21.8748 251.875 20.4746 251.875 18.7499C251.875 17.0248 253.275 15.6249 255 15.6249Z" fill="#CDDFEA"/>
<path d="M38.882 77.6882C36.2086 78.7949 34.6088 81.541 34.8305 84.3284" stroke="#77A6C5" stroke-width="1.86375" stroke-linecap="round" stroke-linejoin="round"/>
<path d="M30.7369 87.1221C29.0224 81.6554 31.7363 75.6884 37.1303 73.4571C38.5616 72.8646 40.0455 72.5916 41.5024 72.6051" stroke="#77A6C5" stroke-width="1.86375" stroke-linecap="round" stroke-linejoin="round"/>
<path d="M41.5024 72.6051C41.9101 70.024 43.6103 67.711 46.2001 66.6396C47.4338 66.1285 48.7234 65.9601 49.9662 66.0887" stroke="#77A6C5" stroke-width="1.86375" stroke-linecap="round" stroke-linejoin="round"/>
<path d="M69.9473 58.6536C71.2894 59.9954 72.366 61.6023 73.1134 63.4079C73.4595 64.2453 73.7246 65.1096 73.9091 65.989" stroke="#77A6C5" stroke-width="1.86375" stroke-linecap="round" stroke-linejoin="round"/>
<path fill-rule="evenodd" clip-rule="evenodd" d="M58.4006 54.409C60.6919 54.2207 63.0098 54.5785 65.1941 55.4841L58.4006 54.409Z" stroke="#77A6C5" stroke-width="1.86375" stroke-linecap="round" stroke-linejoin="round"/>
<path d="M63.5027 65.17C62.9938 64.6491 62.3795 64.2333 61.6865 63.9464C60.3354 63.3858 58.8467 63.3858 57.4959 63.9456C56.6499 64.2951 55.922 64.8411 55.3577 65.5266" stroke="#77A6C5" stroke-width="1.86375" stroke-linecap="round" stroke-linejoin="round"/>
<path d="M49.9663 66.0887C50.8112 63.307 52.8478 60.9119 55.7436 59.7126C60.8754 57.5879 66.7569 60.0272 68.8809 65.1591C69.7933 67.3637 69.8616 69.7049 69.2394 71.8296" stroke="#77A6C5" stroke-width="1.86375" stroke-linecap="round" stroke-linejoin="round"/>
<path d="M73.9067 65.9901C77.4854 65.7861 81.0182 66.676 84.0449 68.4704" stroke="#77A6C5" stroke-width="1.86375" stroke-linecap="round" stroke-linejoin="round"/>
<path d="M82.946 80.4719C81.5387 77.0717 78.2004 75.0415 74.7219 75.1217" stroke="#77A6C5" stroke-width="1.86375" stroke-linecap="round" stroke-linejoin="round"/>
<path d="M69.2393 71.8296C69.4463 71.7302 69.6574 71.6354 69.8715 71.548C76.6316 68.7486 84.3795 71.962 87.1785 78.7221C88.3241 81.4915 88.4603 84.4281 87.7575 87.1221" stroke="#77A6C5" stroke-width="1.86375" stroke-linecap="round" stroke-linejoin="round"/>
<path fill-rule="evenodd" clip-rule="evenodd" d="M21.7947 87.1221H30.7369H21.7947Z" stroke="#77A6C5" stroke-width="1.86375" stroke-linecap="round" stroke-linejoin="round"/>
<path fill-rule="evenodd" clip-rule="evenodd" d="M82.4548 91.7016H111.506H82.4548Z" stroke="#77A6C5" stroke-width="1.86375" stroke-linecap="round" stroke-linejoin="round"/>
<path fill-rule="evenodd" clip-rule="evenodd" d="M102.171 41.3444V55.5906V41.3444Z" stroke="#4081AA" stroke-width="1.86375" stroke-linecap="round" stroke-linejoin="round"/>
<path fill-rule="evenodd" clip-rule="evenodd" d="M97.5908 40.9064V60.1701V40.9064Z" stroke="#4081AA" stroke-width="1.86375" stroke-linecap="round" stroke-linejoin="round"/>
<path fill-rule="evenodd" clip-rule="evenodd" d="M93.011 40.4691V55.5906V40.4691Z" stroke="#4081AA" stroke-width="1.86375" stroke-linecap="round" stroke-linejoin="round"/>
<path fill-rule="evenodd" clip-rule="evenodd" d="M88.4312 40.0308V64.75V40.0308Z" stroke="#4081AA" stroke-width="1.86375" stroke-linecap="round" stroke-linejoin="round"/>
<path fill-rule="evenodd" clip-rule="evenodd" d="M93.011 60.1701V67.756V60.1701Z" stroke="#4081AA" stroke-width="1.86375" stroke-linecap="round" stroke-linejoin="round"/>
<path fill-rule="evenodd" clip-rule="evenodd" d="M97.5908 74.491V82.0761V74.491Z" stroke="#4081AA" stroke-width="1.86375" stroke-linecap="round" stroke-linejoin="round"/>
<path fill-rule="evenodd" clip-rule="evenodd" d="M97.5908 64.6274V69.4124V64.6274Z" stroke="#4081AA" stroke-width="1.86375" stroke-linecap="round" stroke-linejoin="round"/>
<path fill-rule="evenodd" clip-rule="evenodd" d="M93.011 81.3749V87.1221V81.3749Z" stroke="#4081AA" stroke-width="1.86375" stroke-linecap="round" stroke-linejoin="round"/>
<path fill-rule="evenodd" clip-rule="evenodd" d="M102.171 60.1701V64.9563V60.1701Z" stroke="#4081AA" stroke-width="1.86375" stroke-linecap="round" stroke-linejoin="round"/>
<path fill-rule="evenodd" clip-rule="evenodd" d="M93.011 72.3366V77.1231V72.3366Z" stroke="#4081AA" stroke-width="1.86375" stroke-linecap="round" stroke-linejoin="round"/>
<path fill-rule="evenodd" clip-rule="evenodd" d="M88.4312 69.3299V74.1156V69.3299Z" stroke="#4081AA" stroke-width="1.86375" stroke-linecap="round" stroke-linejoin="round"/>
<path fill-rule="evenodd" clip-rule="evenodd" d="M102.171 69.5373V74.3234V69.5373Z" stroke="#4081AA" stroke-width="1.86375" stroke-linecap="round" stroke-linejoin="round"/>
<path fill-rule="evenodd" clip-rule="evenodd" d="M102.171 78.6152V82.0277V78.6152Z" stroke="#4081AA" stroke-width="1.86375" stroke-linecap="round" stroke-linejoin="round"/>
<path d="M123.751 74.7614C125.637 76.6315 126.944 79.0836 127.379 81.8238" stroke="#77A6C5" stroke-width="1.86375" stroke-linecap="round" stroke-linejoin="round"/>
<path d="M110.882 71.6553C112.112 71.2604 113.414 71.0478 114.751 71.0478C116.066 71.0478 117.335 71.2484 118.529 71.6185" stroke="#77A6C5" stroke-width="1.86375" stroke-linecap="round" stroke-linejoin="round"/>
<path d="M118.091 82.4234C117.54 81.1225 116.249 80.2075 114.751 80.2075C113.613 80.2075 112.562 80.7509 111.888 81.6175" stroke="#77A6C5" stroke-width="1.86375" stroke-linecap="round" stroke-linejoin="round"/>
<path d="M129.326 87.1221H122.267C122.708 86.1149 122.956 85.0034 122.956 83.8334C122.956 79.3022 119.283 75.628 114.751 75.628C111.015 75.628 107.869 78.1262 106.875 81.541C106.298 81.331 105.677 81.2099 105.026 81.2099C102.037 81.2099 99.611 83.6342 99.611 86.6245C99.611 86.7917 99.6222 86.9579 99.6372 87.1221H93.6875" stroke="#77A6C5" stroke-width="1.86375" stroke-linecap="round" stroke-linejoin="round"/>
<path fill-rule="evenodd" clip-rule="evenodd" d="M132.117 91.7016H118.09H132.117Z" stroke="#77A6C5" stroke-width="1.86375" stroke-linecap="round" stroke-linejoin="round"/>
<path d="M16.9985 39.8905L25.2009 31.6874L33.4048 39.8905" stroke="#4081AA" stroke-width="1.86375" stroke-linecap="round" stroke-linejoin="round"/>
<path d="M15.2595 49.3668L25.2008 39.424L35.1428 49.3656" stroke="#4081AA" stroke-width="1.86375" stroke-linecap="round" stroke-linejoin="round"/>
<path d="M13.5215 58.8426L25.2024 47.1617L36.8821 58.8415" stroke="#4081AA" stroke-width="1.86375" stroke-linecap="round" stroke-linejoin="round"/>
<path d="M11.7815 68.3204L25.2024 54.8991L38.6214 68.3177" stroke="#4081AA" stroke-width="1.86375" stroke-linecap="round" stroke-linejoin="round"/>
<path fill-rule="evenodd" clip-rule="evenodd" d="M25.2009 31.6874L25.2024 76.1253L25.2009 31.6874Z" stroke="#4081AA" stroke-width="1.86375" stroke-linecap="round" stroke-linejoin="round"/>
<path d="M8 72.1296C17.3293 72.8841 25.5129 75.5185 31.1712 79.2925" stroke="#77A6C5" stroke-width="1.86375" stroke-linecap="round" stroke-linejoin="round"/>
<path d="M112.887 42.6329L116.82 44.9886L122.151 66.2185" stroke="#77A6C5" stroke-width="1.86375" stroke-linecap="round" stroke-linejoin="round"/>
<path fill-rule="evenodd" clip-rule="evenodd" d="M69.3564 22.2426L75.2998 31.1121L69.3564 22.2426Z" stroke="#77A6C5" stroke-width="1.86375" stroke-linecap="round" stroke-linejoin="round"/>
<path fill-rule="evenodd" clip-rule="evenodd" d="M59.177 35.4561L63.7985 19.7744L59.177 35.4561Z" stroke="#77A6C5" stroke-width="1.86375" stroke-linecap="round" stroke-linejoin="round"/>
<path d="M43.5669 68.4378L61.6756 7L71.9765 12.0565L75.2008 16.1042L85.5088 39.7514L102.171 41.3444L106.722 39.367L115.51 32.5671L120.062 35.2926L128.937 70.6353L131.528 75.652L136.023 81.637" stroke="#77A6C5" stroke-width="1.86375" stroke-linecap="round" stroke-linejoin="round"/>
<path fill-rule="evenodd" clip-rule="evenodd" d="M87.7576 87.1221H93.5206H87.7576Z" stroke="#77A6C5" stroke-width="1.86375" stroke-linecap="round" stroke-linejoin="round"/>
<path d="M93.696 22.82C93.324 22.46 92.94 22.01 92.544 21.47C92.16 20.93 91.77 20.348 91.374 19.724C90.99 19.088 90.606 18.452 90.222 17.816C89.838 17.168 89.472 16.556 89.124 15.98C89.112 16.568 89.1 17.252 89.088 18.032C89.088 18.812 89.082 19.592 89.07 20.372C89.058 21.14 89.052 21.812 89.052 22.388C89.052 22.628 88.974 22.808 88.818 22.928C88.674 23.048 88.506 23.108 88.314 23.108C88.134 23.108 87.972 23.048 87.828 22.928C87.684 22.796 87.612 22.604 87.612 22.352C87.624 21.608 87.636 20.768 87.648 19.832C87.66 18.896 87.672 17.924 87.684 16.916C87.696 15.908 87.708 14.924 87.72 13.964C87.72 13.664 87.828 13.448 88.044 13.316C88.272 13.172 88.518 13.13 88.782 13.19C89.058 13.25 89.274 13.418 89.43 13.694C90.006 14.678 90.564 15.644 91.104 16.592C91.644 17.54 92.154 18.41 92.634 19.202C93.126 19.994 93.582 20.648 94.002 21.164C94.026 20.72 94.044 20.198 94.056 19.598C94.08 18.986 94.098 18.344 94.11 17.672C94.122 16.988 94.128 16.31 94.128 15.638C94.128 14.966 94.122 14.336 94.11 13.748C94.11 13.508 94.176 13.322 94.308 13.19C94.452 13.058 94.614 12.992 94.794 12.992C94.986 12.992 95.154 13.052 95.298 13.172C95.442 13.292 95.52 13.478 95.532 13.73C95.532 14.222 95.526 14.792 95.514 15.44C95.514 16.088 95.508 16.76 95.496 17.456C95.484 18.152 95.466 18.824 95.442 19.472C95.43 20.108 95.406 20.678 95.37 21.182C95.346 21.674 95.316 22.04 95.28 22.28C95.244 22.532 95.136 22.736 94.956 22.892C94.788 23.048 94.584 23.126 94.344 23.126C94.116 23.126 93.9 23.024 93.696 22.82ZM97.6028 22.604C97.5308 22.832 97.4048 22.988 97.2248 23.072C97.0568 23.156 96.8828 23.174 96.7028 23.126C96.5228 23.09 96.3848 22.994 96.2888 22.838C96.1928 22.682 96.1868 22.478 96.2708 22.226C96.4388 21.698 96.6188 21.182 96.8108 20.678C97.0028 20.174 97.1588 19.73 97.2788 19.346H97.2608C97.0328 19.346 96.8648 19.28 96.7568 19.148C96.6488 19.004 96.6008 18.842 96.6128 18.662C96.6248 18.482 96.6908 18.326 96.8108 18.194C96.9308 18.05 97.1108 17.978 97.3508 17.978H97.7648C98.2208 16.67 98.6048 15.626 98.9168 14.846C99.2288 14.066 99.4268 13.598 99.5108 13.442C99.6668 13.166 99.8768 13.034 100.141 13.046C100.417 13.058 100.633 13.202 100.789 13.478C100.861 13.598 101.059 14.06 101.383 14.864C101.719 15.668 102.127 16.706 102.607 17.978H103.003C103.255 17.978 103.441 18.05 103.561 18.194C103.693 18.326 103.759 18.488 103.759 18.68C103.771 18.86 103.717 19.022 103.597 19.166C103.489 19.298 103.327 19.364 103.111 19.364H103.075C103.207 19.748 103.369 20.18 103.561 20.66C103.753 21.14 103.939 21.644 104.119 22.172C104.191 22.4 104.179 22.586 104.083 22.73C103.987 22.874 103.849 22.97 103.669 23.018C103.489 23.066 103.309 23.054 103.129 22.982C102.961 22.91 102.841 22.766 102.769 22.55C102.577 22.022 102.379 21.482 102.175 20.93C101.971 20.366 101.785 19.832 101.617 19.328H98.7188C98.5508 19.82 98.3648 20.36 98.1608 20.948C97.9568 21.524 97.7708 22.076 97.6028 22.604ZM99.2228 17.978H101.149C101.065 17.702 100.957 17.384 100.825 17.024C100.693 16.664 100.567 16.316 100.447 15.98C100.327 15.644 100.225 15.386 100.141 15.206C100.081 15.398 99.9968 15.662 99.8888 15.998C99.7808 16.322 99.6668 16.664 99.5468 17.024C99.4268 17.372 99.3188 17.69 99.2228 17.978ZM106.443 22.496L106.479 14.324H104.031C103.779 14.324 103.581 14.252 103.437 14.108C103.305 13.964 103.233 13.802 103.221 13.622C103.209 13.442 103.263 13.28 103.383 13.136C103.515 12.992 103.719 12.92 103.995 12.92L110.115 12.884C110.367 12.884 110.559 12.956 110.691 13.1C110.823 13.244 110.883 13.412 110.871 13.604C110.871 13.784 110.805 13.946 110.673 14.09C110.541 14.234 110.343 14.306 110.079 14.306L107.973 14.324L107.919 22.514C107.919 22.754 107.841 22.934 107.685 23.054C107.541 23.174 107.373 23.234 107.181 23.234C106.989 23.234 106.815 23.174 106.659 23.054C106.515 22.934 106.443 22.748 106.443 22.496ZM114.981 23.234C113.949 23.21 113.121 22.928 112.497 22.388C111.885 21.848 111.513 21.194 111.381 20.426C111.297 19.958 111.243 19.424 111.219 18.824C111.207 18.212 111.207 17.588 111.219 16.952C111.243 16.304 111.279 15.692 111.327 15.116C111.375 14.54 111.423 14.048 111.471 13.64C111.507 13.388 111.603 13.208 111.759 13.1C111.915 12.98 112.083 12.926 112.263 12.938C112.455 12.95 112.611 13.028 112.731 13.172C112.863 13.316 112.911 13.514 112.875 13.766C112.827 14.162 112.779 14.648 112.731 15.224C112.683 15.788 112.653 16.376 112.641 16.988C112.629 17.6 112.629 18.188 112.641 18.752C112.665 19.304 112.713 19.766 112.785 20.138C112.881 20.582 113.109 20.978 113.469 21.326C113.829 21.674 114.321 21.86 114.945 21.884C115.365 21.896 115.749 21.818 116.097 21.65C116.457 21.47 116.751 21.266 116.979 21.038C117.219 20.798 117.351 20.588 117.375 20.408C117.435 20.036 117.483 19.586 117.519 19.058C117.555 18.518 117.579 17.942 117.591 17.33C117.603 16.706 117.609 16.088 117.609 15.476C117.609 14.852 117.597 14.276 117.573 13.748C117.561 13.496 117.621 13.31 117.753 13.19C117.897 13.07 118.059 13.016 118.239 13.028C118.419 13.028 118.581 13.094 118.725 13.226C118.869 13.346 118.947 13.532 118.959 13.784C118.983 14.288 118.995 14.864 118.995 15.512C118.995 16.148 118.983 16.802 118.959 17.474C118.947 18.146 118.923 18.77 118.887 19.346C118.863 19.922 118.827 20.396 118.779 20.768C118.755 20.996 118.815 21.2 118.959 21.38C119.115 21.56 119.325 21.656 119.589 21.668C119.805 21.68 119.967 21.752 120.075 21.884C120.183 22.016 120.231 22.172 120.219 22.352C120.207 22.52 120.141 22.676 120.021 22.82C119.901 22.952 119.727 23.018 119.499 23.018C119.127 23.03 118.785 22.952 118.473 22.784C118.161 22.616 117.939 22.424 117.807 22.208C117.519 22.496 117.105 22.742 116.565 22.946C116.037 23.15 115.509 23.246 114.981 23.234ZM126.349 22.748C126.205 22.556 125.953 22.262 125.593 21.866C125.233 21.47 124.819 21.038 124.351 20.57C123.895 20.09 123.433 19.646 122.965 19.238C122.977 19.754 122.983 20.324 122.983 20.948C122.995 21.56 122.995 22.088 122.983 22.532C122.983 22.772 122.911 22.952 122.767 23.072C122.623 23.204 122.461 23.27 122.281 23.27C122.101 23.27 121.939 23.204 121.795 23.072C121.651 22.952 121.579 22.766 121.579 22.514C121.579 22.322 121.573 22.016 121.561 21.596C121.561 21.164 121.555 20.666 121.543 20.102C121.531 19.538 121.519 18.95 121.507 18.338C121.495 17.726 121.483 17.138 121.471 16.574C121.471 15.998 121.471 15.494 121.471 15.062C121.471 14.63 121.471 14.318 121.471 14.126L121.273 14.144C121.033 14.144 120.853 14.084 120.733 13.964C120.613 13.844 120.553 13.7 120.553 13.532C120.553 13.364 120.613 13.214 120.733 13.082C120.853 12.938 121.027 12.854 121.255 12.83C123.583 12.602 125.245 12.734 126.241 13.226C127.237 13.706 127.717 14.51 127.681 15.638C127.669 16.106 127.543 16.514 127.303 16.862C127.075 17.21 126.787 17.498 126.439 17.726C126.091 17.954 125.719 18.134 125.323 18.266C124.927 18.398 124.561 18.494 124.225 18.554C124.693 18.974 125.137 19.4 125.557 19.832C125.989 20.252 126.367 20.642 126.691 21.002C127.027 21.35 127.285 21.632 127.465 21.848C127.633 22.04 127.705 22.238 127.681 22.442C127.657 22.634 127.567 22.796 127.411 22.928C127.267 23.048 127.093 23.102 126.889 23.09C126.697 23.078 126.517 22.964 126.349 22.748ZM122.911 17.402C123.571 17.39 124.153 17.3 124.657 17.132C125.161 16.964 125.557 16.742 125.845 16.466C126.133 16.19 126.283 15.896 126.295 15.584C126.319 15.128 126.163 14.786 125.827 14.558C125.491 14.318 125.053 14.162 124.513 14.09C123.985 14.018 123.433 14.006 122.857 14.054C122.869 14.27 122.875 14.582 122.875 14.99C122.887 15.398 122.893 15.824 122.893 16.268C122.905 16.7 122.911 17.078 122.911 17.402ZM134.955 23.162C134.103 23.15 133.245 23.144 132.381 23.144C131.517 23.144 130.653 23.138 129.789 23.126C129.525 23.126 129.291 23.036 129.087 22.856C128.895 22.676 128.799 22.454 128.799 22.19C128.799 22.07 128.793 21.794 128.781 21.362C128.781 20.918 128.781 20.384 128.781 19.76C128.781 19.136 128.775 18.494 128.763 17.834C128.751 17.162 128.745 16.532 128.745 15.944C128.745 15.356 128.739 14.876 128.727 14.504C128.727 14.132 128.727 13.94 128.727 13.928C128.727 13.688 128.811 13.49 128.979 13.334C129.147 13.166 129.369 13.076 129.645 13.064L134.937 12.938C135.165 12.938 135.345 13.004 135.477 13.136C135.609 13.268 135.681 13.43 135.693 13.622C135.717 13.802 135.663 13.964 135.531 14.108C135.399 14.24 135.189 14.312 134.901 14.324L130.257 14.432C130.173 14.432 130.131 14.492 130.131 14.612C130.131 14.78 130.131 15.02 130.131 15.332C130.131 15.644 130.131 15.98 130.131 16.34C130.131 16.7 130.131 17.048 130.131 17.384C130.467 17.36 130.857 17.342 131.301 17.33C131.745 17.318 132.177 17.312 132.597 17.312C133.017 17.3 133.341 17.294 133.569 17.294C133.821 17.294 134.007 17.366 134.127 17.51C134.247 17.642 134.301 17.798 134.289 17.978C134.289 18.158 134.223 18.32 134.091 18.464C133.971 18.596 133.785 18.662 133.533 18.662C132.897 18.662 132.267 18.674 131.643 18.698C131.019 18.71 130.521 18.728 130.149 18.752L130.203 21.578C130.203 21.758 130.269 21.848 130.401 21.848C131.025 21.848 131.721 21.848 132.489 21.848C133.269 21.848 134.115 21.86 135.027 21.884C135.267 21.884 135.447 21.95 135.567 22.082C135.687 22.214 135.747 22.364 135.747 22.532C135.747 22.7 135.681 22.85 135.549 22.982C135.429 23.102 135.231 23.162 134.955 23.162Z" fill="#286F9B"/>
<path d="M141.834 22.496L141.87 14.324H139.422C139.17 14.324 138.972 14.252 138.828 14.108C138.696 13.964 138.624 13.802 138.612 13.622C138.6 13.442 138.654 13.28 138.774 13.136C138.906 12.992 139.11 12.92 139.386 12.92L145.506 12.884C145.758 12.884 145.95 12.956 146.082 13.1C146.214 13.244 146.274 13.412 146.262 13.604C146.262 13.784 146.196 13.946 146.064 14.09C145.932 14.234 145.734 14.306 145.47 14.306L143.364 14.324L143.31 22.514C143.31 22.754 143.232 22.934 143.076 23.054C142.932 23.174 142.764 23.234 142.572 23.234C142.38 23.234 142.206 23.174 142.05 23.054C141.906 22.934 141.834 22.748 141.834 22.496ZM152.758 22.748C152.614 22.556 152.362 22.262 152.002 21.866C151.642 21.47 151.228 21.038 150.76 20.57C150.304 20.09 149.842 19.646 149.374 19.238C149.386 19.754 149.392 20.324 149.392 20.948C149.404 21.56 149.404 22.088 149.392 22.532C149.392 22.772 149.32 22.952 149.176 23.072C149.032 23.204 148.87 23.27 148.69 23.27C148.51 23.27 148.348 23.204 148.204 23.072C148.06 22.952 147.988 22.766 147.988 22.514C147.988 22.322 147.982 22.016 147.97 21.596C147.97 21.164 147.964 20.666 147.952 20.102C147.94 19.538 147.928 18.95 147.916 18.338C147.904 17.726 147.892 17.138 147.88 16.574C147.88 15.998 147.88 15.494 147.88 15.062C147.88 14.63 147.88 14.318 147.88 14.126L147.682 14.144C147.442 14.144 147.262 14.084 147.142 13.964C147.022 13.844 146.962 13.7 146.962 13.532C146.962 13.364 147.022 13.214 147.142 13.082C147.262 12.938 147.436 12.854 147.664 12.83C149.992 12.602 151.654 12.734 152.65 13.226C153.646 13.706 154.126 14.51 154.09 15.638C154.078 16.106 153.952 16.514 153.712 16.862C153.484 17.21 153.196 17.498 152.848 17.726C152.5 17.954 152.128 18.134 151.732 18.266C151.336 18.398 150.97 18.494 150.634 18.554C151.102 18.974 151.546 19.4 151.966 19.832C152.398 20.252 152.776 20.642 153.1 21.002C153.436 21.35 153.694 21.632 153.874 21.848C154.042 22.04 154.114 22.238 154.09 22.442C154.066 22.634 153.976 22.796 153.82 22.928C153.676 23.048 153.502 23.102 153.298 23.09C153.106 23.078 152.926 22.964 152.758 22.748ZM149.32 17.402C149.98 17.39 150.562 17.3 151.066 17.132C151.57 16.964 151.966 16.742 152.254 16.466C152.542 16.19 152.692 15.896 152.704 15.584C152.728 15.128 152.572 14.786 152.236 14.558C151.9 14.318 151.462 14.162 150.922 14.09C150.394 14.018 149.842 14.006 149.266 14.054C149.278 14.27 149.284 14.582 149.284 14.99C149.296 15.398 149.302 15.824 149.302 16.268C149.314 16.7 149.32 17.078 149.32 17.402ZM156.337 22.604C156.265 22.832 156.139 22.988 155.959 23.072C155.791 23.156 155.617 23.174 155.437 23.126C155.257 23.09 155.119 22.994 155.023 22.838C154.927 22.682 154.921 22.478 155.005 22.226C155.173 21.698 155.353 21.182 155.545 20.678C155.737 20.174 155.893 19.73 156.013 19.346H155.995C155.767 19.346 155.599 19.28 155.491 19.148C155.383 19.004 155.335 18.842 155.347 18.662C155.359 18.482 155.425 18.326 155.545 18.194C155.665 18.05 155.845 17.978 156.085 17.978H156.499C156.955 16.67 157.339 15.626 157.651 14.846C157.963 14.066 158.161 13.598 158.245 13.442C158.401 13.166 158.611 13.034 158.875 13.046C159.151 13.058 159.367 13.202 159.523 13.478C159.595 13.598 159.793 14.06 160.117 14.864C160.453 15.668 160.861 16.706 161.341 17.978H161.737C161.989 17.978 162.175 18.05 162.295 18.194C162.427 18.326 162.493 18.488 162.493 18.68C162.505 18.86 162.451 19.022 162.331 19.166C162.223 19.298 162.061 19.364 161.845 19.364H161.809C161.941 19.748 162.103 20.18 162.295 20.66C162.487 21.14 162.673 21.644 162.853 22.172C162.925 22.4 162.913 22.586 162.817 22.73C162.721 22.874 162.583 22.97 162.403 23.018C162.223 23.066 162.043 23.054 161.863 22.982C161.695 22.91 161.575 22.766 161.503 22.55C161.311 22.022 161.113 21.482 160.909 20.93C160.705 20.366 160.519 19.832 160.351 19.328H157.453C157.285 19.82 157.099 20.36 156.895 20.948C156.691 21.524 156.505 22.076 156.337 22.604ZM157.957 17.978H159.883C159.799 17.702 159.691 17.384 159.559 17.024C159.427 16.664 159.301 16.316 159.181 15.98C159.061 15.644 158.959 15.386 158.875 15.206C158.815 15.398 158.731 15.662 158.623 15.998C158.515 16.322 158.401 16.664 158.281 17.024C158.161 17.372 158.053 17.69 157.957 17.978ZM166.209 23.252C165.801 23.252 165.411 23.012 165.039 22.532C164.667 22.04 164.325 21.368 164.013 20.516C163.701 19.652 163.419 18.656 163.167 17.528C162.915 16.388 162.693 15.17 162.501 13.874C162.465 13.598 162.507 13.388 162.627 13.244C162.759 13.088 162.921 12.998 163.113 12.974C163.317 12.95 163.497 12.998 163.653 13.118C163.821 13.238 163.917 13.43 163.941 13.694C164.061 14.75 164.223 15.764 164.427 16.736C164.631 17.696 164.847 18.554 165.075 19.31C165.315 20.054 165.537 20.642 165.741 21.074C165.945 21.506 166.101 21.722 166.209 21.722C166.293 21.722 166.443 21.512 166.659 21.092C166.887 20.66 167.145 20.072 167.433 19.328C167.733 18.572 168.021 17.714 168.297 16.754C168.585 15.782 168.825 14.756 169.017 13.676C169.065 13.436 169.167 13.268 169.323 13.172C169.491 13.076 169.665 13.046 169.845 13.082C170.037 13.118 170.193 13.214 170.313 13.37C170.433 13.526 170.463 13.73 170.403 13.982C170.127 15.302 169.821 16.526 169.485 17.654C169.161 18.782 168.813 19.766 168.441 20.606C168.069 21.446 167.691 22.1 167.307 22.568C166.935 23.024 166.569 23.252 166.209 23.252ZM177.518 23.162C176.666 23.15 175.808 23.144 174.944 23.144C174.08 23.144 173.216 23.138 172.352 23.126C172.088 23.126 171.854 23.036 171.65 22.856C171.458 22.676 171.362 22.454 171.362 22.19C171.362 22.07 171.356 21.794 171.344 21.362C171.344 20.918 171.344 20.384 171.344 19.76C171.344 19.136 171.338 18.494 171.326 17.834C171.314 17.162 171.308 16.532 171.308 15.944C171.308 15.356 171.302 14.876 171.29 14.504C171.29 14.132 171.29 13.94 171.29 13.928C171.29 13.688 171.374 13.49 171.542 13.334C171.71 13.166 171.932 13.076 172.208 13.064L177.5 12.938C177.728 12.938 177.908 13.004 178.04 13.136C178.172 13.268 178.244 13.43 178.256 13.622C178.28 13.802 178.226 13.964 178.094 14.108C177.962 14.24 177.752 14.312 177.464 14.324L172.82 14.432C172.736 14.432 172.694 14.492 172.694 14.612C172.694 14.78 172.694 15.02 172.694 15.332C172.694 15.644 172.694 15.98 172.694 16.34C172.694 16.7 172.694 17.048 172.694 17.384C173.03 17.36 173.42 17.342 173.864 17.33C174.308 17.318 174.74 17.312 175.16 17.312C175.58 17.3 175.904 17.294 176.132 17.294C176.384 17.294 176.57 17.366 176.69 17.51C176.81 17.642 176.864 17.798 176.852 17.978C176.852 18.158 176.786 18.32 176.654 18.464C176.534 18.596 176.348 18.662 176.096 18.662C175.46 18.662 174.83 18.674 174.206 18.698C173.582 18.71 173.084 18.728 172.712 18.752L172.766 21.578C172.766 21.758 172.832 21.848 172.964 21.848C173.588 21.848 174.284 21.848 175.052 21.848C175.832 21.848 176.678 21.86 177.59 21.884C177.83 21.884 178.01 21.95 178.13 22.082C178.25 22.214 178.31 22.364 178.31 22.532C178.31 22.7 178.244 22.85 178.112 22.982C177.992 23.102 177.794 23.162 177.518 23.162ZM185.636 23.126C185.132 23.138 184.562 23.138 183.926 23.126C183.29 23.126 182.672 23.114 182.072 23.09C181.472 23.066 180.962 23.036 180.542 23C180.122 22.952 179.87 22.892 179.786 22.82C179.702 22.748 179.636 22.55 179.588 22.226C179.552 21.89 179.534 21.374 179.534 20.678C179.534 19.982 179.552 19.07 179.588 17.942C179.636 16.802 179.702 15.398 179.786 13.73C179.798 13.466 179.876 13.28 180.02 13.172C180.176 13.052 180.344 12.998 180.524 13.01C180.716 13.022 180.878 13.1 181.01 13.244C181.154 13.376 181.22 13.562 181.208 13.802C181.148 15.446 181.1 16.778 181.064 17.798C181.04 18.806 181.022 19.586 181.01 20.138C180.998 20.69 180.998 21.074 181.01 21.29C181.034 21.506 181.058 21.632 181.082 21.668C181.094 21.692 181.238 21.716 181.514 21.74C181.79 21.752 182.15 21.77 182.594 21.794C183.05 21.806 183.542 21.818 184.07 21.83C184.61 21.83 185.138 21.824 185.654 21.812C185.906 21.8 186.092 21.86 186.212 21.992C186.332 22.124 186.392 22.28 186.392 22.46C186.392 22.628 186.326 22.784 186.194 22.928C186.074 23.06 185.888 23.126 185.636 23.126Z" fill="#77A6C5"/>
<path fill-rule="evenodd" clip-rule="evenodd" d="M163.644 81.6677C176.152 81.6677 186.289 71.531 186.289 59.0228C186.289 46.5169 176.152 36.3802 163.644 36.3802C151.138 36.3802 141 46.5169 141 59.0228C141 71.531 151.138 81.6677 163.644 81.6677ZM163.644 41.0617C173.355 41.0617 181.226 48.9332 181.226 58.6427C181.226 68.3539 173.355 76.2247 163.644 76.2248C153.934 76.2248 146.062 68.354 146.062 58.6427C146.062 48.9332 153.934 41.0617 163.644 41.0617ZM163.644 78.089C174.385 78.089 183.09 69.3832 183.09 58.6427C183.09 47.9038 174.385 39.1985 163.644 39.1984C152.904 39.1984 144.199 47.9038 144.199 58.6427C144.199 69.3833 152.904 78.089 163.644 78.089Z" fill="#EBF2F7"/>
<path fill-rule="evenodd" clip-rule="evenodd" d="M163.644 70.0333V73.1519V70.0333Z" stroke="#77A6C5" stroke-width="1.86375" stroke-linecap="round" stroke-linejoin="round"/>
<path fill-rule="evenodd" clip-rule="evenodd" d="M163.644 44.1344V47.253V44.1344Z" stroke="#77A6C5" stroke-width="1.86375" stroke-linecap="round" stroke-linejoin="round"/>
<path fill-rule="evenodd" clip-rule="evenodd" d="M152.254 58.6426H149.136H152.254Z" stroke="#77A6C5" stroke-width="1.86375" stroke-linecap="round" stroke-linejoin="round"/>
<path fill-rule="evenodd" clip-rule="evenodd" d="M178.153 58.6426H175.034H178.153Z" stroke="#77A6C5" stroke-width="1.86375" stroke-linecap="round" stroke-linejoin="round"/>
<path fill-rule="evenodd" clip-rule="evenodd" d="M155.591 50.5895L153.385 48.3845L155.591 50.5895Z" stroke="#77A6C5" stroke-width="1.86375" stroke-linecap="round" stroke-linejoin="round"/>
<path fill-rule="evenodd" clip-rule="evenodd" d="M173.904 68.9027L171.699 66.698L173.904 68.9027Z" stroke="#77A6C5" stroke-width="1.86375" stroke-linecap="round" stroke-linejoin="round"/>
<path fill-rule="evenodd" clip-rule="evenodd" d="M167.604 58.1165C167.503 57.2719 167.124 56.4612 166.476 55.813C165.827 55.1644 165.016 54.7846 164.171 54.6847L173.901 48.3865L167.604 58.1165Z" stroke="#4081AA" stroke-width="1.86375" stroke-linecap="round" stroke-linejoin="round"/>
<path fill-rule="evenodd" clip-rule="evenodd" d="M163.117 62.6025L153.388 68.8994L159.685 59.1707C159.786 60.0156 160.165 60.8261 160.813 61.4746C161.462 62.1231 162.273 62.5006 163.117 62.6025Z" stroke="#4081AA" stroke-width="1.86375" stroke-linecap="round" stroke-linejoin="round"/>
<path fill-rule="evenodd" clip-rule="evenodd" d="M166.476 61.4746C165.563 62.3869 164.307 62.7647 163.117 62.6025C162.273 62.5007 161.462 62.1231 160.813 61.4746C160.165 60.8261 159.786 60.0157 159.685 59.1707C159.523 57.9812 159.902 56.7242 160.813 55.813C161.726 54.9007 162.982 54.5229 164.171 54.6847C165.016 54.7846 165.828 55.1644 166.476 55.813C167.124 56.4612 167.503 57.2719 167.604 58.1165C167.766 59.3051 167.388 60.562 166.476 61.4746Z" stroke="#4081AA" stroke-width="1.86375" stroke-linecap="round" stroke-linejoin="round"/>
<path fill-rule="evenodd" clip-rule="evenodd" d="M186.289 58.6426C186.289 71.1509 176.152 81.2876 163.644 81.2876C151.138 81.2876 141 71.1509 141 58.6426C141 46.1367 151.138 36 163.644 36C176.152 36 186.289 46.1367 186.289 58.6426Z" stroke="#77A6C5" stroke-width="1.86375" stroke-linecap="round" stroke-linejoin="round"/>
<path d="M216.94 73.7078L224.56 70.7878L224.48 70.2078C224.453 69.9811 224.513 69.7878 224.66 69.6278C224.807 69.4678 224.987 69.3678 225.2 69.3278C225.413 69.2745 225.613 69.3011 225.8 69.4078C225.987 69.5145 226.107 69.7145 226.16 70.0078L226.18 70.2478L231.12 68.3878C231.387 68.3078 231.62 68.3211 231.82 68.4278C232.007 68.5211 232.133 68.6678 232.2 68.8678C232.28 69.0545 232.28 69.2545 232.2 69.4678C232.133 69.6678 231.973 69.8345 231.72 69.9678L226.28 71.9278C226.307 72.2745 226.327 72.6278 226.34 72.9878C226.353 73.3345 226.36 73.6678 226.36 73.9878C226.36 74.3878 226.353 74.7611 226.34 75.1078C226.327 75.4545 226.313 75.7811 226.3 76.0878C226.98 76.3145 227.653 76.5678 228.32 76.8478C228.973 77.1278 229.573 77.4478 230.12 77.8078C230.667 78.1678 231.107 78.6011 231.44 79.1078C231.773 79.6011 231.947 80.1811 231.96 80.8478C231.96 81.3811 231.84 81.8545 231.6 82.2678C231.347 82.6811 231.013 82.9745 230.6 83.1478C230.173 83.3211 229.713 83.3678 229.22 83.2878C228.727 83.2078 228.327 82.9878 228.02 82.6278C227.847 82.4278 227.773 82.2278 227.8 82.0278C227.813 81.8145 227.893 81.6345 228.04 81.4878C228.173 81.3411 228.347 81.2611 228.56 81.2478C228.76 81.2345 228.953 81.3211 229.14 81.5078C229.313 81.6678 229.507 81.7411 229.72 81.7278C229.92 81.7145 230.093 81.6345 230.24 81.4878C230.373 81.3278 230.433 81.1145 230.42 80.8478C230.42 80.3678 230.22 79.9411 229.82 79.5678C229.407 79.1811 228.88 78.8478 228.24 78.5678C227.6 78.2745 226.92 78.0145 226.2 77.7878C226.173 78.0145 226.153 78.2011 226.14 78.3478C226.127 78.4945 226.12 78.5811 226.12 78.6078C226.08 78.9011 225.973 79.1145 225.8 79.2478C225.613 79.3811 225.42 79.4411 225.22 79.4278C225.007 79.4011 224.827 79.3011 224.68 79.1278C224.533 78.9545 224.467 78.7145 224.48 78.4078C224.493 78.1945 224.527 77.8278 224.58 77.3078C223.233 76.8811 221.92 76.5011 220.64 76.1678C219.36 75.8345 218.187 75.5678 217.12 75.3678C216.76 75.3011 216.527 75.1478 216.42 74.9078C216.313 74.6678 216.313 74.4278 216.42 74.1878C216.513 73.9478 216.687 73.7878 216.94 73.7078ZM219.54 45.8078C219.247 46.1411 218.947 46.4545 218.64 46.7478C218.333 47.0411 218.087 47.2478 217.9 47.3678C217.647 47.5411 217.42 47.6078 217.22 47.5678C217.02 47.5278 216.867 47.4278 216.76 47.2678C216.653 47.1078 216.62 46.9278 216.66 46.7278C216.687 46.5278 216.8 46.3478 217 46.1878C217.187 46.0411 217.413 45.8478 217.68 45.6078C217.947 45.3545 218.187 45.1011 218.4 44.8478C218.6 44.6211 218.807 44.5011 219.02 44.4878C219.22 44.4745 219.393 44.5345 219.54 44.6678C219.687 44.8011 219.773 44.9745 219.8 45.1878C219.813 45.3878 219.727 45.5945 219.54 45.8078ZM219.66 74.3278C220.38 74.4878 221.187 74.6811 222.08 74.9078C222.96 75.1345 223.827 75.3678 224.68 75.6078C224.707 75.1411 224.72 74.6478 224.72 74.1278C224.72 73.5945 224.713 73.0545 224.7 72.5078L219.66 74.3278ZM221.62 33.4678C221.447 33.0011 221.407 32.5611 221.5 32.1478C221.58 31.7345 221.8 31.4011 222.16 31.1478C222.52 30.8945 223.033 30.7811 223.7 30.8078C223.9 30.8211 224.093 30.8411 224.28 30.8678C224.467 30.8945 224.687 30.9345 224.94 30.9878C225.073 30.6678 225.2 30.3145 225.32 29.9278C224.96 29.8611 224.573 29.7345 224.16 29.5478C223.747 29.3611 223.353 29.1078 222.98 28.7878C222.607 28.4545 222.3 28.0411 222.06 27.5478C221.807 27.0411 221.667 26.4478 221.64 25.7678C221.6 24.8745 221.693 24.1545 221.92 23.6078C222.147 23.0478 222.447 22.6278 222.82 22.3478C223.18 22.0678 223.573 21.8878 224 21.8078C224.413 21.7145 224.8 21.6811 225.16 21.7078C225.52 21.7211 225.793 21.7545 225.98 21.8078C226.433 21.9545 226.78 22.3345 227.02 22.9478C227.26 23.5611 227.4 24.3478 227.44 25.3078C227.467 26.2545 227.4 27.3078 227.24 28.4678C228.267 28.4011 229.107 28.0411 229.76 27.3878C230.4 26.7345 230.733 25.8811 230.76 24.8278C230.773 24.0278 230.673 23.3611 230.46 22.8278C230.233 22.2945 229.947 21.8678 229.6 21.5478C229.24 21.2278 228.867 20.9811 228.48 20.8078C228.093 20.6211 227.733 20.4945 227.4 20.4278C227.053 20.3478 226.793 20.2878 226.62 20.2478C226.367 20.1945 226.187 20.0745 226.08 19.8878C225.973 19.7011 225.94 19.5078 225.98 19.3078C226.02 19.0945 226.127 18.9278 226.3 18.8078C226.46 18.6745 226.693 18.6345 227 18.6878C227.2 18.7278 227.513 18.8011 227.94 18.9078C228.353 19.0011 228.813 19.1678 229.32 19.4078C229.827 19.6345 230.313 19.9678 230.78 20.4078C231.233 20.8478 231.607 21.4278 231.9 22.1478C232.18 22.8678 232.307 23.7611 232.28 24.8278C232.253 25.8411 232.02 26.7411 231.58 27.5278C231.127 28.3011 230.52 28.9145 229.76 29.3678C229 29.8211 228.14 30.0678 227.18 30.1078C227.1 30.1211 227.013 30.1278 226.92 30.1278C226.8 30.5945 226.667 31.0145 226.52 31.3878C227.213 31.6011 227.893 31.8545 228.56 32.1478C229.227 32.4411 229.827 32.7678 230.36 33.1278C230.893 33.4745 231.32 33.8411 231.64 34.2278C231.96 34.6011 232.12 34.9811 232.12 35.3678C232.133 35.9145 231.967 36.3878 231.62 36.7878C231.273 37.1878 230.807 37.5278 230.22 37.8078C229.62 38.0745 228.967 38.3011 228.26 38.4878C227.54 38.6611 226.82 38.8078 226.1 38.9278C225.38 39.0345 224.72 39.1278 224.12 39.2078C224.147 39.3145 224.173 39.4345 224.2 39.5678C224.213 39.6878 224.22 39.8278 224.22 39.9878C224.207 40.2945 224.12 40.5145 223.96 40.6478C223.8 40.7811 223.62 40.8478 223.42 40.8478C223.207 40.8345 223.02 40.7611 222.86 40.6278C222.7 40.4811 222.627 40.2811 222.64 40.0278C222.64 39.7611 222.6 39.5811 222.52 39.4878C222.44 39.3811 222.387 39.3211 222.36 39.3078C222.107 39.1611 221.947 38.9611 221.88 38.7078C221.813 38.4545 221.847 38.2211 221.98 38.0078C222.1 37.7945 222.313 37.6811 222.62 37.6678C223.527 37.6011 224.44 37.5011 225.36 37.3678C226.28 37.2345 227.127 37.0745 227.9 36.8878C228.673 36.7011 229.3 36.4878 229.78 36.2478C230.247 35.9945 230.487 35.7145 230.5 35.4078C230.473 35.2611 230.24 35.0278 229.8 34.7078C229.347 34.3878 228.767 34.0545 228.06 33.7078C227.353 33.3611 226.593 33.0811 225.78 32.8678C225.38 33.4278 224.993 33.8411 224.62 34.1078C224.233 34.3745 223.853 34.5345 223.48 34.5878C223.16 34.6278 222.813 34.5745 222.44 34.4278C222.067 34.2811 221.793 33.9611 221.62 33.4678ZM221.68 58.7278C221.693 58.4345 221.78 58.2145 221.94 58.0678C222.1 57.9078 222.287 57.8278 222.5 57.8278C222.7 57.8145 222.887 57.8811 223.06 58.0278C223.22 58.1745 223.307 58.3945 223.32 58.6878C223.32 58.8345 223.347 59.0211 223.4 59.2478C223.44 59.4745 223.567 59.6945 223.78 59.9078C224.007 59.8411 224.32 59.7745 224.72 59.7078C225.107 59.6278 225.553 59.5678 226.06 59.5278C226.593 59.4745 227.233 59.4278 227.98 59.3878C228.713 59.3478 229.507 59.3345 230.36 59.3478C231.213 59.3478 232.073 59.3945 232.94 59.4878C233.807 59.5678 234.64 59.7145 235.44 59.9278C236.24 60.1278 236.953 60.4078 237.58 60.7678C238.207 61.1145 238.707 61.5611 239.08 62.1078C239.453 62.6545 239.647 63.3078 239.66 64.0678C239.673 64.7878 239.567 65.3745 239.34 65.8278C239.113 66.2678 238.84 66.6078 238.52 66.8478C238.213 67.0878 237.927 67.2545 237.66 67.3478C237.407 67.4411 237.26 67.4945 237.22 67.5078C236.953 67.5745 236.733 67.5478 236.56 67.4278C236.4 67.3078 236.293 67.1478 236.24 66.9478C236.2 66.7478 236.22 66.5545 236.3 66.3678C236.38 66.1678 236.533 66.0345 236.76 65.9678C236.813 65.9545 236.913 65.9211 237.06 65.8678C237.22 65.8145 237.387 65.7211 237.56 65.5878C237.747 65.4545 237.9 65.2678 238.02 65.0278C238.14 64.7745 238.193 64.4478 238.18 64.0478C238.167 63.5145 237.967 63.0545 237.58 62.6678C237.193 62.2811 236.66 61.9611 235.98 61.7078C235.313 61.4411 234.547 61.2411 233.68 61.1078C232.827 60.9745 231.92 60.9011 230.96 60.8878C231.293 61.0878 231.607 61.4211 231.9 61.8878C232.193 62.3411 232.353 62.8945 232.38 63.5478C232.407 64.3078 232.307 64.9411 232.08 65.4478C231.867 65.9545 231.58 66.3611 231.22 66.6678C230.847 66.9611 230.447 67.1811 230.02 67.3278C229.58 67.4745 229.16 67.5745 228.76 67.6278C228.347 67.6811 228 67.7078 227.72 67.7078C226.653 67.7078 225.753 67.5611 225.02 67.2678C224.273 66.9745 223.667 66.5878 223.2 66.1078C222.733 65.6278 222.393 65.1011 222.18 64.5278C221.967 63.9545 221.853 63.3945 221.84 62.8478C221.827 62.1011 222.04 61.4678 222.48 60.9478C222.227 60.6545 222.047 60.3545 221.94 60.0478C221.82 59.7411 221.747 59.4678 221.72 59.2278C221.693 58.9878 221.68 58.8211 221.68 58.7278ZM221.98 53.8678C221.82 53.3611 221.813 52.7745 221.96 52.1078C222.093 51.4411 222.473 50.8011 223.1 50.1878C223.287 50.0011 223.487 49.9211 223.7 49.9478C223.9 49.9611 224.08 50.0411 224.24 50.1878C224.387 50.3345 224.473 50.5211 224.5 50.7478C224.513 50.9611 224.413 51.1745 224.2 51.3878C223.867 51.7478 223.667 52.0811 223.6 52.3878C223.52 52.6811 223.5 52.9145 223.54 53.0878C223.58 53.3278 223.7 53.5611 223.9 53.7878C224.087 54.0011 224.207 54.1078 224.26 54.1078C225.38 54.1078 226.573 54.1145 227.84 54.1278C229.093 54.1278 230.313 54.1278 231.5 54.1278C231.767 54.1278 231.967 54.2145 232.1 54.3878C232.233 54.5478 232.3 54.7411 232.3 54.9678C232.313 55.1945 232.253 55.3945 232.12 55.5678C231.987 55.7411 231.78 55.8278 231.5 55.8278C230.313 55.8278 229.107 55.8278 227.88 55.8278C226.64 55.8145 225.447 55.8211 224.3 55.8478C224.047 55.8478 223.873 55.9345 223.78 56.1078C223.687 56.2811 223.627 56.4011 223.6 56.4678C223.493 56.7611 223.34 56.9411 223.14 57.0078C222.927 57.0745 222.727 57.0611 222.54 56.9678C222.34 56.8745 222.193 56.7278 222.1 56.5278C221.993 56.3278 221.98 56.1078 222.06 55.8678C222.073 55.8011 222.127 55.6811 222.22 55.5078C222.313 55.3345 222.447 55.1478 222.62 54.9478C222.473 54.7345 222.34 54.5211 222.22 54.3078C222.087 54.0945 222.007 53.9478 221.98 53.8678ZM221.94 45.0678C221.94 44.7345 221.987 44.4278 222.08 44.1478C222.16 43.8678 222.347 43.5411 222.64 43.1678C222.44 43.1545 222.3 43.0611 222.22 42.8878C222.127 42.7011 222.093 42.5011 222.12 42.2878C222.147 42.0611 222.233 41.8678 222.38 41.7078C222.513 41.5478 222.713 41.4745 222.98 41.4878C223.34 41.5145 223.807 41.5478 224.38 41.5878C224.953 41.6145 225.547 41.6478 226.16 41.6878C226.773 41.7145 227.333 41.7411 227.84 41.7678C228.333 41.7945 228.687 41.8078 228.9 41.8078C229.327 41.8211 229.687 41.8278 229.98 41.8278C230.26 41.8278 230.433 41.7211 230.5 41.5078C230.58 41.2678 230.713 41.1078 230.9 41.0278C231.073 40.9345 231.253 40.9145 231.44 40.9678C231.627 41.0211 231.78 41.1278 231.9 41.2878C232.02 41.4478 232.067 41.6411 232.04 41.8678C231.973 42.2278 231.853 42.5145 231.68 42.7278C231.507 42.9278 231.3 43.0811 231.06 43.1878C231.393 43.5611 231.667 44.0011 231.88 44.5078C232.08 45.0011 232.18 45.5545 232.18 46.1678C232.18 47.4345 231.793 48.4345 231.02 49.1678C230.553 49.5945 229.987 49.9011 229.32 50.0878C228.653 50.2745 227.993 50.3278 227.34 50.2478C226.327 50.1411 225.413 49.8545 224.6 49.3878C223.787 48.9078 223.14 48.3011 222.66 47.5678C222.167 46.8211 221.927 45.9878 221.94 45.0678ZM222.84 32.6278C222.84 32.7878 222.9 32.8945 223.02 32.9478C223.127 33.0011 223.22 33.0211 223.3 33.0078C223.42 32.9945 223.56 32.9478 223.72 32.8678C223.88 32.7745 224.047 32.6411 224.22 32.4678C224.113 32.4411 223.993 32.4145 223.86 32.3878C223.713 32.3611 223.6 32.3411 223.52 32.3278C223.293 32.3145 223.133 32.3278 223.04 32.3678C222.947 32.4078 222.88 32.4945 222.84 32.6278ZM223.24 25.6478C223.267 26.2878 223.42 26.7878 223.7 27.1478C223.98 27.5078 224.307 27.7745 224.68 27.9478C225.053 28.1211 225.387 28.2345 225.68 28.2878C225.853 27.2878 225.927 26.4345 225.9 25.7278C225.86 25.0211 225.787 24.4745 225.68 24.0878C225.573 23.6878 225.5 23.4611 225.46 23.4078C225.327 23.3678 225.133 23.3411 224.88 23.3278C224.613 23.3011 224.353 23.3411 224.1 23.4478C223.833 23.5545 223.613 23.7811 223.44 24.1278C223.267 24.4611 223.2 24.9678 223.24 25.6478ZM223.46 62.8078C223.46 63.3011 223.593 63.8011 223.86 64.3078C224.113 64.8011 224.553 65.2211 225.18 65.5678C225.793 65.9011 226.633 66.0745 227.7 66.0878C228.02 66.0878 228.36 66.0611 228.72 66.0078C229.08 65.9411 229.42 65.8278 229.74 65.6678C230.06 65.4945 230.32 65.2478 230.52 64.9278C230.72 64.5945 230.8 64.1611 230.76 63.6278C230.733 63.0011 230.4 62.4478 229.76 61.9678C229.107 61.4878 228.22 61.2145 227.1 61.1478C226.54 61.1211 225.98 61.1545 225.42 61.2478C224.86 61.3411 224.393 61.5145 224.02 61.7678C223.647 62.0078 223.46 62.3545 223.46 62.8078ZM223.48 45.0478C223.48 45.6078 223.613 46.1011 223.88 46.5278C224.133 46.9545 224.467 47.3211 224.88 47.6278C225.28 47.9211 225.713 48.1545 226.18 48.3278C226.647 48.5011 227.093 48.6078 227.52 48.6478C227.947 48.7011 228.38 48.6678 228.82 48.5478C229.247 48.4145 229.6 48.2211 229.88 47.9678C230.12 47.7278 230.32 47.4545 230.48 47.1478C230.627 46.8278 230.693 46.4478 230.68 46.0078C230.667 45.4878 230.467 44.9678 230.08 44.4478C229.693 43.9278 229.113 43.5878 228.34 43.4278C228.233 43.4011 228.033 43.3745 227.74 43.3478C227.447 43.3211 227.113 43.2945 226.74 43.2678C226.353 43.2411 225.98 43.2278 225.62 43.2278C225.247 43.2145 224.933 43.2145 224.68 43.2278C224.427 43.2278 224.213 43.3411 224.04 43.5678C223.853 43.7945 223.713 44.0545 223.62 44.3478C223.527 44.6278 223.48 44.8611 223.48 45.0478Z" fill="#77A6C5"/>
</svg>
