<svg width="255" height="100" viewBox="0 0 255 100" fill="none" xmlns="http://www.w3.org/2000/svg">
<path fill-rule="evenodd" clip-rule="evenodd" d="M199.999 21.8748C198.275 21.8748 196.874 20.4746 196.874 18.7499C196.874 17.0252 198.275 15.6249 199.999 15.6249C201.724 15.6249 203.124 17.0252 203.124 18.7499C203.124 20.4746 201.724 21.8748 199.999 21.8748ZM199.999 34.3751C198.275 34.3751 196.874 32.9748 196.874 31.2501C196.874 29.5251 198.275 28.1248 199.999 28.1248C201.724 28.1248 203.124 29.5251 203.124 31.2501C203.124 32.9748 201.724 34.3751 199.999 34.3751ZM199.999 46.875C198.275 46.875 196.874 45.4747 196.874 43.75C196.874 42.0254 198.275 40.6247 199.999 40.6247C201.724 40.6247 203.124 42.0254 203.124 43.75C203.124 45.4747 201.724 46.875 199.999 46.875ZM199.999 59.3753C198.275 59.3753 196.874 57.9747 196.874 56.25C196.874 54.5253 198.275 53.125 199.999 53.125C201.724 53.125 203.124 54.5253 203.124 56.25C203.124 57.9747 201.724 59.3753 199.999 59.3753ZM199.999 71.8748C198.275 71.8748 196.874 70.4749 196.874 68.7502C196.874 67.0252 198.275 65.6253 199.999 65.6253C201.724 65.6253 203.124 67.0252 203.124 68.7502C203.124 70.4749 201.724 71.8748 199.999 71.8748ZM199.999 84.3751C198.275 84.3751 196.874 82.9748 196.874 81.2501C196.874 79.5254 198.275 78.1252 199.999 78.1252C201.724 78.1252 203.124 79.5254 203.124 81.2501C203.124 82.9748 201.724 84.3751 199.999 84.3751ZM255 15.6249V9.37493C249.825 9.37493 245.625 5.17409 245.625 0H209.374C209.374 5.17409 205.174 9.37493 199.999 9.37493C194.824 9.37493 190.624 5.17409 190.624 0H9.37523C9.37523 5.17409 5.17518 9.37493 0 9.37493V15.6249C1.72468 15.6249 3.12495 17.0252 3.12495 18.7499C3.12495 20.4746 1.72468 21.8748 0 21.8748V28.1248C1.72468 28.1248 3.12495 29.5251 3.12495 31.2501C3.12495 32.9748 1.72468 34.3751 0 34.3751V40.6247C1.72468 40.6247 3.12495 42.0253 3.12495 43.75C3.12495 45.4747 1.72468 46.875 0 46.875V53.125C1.72468 53.125 3.12495 54.5253 3.12495 56.25C3.12495 57.9747 1.72468 59.3753 0 59.3753V65.6253C1.72468 65.6253 3.12495 67.0252 3.12495 68.7502C3.12495 70.4749 1.72468 71.8748 0 71.8748V78.1252C1.72468 78.1252 3.12495 79.5254 3.12495 81.2501C3.12495 82.9748 1.72468 84.3751 0 84.3751V90.6251C5.17518 90.6251 9.37523 94.8244 9.37523 100H190.624C190.624 94.8244 194.824 90.6251 199.999 90.6251C205.174 90.6251 209.374 94.8244 209.374 100H245.625C245.625 94.8244 249.825 90.6251 255 90.6251V84.3751C253.275 84.3751 251.875 82.9748 251.875 81.2501C251.875 79.5254 253.275 78.1252 255 78.1252V71.8748C253.275 71.8748 251.875 70.4749 251.875 68.7502C251.875 67.0252 253.275 65.6253 255 65.6253V59.3753C253.275 59.3753 251.875 57.9747 251.875 56.25C251.875 54.5253 253.275 53.125 255 53.125V46.875C253.275 46.875 251.875 45.4747 251.875 43.75C251.875 42.0253 253.275 40.6247 255 40.6247V34.3751C253.275 34.3751 251.875 32.9748 251.875 31.2501C251.875 29.5251 253.275 28.1248 255 28.1248V21.8748C253.275 21.8748 251.875 20.4746 251.875 18.7499C251.875 17.0252 253.275 15.6249 255 15.6249Z" fill="#D0D9D4"/>
<path fill-rule="evenodd" clip-rule="evenodd" d="M158 35H161H158Z" stroke="#84948B" stroke-width="1.86119" stroke-linecap="round" stroke-linejoin="round"/>
<path fill-rule="evenodd" clip-rule="evenodd" d="M152 35H149H152Z" stroke="#84948B" stroke-width="1.86119" stroke-linecap="round" stroke-linejoin="round"/>
<path fill-rule="evenodd" clip-rule="evenodd" d="M186 72H183H186Z" stroke="#84948B" stroke-width="1.86119" stroke-linecap="round" stroke-linejoin="round"/>
<path fill-rule="evenodd" clip-rule="evenodd" d="M186 78H178H186Z" stroke="#84948B" stroke-width="1.86119" stroke-linecap="round" stroke-linejoin="round"/>
<path fill-rule="evenodd" clip-rule="evenodd" d="M119 42H122H119Z" stroke="#84948B" stroke-width="1.86119" stroke-linecap="round" stroke-linejoin="round"/>
<path fill-rule="evenodd" clip-rule="evenodd" d="M113 42H110H113Z" stroke="#84948B" stroke-width="1.86119" stroke-linecap="round" stroke-linejoin="round"/>
<path fill-rule="evenodd" clip-rule="evenodd" d="M85 79H95H85Z" stroke="#84948B" stroke-width="1.86119" stroke-linecap="round" stroke-linejoin="round"/>
<path fill-rule="evenodd" clip-rule="evenodd" d="M85 84H92H85Z" stroke="#84948B" stroke-width="1.86119" stroke-linecap="round" stroke-linejoin="round"/>
<path fill-rule="evenodd" clip-rule="evenodd" d="M140 33H143H140Z" stroke="#84948B" stroke-width="1.86119" stroke-linecap="round" stroke-linejoin="round"/>
<path fill-rule="evenodd" clip-rule="evenodd" d="M133 33H130H133Z" stroke="#84948B" stroke-width="1.86119" stroke-linecap="round" stroke-linejoin="round"/>
<path fill-rule="evenodd" clip-rule="evenodd" d="M127 93V82.0358C127 77.0453 131.254 73 136.502 73C141.746 73 146 77.0453 146 82.0358V93" fill="#E8ECEA"/>
<path fill-rule="evenodd" clip-rule="evenodd" d="M170 78H149H170Z" stroke="#84948B" stroke-width="1.86119" stroke-linecap="round" stroke-linejoin="round"/>
<path fill-rule="evenodd" clip-rule="evenodd" d="M170 85H149H170Z" stroke="#84948B" stroke-width="1.86119" stroke-linecap="round" stroke-linejoin="round"/>
<path fill-rule="evenodd" clip-rule="evenodd" d="M102 78H124H102Z" stroke="#84948B" stroke-width="1.86119" stroke-linecap="round" stroke-linejoin="round"/>
<path fill-rule="evenodd" clip-rule="evenodd" d="M103 85H123H103Z" stroke="#84948B" stroke-width="1.86119" stroke-linecap="round" stroke-linejoin="round"/>
<path d="M16.63 20.478C16.63 20.07 16.63 19.548 16.63 18.912C16.63 18.276 16.624 17.598 16.612 16.878C16.612 16.146 16.612 15.438 16.612 14.754C16.612 14.07 16.612 13.476 16.612 12.972C16.612 12.456 16.612 12.102 16.612 11.91C16.612 11.394 16.906 11.124 17.494 11.1C18.562 11.076 19.588 11.058 20.572 11.046C21.568 11.022 22.498 11.004 23.362 10.992C23.614 10.992 23.8 11.064 23.92 11.208C24.052 11.34 24.118 11.496 24.118 11.676C24.118 11.856 24.058 12.018 23.938 12.162C23.83 12.306 23.656 12.378 23.416 12.378C22.612 12.39 21.742 12.408 20.806 12.432C19.882 12.444 18.952 12.462 18.016 12.486L18.034 15.24L21.742 15.222C21.982 15.222 22.156 15.294 22.264 15.438C22.384 15.582 22.444 15.744 22.444 15.924C22.444 16.104 22.384 16.266 22.264 16.41C22.144 16.554 21.958 16.626 21.706 16.626L17.998 16.644L18.034 20.46C18.034 20.7 17.962 20.88 17.818 21C17.686 21.12 17.524 21.18 17.332 21.18C17.152 21.192 16.99 21.138 16.846 21.018C16.702 20.898 16.63 20.718 16.63 20.478ZM30.8556 21.162C30.0036 21.15 29.1456 21.144 28.2816 21.144C27.4176 21.144 26.5536 21.138 25.6896 21.126C25.4256 21.126 25.1916 21.036 24.9876 20.856C24.7956 20.676 24.6996 20.454 24.6996 20.19C24.6996 20.07 24.6936 19.794 24.6816 19.362C24.6816 18.918 24.6816 18.384 24.6816 17.76C24.6816 17.136 24.6756 16.494 24.6636 15.834C24.6516 15.162 24.6456 14.532 24.6456 13.944C24.6456 13.356 24.6396 12.876 24.6276 12.504C24.6276 12.132 24.6276 11.94 24.6276 11.928C24.6276 11.688 24.7116 11.49 24.8796 11.334C25.0476 11.166 25.2696 11.076 25.5456 11.064L30.8376 10.938C31.0656 10.938 31.2456 11.004 31.3776 11.136C31.5096 11.268 31.5816 11.43 31.5936 11.622C31.6176 11.802 31.5636 11.964 31.4316 12.108C31.2996 12.24 31.0896 12.312 30.8016 12.324L26.1576 12.432C26.0736 12.432 26.0316 12.492 26.0316 12.612C26.0316 12.78 26.0316 13.02 26.0316 13.332C26.0316 13.644 26.0316 13.98 26.0316 14.34C26.0316 14.7 26.0316 15.048 26.0316 15.384C26.3676 15.36 26.7576 15.342 27.2016 15.33C27.6456 15.318 28.0776 15.312 28.4976 15.312C28.9176 15.3 29.2416 15.294 29.4696 15.294C29.7216 15.294 29.9076 15.366 30.0276 15.51C30.1476 15.642 30.2016 15.798 30.1896 15.978C30.1896 16.158 30.1236 16.32 29.9916 16.464C29.8716 16.596 29.6856 16.662 29.4336 16.662C28.7976 16.662 28.1676 16.674 27.5436 16.698C26.9196 16.71 26.4216 16.728 26.0496 16.752L26.1036 19.578C26.1036 19.758 26.1696 19.848 26.3016 19.848C26.9256 19.848 27.6216 19.848 28.3896 19.848C29.1696 19.848 30.0156 19.86 30.9276 19.884C31.1676 19.884 31.3476 19.95 31.4676 20.082C31.5876 20.214 31.6476 20.364 31.6476 20.532C31.6476 20.7 31.5816 20.85 31.4496 20.982C31.3296 21.102 31.1316 21.162 30.8556 21.162ZM35.5171 21.252C34.9531 21.252 34.4731 21.18 34.0771 21.036C33.6811 20.904 33.3571 20.748 33.1051 20.568C32.8651 20.376 32.6791 20.202 32.5471 20.046C32.4151 19.878 32.3311 19.764 32.2951 19.704C32.1511 19.488 32.1031 19.29 32.1511 19.11C32.1991 18.918 32.3011 18.774 32.4571 18.678C32.6251 18.57 32.8051 18.534 32.9971 18.57C33.1891 18.594 33.3511 18.708 33.4831 18.912C33.6871 19.224 33.9631 19.482 34.3111 19.686C34.6591 19.878 35.0731 19.98 35.5531 19.992C36.0691 20.004 36.5011 19.926 36.8491 19.758C37.2091 19.59 37.4851 19.386 37.6771 19.146C37.8691 18.906 37.9651 18.684 37.9651 18.48C37.9771 18.06 37.8871 17.724 37.6951 17.472C37.5031 17.22 37.2211 17.01 36.8491 16.842C36.4771 16.662 36.0151 16.494 35.4631 16.338C34.9831 16.194 34.5091 16.014 34.0411 15.798C33.5851 15.582 33.2011 15.3 32.8891 14.952C32.5891 14.592 32.4391 14.142 32.4391 13.602C32.4391 12.75 32.7451 12.078 33.3571 11.586C33.9691 11.082 34.7851 10.824 35.8051 10.812C37.0051 10.788 37.9171 11.118 38.5411 11.802C38.7091 11.982 38.7811 12.168 38.7571 12.36C38.7451 12.54 38.6731 12.696 38.5411 12.828C38.4091 12.948 38.2471 13.014 38.0551 13.026C37.8751 13.038 37.6951 12.96 37.5151 12.792C37.2871 12.576 37.0471 12.414 36.7951 12.306C36.5431 12.186 36.2191 12.132 35.8231 12.144C35.2231 12.156 34.7491 12.3 34.4011 12.576C34.0651 12.84 33.8971 13.176 33.8971 13.584C33.8971 13.884 34.0531 14.154 34.3651 14.394C34.6771 14.622 35.2111 14.862 35.9671 15.114C36.3511 15.234 36.7411 15.372 37.1371 15.528C37.5451 15.672 37.9171 15.864 38.2531 16.104C38.6011 16.332 38.8771 16.638 39.0811 17.022C39.2851 17.406 39.3751 17.898 39.3511 18.498C39.3271 19.29 38.9731 19.95 38.2891 20.478C37.6171 21.006 36.6931 21.264 35.5171 21.252ZM42.5274 20.496L42.5634 12.324H40.1154C39.8634 12.324 39.6654 12.252 39.5214 12.108C39.3894 11.964 39.3174 11.802 39.3054 11.622C39.2934 11.442 39.3474 11.28 39.4674 11.136C39.5994 10.992 39.8034 10.92 40.0794 10.92L46.1994 10.884C46.4514 10.884 46.6434 10.956 46.7754 11.1C46.9074 11.244 46.9674 11.412 46.9554 11.604C46.9554 11.784 46.8894 11.946 46.7574 12.09C46.6254 12.234 46.4274 12.306 46.1634 12.306L44.0574 12.324L44.0034 20.514C44.0034 20.754 43.9254 20.934 43.7694 21.054C43.6254 21.174 43.4574 21.234 43.2654 21.234C43.0734 21.234 42.8994 21.174 42.7434 21.054C42.5994 20.934 42.5274 20.748 42.5274 20.496ZM48.1992 21.198C47.9712 21.21 47.7972 21.15 47.6772 21.018C47.5572 20.898 47.4912 20.754 47.4792 20.586C47.4672 20.418 47.5152 20.268 47.6232 20.136C47.7312 20.004 47.9052 19.932 48.1452 19.92L48.6672 19.902C48.6792 18.39 48.6792 17.016 48.6672 15.78C48.6672 14.544 48.6732 13.374 48.6852 12.27C48.6132 12.258 48.5292 12.252 48.4332 12.252C48.3372 12.252 48.2412 12.246 48.1452 12.234C47.9052 12.21 47.7312 12.132 47.6232 12C47.5152 11.856 47.4672 11.7 47.4792 11.532C47.4912 11.352 47.5632 11.202 47.6952 11.082C47.8272 10.95 48.0132 10.89 48.2532 10.902C48.6372 10.914 49.0452 10.926 49.4772 10.938C49.9212 10.95 50.2932 10.95 50.5932 10.938C50.8212 10.938 50.9892 10.998 51.0972 11.118C51.2172 11.238 51.2772 11.382 51.2772 11.55C51.2892 11.718 51.2412 11.874 51.1332 12.018C51.0252 12.162 50.8572 12.246 50.6292 12.27C50.5452 12.282 50.4372 12.288 50.3052 12.288C50.1852 12.288 50.0892 12.288 50.0172 12.288C50.0172 13.392 50.0172 14.556 50.0172 15.78C50.0172 16.992 50.0172 18.348 50.0172 19.848L50.3952 19.83C50.6352 19.83 50.8152 19.896 50.9352 20.028C51.0552 20.148 51.1152 20.292 51.1152 20.46C51.1272 20.628 51.0732 20.778 50.9532 20.91C50.8452 21.042 50.6712 21.114 50.4312 21.126L48.1992 21.198ZM55.5294 21.252C55.1214 21.252 54.7314 21.012 54.3594 20.532C53.9874 20.04 53.6454 19.368 53.3334 18.516C53.0214 17.652 52.7394 16.656 52.4874 15.528C52.2354 14.388 52.0134 13.17 51.8214 11.874C51.7854 11.598 51.8274 11.388 51.9474 11.244C52.0794 11.088 52.2414 10.998 52.4334 10.974C52.6374 10.95 52.8174 10.998 52.9734 11.118C53.1414 11.238 53.2374 11.43 53.2614 11.694C53.3814 12.75 53.5434 13.764 53.7474 14.736C53.9514 15.696 54.1674 16.554 54.3954 17.31C54.6354 18.054 54.8574 18.642 55.0614 19.074C55.2654 19.506 55.4214 19.722 55.5294 19.722C55.6134 19.722 55.7634 19.512 55.9794 19.092C56.2074 18.66 56.4654 18.072 56.7534 17.328C57.0534 16.572 57.3414 15.714 57.6174 14.754C57.9054 13.782 58.1454 12.756 58.3374 11.676C58.3854 11.436 58.4874 11.268 58.6434 11.172C58.8114 11.076 58.9854 11.046 59.1654 11.082C59.3574 11.118 59.5134 11.214 59.6334 11.37C59.7534 11.526 59.7834 11.73 59.7234 11.982C59.4474 13.302 59.1414 14.526 58.8054 15.654C58.4814 16.782 58.1334 17.766 57.7614 18.606C57.3894 19.446 57.0114 20.1 56.6274 20.568C56.2554 21.024 55.8894 21.252 55.5294 21.252ZM60.3704 20.604C60.2984 20.832 60.1724 20.988 59.9924 21.072C59.8244 21.156 59.6504 21.174 59.4704 21.126C59.2904 21.09 59.1524 20.994 59.0564 20.838C58.9604 20.682 58.9544 20.478 59.0384 20.226C59.2064 19.698 59.3864 19.182 59.5784 18.678C59.7704 18.174 59.9264 17.73 60.0464 17.346H60.0284C59.8004 17.346 59.6324 17.28 59.5244 17.148C59.4164 17.004 59.3684 16.842 59.3804 16.662C59.3924 16.482 59.4584 16.326 59.5784 16.194C59.6984 16.05 59.8784 15.978 60.1184 15.978H60.5324C60.9884 14.67 61.3724 13.626 61.6844 12.846C61.9964 12.066 62.1944 11.598 62.2784 11.442C62.4344 11.166 62.6444 11.034 62.9084 11.046C63.1844 11.058 63.4004 11.202 63.5564 11.478C63.6284 11.598 63.8264 12.06 64.1504 12.864C64.4864 13.668 64.8944 14.706 65.3744 15.978H65.7704C66.0224 15.978 66.2084 16.05 66.3284 16.194C66.4604 16.326 66.5264 16.488 66.5264 16.68C66.5384 16.86 66.4844 17.022 66.3644 17.166C66.2564 17.298 66.0944 17.364 65.8784 17.364H65.8424C65.9744 17.748 66.1364 18.18 66.3284 18.66C66.5204 19.14 66.7064 19.644 66.8864 20.172C66.9584 20.4 66.9464 20.586 66.8504 20.73C66.7544 20.874 66.6164 20.97 66.4364 21.018C66.2564 21.066 66.0764 21.054 65.8964 20.982C65.7284 20.91 65.6084 20.766 65.5364 20.55C65.3444 20.022 65.1464 19.482 64.9424 18.93C64.7384 18.366 64.5524 17.832 64.3844 17.328H61.4864C61.3184 17.82 61.1324 18.36 60.9284 18.948C60.7244 19.524 60.5384 20.076 60.3704 20.604ZM61.9904 15.978H63.9164C63.8324 15.702 63.7244 15.384 63.5924 15.024C63.4604 14.664 63.3344 14.316 63.2144 13.98C63.0944 13.644 62.9924 13.386 62.9084 13.206C62.8484 13.398 62.7644 13.662 62.6564 13.998C62.5484 14.322 62.4344 14.664 62.3144 15.024C62.1944 15.372 62.0864 15.69 61.9904 15.978ZM74.0597 21.126C73.5557 21.138 72.9857 21.138 72.3497 21.126C71.7137 21.126 71.0957 21.114 70.4957 21.09C69.8957 21.066 69.3857 21.036 68.9657 21C68.5457 20.952 68.2937 20.892 68.2097 20.82C68.1257 20.748 68.0597 20.55 68.0117 20.226C67.9757 19.89 67.9577 19.374 67.9577 18.678C67.9577 17.982 67.9757 17.07 68.0117 15.942C68.0597 14.802 68.1257 13.398 68.2097 11.73C68.2217 11.466 68.2997 11.28 68.4437 11.172C68.5997 11.052 68.7677 10.998 68.9477 11.01C69.1397 11.022 69.3017 11.1 69.4337 11.244C69.5777 11.376 69.6437 11.562 69.6317 11.802C69.5717 13.446 69.5237 14.778 69.4877 15.798C69.4637 16.806 69.4457 17.586 69.4337 18.138C69.4217 18.69 69.4217 19.074 69.4337 19.29C69.4577 19.506 69.4817 19.632 69.5057 19.668C69.5177 19.692 69.6617 19.716 69.9377 19.74C70.2137 19.752 70.5737 19.77 71.0177 19.794C71.4737 19.806 71.9657 19.818 72.4937 19.83C73.0337 19.83 73.5617 19.824 74.0777 19.812C74.3297 19.8 74.5157 19.86 74.6357 19.992C74.7557 20.124 74.8157 20.28 74.8157 20.46C74.8157 20.628 74.7497 20.784 74.6177 20.928C74.4977 21.06 74.3117 21.126 74.0597 21.126Z" fill="#77867E"/>
<path d="M24.478 86.172C24.07 86.52 23.578 86.79 23.002 86.982C22.438 87.162 21.796 87.246 21.076 87.234C20.164 87.21 19.36 86.964 18.664 86.496C17.98 86.028 17.452 85.404 17.08 84.624C16.72 83.832 16.57 82.944 16.63 81.96C16.69 81.06 16.906 80.256 17.278 79.548C17.662 78.828 18.172 78.252 18.808 77.82C19.456 77.376 20.182 77.118 20.986 77.046C21.598 76.986 22.192 77.034 22.768 77.19C23.344 77.346 23.818 77.58 24.19 77.892C24.382 78.048 24.478 78.228 24.478 78.432C24.49 78.624 24.436 78.792 24.316 78.936C24.196 79.08 24.034 79.17 23.83 79.206C23.638 79.242 23.44 79.182 23.236 79.026C22.936 78.786 22.612 78.63 22.264 78.558C21.916 78.486 21.508 78.468 21.04 78.504C20.5 78.54 20.014 78.72 19.582 79.044C19.15 79.368 18.796 79.794 18.52 80.322C18.256 80.85 18.106 81.444 18.07 82.104C18.034 82.764 18.142 83.376 18.394 83.94C18.646 84.504 19 84.96 19.456 85.308C19.924 85.644 20.458 85.83 21.058 85.866C21.634 85.89 22.114 85.83 22.498 85.686C22.894 85.53 23.26 85.302 23.596 85.002C23.8 84.81 23.998 84.726 24.19 84.75C24.394 84.774 24.556 84.864 24.676 85.02C24.808 85.176 24.862 85.362 24.838 85.578C24.826 85.782 24.706 85.98 24.478 86.172ZM26.9193 86.604C26.8473 86.832 26.7213 86.988 26.5413 87.072C26.3733 87.156 26.1993 87.174 26.0193 87.126C25.8393 87.09 25.7013 86.994 25.6053 86.838C25.5093 86.682 25.5033 86.478 25.5873 86.226C25.7553 85.698 25.9353 85.182 26.1273 84.678C26.3193 84.174 26.4753 83.73 26.5953 83.346H26.5773C26.3493 83.346 26.1813 83.28 26.0733 83.148C25.9653 83.004 25.9173 82.842 25.9293 82.662C25.9413 82.482 26.0073 82.326 26.1273 82.194C26.2473 82.05 26.4273 81.978 26.6673 81.978H27.0813C27.5373 80.67 27.9213 79.626 28.2333 78.846C28.5453 78.066 28.7433 77.598 28.8273 77.442C28.9833 77.166 29.1933 77.034 29.4573 77.046C29.7333 77.058 29.9493 77.202 30.1053 77.478C30.1773 77.598 30.3753 78.06 30.6993 78.864C31.0353 79.668 31.4433 80.706 31.9233 81.978H32.3193C32.5713 81.978 32.7573 82.05 32.8773 82.194C33.0093 82.326 33.0753 82.488 33.0753 82.68C33.0873 82.86 33.0333 83.022 32.9133 83.166C32.8053 83.298 32.6433 83.364 32.4273 83.364H32.3913C32.5233 83.748 32.6853 84.18 32.8773 84.66C33.0693 85.14 33.2553 85.644 33.4353 86.172C33.5073 86.4 33.4953 86.586 33.3993 86.73C33.3033 86.874 33.1653 86.97 32.9853 87.018C32.8053 87.066 32.6253 87.054 32.4453 86.982C32.2773 86.91 32.1573 86.766 32.0853 86.55C31.8933 86.022 31.6953 85.482 31.4913 84.93C31.2873 84.366 31.1013 83.832 30.9333 83.328H28.0353C27.8673 83.82 27.6813 84.36 27.4773 84.948C27.2733 85.524 27.0873 86.076 26.9193 86.604ZM28.5393 81.978H30.4653C30.3813 81.702 30.2733 81.384 30.1413 81.024C30.0093 80.664 29.8833 80.316 29.7633 79.98C29.6433 79.644 29.5413 79.386 29.4573 79.206C29.3973 79.398 29.3133 79.662 29.2053 79.998C29.0973 80.322 28.9833 80.664 28.8633 81.024C28.7433 81.372 28.6353 81.69 28.5393 81.978ZM43.9025 86.55C43.9025 86.79 43.8245 86.97 43.6685 87.09C43.5245 87.21 43.3565 87.264 43.1645 87.252C42.9725 87.252 42.8045 87.186 42.6605 87.054C42.5165 86.934 42.4445 86.748 42.4445 86.496C42.4445 86.064 42.4385 85.548 42.4265 84.948C42.4265 84.336 42.4145 83.7 42.3905 83.04C42.3785 82.38 42.3665 81.738 42.3545 81.114C42.3425 80.49 42.3245 79.938 42.3005 79.458C42.0005 79.794 41.6825 80.13 41.3465 80.466C41.0105 80.802 40.6925 81.114 40.3925 81.402C40.0925 81.69 39.8285 81.918 39.6005 82.086C39.3845 82.254 39.2345 82.338 39.1505 82.338C39.0665 82.338 38.9105 82.242 38.6825 82.05C38.4665 81.858 38.2085 81.612 37.9085 81.312C37.6085 81.012 37.3025 80.688 36.9905 80.34C36.6785 79.992 36.3905 79.65 36.1265 79.314C36.1025 79.974 36.0785 80.724 36.0545 81.564C36.0305 82.404 36.0065 83.25 35.9825 84.102C35.9705 84.942 35.9645 85.71 35.9645 86.406C35.9645 86.646 35.8925 86.826 35.7485 86.946C35.6045 87.066 35.4305 87.126 35.2265 87.126C35.0345 87.126 34.8665 87.066 34.7225 86.946C34.5785 86.814 34.5065 86.628 34.5065 86.388C34.5065 85.812 34.5125 85.17 34.5245 84.462C34.5365 83.742 34.5545 82.998 34.5785 82.23C34.6025 81.45 34.6265 80.688 34.6505 79.944C34.6865 79.188 34.7225 78.486 34.7585 77.838C34.7825 77.526 34.8845 77.292 35.0645 77.136C35.2565 76.98 35.4785 76.92 35.7305 76.956C35.9945 76.98 36.2345 77.13 36.4505 77.406C36.8225 77.862 37.2365 78.36 37.6925 78.9C38.1485 79.44 38.6525 80.004 39.2045 80.592C39.7325 80.112 40.2305 79.62 40.6985 79.116C41.1785 78.6 41.6465 78.096 42.1025 77.604C42.3065 77.388 42.5225 77.268 42.7505 77.244C42.9905 77.22 43.2005 77.274 43.3805 77.406C43.5605 77.526 43.6565 77.718 43.6685 77.982C43.7045 78.582 43.7405 79.272 43.7765 80.052C43.8125 80.82 43.8425 81.612 43.8665 82.428C43.8905 83.232 43.9025 84 43.9025 84.732C43.9145 85.452 43.9145 86.058 43.9025 86.55ZM45.7437 86.478L45.7617 78.288H45.5097C45.2937 78.288 45.1197 78.228 44.9877 78.108C44.8677 77.976 44.8017 77.826 44.7897 77.658C44.7897 77.478 44.8497 77.316 44.9697 77.172C45.0897 77.028 45.2817 76.944 45.5457 76.92C46.1097 76.86 46.7157 76.83 47.3637 76.83C48.0117 76.818 48.6417 76.854 49.2537 76.938C49.8777 77.022 50.4477 77.172 50.9637 77.388C51.4797 77.592 51.8937 77.886 52.2057 78.27C52.5177 78.654 52.6857 79.14 52.7097 79.728C52.7457 80.832 52.2897 81.672 51.3417 82.248C50.3937 82.824 49.0137 83.07 47.2017 82.986L47.1837 86.46C47.1837 86.712 47.1057 86.898 46.9497 87.018C46.8057 87.138 46.6377 87.198 46.4457 87.198C46.2537 87.198 46.0857 87.132 45.9417 87C45.7977 86.88 45.7317 86.706 45.7437 86.478ZM47.2377 81.582C48.6177 81.666 49.6377 81.546 50.2977 81.222C50.9697 80.886 51.2877 80.4 51.2517 79.764C51.2277 79.272 50.8797 78.876 50.2077 78.576C49.5357 78.264 48.5397 78.15 47.2197 78.234L47.2377 81.582ZM53.7539 87.198C53.5259 87.21 53.3519 87.15 53.2319 87.018C53.1119 86.898 53.0459 86.754 53.0339 86.586C53.0219 86.418 53.0699 86.268 53.1779 86.136C53.2859 86.004 53.4599 85.932 53.6999 85.92L54.2219 85.902C54.2339 84.39 54.2339 83.016 54.2219 81.78C54.2219 80.544 54.2279 79.374 54.2399 78.27C54.1679 78.258 54.0839 78.252 53.9879 78.252C53.8919 78.252 53.7959 78.246 53.6999 78.234C53.4599 78.21 53.2859 78.132 53.1779 78C53.0699 77.856 53.0219 77.7 53.0339 77.532C53.0459 77.352 53.1179 77.202 53.2499 77.082C53.3819 76.95 53.5679 76.89 53.8079 76.902C54.1919 76.914 54.5999 76.926 55.0319 76.938C55.4759 76.95 55.8479 76.95 56.1479 76.938C56.3759 76.938 56.5439 76.998 56.6519 77.118C56.7719 77.238 56.8319 77.382 56.8319 77.55C56.8439 77.718 56.7959 77.874 56.6879 78.018C56.5799 78.162 56.4119 78.246 56.1839 78.27C56.0999 78.282 55.9919 78.288 55.8599 78.288C55.7399 78.288 55.6439 78.288 55.5719 78.288C55.5719 79.392 55.5719 80.556 55.5719 81.78C55.5719 82.992 55.5719 84.348 55.5719 85.848L55.9499 85.83C56.1899 85.83 56.3699 85.896 56.4899 86.028C56.6099 86.148 56.6699 86.292 56.6699 86.46C56.6819 86.628 56.6279 86.778 56.5079 86.91C56.3999 87.042 56.2259 87.114 55.9859 87.126L53.7539 87.198ZM63.987 86.82C63.615 86.46 63.231 86.01 62.835 85.47C62.451 84.93 62.061 84.348 61.665 83.724C61.281 83.088 60.897 82.452 60.513 81.816C60.129 81.168 59.763 80.556 59.415 79.98C59.403 80.568 59.391 81.252 59.379 82.032C59.379 82.812 59.373 83.592 59.361 84.372C59.349 85.14 59.343 85.812 59.343 86.388C59.343 86.628 59.265 86.808 59.109 86.928C58.965 87.048 58.797 87.108 58.605 87.108C58.425 87.108 58.263 87.048 58.119 86.928C57.975 86.796 57.903 86.604 57.903 86.352C57.915 85.608 57.927 84.768 57.939 83.832C57.951 82.896 57.963 81.924 57.975 80.916C57.987 79.908 57.999 78.924 58.011 77.964C58.011 77.664 58.119 77.448 58.335 77.316C58.563 77.172 58.809 77.13 59.073 77.19C59.349 77.25 59.565 77.418 59.721 77.694C60.297 78.678 60.855 79.644 61.395 80.592C61.935 81.54 62.445 82.41 62.925 83.202C63.417 83.994 63.873 84.648 64.293 85.164C64.317 84.72 64.335 84.198 64.347 83.598C64.371 82.986 64.389 82.344 64.401 81.672C64.413 80.988 64.419 80.31 64.419 79.638C64.419 78.966 64.413 78.336 64.401 77.748C64.401 77.508 64.467 77.322 64.599 77.19C64.743 77.058 64.905 76.992 65.085 76.992C65.277 76.992 65.445 77.052 65.589 77.172C65.733 77.292 65.811 77.478 65.823 77.73C65.823 78.222 65.817 78.792 65.805 79.44C65.805 80.088 65.799 80.76 65.787 81.456C65.775 82.152 65.757 82.824 65.733 83.472C65.721 84.108 65.697 84.678 65.661 85.182C65.637 85.674 65.607 86.04 65.571 86.28C65.535 86.532 65.427 86.736 65.247 86.892C65.079 87.048 64.875 87.126 64.635 87.126C64.407 87.126 64.191 87.024 63.987 86.82ZM71.0799 87.252C70.4199 87.252 69.8259 87.108 69.2979 86.82C68.7699 86.52 68.3259 86.118 67.9659 85.614C67.6059 85.11 67.3299 84.534 67.1379 83.886C66.9579 83.226 66.8679 82.536 66.8679 81.816C66.8799 80.988 67.0239 80.232 67.2999 79.548C67.5759 78.852 67.9779 78.27 68.5059 77.802C69.0339 77.322 69.6759 77.01 70.4319 76.866C71.2119 76.71 71.9259 76.74 72.5739 76.956C73.2339 77.16 73.7739 77.544 74.1939 78.108C74.3499 78.312 74.4039 78.51 74.3559 78.702C74.3199 78.894 74.2239 79.05 74.0679 79.17C73.9239 79.29 73.7499 79.344 73.5459 79.332C73.3539 79.32 73.1799 79.212 73.0239 79.008C72.7479 78.66 72.4239 78.42 72.0519 78.288C71.6919 78.144 71.2599 78.132 70.7559 78.252C69.9639 78.432 69.3579 78.858 68.9379 79.53C68.5179 80.202 68.2959 80.982 68.2719 81.87C68.2599 82.554 68.3619 83.208 68.5779 83.832C68.8059 84.456 69.1359 84.966 69.5679 85.362C70.0119 85.758 70.5459 85.956 71.1699 85.956C71.6019 85.956 71.9979 85.896 72.3579 85.776C72.7179 85.644 73.0059 85.482 73.2219 85.29C73.4379 85.086 73.5459 84.882 73.5459 84.678C73.5579 84.486 73.5639 84.258 73.5639 83.994C73.5759 83.718 73.5819 83.454 73.5819 83.202C73.5939 82.938 73.5999 82.734 73.5999 82.59H72.5019C72.2499 82.59 72.0579 82.524 71.9259 82.392C71.7939 82.26 71.7279 82.104 71.7279 81.924C71.7279 81.744 71.7879 81.588 71.9079 81.456C72.0279 81.324 72.2019 81.258 72.4299 81.258L74.8419 81.24C75.0939 81.24 75.2799 81.312 75.3999 81.456C75.5319 81.588 75.5979 81.744 75.5979 81.924C75.6099 82.092 75.5619 82.248 75.4539 82.392C75.3459 82.524 75.1899 82.59 74.9859 82.59H74.8779C74.8779 82.794 74.8719 83.052 74.8599 83.364C74.8599 83.676 74.8539 83.988 74.8419 84.3C74.8299 84.6 74.8059 84.852 74.7699 85.056C74.6499 85.716 74.2659 86.244 73.6179 86.64C72.9819 87.036 72.1359 87.24 71.0799 87.252Z" fill="#77867E"/>
<path d="M21.681 72.844C21.681 73.26 20.992 73.325 20.992 72.831C20.992 71.83 20.992 70.777 20.992 69.776C19.952 69.789 18.743 69.789 17.56 69.75C17.521 70.634 17.521 71.778 17.443 72.818C17.404 73.26 16.741 73.234 16.767 72.766C16.845 71.687 16.858 70.582 16.897 69.75L16.767 69.737C16.286 69.698 16.377 69.048 16.806 69.048L16.923 69.061C16.962 67.41 16.936 66.513 16.936 66.214C16.923 65.72 17.599 65.759 17.612 66.188C17.612 66.487 17.625 67.449 17.599 69.1C18.821 69.139 19.965 69.126 20.992 69.113C21.018 68.021 21.005 66.994 21.005 66.318C20.992 65.837 21.681 65.837 21.681 66.318C21.681 66.981 21.668 71.765 21.681 72.844ZM25.0961 73.169C23.7441 73.143 22.8601 72.363 22.6781 71.297C22.4311 69.88 22.6131 67.215 22.7561 66.058C22.8211 65.59 23.4971 65.629 23.4191 66.11C23.2501 67.267 23.0811 69.945 23.3281 71.141C23.4581 71.869 24.0951 72.519 25.0701 72.532C26.0971 72.545 26.8901 71.856 26.9681 71.44C27.1501 70.543 27.1891 68.099 27.1241 66.11C27.1111 65.655 27.7611 65.681 27.7741 66.123C27.8261 68.112 27.7871 70.582 27.6181 71.7C27.5791 71.986 27.9431 72.324 28.3331 72.324C28.7231 72.337 28.7231 72.935 28.2551 72.948C27.8781 72.961 27.3711 72.714 27.1631 72.363C26.8251 72.74 25.9021 73.182 25.0961 73.169ZM30.6775 72.831L30.7035 66.344H28.7145C28.2465 66.344 28.1945 65.72 28.6885 65.72L33.1475 65.694C33.6155 65.694 33.6155 66.331 33.1215 66.331L31.4055 66.344L31.3535 72.831C31.3535 73.273 30.6775 73.299 30.6775 72.831ZM35.525 73.182C33.978 73.169 33.471 72.337 33.354 72.155C33.068 71.713 33.653 71.375 33.913 71.778C34.095 72.051 34.511 72.584 35.538 72.597C36.708 72.61 37.449 71.986 37.462 71.258C37.488 70.127 36.721 69.802 35.538 69.451C34.563 69.152 33.471 68.71 33.471 67.566C33.471 66.552 34.134 65.668 35.733 65.629C36.682 65.603 37.241 65.928 37.566 66.292C37.891 66.643 37.397 67.085 37.059 66.76C36.76 66.461 36.422 66.253 35.733 66.266C34.628 66.292 34.16 66.877 34.16 67.553C34.16 68.229 34.771 68.528 35.785 68.866C36.877 69.23 38.164 69.555 38.112 71.245C38.086 72.389 37.15 73.195 35.525 73.182Z" fill="#84948B"/>
<path d="M19.055 34.13C17.131 34.065 16.195 32.453 16.377 30.386C16.559 28.267 17.677 27.045 19.341 27.058C21.018 27.071 22.331 28.384 22.214 30.633C22.11 32.544 21.122 34.195 19.055 34.13ZM17.508 32.765C18.21 31.4 19.419 29.437 20.42 27.981C20.212 27.838 19.861 27.682 19.341 27.682C17.95 27.682 17.17 28.787 17.014 30.438C16.91 31.361 17.092 32.18 17.508 32.765ZM19.094 33.532C20.758 33.571 21.512 32.076 21.59 30.633C21.655 29.437 21.278 28.735 20.94 28.384C19.939 29.801 18.73 31.829 18.028 33.194C18.21 33.35 18.574 33.519 19.094 33.532ZM27.9325 28.046C26.8665 28.163 25.4105 28.137 24.1885 27.929C23.9415 28.67 23.7985 30.451 23.9285 31.465C24.5785 31.075 25.3715 30.893 26.2425 30.958C27.7765 31.088 28.7775 32.141 28.6865 34.143C28.6085 35.755 27.6465 36.951 25.9435 37.159C24.7475 37.302 23.7465 36.964 23.1485 36.379C22.7455 36.002 23.2785 35.508 23.6425 35.872C24.1365 36.353 24.8515 36.678 25.8785 36.535C27.3085 36.327 27.9845 35.3 28.0365 34.117C28.1015 32.492 27.3345 31.699 26.2035 31.595C25.2935 31.517 24.4355 31.842 23.7855 32.349C23.4475 32.622 23.3045 32.258 23.2785 32.05C23.1225 30.646 23.2525 28.592 23.6165 27.357C23.6555 27.214 23.8635 27.175 23.9935 27.214C25.3715 27.513 26.8145 27.5 27.8285 27.396C28.4135 27.331 28.4265 27.994 27.9325 28.046ZM31.051 33.753C30.83 34.351 29.959 33.987 30.206 33.467C30.479 32.908 31.233 33.22 31.051 33.753ZM35.139 26.46C36.426 26.473 37.492 27.305 37.466 28.67C37.427 30.672 34.697 31.946 33.384 33.454L37.908 33.428C38.363 33.428 38.363 34.065 37.908 34.065H33.059C32.513 34.065 32.448 33.545 32.747 33.168C33.865 31.777 36.777 30.36 36.803 28.657C36.829 27.617 36.036 27.11 35.126 27.097C33.93 27.084 33.514 27.851 33.449 28.332C33.397 28.761 32.734 28.748 32.747 28.293C32.76 27.851 33.28 26.447 35.139 26.46ZM41.7805 34.156C40.1815 34.078 38.9725 32.947 39.1415 30.568C39.3235 28.28 40.2075 25.511 43.2885 24.549C43.7955 24.393 43.9515 25.03 43.5355 25.16C41.0135 25.914 40.2725 27.968 39.9605 29.515C40.1035 29.333 40.7535 28.449 42.2355 28.527C43.8735 28.618 44.9655 29.84 44.7965 31.556C44.6275 33.207 43.5745 34.234 41.7805 34.156ZM41.8195 33.558C43.2235 33.649 44.0425 32.7 44.1595 31.491C44.2765 30.178 43.4705 29.229 42.2095 29.164C40.7535 29.099 39.9085 30.243 39.8175 30.945C39.6745 32.024 40.2725 33.467 41.8195 33.558ZM47.174 33.753C46.953 34.351 46.082 33.987 46.329 33.467C46.602 32.908 47.356 33.22 47.174 33.753ZM51.2621 26.46C52.5491 26.473 53.6151 27.305 53.5891 28.67C53.5501 30.672 50.8201 31.946 49.5071 33.454L54.0311 33.428C54.4861 33.428 54.4861 34.065 54.0311 34.065H49.1821C48.6361 34.065 48.5711 33.545 48.8701 33.168C49.9881 31.777 52.9001 30.36 52.9261 28.657C52.9521 27.617 52.1591 27.11 51.2491 27.097C50.0531 27.084 49.6371 27.851 49.5721 28.332C49.5201 28.761 48.8571 28.748 48.8701 28.293C48.8831 27.851 49.4031 26.447 51.2621 26.46ZM57.8646 34.13C55.9406 34.065 55.0046 32.453 55.1866 30.386C55.3686 28.267 56.4866 27.045 58.1506 27.058C59.8276 27.071 61.1406 28.384 61.0236 30.633C60.9196 32.544 59.9316 34.195 57.8646 34.13ZM56.3176 32.765C57.0196 31.4 58.2286 29.437 59.2296 27.981C59.0216 27.838 58.6706 27.682 58.1506 27.682C56.7596 27.682 55.9796 28.787 55.8236 30.438C55.7196 31.361 55.9016 32.18 56.3176 32.765ZM57.9036 33.532C59.5676 33.571 60.3216 32.076 60.3996 30.633C60.4646 29.437 60.0876 28.735 59.7496 28.384C58.7486 29.801 57.5396 31.829 56.8376 33.194C57.0196 33.35 57.3836 33.519 57.9036 33.532Z" fill="#84948B"/>
<path d="M174.974 66H191C178.311 53.2982 155 56.9083 155 13" stroke="#9FABA4" stroke-width="1.86119" stroke-linecap="round" stroke-linejoin="round"/>
<path d="M155 13C155 29.7788 151.722 39.575 147 46" stroke="#9FABA4" stroke-width="1.86119" stroke-linecap="round" stroke-linejoin="round"/>
<path d="M116 20C116 63.9094 92.689 60.2966 80 73H98.4087" stroke="#9FABA4" stroke-width="1.86119" stroke-linecap="round" stroke-linejoin="round"/>
<path fill-rule="evenodd" clip-rule="evenodd" d="M136.501 6C136.501 59.0228 108.333 54.6588 93 70H180C164.667 54.6588 136.501 59.0228 136.501 6V6Z" stroke="#9FABA4" stroke-width="1.86119" stroke-linecap="round" stroke-linejoin="round"/>
<path d="M174.654 66H186V84H174" stroke="#9FABA4" stroke-width="1.86119" stroke-linecap="round" stroke-linejoin="round"/>
<path d="M98 89H84V73" stroke="#9FABA4" stroke-width="1.86119" stroke-linecap="round" stroke-linejoin="round"/>
<path d="M122 50C118.381 43.61 116 34.3673 116 20" stroke="#9FABA4" stroke-width="1.86119" stroke-linecap="round" stroke-linejoin="round"/>
<path d="M127 93V82.0358C127 77.0453 131.254 73 136.502 73C141.746 73 146 77.0453 146 82.0358V93" stroke="#84948B" stroke-width="1.86119" stroke-linecap="round" stroke-linejoin="round"/>
<path fill-rule="evenodd" clip-rule="evenodd" d="M98 93H174V70H98V93Z" stroke="#9FABA4" stroke-width="1.86119" stroke-linecap="round" stroke-linejoin="round"/>
<path d="M216.94 72.7078L224.56 69.7878L224.48 69.2078C224.453 68.9811 224.513 68.7878 224.66 68.6278C224.807 68.4678 224.987 68.3678 225.2 68.3278C225.413 68.2745 225.613 68.3011 225.8 68.4078C225.987 68.5145 226.107 68.7145 226.16 69.0078L226.18 69.2478L231.12 67.3878C231.387 67.3078 231.62 67.3211 231.82 67.4278C232.007 67.5211 232.133 67.6678 232.2 67.8678C232.28 68.0545 232.28 68.2545 232.2 68.4678C232.133 68.6678 231.973 68.8345 231.72 68.9678L226.28 70.9278C226.307 71.2745 226.327 71.6278 226.34 71.9878C226.353 72.3345 226.36 72.6678 226.36 72.9878C226.36 73.3878 226.353 73.7611 226.34 74.1078C226.327 74.4545 226.313 74.7811 226.3 75.0878C226.98 75.3145 227.653 75.5678 228.32 75.8478C228.973 76.1278 229.573 76.4478 230.12 76.8078C230.667 77.1678 231.107 77.6011 231.44 78.1078C231.773 78.6011 231.947 79.1811 231.96 79.8478C231.96 80.3811 231.84 80.8545 231.6 81.2678C231.347 81.6811 231.013 81.9745 230.6 82.1478C230.173 82.3211 229.713 82.3678 229.22 82.2878C228.727 82.2078 228.327 81.9878 228.02 81.6278C227.847 81.4278 227.773 81.2278 227.8 81.0278C227.813 80.8145 227.893 80.6345 228.04 80.4878C228.173 80.3411 228.347 80.2611 228.56 80.2478C228.76 80.2345 228.953 80.3211 229.14 80.5078C229.313 80.6678 229.507 80.7411 229.72 80.7278C229.92 80.7145 230.093 80.6345 230.24 80.4878C230.373 80.3278 230.433 80.1145 230.42 79.8478C230.42 79.3678 230.22 78.9411 229.82 78.5678C229.407 78.1811 228.88 77.8478 228.24 77.5678C227.6 77.2745 226.92 77.0145 226.2 76.7878C226.173 77.0145 226.153 77.2011 226.14 77.3478C226.127 77.4945 226.12 77.5811 226.12 77.6078C226.08 77.9011 225.973 78.1145 225.8 78.2478C225.613 78.3811 225.42 78.4411 225.22 78.4278C225.007 78.4011 224.827 78.3011 224.68 78.1278C224.533 77.9545 224.467 77.7145 224.48 77.4078C224.493 77.1945 224.527 76.8278 224.58 76.3078C223.233 75.8811 221.92 75.5011 220.64 75.1678C219.36 74.8345 218.187 74.5678 217.12 74.3678C216.76 74.3011 216.527 74.1478 216.42 73.9078C216.313 73.6678 216.313 73.4278 216.42 73.1878C216.513 72.9478 216.687 72.7878 216.94 72.7078ZM219.54 44.8078C219.247 45.1411 218.947 45.4545 218.64 45.7478C218.333 46.0411 218.087 46.2478 217.9 46.3678C217.647 46.5411 217.42 46.6078 217.22 46.5678C217.02 46.5278 216.867 46.4278 216.76 46.2678C216.653 46.1078 216.62 45.9278 216.66 45.7278C216.687 45.5278 216.8 45.3478 217 45.1878C217.187 45.0411 217.413 44.8478 217.68 44.6078C217.947 44.3545 218.187 44.1011 218.4 43.8478C218.6 43.6211 218.807 43.5011 219.02 43.4878C219.22 43.4745 219.393 43.5345 219.54 43.6678C219.687 43.8011 219.773 43.9745 219.8 44.1878C219.813 44.3878 219.727 44.5945 219.54 44.8078ZM219.66 73.3278C220.38 73.4878 221.187 73.6811 222.08 73.9078C222.96 74.1345 223.827 74.3678 224.68 74.6078C224.707 74.1411 224.72 73.6478 224.72 73.1278C224.72 72.5945 224.713 72.0545 224.7 71.5078L219.66 73.3278ZM221.62 32.4678C221.447 32.0011 221.407 31.5611 221.5 31.1478C221.58 30.7345 221.8 30.4011 222.16 30.1478C222.52 29.8945 223.033 29.7811 223.7 29.8078C223.9 29.8211 224.093 29.8411 224.28 29.8678C224.467 29.8945 224.687 29.9345 224.94 29.9878C225.073 29.6678 225.2 29.3145 225.32 28.9278C224.96 28.8611 224.573 28.7345 224.16 28.5478C223.747 28.3611 223.353 28.1078 222.98 27.7878C222.607 27.4545 222.3 27.0411 222.06 26.5478C221.807 26.0411 221.667 25.4478 221.64 24.7678C221.6 23.8745 221.693 23.1545 221.92 22.6078C222.147 22.0478 222.447 21.6278 222.82 21.3478C223.18 21.0678 223.573 20.8878 224 20.8078C224.413 20.7145 224.8 20.6811 225.16 20.7078C225.52 20.7211 225.793 20.7545 225.98 20.8078C226.433 20.9545 226.78 21.3345 227.02 21.9478C227.26 22.5611 227.4 23.3478 227.44 24.3078C227.467 25.2545 227.4 26.3078 227.24 27.4678C228.267 27.4011 229.107 27.0411 229.76 26.3878C230.4 25.7345 230.733 24.8811 230.76 23.8278C230.773 23.0278 230.673 22.3611 230.46 21.8278C230.233 21.2945 229.947 20.8678 229.6 20.5478C229.24 20.2278 228.867 19.9811 228.48 19.8078C228.093 19.6211 227.733 19.4945 227.4 19.4278C227.053 19.3478 226.793 19.2878 226.62 19.2478C226.367 19.1945 226.187 19.0745 226.08 18.8878C225.973 18.7011 225.94 18.5078 225.98 18.3078C226.02 18.0945 226.127 17.9278 226.3 17.8078C226.46 17.6745 226.693 17.6345 227 17.6878C227.2 17.7278 227.513 17.8011 227.94 17.9078C228.353 18.0011 228.813 18.1678 229.32 18.4078C229.827 18.6345 230.313 18.9678 230.78 19.4078C231.233 19.8478 231.607 20.4278 231.9 21.1478C232.18 21.8678 232.307 22.7611 232.28 23.8278C232.253 24.8411 232.02 25.7411 231.58 26.5278C231.127 27.3011 230.52 27.9145 229.76 28.3678C229 28.8211 228.14 29.0678 227.18 29.1078C227.1 29.1211 227.013 29.1278 226.92 29.1278C226.8 29.5945 226.667 30.0145 226.52 30.3878C227.213 30.6011 227.893 30.8545 228.56 31.1478C229.227 31.4411 229.827 31.7678 230.36 32.1278C230.893 32.4745 231.32 32.8411 231.64 33.2278C231.96 33.6011 232.12 33.9811 232.12 34.3678C232.133 34.9145 231.967 35.3878 231.62 35.7878C231.273 36.1878 230.807 36.5278 230.22 36.8078C229.62 37.0745 228.967 37.3011 228.26 37.4878C227.54 37.6611 226.82 37.8078 226.1 37.9278C225.38 38.0345 224.72 38.1278 224.12 38.2078C224.147 38.3145 224.173 38.4345 224.2 38.5678C224.213 38.6878 224.22 38.8278 224.22 38.9878C224.207 39.2945 224.12 39.5145 223.96 39.6478C223.8 39.7811 223.62 39.8478 223.42 39.8478C223.207 39.8345 223.02 39.7611 222.86 39.6278C222.7 39.4811 222.627 39.2811 222.64 39.0278C222.64 38.7611 222.6 38.5811 222.52 38.4878C222.44 38.3811 222.387 38.3211 222.36 38.3078C222.107 38.1611 221.947 37.9611 221.88 37.7078C221.813 37.4545 221.847 37.2211 221.98 37.0078C222.1 36.7945 222.313 36.6811 222.62 36.6678C223.527 36.6011 224.44 36.5011 225.36 36.3678C226.28 36.2345 227.127 36.0745 227.9 35.8878C228.673 35.7011 229.3 35.4878 229.78 35.2478C230.247 34.9945 230.487 34.7145 230.5 34.4078C230.473 34.2611 230.24 34.0278 229.8 33.7078C229.347 33.3878 228.767 33.0545 228.06 32.7078C227.353 32.3611 226.593 32.0811 225.78 31.8678C225.38 32.4278 224.993 32.8411 224.62 33.1078C224.233 33.3745 223.853 33.5345 223.48 33.5878C223.16 33.6278 222.813 33.5745 222.44 33.4278C222.067 33.2811 221.793 32.9611 221.62 32.4678ZM221.68 57.7278C221.693 57.4345 221.78 57.2145 221.94 57.0678C222.1 56.9078 222.287 56.8278 222.5 56.8278C222.7 56.8145 222.887 56.8811 223.06 57.0278C223.22 57.1745 223.307 57.3945 223.32 57.6878C223.32 57.8345 223.347 58.0211 223.4 58.2478C223.44 58.4745 223.567 58.6945 223.78 58.9078C224.007 58.8411 224.32 58.7745 224.72 58.7078C225.107 58.6278 225.553 58.5678 226.06 58.5278C226.593 58.4745 227.233 58.4278 227.98 58.3878C228.713 58.3478 229.507 58.3345 230.36 58.3478C231.213 58.3478 232.073 58.3945 232.94 58.4878C233.807 58.5678 234.64 58.7145 235.44 58.9278C236.24 59.1278 236.953 59.4078 237.58 59.7678C238.207 60.1145 238.707 60.5611 239.08 61.1078C239.453 61.6545 239.647 62.3078 239.66 63.0678C239.673 63.7878 239.567 64.3745 239.34 64.8278C239.113 65.2678 238.84 65.6078 238.52 65.8478C238.213 66.0878 237.927 66.2545 237.66 66.3478C237.407 66.4411 237.26 66.4945 237.22 66.5078C236.953 66.5745 236.733 66.5478 236.56 66.4278C236.4 66.3078 236.293 66.1478 236.24 65.9478C236.2 65.7478 236.22 65.5545 236.3 65.3678C236.38 65.1678 236.533 65.0345 236.76 64.9678C236.813 64.9545 236.913 64.9211 237.06 64.8678C237.22 64.8145 237.387 64.7211 237.56 64.5878C237.747 64.4545 237.9 64.2678 238.02 64.0278C238.14 63.7745 238.193 63.4478 238.18 63.0478C238.167 62.5145 237.967 62.0545 237.58 61.6678C237.193 61.2811 236.66 60.9611 235.98 60.7078C235.313 60.4411 234.547 60.2411 233.68 60.1078C232.827 59.9745 231.92 59.9011 230.96 59.8878C231.293 60.0878 231.607 60.4211 231.9 60.8878C232.193 61.3411 232.353 61.8945 232.38 62.5478C232.407 63.3078 232.307 63.9411 232.08 64.4478C231.867 64.9545 231.58 65.3611 231.22 65.6678C230.847 65.9611 230.447 66.1811 230.02 66.3278C229.58 66.4745 229.16 66.5745 228.76 66.6278C228.347 66.6811 228 66.7078 227.72 66.7078C226.653 66.7078 225.753 66.5611 225.02 66.2678C224.273 65.9745 223.667 65.5878 223.2 65.1078C222.733 64.6278 222.393 64.1011 222.18 63.5278C221.967 62.9545 221.853 62.3945 221.84 61.8478C221.827 61.1011 222.04 60.4678 222.48 59.9478C222.227 59.6545 222.047 59.3545 221.94 59.0478C221.82 58.7411 221.747 58.4678 221.72 58.2278C221.693 57.9878 221.68 57.8211 221.68 57.7278ZM221.98 52.8678C221.82 52.3611 221.813 51.7745 221.96 51.1078C222.093 50.4411 222.473 49.8011 223.1 49.1878C223.287 49.0011 223.487 48.9211 223.7 48.9478C223.9 48.9611 224.08 49.0411 224.24 49.1878C224.387 49.3345 224.473 49.5211 224.5 49.7478C224.513 49.9611 224.413 50.1745 224.2 50.3878C223.867 50.7478 223.667 51.0811 223.6 51.3878C223.52 51.6811 223.5 51.9145 223.54 52.0878C223.58 52.3278 223.7 52.5611 223.9 52.7878C224.087 53.0011 224.207 53.1078 224.26 53.1078C225.38 53.1078 226.573 53.1145 227.84 53.1278C229.093 53.1278 230.313 53.1278 231.5 53.1278C231.767 53.1278 231.967 53.2145 232.1 53.3878C232.233 53.5478 232.3 53.7411 232.3 53.9678C232.313 54.1945 232.253 54.3945 232.12 54.5678C231.987 54.7411 231.78 54.8278 231.5 54.8278C230.313 54.8278 229.107 54.8278 227.88 54.8278C226.64 54.8145 225.447 54.8211 224.3 54.8478C224.047 54.8478 223.873 54.9345 223.78 55.1078C223.687 55.2811 223.627 55.4011 223.6 55.4678C223.493 55.7611 223.34 55.9411 223.14 56.0078C222.927 56.0745 222.727 56.0611 222.54 55.9678C222.34 55.8745 222.193 55.7278 222.1 55.5278C221.993 55.3278 221.98 55.1078 222.06 54.8678C222.073 54.8011 222.127 54.6811 222.22 54.5078C222.313 54.3345 222.447 54.1478 222.62 53.9478C222.473 53.7345 222.34 53.5211 222.22 53.3078C222.087 53.0945 222.007 52.9478 221.98 52.8678ZM221.94 44.0678C221.94 43.7345 221.987 43.4278 222.08 43.1478C222.16 42.8678 222.347 42.5411 222.64 42.1678C222.44 42.1545 222.3 42.0611 222.22 41.8878C222.127 41.7011 222.093 41.5011 222.12 41.2878C222.147 41.0611 222.233 40.8678 222.38 40.7078C222.513 40.5478 222.713 40.4745 222.98 40.4878C223.34 40.5145 223.807 40.5478 224.38 40.5878C224.953 40.6145 225.547 40.6478 226.16 40.6878C226.773 40.7145 227.333 40.7411 227.84 40.7678C228.333 40.7945 228.687 40.8078 228.9 40.8078C229.327 40.8211 229.687 40.8278 229.98 40.8278C230.26 40.8278 230.433 40.7211 230.5 40.5078C230.58 40.2678 230.713 40.1078 230.9 40.0278C231.073 39.9345 231.253 39.9145 231.44 39.9678C231.627 40.0211 231.78 40.1278 231.9 40.2878C232.02 40.4478 232.067 40.6411 232.04 40.8678C231.973 41.2278 231.853 41.5145 231.68 41.7278C231.507 41.9278 231.3 42.0811 231.06 42.1878C231.393 42.5611 231.667 43.0011 231.88 43.5078C232.08 44.0011 232.18 44.5545 232.18 45.1678C232.18 46.4345 231.793 47.4345 231.02 48.1678C230.553 48.5945 229.987 48.9011 229.32 49.0878C228.653 49.2745 227.993 49.3278 227.34 49.2478C226.327 49.1411 225.413 48.8545 224.6 48.3878C223.787 47.9078 223.14 47.3011 222.66 46.5678C222.167 45.8211 221.927 44.9878 221.94 44.0678ZM222.84 31.6278C222.84 31.7878 222.9 31.8945 223.02 31.9478C223.127 32.0011 223.22 32.0211 223.3 32.0078C223.42 31.9945 223.56 31.9478 223.72 31.8678C223.88 31.7745 224.047 31.6411 224.22 31.4678C224.113 31.4411 223.993 31.4145 223.86 31.3878C223.713 31.3611 223.6 31.3411 223.52 31.3278C223.293 31.3145 223.133 31.3278 223.04 31.3678C222.947 31.4078 222.88 31.4945 222.84 31.6278ZM223.24 24.6478C223.267 25.2878 223.42 25.7878 223.7 26.1478C223.98 26.5078 224.307 26.7745 224.68 26.9478C225.053 27.1211 225.387 27.2345 225.68 27.2878C225.853 26.2878 225.927 25.4345 225.9 24.7278C225.86 24.0211 225.787 23.4745 225.68 23.0878C225.573 22.6878 225.5 22.4611 225.46 22.4078C225.327 22.3678 225.133 22.3411 224.88 22.3278C224.613 22.3011 224.353 22.3411 224.1 22.4478C223.833 22.5545 223.613 22.7811 223.44 23.1278C223.267 23.4611 223.2 23.9678 223.24 24.6478ZM223.46 61.8078C223.46 62.3011 223.593 62.8011 223.86 63.3078C224.113 63.8011 224.553 64.2211 225.18 64.5678C225.793 64.9011 226.633 65.0745 227.7 65.0878C228.02 65.0878 228.36 65.0611 228.72 65.0078C229.08 64.9411 229.42 64.8278 229.74 64.6678C230.06 64.4945 230.32 64.2478 230.52 63.9278C230.72 63.5945 230.8 63.1611 230.76 62.6278C230.733 62.0011 230.4 61.4478 229.76 60.9678C229.107 60.4878 228.22 60.2145 227.1 60.1478C226.54 60.1211 225.98 60.1545 225.42 60.2478C224.86 60.3411 224.393 60.5145 224.02 60.7678C223.647 61.0078 223.46 61.3545 223.46 61.8078ZM223.48 44.0478C223.48 44.6078 223.613 45.1011 223.88 45.5278C224.133 45.9545 224.467 46.3211 224.88 46.6278C225.28 46.9211 225.713 47.1545 226.18 47.3278C226.647 47.5011 227.093 47.6078 227.52 47.6478C227.947 47.7011 228.38 47.6678 228.82 47.5478C229.247 47.4145 229.6 47.2211 229.88 46.9678C230.12 46.7278 230.32 46.4545 230.48 46.1478C230.627 45.8278 230.693 45.4478 230.68 45.0078C230.667 44.4878 230.467 43.9678 230.08 43.4478C229.693 42.9278 229.113 42.5878 228.34 42.4278C228.233 42.4011 228.033 42.3745 227.74 42.3478C227.447 42.3211 227.113 42.2945 226.74 42.2678C226.353 42.2411 225.98 42.2278 225.62 42.2278C225.247 42.2145 224.933 42.2145 224.68 42.2278C224.427 42.2278 224.213 42.3411 224.04 42.5678C223.853 42.7945 223.713 43.0545 223.62 43.3478C223.527 43.6278 223.48 43.8611 223.48 44.0478Z" fill="#9FABA4"/>
</svg>
