<svg width="255" height="100" viewBox="0 0 255 100" fill="none" xmlns="http://www.w3.org/2000/svg">
<path fill-rule="evenodd" clip-rule="evenodd" d="M199.999 21.8748C198.275 21.8748 196.874 20.4746 196.874 18.7499C196.874 17.0252 198.275 15.6249 199.999 15.6249C201.724 15.6249 203.124 17.0252 203.124 18.7499C203.124 20.4746 201.724 21.8748 199.999 21.8748ZM199.999 34.3751C198.275 34.3751 196.874 32.9748 196.874 31.2501C196.874 29.5251 198.275 28.1248 199.999 28.1248C201.724 28.1248 203.124 29.5251 203.124 31.2501C203.124 32.9748 201.724 34.3751 199.999 34.3751ZM199.999 46.875C198.275 46.875 196.874 45.4747 196.874 43.75C196.874 42.0254 198.275 40.6247 199.999 40.6247C201.724 40.6247 203.124 42.0254 203.124 43.75C203.124 45.4747 201.724 46.875 199.999 46.875ZM199.999 59.3753C198.275 59.3753 196.874 57.9747 196.874 56.25C196.874 54.5253 198.275 53.125 199.999 53.125C201.724 53.125 203.124 54.5253 203.124 56.25C203.124 57.9747 201.724 59.3753 199.999 59.3753ZM199.999 71.8748C198.275 71.8748 196.874 70.4749 196.874 68.7502C196.874 67.0252 198.275 65.6253 199.999 65.6253C201.724 65.6253 203.124 67.0252 203.124 68.7502C203.124 70.4749 201.724 71.8748 199.999 71.8748ZM199.999 84.3751C198.275 84.3751 196.874 82.9748 196.874 81.2501C196.874 79.5254 198.275 78.1252 199.999 78.1252C201.724 78.1252 203.124 79.5254 203.124 81.2501C203.124 82.9748 201.724 84.3751 199.999 84.3751ZM255 15.6249V9.37493C249.825 9.37493 245.625 5.17409 245.625 0H209.374C209.374 5.17409 205.174 9.37493 199.999 9.37493C194.824 9.37493 190.624 5.17409 190.624 0H9.37523C9.37523 5.17409 5.17518 9.37493 0 9.37493V15.6249C1.72468 15.6249 3.12495 17.0252 3.12495 18.7499C3.12495 20.4746 1.72468 21.8748 0 21.8748V28.1248C1.72468 28.1248 3.12495 29.5251 3.12495 31.2501C3.12495 32.9748 1.72468 34.3751 0 34.3751V40.6247C1.72468 40.6247 3.12495 42.0253 3.12495 43.75C3.12495 45.4747 1.72468 46.875 0 46.875V53.125C1.72468 53.125 3.12495 54.5253 3.12495 56.25C3.12495 57.9747 1.72468 59.3753 0 59.3753V65.6253C1.72468 65.6253 3.12495 67.0252 3.12495 68.7502C3.12495 70.4749 1.72468 71.8748 0 71.8748V78.1252C1.72468 78.1252 3.12495 79.5254 3.12495 81.2501C3.12495 82.9748 1.72468 84.3751 0 84.3751V90.6251C5.17518 90.6251 9.37523 94.8244 9.37523 100H190.624C190.624 94.8244 194.824 90.6251 199.999 90.6251C205.174 90.6251 209.374 94.8244 209.374 100H245.625C245.625 94.8244 249.825 90.6251 255 90.6251V84.3751C253.275 84.3751 251.875 82.9748 251.875 81.2501C251.875 79.5254 253.275 78.1252 255 78.1252V71.8748C253.275 71.8748 251.875 70.4749 251.875 68.7502C251.875 67.0252 253.275 65.6253 255 65.6253V59.3753C253.275 59.3753 251.875 57.9747 251.875 56.25C251.875 54.5253 253.275 53.125 255 53.125V46.875C253.275 46.875 251.875 45.4747 251.875 43.75C251.875 42.0253 253.275 40.6247 255 40.6247V34.3751C253.275 34.3751 251.875 32.9748 251.875 31.2501C251.875 29.5251 253.275 28.1248 255 28.1248V21.8748C253.275 21.8748 251.875 20.4746 251.875 18.7499C251.875 17.0252 253.275 15.6249 255 15.6249Z" fill="#77867E"/>
<path fill-rule="evenodd" clip-rule="evenodd" d="M80.4807 69.2838C80.4807 78.5651 72.9545 86.0913 63.6732 86.0913C54.3886 86.0913 46.8657 78.5651 46.8657 69.2838C46.8657 60.0026 54.3886 52.4774 63.6732 52.4774C72.9545 52.4774 80.4807 60.0026 80.4807 69.2838Z" fill="#84948B"/>
<path fill-rule="evenodd" clip-rule="evenodd" d="M21.6714 82.092L42.3973 89.4225L21.6714 82.092Z" stroke="#9FABA4" stroke-width="1.67507" stroke-linecap="round" stroke-linejoin="round"/>
<path d="M63.6732 15C63.6732 34.818 30.5814 51.2738 42.3972 89.4225H84.9459L105.675 82.092" stroke="#9FABA4" stroke-width="1.86119" stroke-linecap="round" stroke-linejoin="round"/>
<path d="M21.6713 82.092C8.3063 43.6362 48.6713 48.5455 63.6732 15" stroke="#9FABA4" stroke-width="1.86119" stroke-linecap="round" stroke-linejoin="round"/>
<path d="M63.6731 15C63.6731 34.818 96.765 51.2738 84.9457 89.4225" stroke="#9FABA4" stroke-width="1.86119" stroke-linecap="round" stroke-linejoin="round"/>
<path d="M105.675 82.092C119.04 43.6362 78.6716 48.5455 63.6731 15" stroke="#9FABA4" stroke-width="1.86119" stroke-linecap="round" stroke-linejoin="round"/>
<path fill-rule="evenodd" clip-rule="evenodd" d="M66.1638 39.514L63.6731 37.0232L66.1638 39.514Z" stroke="#9FABA4" stroke-width="1.86119" stroke-linecap="round" stroke-linejoin="round"/>
<path fill-rule="evenodd" clip-rule="evenodd" d="M68.6546 42.0044L66.1638 39.514L68.6546 42.0044Z" stroke="#9FABA4" stroke-width="1.86119" stroke-linecap="round" stroke-linejoin="round"/>
<path fill-rule="evenodd" clip-rule="evenodd" d="M61.1824 34.5328L63.6731 37.0232L61.1824 34.5328Z" stroke="#9FABA4" stroke-width="1.86119" stroke-linecap="round" stroke-linejoin="round"/>
<path fill-rule="evenodd" clip-rule="evenodd" d="M68.6546 46.9845L66.1638 44.4948L68.6546 46.9845Z" stroke="#9FABA4" stroke-width="1.86119" stroke-linecap="round" stroke-linejoin="round"/>
<path fill-rule="evenodd" clip-rule="evenodd" d="M61.1824 39.514L66.1639 44.4948L61.1824 39.514Z" stroke="#9FABA4" stroke-width="1.86119" stroke-linecap="round" stroke-linejoin="round"/>
<path fill-rule="evenodd" clip-rule="evenodd" d="M58.6917 42.0044L61.1824 44.4948L58.6917 42.0044Z" stroke="#9FABA4" stroke-width="1.86119" stroke-linecap="round" stroke-linejoin="round"/>
<path fill-rule="evenodd" clip-rule="evenodd" d="M70.6998 54.012L63.6731 46.9845L70.6998 54.012Z" stroke="#9FABA4" stroke-width="1.67507" stroke-linecap="round" stroke-linejoin="round"/>
<path fill-rule="evenodd" clip-rule="evenodd" d="M61.1824 44.4948L63.6731 46.9845L61.1824 44.4948Z" stroke="#9FABA4" stroke-width="1.86119" stroke-linecap="round" stroke-linejoin="round"/>
<path d="M68.6548 46.9845L71.1455 44.4948L68.6548 42.0044" stroke="#9FABA4" stroke-width="1.86119" stroke-linecap="round" stroke-linejoin="round"/>
<path fill-rule="evenodd" clip-rule="evenodd" d="M66.1638 44.4948L68.6546 42.0044L66.1638 44.4948Z" stroke="#9FABA4" stroke-width="1.86119" stroke-linecap="round" stroke-linejoin="round"/>
<path fill-rule="evenodd" clip-rule="evenodd" d="M56.6465 54.012L66.164 44.4948L56.6465 54.012Z" stroke="#9FABA4" stroke-width="1.86119" stroke-linecap="round" stroke-linejoin="round"/>
<path fill-rule="evenodd" clip-rule="evenodd" d="M68.6546 42.0044L71.1453 39.514L68.6546 37.0232L66.1638 39.514L68.6546 42.0044Z" stroke="#9FABA4" stroke-width="1.86119" stroke-linecap="round" stroke-linejoin="round"/>
<path fill-rule="evenodd" clip-rule="evenodd" d="M63.6731 42.0044L66.1638 39.514L63.6731 42.0044Z" stroke="#9FABA4" stroke-width="1.86119" stroke-linecap="round" stroke-linejoin="round"/>
<path fill-rule="evenodd" clip-rule="evenodd" d="M63.6731 42.0044L61.1824 44.4948L63.6731 42.0044Z" stroke="#9FABA4" stroke-width="1.86119" stroke-linecap="round" stroke-linejoin="round"/>
<path fill-rule="evenodd" clip-rule="evenodd" d="M63.6731 37.0232L61.1824 39.514L63.6731 37.0232Z" stroke="#9FABA4" stroke-width="1.86119" stroke-linecap="round" stroke-linejoin="round"/>
<path fill-rule="evenodd" clip-rule="evenodd" d="M66.1638 34.5328L63.6731 37.0232L66.1638 34.5328Z" stroke="#9FABA4" stroke-width="1.86119" stroke-linecap="round" stroke-linejoin="round"/>
<path fill-rule="evenodd" clip-rule="evenodd" d="M58.6917 42.0044L56.2009 44.4948L58.6917 46.9845L61.1824 44.4948L58.6917 42.0044Z" stroke="#9FABA4" stroke-width="1.86119" stroke-linecap="round" stroke-linejoin="round"/>
<path fill-rule="evenodd" clip-rule="evenodd" d="M58.6917 42.0044L61.1824 39.514L58.6917 42.0044Z" stroke="#9FABA4" stroke-width="1.86119" stroke-linecap="round" stroke-linejoin="round"/>
<path fill-rule="evenodd" clip-rule="evenodd" d="M58.6917 42.0044L56.2009 39.514L58.6917 37.0232L61.1824 39.514L58.6917 42.0044Z" stroke="#9FABA4" stroke-width="1.86119" stroke-linecap="round" stroke-linejoin="round"/>
<path d="M66.1639 34.5328L63.6731 32.0417L61.1824 34.5328" stroke="#9FABA4" stroke-width="1.86119" stroke-linecap="round" stroke-linejoin="round"/>
<path fill-rule="evenodd" clip-rule="evenodd" d="M80.4807 69.2838C80.4807 78.5651 72.9545 86.0913 63.6732 86.0913C54.3886 86.0913 46.8657 78.5651 46.8657 69.2838C46.8657 60.0026 54.3886 52.4774 63.6732 52.4774C72.9545 52.4774 80.4807 60.0026 80.4807 69.2838Z" stroke="#D0D9D4" stroke-width="1.86119" stroke-linecap="round" stroke-linejoin="round"/>
<circle cx="98.5" cy="20.5" r="6.5" fill="#84948B"/>
<path fill-rule="evenodd" clip-rule="evenodd" d="M105.535 20.6397C105.535 24.4478 102.447 27.5376 98.6363 27.5376C94.8293 27.5376 91.7378 24.4478 91.7378 20.6397C91.7378 16.8284 94.8293 13.7406 98.6363 13.7406C102.447 13.7406 105.535 16.8284 105.535 20.6397Z" stroke="#D0D9D4" stroke-width="1.67737" stroke-linecap="round" stroke-linejoin="round"/>
<path fill-rule="evenodd" clip-rule="evenodd" d="M98.6363 13.7406V5V13.7406Z" stroke="#D0D9D4" stroke-width="1.67737" stroke-linecap="round" stroke-linejoin="round"/>
<path fill-rule="evenodd" clip-rule="evenodd" d="M95.997 14.2647L94.3264 10.2282L95.997 14.2647Z" stroke="#D0D9D4" stroke-width="1.67737" stroke-linecap="round" stroke-linejoin="round"/>
<path fill-rule="evenodd" clip-rule="evenodd" d="M92.2643 17.9992L88.2278 16.3279L92.2643 17.9992Z" stroke="#D0D9D4" stroke-width="1.67737" stroke-linecap="round" stroke-linejoin="round"/>
<path fill-rule="evenodd" clip-rule="evenodd" d="M92.2643 23.278L88.2278 24.9523L92.2643 23.278Z" stroke="#D0D9D4" stroke-width="1.67737" stroke-linecap="round" stroke-linejoin="round"/>
<path fill-rule="evenodd" clip-rule="evenodd" d="M95.997 27.0121L94.3264 31.0476L95.997 27.0121Z" stroke="#D0D9D4" stroke-width="1.67737" stroke-linecap="round" stroke-linejoin="round"/>
<path fill-rule="evenodd" clip-rule="evenodd" d="M101.279 27.0121L102.95 31.0506L101.279 27.0121Z" stroke="#D0D9D4" stroke-width="1.67737" stroke-linecap="round" stroke-linejoin="round"/>
<path fill-rule="evenodd" clip-rule="evenodd" d="M105.012 23.278L109.048 24.9523L105.012 23.278Z" stroke="#D0D9D4" stroke-width="1.67737" stroke-linecap="round" stroke-linejoin="round"/>
<path fill-rule="evenodd" clip-rule="evenodd" d="M105.012 17.9992L109.048 16.3279L105.012 17.9992Z" stroke="#D0D9D4" stroke-width="1.67737" stroke-linecap="round" stroke-linejoin="round"/>
<path fill-rule="evenodd" clip-rule="evenodd" d="M101.279 14.2647L102.95 10.2282L101.279 14.2647Z" stroke="#D0D9D4" stroke-width="1.67737" stroke-linecap="round" stroke-linejoin="round"/>
<path fill-rule="evenodd" clip-rule="evenodd" d="M103.517 15.7599L109.696 9.58124L103.517 15.7599Z" stroke="#D0D9D4" stroke-width="1.67737" stroke-linecap="round" stroke-linejoin="round"/>
<path fill-rule="evenodd" clip-rule="evenodd" d="M105.538 20.6398H114.276H105.538Z" stroke="#D0D9D4" stroke-width="1.67737" stroke-linecap="round" stroke-linejoin="round"/>
<path fill-rule="evenodd" clip-rule="evenodd" d="M103.517 25.518L109.696 31.6962L103.517 25.518Z" stroke="#D0D9D4" stroke-width="1.67737" stroke-linecap="round" stroke-linejoin="round"/>
<path fill-rule="evenodd" clip-rule="evenodd" d="M98.6363 27.5376V36.2751V27.5376Z" stroke="#D0D9D4" stroke-width="1.67737" stroke-linecap="round" stroke-linejoin="round"/>
<path fill-rule="evenodd" clip-rule="evenodd" d="M93.7595 25.5156L87.5798 31.6963L93.7595 25.5156Z" stroke="#D0D9D4" stroke-width="1.67737" stroke-linecap="round" stroke-linejoin="round"/>
<path fill-rule="evenodd" clip-rule="evenodd" d="M91.7379 20.6398H83H91.7379Z" stroke="#D0D9D4" stroke-width="1.67737" stroke-linecap="round" stroke-linejoin="round"/>
<path fill-rule="evenodd" clip-rule="evenodd" d="M93.7595 15.7599L87.5798 9.58124L93.7595 15.7599Z" stroke="#D0D9D4" stroke-width="1.67737" stroke-linecap="round" stroke-linejoin="round"/>
<path d="M160.135 20.3913L167.527 13L174.918 20.3913" stroke="#9FABA4" stroke-width="1.86119" stroke-linecap="round" stroke-linejoin="round"/>
<path d="M158.569 28.93L167.527 19.9694L176.484 28.93" stroke="#9FABA4" stroke-width="1.86119" stroke-linecap="round" stroke-linejoin="round"/>
<path d="M157 37.4688L167.527 26.9421L178.053 37.4688" stroke="#9FABA4" stroke-width="1.86119" stroke-linecap="round" stroke-linejoin="round"/>
<path d="M167.527 13V45.1806" stroke="#9FABA4" stroke-width="1.86119" stroke-linecap="round" stroke-linejoin="round"/>
<path d="M127.698 28.3919L135.093 21L142.484 28.3919" stroke="#9FABA4" stroke-width="1.86119" stroke-linecap="round" stroke-linejoin="round"/>
<path d="M126.132 36.9303L135.093 27.9711L144.05 36.9303" stroke="#9FABA4" stroke-width="1.86119" stroke-linecap="round" stroke-linejoin="round"/>
<path d="M124.566 45.4691L135.093 34.9458L145.616 45.4691" stroke="#9FABA4" stroke-width="1.86119" stroke-linecap="round" stroke-linejoin="round"/>
<path d="M123 54.0078L135.093 41.9152L147.185 54.0078" stroke="#9FABA4" stroke-width="1.86119" stroke-linecap="round" stroke-linejoin="round"/>
<path d="M135.093 21V65.5807" stroke="#9FABA4" stroke-width="1.86119" stroke-linecap="round" stroke-linejoin="round"/>
<path d="M129.478 86.172C129.07 86.52 128.578 86.79 128.002 86.982C127.438 87.162 126.796 87.246 126.076 87.234C125.164 87.21 124.36 86.964 123.664 86.496C122.98 86.028 122.452 85.404 122.08 84.624C121.72 83.832 121.57 82.944 121.63 81.96C121.69 81.06 121.906 80.256 122.278 79.548C122.662 78.828 123.172 78.252 123.808 77.82C124.456 77.376 125.182 77.118 125.986 77.046C126.598 76.986 127.192 77.034 127.768 77.19C128.344 77.346 128.818 77.58 129.19 77.892C129.382 78.048 129.478 78.228 129.478 78.432C129.49 78.624 129.436 78.792 129.316 78.936C129.196 79.08 129.034 79.17 128.83 79.206C128.638 79.242 128.44 79.182 128.236 79.026C127.936 78.786 127.612 78.63 127.264 78.558C126.916 78.486 126.508 78.468 126.04 78.504C125.5 78.54 125.014 78.72 124.582 79.044C124.15 79.368 123.796 79.794 123.52 80.322C123.256 80.85 123.106 81.444 123.07 82.104C123.034 82.764 123.142 83.376 123.394 83.94C123.646 84.504 124 84.96 124.456 85.308C124.924 85.644 125.458 85.83 126.058 85.866C126.634 85.89 127.114 85.83 127.498 85.686C127.894 85.53 128.26 85.302 128.596 85.002C128.8 84.81 128.998 84.726 129.19 84.75C129.394 84.774 129.556 84.864 129.676 85.02C129.808 85.176 129.862 85.362 129.838 85.578C129.826 85.782 129.706 85.98 129.478 86.172ZM131.919 86.604C131.847 86.832 131.721 86.988 131.541 87.072C131.373 87.156 131.199 87.174 131.019 87.126C130.839 87.09 130.701 86.994 130.605 86.838C130.509 86.682 130.503 86.478 130.587 86.226C130.755 85.698 130.935 85.182 131.127 84.678C131.319 84.174 131.475 83.73 131.595 83.346H131.577C131.349 83.346 131.181 83.28 131.073 83.148C130.965 83.004 130.917 82.842 130.929 82.662C130.941 82.482 131.007 82.326 131.127 82.194C131.247 82.05 131.427 81.978 131.667 81.978H132.081C132.537 80.67 132.921 79.626 133.233 78.846C133.545 78.066 133.743 77.598 133.827 77.442C133.983 77.166 134.193 77.034 134.457 77.046C134.733 77.058 134.949 77.202 135.105 77.478C135.177 77.598 135.375 78.06 135.699 78.864C136.035 79.668 136.443 80.706 136.923 81.978H137.319C137.571 81.978 137.757 82.05 137.877 82.194C138.009 82.326 138.075 82.488 138.075 82.68C138.087 82.86 138.033 83.022 137.913 83.166C137.805 83.298 137.643 83.364 137.427 83.364H137.391C137.523 83.748 137.685 84.18 137.877 84.66C138.069 85.14 138.255 85.644 138.435 86.172C138.507 86.4 138.495 86.586 138.399 86.73C138.303 86.874 138.165 86.97 137.985 87.018C137.805 87.066 137.625 87.054 137.445 86.982C137.277 86.91 137.157 86.766 137.085 86.55C136.893 86.022 136.695 85.482 136.491 84.93C136.287 84.366 136.101 83.832 135.933 83.328H133.035C132.867 83.82 132.681 84.36 132.477 84.948C132.273 85.524 132.087 86.076 131.919 86.604ZM133.539 81.978H135.465C135.381 81.702 135.273 81.384 135.141 81.024C135.009 80.664 134.883 80.316 134.763 79.98C134.643 79.644 134.541 79.386 134.457 79.206C134.397 79.398 134.313 79.662 134.205 79.998C134.097 80.322 133.983 80.664 133.863 81.024C133.743 81.372 133.635 81.69 133.539 81.978ZM148.903 86.55C148.903 86.79 148.825 86.97 148.669 87.09C148.525 87.21 148.357 87.264 148.165 87.252C147.973 87.252 147.805 87.186 147.661 87.054C147.517 86.934 147.445 86.748 147.445 86.496C147.445 86.064 147.439 85.548 147.427 84.948C147.427 84.336 147.415 83.7 147.391 83.04C147.379 82.38 147.367 81.738 147.355 81.114C147.343 80.49 147.325 79.938 147.301 79.458C147.001 79.794 146.683 80.13 146.347 80.466C146.011 80.802 145.693 81.114 145.393 81.402C145.093 81.69 144.829 81.918 144.601 82.086C144.385 82.254 144.235 82.338 144.151 82.338C144.067 82.338 143.911 82.242 143.683 82.05C143.467 81.858 143.209 81.612 142.909 81.312C142.609 81.012 142.303 80.688 141.991 80.34C141.679 79.992 141.391 79.65 141.127 79.314C141.103 79.974 141.079 80.724 141.055 81.564C141.031 82.404 141.007 83.25 140.983 84.102C140.971 84.942 140.965 85.71 140.965 86.406C140.965 86.646 140.893 86.826 140.749 86.946C140.605 87.066 140.431 87.126 140.227 87.126C140.035 87.126 139.867 87.066 139.723 86.946C139.579 86.814 139.507 86.628 139.507 86.388C139.507 85.812 139.513 85.17 139.525 84.462C139.537 83.742 139.555 82.998 139.579 82.23C139.603 81.45 139.627 80.688 139.651 79.944C139.687 79.188 139.723 78.486 139.759 77.838C139.783 77.526 139.885 77.292 140.065 77.136C140.257 76.98 140.479 76.92 140.731 76.956C140.995 76.98 141.235 77.13 141.451 77.406C141.823 77.862 142.237 78.36 142.693 78.9C143.149 79.44 143.653 80.004 144.205 80.592C144.733 80.112 145.231 79.62 145.699 79.116C146.179 78.6 146.647 78.096 147.103 77.604C147.307 77.388 147.523 77.268 147.751 77.244C147.991 77.22 148.201 77.274 148.381 77.406C148.561 77.526 148.657 77.718 148.669 77.982C148.705 78.582 148.741 79.272 148.777 80.052C148.813 80.82 148.843 81.612 148.867 82.428C148.891 83.232 148.903 84 148.903 84.732C148.915 85.452 148.915 86.058 148.903 86.55ZM150.744 86.478L150.762 78.288H150.51C150.294 78.288 150.12 78.228 149.988 78.108C149.868 77.976 149.802 77.826 149.79 77.658C149.79 77.478 149.85 77.316 149.97 77.172C150.09 77.028 150.282 76.944 150.546 76.92C151.11 76.86 151.716 76.83 152.364 76.83C153.012 76.818 153.642 76.854 154.254 76.938C154.878 77.022 155.448 77.172 155.964 77.388C156.48 77.592 156.894 77.886 157.206 78.27C157.518 78.654 157.686 79.14 157.71 79.728C157.746 80.832 157.29 81.672 156.342 82.248C155.394 82.824 154.014 83.07 152.202 82.986L152.184 86.46C152.184 86.712 152.106 86.898 151.95 87.018C151.806 87.138 151.638 87.198 151.446 87.198C151.254 87.198 151.086 87.132 150.942 87C150.798 86.88 150.732 86.706 150.744 86.478ZM152.238 81.582C153.618 81.666 154.638 81.546 155.298 81.222C155.97 80.886 156.288 80.4 156.252 79.764C156.228 79.272 155.88 78.876 155.208 78.576C154.536 78.264 153.54 78.15 152.22 78.234L152.238 81.582ZM158.754 87.198C158.526 87.21 158.352 87.15 158.232 87.018C158.112 86.898 158.046 86.754 158.034 86.586C158.022 86.418 158.07 86.268 158.178 86.136C158.286 86.004 158.46 85.932 158.7 85.92L159.222 85.902C159.234 84.39 159.234 83.016 159.222 81.78C159.222 80.544 159.228 79.374 159.24 78.27C159.168 78.258 159.084 78.252 158.988 78.252C158.892 78.252 158.796 78.246 158.7 78.234C158.46 78.21 158.286 78.132 158.178 78C158.07 77.856 158.022 77.7 158.034 77.532C158.046 77.352 158.118 77.202 158.25 77.082C158.382 76.95 158.568 76.89 158.808 76.902C159.192 76.914 159.6 76.926 160.032 76.938C160.476 76.95 160.848 76.95 161.148 76.938C161.376 76.938 161.544 76.998 161.652 77.118C161.772 77.238 161.832 77.382 161.832 77.55C161.844 77.718 161.796 77.874 161.688 78.018C161.58 78.162 161.412 78.246 161.184 78.27C161.1 78.282 160.992 78.288 160.86 78.288C160.74 78.288 160.644 78.288 160.572 78.288C160.572 79.392 160.572 80.556 160.572 81.78C160.572 82.992 160.572 84.348 160.572 85.848L160.95 85.83C161.19 85.83 161.37 85.896 161.49 86.028C161.61 86.148 161.67 86.292 161.67 86.46C161.682 86.628 161.628 86.778 161.508 86.91C161.4 87.042 161.226 87.114 160.986 87.126L158.754 87.198ZM168.987 86.82C168.615 86.46 168.231 86.01 167.835 85.47C167.451 84.93 167.061 84.348 166.665 83.724C166.281 83.088 165.897 82.452 165.513 81.816C165.129 81.168 164.763 80.556 164.415 79.98C164.403 80.568 164.391 81.252 164.379 82.032C164.379 82.812 164.373 83.592 164.361 84.372C164.349 85.14 164.343 85.812 164.343 86.388C164.343 86.628 164.265 86.808 164.109 86.928C163.965 87.048 163.797 87.108 163.605 87.108C163.425 87.108 163.263 87.048 163.119 86.928C162.975 86.796 162.903 86.604 162.903 86.352C162.915 85.608 162.927 84.768 162.939 83.832C162.951 82.896 162.963 81.924 162.975 80.916C162.987 79.908 162.999 78.924 163.011 77.964C163.011 77.664 163.119 77.448 163.335 77.316C163.563 77.172 163.809 77.13 164.073 77.19C164.349 77.25 164.565 77.418 164.721 77.694C165.297 78.678 165.855 79.644 166.395 80.592C166.935 81.54 167.445 82.41 167.925 83.202C168.417 83.994 168.873 84.648 169.293 85.164C169.317 84.72 169.335 84.198 169.347 83.598C169.371 82.986 169.389 82.344 169.401 81.672C169.413 80.988 169.419 80.31 169.419 79.638C169.419 78.966 169.413 78.336 169.401 77.748C169.401 77.508 169.467 77.322 169.599 77.19C169.743 77.058 169.905 76.992 170.085 76.992C170.277 76.992 170.445 77.052 170.589 77.172C170.733 77.292 170.811 77.478 170.823 77.73C170.823 78.222 170.817 78.792 170.805 79.44C170.805 80.088 170.799 80.76 170.787 81.456C170.775 82.152 170.757 82.824 170.733 83.472C170.721 84.108 170.697 84.678 170.661 85.182C170.637 85.674 170.607 86.04 170.571 86.28C170.535 86.532 170.427 86.736 170.247 86.892C170.079 87.048 169.875 87.126 169.635 87.126C169.407 87.126 169.191 87.024 168.987 86.82ZM176.08 87.252C175.42 87.252 174.826 87.108 174.298 86.82C173.77 86.52 173.326 86.118 172.966 85.614C172.606 85.11 172.33 84.534 172.138 83.886C171.958 83.226 171.868 82.536 171.868 81.816C171.88 80.988 172.024 80.232 172.3 79.548C172.576 78.852 172.978 78.27 173.506 77.802C174.034 77.322 174.676 77.01 175.432 76.866C176.212 76.71 176.926 76.74 177.574 76.956C178.234 77.16 178.774 77.544 179.194 78.108C179.35 78.312 179.404 78.51 179.356 78.702C179.32 78.894 179.224 79.05 179.068 79.17C178.924 79.29 178.75 79.344 178.546 79.332C178.354 79.32 178.18 79.212 178.024 79.008C177.748 78.66 177.424 78.42 177.052 78.288C176.692 78.144 176.26 78.132 175.756 78.252C174.964 78.432 174.358 78.858 173.938 79.53C173.518 80.202 173.296 80.982 173.272 81.87C173.26 82.554 173.362 83.208 173.578 83.832C173.806 84.456 174.136 84.966 174.568 85.362C175.012 85.758 175.546 85.956 176.17 85.956C176.602 85.956 176.998 85.896 177.358 85.776C177.718 85.644 178.006 85.482 178.222 85.29C178.438 85.086 178.546 84.882 178.546 84.678C178.558 84.486 178.564 84.258 178.564 83.994C178.576 83.718 178.582 83.454 178.582 83.202C178.594 82.938 178.6 82.734 178.6 82.59H177.502C177.25 82.59 177.058 82.524 176.926 82.392C176.794 82.26 176.728 82.104 176.728 81.924C176.728 81.744 176.788 81.588 176.908 81.456C177.028 81.324 177.202 81.258 177.43 81.258L179.842 81.24C180.094 81.24 180.28 81.312 180.4 81.456C180.532 81.588 180.598 81.744 180.598 81.924C180.61 82.092 180.562 82.248 180.454 82.392C180.346 82.524 180.19 82.59 179.986 82.59H179.878C179.878 82.794 179.872 83.052 179.86 83.364C179.86 83.676 179.854 83.988 179.842 84.3C179.83 84.6 179.806 84.852 179.77 85.056C179.65 85.716 179.266 86.244 178.618 86.64C177.982 87.036 177.136 87.24 176.08 87.252Z" fill="white"/>
<path d="M160.172 72.922C160.159 73.351 159.496 73.338 159.496 72.909L159.548 70.114C158.716 69.893 157.533 68.788 157.442 66.383C157.429 65.902 158.105 65.889 158.118 66.37C158.17 68.606 159.301 69.49 159.886 69.503C160.562 69.516 161.745 68.697 161.836 66.318C161.862 65.85 162.525 65.902 162.499 66.357C162.382 68.944 161.147 69.893 160.237 70.114L160.172 72.922ZM165.398 73.169C164.046 73.143 163.162 72.363 162.98 71.297C162.733 69.88 162.915 67.215 163.058 66.058C163.123 65.59 163.799 65.629 163.721 66.11C163.552 67.267 163.383 69.945 163.63 71.141C163.76 71.869 164.397 72.519 165.372 72.532C166.399 72.545 167.192 71.856 167.27 71.44C167.452 70.543 167.491 68.099 167.426 66.11C167.413 65.655 168.063 65.681 168.076 66.123C168.128 68.112 168.089 70.582 167.92 71.7C167.881 71.986 168.245 72.324 168.635 72.324C169.025 72.337 169.025 72.935 168.557 72.948C168.18 72.961 167.673 72.714 167.465 72.363C167.127 72.74 166.204 73.182 165.398 73.169ZM173.242 72.896C172.878 72.441 171.565 70.959 170.343 69.932C170.356 70.894 170.369 71.999 170.356 72.857C170.356 73.286 169.706 73.325 169.706 72.844C169.719 71.986 169.641 67.293 169.628 66.266H169.485C169.069 66.292 169.043 65.707 169.498 65.668C172.54 65.356 173.762 66.11 173.723 67.579C173.697 69.061 171.799 69.568 170.98 69.646C172.228 70.725 173.359 71.973 173.801 72.493C174.126 72.87 173.567 73.299 173.242 72.896ZM170.343 69.087C171.279 69.087 173.034 68.645 173.073 67.553C173.125 66.227 171.331 66.162 170.291 66.227C170.291 66.682 170.317 68.086 170.343 69.087ZM176.476 72.831L176.502 66.344H174.513C174.045 66.344 173.993 65.72 174.487 65.72L178.946 65.694C179.414 65.694 179.414 66.331 178.92 66.331L177.204 66.344L177.152 72.831C177.152 73.273 176.476 73.299 176.476 72.831Z" fill="#D0D9D4"/>
<path d="M216.94 72.7078L224.56 69.7878L224.48 69.2078C224.453 68.9811 224.513 68.7878 224.66 68.6278C224.807 68.4678 224.987 68.3678 225.2 68.3278C225.413 68.2745 225.613 68.3011 225.8 68.4078C225.987 68.5145 226.107 68.7145 226.16 69.0078L226.18 69.2478L231.12 67.3878C231.387 67.3078 231.62 67.3211 231.82 67.4278C232.007 67.5211 232.133 67.6678 232.2 67.8678C232.28 68.0545 232.28 68.2545 232.2 68.4678C232.133 68.6678 231.973 68.8345 231.72 68.9678L226.28 70.9278C226.307 71.2745 226.327 71.6278 226.34 71.9878C226.353 72.3345 226.36 72.6678 226.36 72.9878C226.36 73.3878 226.353 73.7611 226.34 74.1078C226.327 74.4545 226.313 74.7811 226.3 75.0878C226.98 75.3145 227.653 75.5678 228.32 75.8478C228.973 76.1278 229.573 76.4478 230.12 76.8078C230.667 77.1678 231.107 77.6011 231.44 78.1078C231.773 78.6011 231.947 79.1811 231.96 79.8478C231.96 80.3811 231.84 80.8545 231.6 81.2678C231.347 81.6811 231.013 81.9745 230.6 82.1478C230.173 82.3211 229.713 82.3678 229.22 82.2878C228.727 82.2078 228.327 81.9878 228.02 81.6278C227.847 81.4278 227.773 81.2278 227.8 81.0278C227.813 80.8145 227.893 80.6345 228.04 80.4878C228.173 80.3411 228.347 80.2611 228.56 80.2478C228.76 80.2345 228.953 80.3211 229.14 80.5078C229.313 80.6678 229.507 80.7411 229.72 80.7278C229.92 80.7145 230.093 80.6345 230.24 80.4878C230.373 80.3278 230.433 80.1145 230.42 79.8478C230.42 79.3678 230.22 78.9411 229.82 78.5678C229.407 78.1811 228.88 77.8478 228.24 77.5678C227.6 77.2745 226.92 77.0145 226.2 76.7878C226.173 77.0145 226.153 77.2011 226.14 77.3478C226.127 77.4945 226.12 77.5811 226.12 77.6078C226.08 77.9011 225.973 78.1145 225.8 78.2478C225.613 78.3811 225.42 78.4411 225.22 78.4278C225.007 78.4011 224.827 78.3011 224.68 78.1278C224.533 77.9545 224.467 77.7145 224.48 77.4078C224.493 77.1945 224.527 76.8278 224.58 76.3078C223.233 75.8811 221.92 75.5011 220.64 75.1678C219.36 74.8345 218.187 74.5678 217.12 74.3678C216.76 74.3011 216.527 74.1478 216.42 73.9078C216.313 73.6678 216.313 73.4278 216.42 73.1878C216.513 72.9478 216.687 72.7878 216.94 72.7078ZM219.54 44.8078C219.247 45.1411 218.947 45.4545 218.64 45.7478C218.333 46.0411 218.087 46.2478 217.9 46.3678C217.647 46.5411 217.42 46.6078 217.22 46.5678C217.02 46.5278 216.867 46.4278 216.76 46.2678C216.653 46.1078 216.62 45.9278 216.66 45.7278C216.687 45.5278 216.8 45.3478 217 45.1878C217.187 45.0411 217.413 44.8478 217.68 44.6078C217.947 44.3545 218.187 44.1011 218.4 43.8478C218.6 43.6211 218.807 43.5011 219.02 43.4878C219.22 43.4745 219.393 43.5345 219.54 43.6678C219.687 43.8011 219.773 43.9745 219.8 44.1878C219.813 44.3878 219.727 44.5945 219.54 44.8078ZM219.66 73.3278C220.38 73.4878 221.187 73.6811 222.08 73.9078C222.96 74.1345 223.827 74.3678 224.68 74.6078C224.707 74.1411 224.72 73.6478 224.72 73.1278C224.72 72.5945 224.713 72.0545 224.7 71.5078L219.66 73.3278ZM221.62 32.4678C221.447 32.0011 221.407 31.5611 221.5 31.1478C221.58 30.7345 221.8 30.4011 222.16 30.1478C222.52 29.8945 223.033 29.7811 223.7 29.8078C223.9 29.8211 224.093 29.8411 224.28 29.8678C224.467 29.8945 224.687 29.9345 224.94 29.9878C225.073 29.6678 225.2 29.3145 225.32 28.9278C224.96 28.8611 224.573 28.7345 224.16 28.5478C223.747 28.3611 223.353 28.1078 222.98 27.7878C222.607 27.4545 222.3 27.0411 222.06 26.5478C221.807 26.0411 221.667 25.4478 221.64 24.7678C221.6 23.8745 221.693 23.1545 221.92 22.6078C222.147 22.0478 222.447 21.6278 222.82 21.3478C223.18 21.0678 223.573 20.8878 224 20.8078C224.413 20.7145 224.8 20.6811 225.16 20.7078C225.52 20.7211 225.793 20.7545 225.98 20.8078C226.433 20.9545 226.78 21.3345 227.02 21.9478C227.26 22.5611 227.4 23.3478 227.44 24.3078C227.467 25.2545 227.4 26.3078 227.24 27.4678C228.267 27.4011 229.107 27.0411 229.76 26.3878C230.4 25.7345 230.733 24.8811 230.76 23.8278C230.773 23.0278 230.673 22.3611 230.46 21.8278C230.233 21.2945 229.947 20.8678 229.6 20.5478C229.24 20.2278 228.867 19.9811 228.48 19.8078C228.093 19.6211 227.733 19.4945 227.4 19.4278C227.053 19.3478 226.793 19.2878 226.62 19.2478C226.367 19.1945 226.187 19.0745 226.08 18.8878C225.973 18.7011 225.94 18.5078 225.98 18.3078C226.02 18.0945 226.127 17.9278 226.3 17.8078C226.46 17.6745 226.693 17.6345 227 17.6878C227.2 17.7278 227.513 17.8011 227.94 17.9078C228.353 18.0011 228.813 18.1678 229.32 18.4078C229.827 18.6345 230.313 18.9678 230.78 19.4078C231.233 19.8478 231.607 20.4278 231.9 21.1478C232.18 21.8678 232.307 22.7611 232.28 23.8278C232.253 24.8411 232.02 25.7411 231.58 26.5278C231.127 27.3011 230.52 27.9145 229.76 28.3678C229 28.8211 228.14 29.0678 227.18 29.1078C227.1 29.1211 227.013 29.1278 226.92 29.1278C226.8 29.5945 226.667 30.0145 226.52 30.3878C227.213 30.6011 227.893 30.8545 228.56 31.1478C229.227 31.4411 229.827 31.7678 230.36 32.1278C230.893 32.4745 231.32 32.8411 231.64 33.2278C231.96 33.6011 232.12 33.9811 232.12 34.3678C232.133 34.9145 231.967 35.3878 231.62 35.7878C231.273 36.1878 230.807 36.5278 230.22 36.8078C229.62 37.0745 228.967 37.3011 228.26 37.4878C227.54 37.6611 226.82 37.8078 226.1 37.9278C225.38 38.0345 224.72 38.1278 224.12 38.2078C224.147 38.3145 224.173 38.4345 224.2 38.5678C224.213 38.6878 224.22 38.8278 224.22 38.9878C224.207 39.2945 224.12 39.5145 223.96 39.6478C223.8 39.7811 223.62 39.8478 223.42 39.8478C223.207 39.8345 223.02 39.7611 222.86 39.6278C222.7 39.4811 222.627 39.2811 222.64 39.0278C222.64 38.7611 222.6 38.5811 222.52 38.4878C222.44 38.3811 222.387 38.3211 222.36 38.3078C222.107 38.1611 221.947 37.9611 221.88 37.7078C221.813 37.4545 221.847 37.2211 221.98 37.0078C222.1 36.7945 222.313 36.6811 222.62 36.6678C223.527 36.6011 224.44 36.5011 225.36 36.3678C226.28 36.2345 227.127 36.0745 227.9 35.8878C228.673 35.7011 229.3 35.4878 229.78 35.2478C230.247 34.9945 230.487 34.7145 230.5 34.4078C230.473 34.2611 230.24 34.0278 229.8 33.7078C229.347 33.3878 228.767 33.0545 228.06 32.7078C227.353 32.3611 226.593 32.0811 225.78 31.8678C225.38 32.4278 224.993 32.8411 224.62 33.1078C224.233 33.3745 223.853 33.5345 223.48 33.5878C223.16 33.6278 222.813 33.5745 222.44 33.4278C222.067 33.2811 221.793 32.9611 221.62 32.4678ZM221.68 57.7278C221.693 57.4345 221.78 57.2145 221.94 57.0678C222.1 56.9078 222.287 56.8278 222.5 56.8278C222.7 56.8145 222.887 56.8811 223.06 57.0278C223.22 57.1745 223.307 57.3945 223.32 57.6878C223.32 57.8345 223.347 58.0211 223.4 58.2478C223.44 58.4745 223.567 58.6945 223.78 58.9078C224.007 58.8411 224.32 58.7745 224.72 58.7078C225.107 58.6278 225.553 58.5678 226.06 58.5278C226.593 58.4745 227.233 58.4278 227.98 58.3878C228.713 58.3478 229.507 58.3345 230.36 58.3478C231.213 58.3478 232.073 58.3945 232.94 58.4878C233.807 58.5678 234.64 58.7145 235.44 58.9278C236.24 59.1278 236.953 59.4078 237.58 59.7678C238.207 60.1145 238.707 60.5611 239.08 61.1078C239.453 61.6545 239.647 62.3078 239.66 63.0678C239.673 63.7878 239.567 64.3745 239.34 64.8278C239.113 65.2678 238.84 65.6078 238.52 65.8478C238.213 66.0878 237.927 66.2545 237.66 66.3478C237.407 66.4411 237.26 66.4945 237.22 66.5078C236.953 66.5745 236.733 66.5478 236.56 66.4278C236.4 66.3078 236.293 66.1478 236.24 65.9478C236.2 65.7478 236.22 65.5545 236.3 65.3678C236.38 65.1678 236.533 65.0345 236.76 64.9678C236.813 64.9545 236.913 64.9211 237.06 64.8678C237.22 64.8145 237.387 64.7211 237.56 64.5878C237.747 64.4545 237.9 64.2678 238.02 64.0278C238.14 63.7745 238.193 63.4478 238.18 63.0478C238.167 62.5145 237.967 62.0545 237.58 61.6678C237.193 61.2811 236.66 60.9611 235.98 60.7078C235.313 60.4411 234.547 60.2411 233.68 60.1078C232.827 59.9745 231.92 59.9011 230.96 59.8878C231.293 60.0878 231.607 60.4211 231.9 60.8878C232.193 61.3411 232.353 61.8945 232.38 62.5478C232.407 63.3078 232.307 63.9411 232.08 64.4478C231.867 64.9545 231.58 65.3611 231.22 65.6678C230.847 65.9611 230.447 66.1811 230.02 66.3278C229.58 66.4745 229.16 66.5745 228.76 66.6278C228.347 66.6811 228 66.7078 227.72 66.7078C226.653 66.7078 225.753 66.5611 225.02 66.2678C224.273 65.9745 223.667 65.5878 223.2 65.1078C222.733 64.6278 222.393 64.1011 222.18 63.5278C221.967 62.9545 221.853 62.3945 221.84 61.8478C221.827 61.1011 222.04 60.4678 222.48 59.9478C222.227 59.6545 222.047 59.3545 221.94 59.0478C221.82 58.7411 221.747 58.4678 221.72 58.2278C221.693 57.9878 221.68 57.8211 221.68 57.7278ZM221.98 52.8678C221.82 52.3611 221.813 51.7745 221.96 51.1078C222.093 50.4411 222.473 49.8011 223.1 49.1878C223.287 49.0011 223.487 48.9211 223.7 48.9478C223.9 48.9611 224.08 49.0411 224.24 49.1878C224.387 49.3345 224.473 49.5211 224.5 49.7478C224.513 49.9611 224.413 50.1745 224.2 50.3878C223.867 50.7478 223.667 51.0811 223.6 51.3878C223.52 51.6811 223.5 51.9145 223.54 52.0878C223.58 52.3278 223.7 52.5611 223.9 52.7878C224.087 53.0011 224.207 53.1078 224.26 53.1078C225.38 53.1078 226.573 53.1145 227.84 53.1278C229.093 53.1278 230.313 53.1278 231.5 53.1278C231.767 53.1278 231.967 53.2145 232.1 53.3878C232.233 53.5478 232.3 53.7411 232.3 53.9678C232.313 54.1945 232.253 54.3945 232.12 54.5678C231.987 54.7411 231.78 54.8278 231.5 54.8278C230.313 54.8278 229.107 54.8278 227.88 54.8278C226.64 54.8145 225.447 54.8211 224.3 54.8478C224.047 54.8478 223.873 54.9345 223.78 55.1078C223.687 55.2811 223.627 55.4011 223.6 55.4678C223.493 55.7611 223.34 55.9411 223.14 56.0078C222.927 56.0745 222.727 56.0611 222.54 55.9678C222.34 55.8745 222.193 55.7278 222.1 55.5278C221.993 55.3278 221.98 55.1078 222.06 54.8678C222.073 54.8011 222.127 54.6811 222.22 54.5078C222.313 54.3345 222.447 54.1478 222.62 53.9478C222.473 53.7345 222.34 53.5211 222.22 53.3078C222.087 53.0945 222.007 52.9478 221.98 52.8678ZM221.94 44.0678C221.94 43.7345 221.987 43.4278 222.08 43.1478C222.16 42.8678 222.347 42.5411 222.64 42.1678C222.44 42.1545 222.3 42.0611 222.22 41.8878C222.127 41.7011 222.093 41.5011 222.12 41.2878C222.147 41.0611 222.233 40.8678 222.38 40.7078C222.513 40.5478 222.713 40.4745 222.98 40.4878C223.34 40.5145 223.807 40.5478 224.38 40.5878C224.953 40.6145 225.547 40.6478 226.16 40.6878C226.773 40.7145 227.333 40.7411 227.84 40.7678C228.333 40.7945 228.687 40.8078 228.9 40.8078C229.327 40.8211 229.687 40.8278 229.98 40.8278C230.26 40.8278 230.433 40.7211 230.5 40.5078C230.58 40.2678 230.713 40.1078 230.9 40.0278C231.073 39.9345 231.253 39.9145 231.44 39.9678C231.627 40.0211 231.78 40.1278 231.9 40.2878C232.02 40.4478 232.067 40.6411 232.04 40.8678C231.973 41.2278 231.853 41.5145 231.68 41.7278C231.507 41.9278 231.3 42.0811 231.06 42.1878C231.393 42.5611 231.667 43.0011 231.88 43.5078C232.08 44.0011 232.18 44.5545 232.18 45.1678C232.18 46.4345 231.793 47.4345 231.02 48.1678C230.553 48.5945 229.987 48.9011 229.32 49.0878C228.653 49.2745 227.993 49.3278 227.34 49.2478C226.327 49.1411 225.413 48.8545 224.6 48.3878C223.787 47.9078 223.14 47.3011 222.66 46.5678C222.167 45.8211 221.927 44.9878 221.94 44.0678ZM222.84 31.6278C222.84 31.7878 222.9 31.8945 223.02 31.9478C223.127 32.0011 223.22 32.0211 223.3 32.0078C223.42 31.9945 223.56 31.9478 223.72 31.8678C223.88 31.7745 224.047 31.6411 224.22 31.4678C224.113 31.4411 223.993 31.4145 223.86 31.3878C223.713 31.3611 223.6 31.3411 223.52 31.3278C223.293 31.3145 223.133 31.3278 223.04 31.3678C222.947 31.4078 222.88 31.4945 222.84 31.6278ZM223.24 24.6478C223.267 25.2878 223.42 25.7878 223.7 26.1478C223.98 26.5078 224.307 26.7745 224.68 26.9478C225.053 27.1211 225.387 27.2345 225.68 27.2878C225.853 26.2878 225.927 25.4345 225.9 24.7278C225.86 24.0211 225.787 23.4745 225.68 23.0878C225.573 22.6878 225.5 22.4611 225.46 22.4078C225.327 22.3678 225.133 22.3411 224.88 22.3278C224.613 22.3011 224.353 22.3411 224.1 22.4478C223.833 22.5545 223.613 22.7811 223.44 23.1278C223.267 23.4611 223.2 23.9678 223.24 24.6478ZM223.46 61.8078C223.46 62.3011 223.593 62.8011 223.86 63.3078C224.113 63.8011 224.553 64.2211 225.18 64.5678C225.793 64.9011 226.633 65.0745 227.7 65.0878C228.02 65.0878 228.36 65.0611 228.72 65.0078C229.08 64.9411 229.42 64.8278 229.74 64.6678C230.06 64.4945 230.32 64.2478 230.52 63.9278C230.72 63.5945 230.8 63.1611 230.76 62.6278C230.733 62.0011 230.4 61.4478 229.76 60.9678C229.107 60.4878 228.22 60.2145 227.1 60.1478C226.54 60.1211 225.98 60.1545 225.42 60.2478C224.86 60.3411 224.393 60.5145 224.02 60.7678C223.647 61.0078 223.46 61.3545 223.46 61.8078ZM223.48 44.0478C223.48 44.6078 223.613 45.1011 223.88 45.5278C224.133 45.9545 224.467 46.3211 224.88 46.6278C225.28 46.9211 225.713 47.1545 226.18 47.3278C226.647 47.5011 227.093 47.6078 227.52 47.6478C227.947 47.7011 228.38 47.6678 228.82 47.5478C229.247 47.4145 229.6 47.2211 229.88 46.9678C230.12 46.7278 230.32 46.4545 230.48 46.1478C230.627 45.8278 230.693 45.4478 230.68 45.0078C230.667 44.4878 230.467 43.9678 230.08 43.4478C229.693 42.9278 229.113 42.5878 228.34 42.4278C228.233 42.4011 228.033 42.3745 227.74 42.3478C227.447 42.3211 227.113 42.2945 226.74 42.2678C226.353 42.2411 225.98 42.2278 225.62 42.2278C225.247 42.2145 224.933 42.2145 224.68 42.2278C224.427 42.2278 224.213 42.3411 224.04 42.5678C223.853 42.7945 223.713 43.0545 223.62 43.3478C223.527 43.6278 223.48 43.8611 223.48 44.0478Z" fill="#9FABA4"/>
</svg>
