<svg width="255" height="100" viewBox="0 0 255 100" fill="none" xmlns="http://www.w3.org/2000/svg">
<path fill-rule="evenodd" clip-rule="evenodd" d="M255.002 15.6249V9.37493C249.826 9.37493 245.628 5.17447 245.628 0H209.374C209.374 5.17447 205.176 9.37493 200 9.37493C194.824 9.37493 190.626 5.17447 190.626 0H9.37418C9.37418 5.17447 5.17522 9.37493 0 9.37493V15.6249C1.72507 15.6249 3.1246 17.0248 3.1246 18.7499C3.1246 20.4746 1.72507 21.8748 0 21.8748V28.1248C1.72507 28.1248 3.1246 29.5251 3.1246 31.2501C3.1246 32.9748 1.72507 34.3751 0 34.3751V40.6247C1.72507 40.6247 3.1246 42.0253 3.1246 43.75C3.1246 45.4747 1.72507 46.875 0 46.875V53.125C1.72507 53.125 3.1246 54.5253 3.1246 56.25C3.1246 57.9747 1.72507 59.3753 0 59.3753V65.6253C1.72507 65.6253 3.1246 67.0252 3.1246 68.7502C3.1246 70.4749 1.72507 71.8748 0 71.8748V78.1252C1.72507 78.1252 3.1246 79.5254 3.1246 81.2501C3.1246 82.9748 1.72507 84.3751 0 84.3751V90.6251C5.17522 90.6251 9.37418 94.8244 9.37418 100H190.626C190.626 94.8244 194.824 90.6251 200 90.6251C205.176 90.6251 209.374 94.8244 209.374 100H245.628C245.628 94.8244 249.826 90.6251 255.002 90.6251V84.3751C253.278 84.3751 251.879 82.9748 251.879 81.2501C251.879 79.5254 253.278 78.1252 255.002 78.1252V71.8748C253.278 71.8748 251.879 70.4749 251.879 68.7502C251.879 67.0252 253.278 65.6253 255.002 65.6253V59.3753C253.278 59.3753 251.879 57.9747 251.879 56.25C251.879 54.5253 253.278 53.125 255.002 53.125V46.875C253.278 46.875 251.879 45.4747 251.879 43.75C251.879 42.0253 253.278 40.6247 255.002 40.6247V34.3751C253.278 34.3751 251.879 32.9748 251.879 31.2501C251.879 29.5251 253.278 28.1248 255.002 28.1248V21.8748C253.278 21.8748 251.879 20.4746 251.879 18.7499C251.879 17.0248 253.278 15.6249 255.002 15.6249ZM200 21.8748C198.276 21.8748 196.877 20.4746 196.877 18.7499C196.877 17.0248 198.276 15.6249 200 15.6249C201.724 15.6249 203.127 17.0248 203.127 18.7499C203.127 20.4746 201.724 21.8748 200 21.8748ZM196.877 31.2501C196.877 32.9748 198.276 34.3751 200 34.3751C201.724 34.3751 203.127 32.9748 203.127 31.2501C203.127 29.5251 201.724 28.1248 200 28.1248C198.276 28.1248 196.877 29.5251 196.877 31.2501ZM200 46.875C198.276 46.875 196.877 45.4747 196.877 43.75C196.877 42.0254 198.276 40.6247 200 40.6247C201.724 40.6247 203.127 42.0254 203.127 43.75C203.127 45.4747 201.724 46.875 200 46.875ZM196.877 56.25C196.877 57.9747 198.276 59.3753 200 59.3753C201.724 59.3753 203.127 57.9747 203.127 56.25C203.127 54.5253 201.724 53.125 200 53.125C198.276 53.125 196.877 54.5253 196.877 56.25ZM200 71.8748C198.276 71.8748 196.877 70.4749 196.877 68.7502C196.877 67.0252 198.276 65.6253 200 65.6253C201.724 65.6253 203.127 67.0252 203.127 68.7502C203.127 70.4749 201.724 71.8748 200 71.8748ZM196.877 81.2501C196.877 82.9748 198.276 84.3751 200 84.3751C201.724 84.3751 203.127 82.9748 203.127 81.2501C203.127 79.5254 201.724 78.1252 200 78.1252C198.276 78.1252 196.877 79.5254 196.877 81.2501Z" fill="#945625"/>
<path fill-rule="evenodd" clip-rule="evenodd" d="M106.613 29L84.9214 32.2024C83.1219 46.8633 72 55.4737 72 55.4737L94.962 56.1126C94.962 56.1126 108.074 37.654 106.613 29Z" fill="#B8845F"/>
<path d="M83.7474 66.681C85.6454 66.772 86.5034 68.423 86.3344 70.646C86.1524 72.895 85.1384 74.156 83.3834 74.156C81.6024 74.143 80.6274 72.609 80.7184 70.321C80.8094 68.202 82.0964 66.59 83.7474 66.681ZM83.6824 67.292C82.4604 67.253 81.4334 68.67 81.3684 70.334C81.3294 71.595 81.6804 72.492 81.9794 72.804C83.2274 70.152 84.2414 68.319 84.6574 67.591C84.5014 67.461 84.1374 67.305 83.6824 67.292ZM85.1384 68.033C84.6574 68.891 83.7084 70.685 82.4864 73.285C82.6424 73.415 83.0064 73.545 83.4484 73.545C84.8004 73.519 85.5544 72.388 85.6974 70.594C85.8144 69.255 85.4244 68.371 85.1384 68.033ZM88.9427 66.59C90.3337 66.525 91.3997 67.37 91.3607 68.813C91.3347 69.892 90.6457 70.646 89.9567 70.867C90.6587 71.14 91.8677 71.985 91.7897 74.104C91.7377 75.664 90.8147 77.133 88.9297 77.146C87.1747 77.159 86.5377 76.145 86.4337 76.002C86.0957 75.586 86.6937 75.183 86.9797 75.573C87.1097 75.742 87.6037 76.535 88.9427 76.522C90.4247 76.509 91.1007 75.248 91.1397 74.065C91.1917 72.271 90.1387 71.322 88.8127 71.231C88.3057 71.192 88.3707 70.451 88.8517 70.464C89.9957 70.49 90.6717 69.749 90.6977 68.787C90.7107 67.851 90.0607 67.201 88.9817 67.227C87.8247 67.266 87.5257 68.02 87.4607 68.202C87.2917 68.605 86.6547 68.462 86.7847 68.02C86.8497 67.812 87.2397 66.655 88.9427 66.59ZM93.7658 73.753C93.5448 74.351 92.6738 73.987 92.9208 73.467C93.1938 72.908 93.9478 73.22 93.7658 73.753ZM97.5345 66.681C99.4325 66.772 100.29 68.423 100.121 70.646C99.9395 72.895 98.9255 74.156 97.1705 74.156C95.3895 74.143 94.4145 72.609 94.5055 70.321C94.5965 68.202 95.8835 66.59 97.5345 66.681ZM97.4695 67.292C96.2475 67.253 95.2205 68.67 95.1555 70.334C95.1165 71.595 95.4675 72.492 95.7665 72.804C97.0145 70.152 98.0285 68.319 98.4445 67.591C98.2885 67.461 97.9245 67.305 97.4695 67.292ZM98.9255 68.033C98.4445 68.891 97.4955 70.685 96.2735 73.285C96.4295 73.415 96.7935 73.545 97.2355 73.545C98.5875 73.519 99.3415 72.388 99.4845 70.594C99.6015 69.255 99.2115 68.371 98.9255 68.033ZM103.715 64.926C105.236 64.952 106.393 65.68 106.289 67.565C106.237 68.657 105.561 69.476 105.236 69.814C105.808 70.217 106.276 70.711 106.328 71.452C106.432 72.843 105.652 74.143 103.741 74.208C102.48 74.247 100.816 73.818 100.777 71.725C100.751 70.204 101.635 69.307 101.934 68.969C101.336 68.566 101.024 68.007 100.972 67.396C100.868 65.901 101.882 64.887 103.715 64.926ZM103.702 65.563C102.285 65.524 101.583 66.33 101.648 67.357C101.674 67.812 101.986 68.306 102.662 68.605C103.416 68.93 104.183 69.255 104.638 69.437C104.963 69.151 105.6 68.449 105.626 67.552C105.691 66.148 105.015 65.602 103.702 65.563ZM102.584 69.307C102.311 69.58 101.427 70.386 101.453 71.712C101.479 73.233 102.701 73.61 103.715 73.584C105.197 73.545 105.782 72.544 105.678 71.504C105.613 70.854 105.067 70.347 104.209 69.97C103.754 69.788 103.247 69.58 102.584 69.307ZM108.061 73.753C107.84 74.351 106.969 73.987 107.216 73.467C107.489 72.908 108.243 73.22 108.061 73.753ZM111.615 66.642C112.863 66.668 113.708 67.37 113.786 68.319C113.981 70.23 111.277 72.167 109.925 73.389C111.134 73.454 113.006 73.428 114.163 73.35C114.618 73.324 114.644 73.974 114.189 74C112.993 74.065 110.978 74.078 109.574 74C108.989 73.961 108.911 73.402 109.262 73.09C110.471 72.011 113.331 69.944 113.123 68.371C113.045 67.721 112.447 67.305 111.589 67.292C110.289 67.266 110.003 68.007 109.873 68.371C109.73 68.787 109.028 68.631 109.197 68.15C109.327 67.786 109.769 66.603 111.615 66.642ZM117.669 66.681C119.567 66.772 120.425 68.423 120.256 70.646C120.074 72.895 119.06 74.156 117.305 74.156C115.524 74.143 114.549 72.609 114.64 70.321C114.731 68.202 116.018 66.59 117.669 66.681ZM117.604 67.292C116.382 67.253 115.355 68.67 115.29 70.334C115.251 71.595 115.602 72.492 115.901 72.804C117.149 70.152 118.163 68.319 118.579 67.591C118.423 67.461 118.059 67.305 117.604 67.292ZM119.06 68.033C118.579 68.891 117.63 70.685 116.408 73.285C116.564 73.415 116.928 73.545 117.37 73.545C118.722 73.519 119.476 72.388 119.619 70.594C119.736 69.255 119.346 68.371 119.06 68.033Z" fill="#E0B699"/>
<path d="M55.1635 89.252C54.5995 89.252 54.1195 89.18 53.7235 89.036C53.3275 88.904 53.0035 88.748 52.7515 88.568C52.5115 88.376 52.3255 88.202 52.1935 88.046C52.0615 87.878 51.9775 87.764 51.9415 87.704C51.7975 87.488 51.7495 87.29 51.7975 87.11C51.8455 86.918 51.9475 86.774 52.1035 86.678C52.2715 86.57 52.4515 86.534 52.6435 86.57C52.8355 86.594 52.9975 86.708 53.1295 86.912C53.3335 87.224 53.6095 87.482 53.9575 87.686C54.3055 87.878 54.7195 87.98 55.1995 87.992C55.7155 88.004 56.1475 87.926 56.4955 87.758C56.8555 87.59 57.1315 87.386 57.3235 87.146C57.5155 86.906 57.6115 86.684 57.6115 86.48C57.6235 86.06 57.5335 85.724 57.3415 85.472C57.1495 85.22 56.8675 85.01 56.4955 84.842C56.1235 84.662 55.6615 84.494 55.1095 84.338C54.6295 84.194 54.1555 84.014 53.6875 83.798C53.2315 83.582 52.8475 83.3 52.5355 82.952C52.2355 82.592 52.0855 82.142 52.0855 81.602C52.0855 80.75 52.3915 80.078 53.0035 79.586C53.6155 79.082 54.4315 78.824 55.4515 78.812C56.6515 78.788 57.5635 79.118 58.1875 79.802C58.3555 79.982 58.4275 80.168 58.4035 80.36C58.3915 80.54 58.3195 80.696 58.1875 80.828C58.0555 80.948 57.8935 81.014 57.7015 81.026C57.5215 81.038 57.3415 80.96 57.1615 80.792C56.9335 80.576 56.6935 80.414 56.4415 80.306C56.1895 80.186 55.8655 80.132 55.4695 80.144C54.8695 80.156 54.3955 80.3 54.0475 80.576C53.7115 80.84 53.5435 81.176 53.5435 81.584C53.5435 81.884 53.6995 82.154 54.0115 82.394C54.3235 82.622 54.8575 82.862 55.6135 83.114C55.9975 83.234 56.3875 83.372 56.7835 83.528C57.1915 83.672 57.5635 83.864 57.8995 84.104C58.2475 84.332 58.5235 84.638 58.7275 85.022C58.9315 85.406 59.0215 85.898 58.9975 86.498C58.9735 87.29 58.6195 87.95 57.9355 88.478C57.2635 89.006 56.3395 89.264 55.1635 89.252ZM63.6279 89.234C62.5959 89.21 61.7679 88.928 61.1439 88.388C60.5319 87.848 60.1599 87.194 60.0279 86.426C59.9439 85.958 59.8899 85.424 59.8659 84.824C59.8539 84.212 59.8539 83.588 59.8659 82.952C59.8899 82.304 59.9259 81.692 59.9739 81.116C60.0219 80.54 60.0699 80.048 60.1179 79.64C60.1539 79.388 60.2499 79.208 60.4059 79.1C60.5619 78.98 60.7299 78.926 60.9099 78.938C61.1019 78.95 61.2579 79.028 61.3779 79.172C61.5099 79.316 61.5579 79.514 61.5219 79.766C61.4739 80.162 61.4259 80.648 61.3779 81.224C61.3299 81.788 61.2999 82.376 61.2879 82.988C61.2759 83.6 61.2759 84.188 61.2879 84.752C61.3119 85.304 61.3599 85.766 61.4319 86.138C61.5279 86.582 61.7559 86.978 62.1159 87.326C62.4759 87.674 62.9679 87.86 63.5919 87.884C64.0119 87.896 64.3959 87.818 64.7439 87.65C65.1039 87.47 65.3979 87.266 65.6259 87.038C65.8659 86.798 65.9979 86.588 66.0219 86.408C66.0819 86.036 66.1299 85.586 66.1659 85.058C66.2019 84.518 66.2259 83.942 66.2379 83.33C66.2499 82.706 66.2559 82.088 66.2559 81.476C66.2559 80.852 66.2439 80.276 66.2199 79.748C66.2079 79.496 66.2679 79.31 66.3999 79.19C66.5439 79.07 66.7059 79.016 66.8859 79.028C67.0659 79.028 67.2279 79.094 67.3719 79.226C67.5159 79.346 67.5939 79.532 67.6059 79.784C67.6299 80.288 67.6419 80.864 67.6419 81.512C67.6419 82.148 67.6299 82.802 67.6059 83.474C67.5939 84.146 67.5699 84.77 67.5339 85.346C67.5099 85.922 67.4739 86.396 67.4259 86.768C67.4019 86.996 67.4619 87.2 67.6059 87.38C67.7619 87.56 67.9719 87.656 68.2359 87.668C68.4519 87.68 68.6139 87.752 68.7219 87.884C68.8299 88.016 68.8779 88.172 68.8659 88.352C68.8539 88.52 68.7879 88.676 68.6679 88.82C68.5479 88.952 68.3739 89.018 68.1459 89.018C67.7739 89.03 67.4319 88.952 67.1199 88.784C66.8079 88.616 66.5859 88.424 66.4539 88.208C66.1659 88.496 65.7519 88.742 65.2119 88.946C64.6839 89.15 64.1559 89.246 63.6279 89.234ZM79.3166 88.55C79.3166 88.79 79.2386 88.97 79.0826 89.09C78.9386 89.21 78.7706 89.264 78.5786 89.252C78.3866 89.252 78.2186 89.186 78.0746 89.054C77.9306 88.934 77.8586 88.748 77.8586 88.496C77.8586 88.064 77.8526 87.548 77.8406 86.948C77.8406 86.336 77.8286 85.7 77.8046 85.04C77.7926 84.38 77.7806 83.738 77.7686 83.114C77.7566 82.49 77.7386 81.938 77.7146 81.458C77.4146 81.794 77.0966 82.13 76.7606 82.466C76.4246 82.802 76.1066 83.114 75.8066 83.402C75.5066 83.69 75.2426 83.918 75.0146 84.086C74.7986 84.254 74.6486 84.338 74.5646 84.338C74.4806 84.338 74.3246 84.242 74.0966 84.05C73.8806 83.858 73.6226 83.612 73.3226 83.312C73.0226 83.012 72.7166 82.688 72.4046 82.34C72.0926 81.992 71.8046 81.65 71.5406 81.314C71.5166 81.974 71.4926 82.724 71.4686 83.564C71.4446 84.404 71.4206 85.25 71.3966 86.102C71.3846 86.942 71.3786 87.71 71.3786 88.406C71.3786 88.646 71.3066 88.826 71.1626 88.946C71.0186 89.066 70.8446 89.126 70.6406 89.126C70.4486 89.126 70.2806 89.066 70.1366 88.946C69.9926 88.814 69.9206 88.628 69.9206 88.388C69.9206 87.812 69.9266 87.17 69.9386 86.462C69.9506 85.742 69.9686 84.998 69.9926 84.23C70.0166 83.45 70.0406 82.688 70.0646 81.944C70.1006 81.188 70.1366 80.486 70.1726 79.838C70.1966 79.526 70.2986 79.292 70.4786 79.136C70.6706 78.98 70.8926 78.92 71.1446 78.956C71.4086 78.98 71.6486 79.13 71.8646 79.406C72.2366 79.862 72.6506 80.36 73.1066 80.9C73.5626 81.44 74.0666 82.004 74.6186 82.592C75.1466 82.112 75.6446 81.62 76.1126 81.116C76.5926 80.6 77.0606 80.096 77.5166 79.604C77.7206 79.388 77.9366 79.268 78.1646 79.244C78.4046 79.22 78.6146 79.274 78.7946 79.406C78.9746 79.526 79.0706 79.718 79.0826 79.982C79.1186 80.582 79.1546 81.272 79.1906 82.052C79.2266 82.82 79.2566 83.612 79.2806 84.428C79.3046 85.232 79.3166 86 79.3166 86.732C79.3286 87.452 79.3286 88.058 79.3166 88.55ZM89.9514 88.55C89.9514 88.79 89.8734 88.97 89.7174 89.09C89.5734 89.21 89.4054 89.264 89.2134 89.252C89.0214 89.252 88.8534 89.186 88.7094 89.054C88.5654 88.934 88.4934 88.748 88.4934 88.496C88.4934 88.064 88.4874 87.548 88.4754 86.948C88.4754 86.336 88.4634 85.7 88.4394 85.04C88.4274 84.38 88.4154 83.738 88.4034 83.114C88.3914 82.49 88.3734 81.938 88.3494 81.458C88.0494 81.794 87.7314 82.13 87.3954 82.466C87.0594 82.802 86.7414 83.114 86.4414 83.402C86.1414 83.69 85.8774 83.918 85.6494 84.086C85.4334 84.254 85.2834 84.338 85.1994 84.338C85.1154 84.338 84.9594 84.242 84.7314 84.05C84.5154 83.858 84.2574 83.612 83.9574 83.312C83.6574 83.012 83.3514 82.688 83.0394 82.34C82.7274 81.992 82.4394 81.65 82.1754 81.314C82.1514 81.974 82.1274 82.724 82.1034 83.564C82.0794 84.404 82.0554 85.25 82.0314 86.102C82.0194 86.942 82.0134 87.71 82.0134 88.406C82.0134 88.646 81.9414 88.826 81.7974 88.946C81.6534 89.066 81.4794 89.126 81.2754 89.126C81.0834 89.126 80.9154 89.066 80.7714 88.946C80.6274 88.814 80.5554 88.628 80.5554 88.388C80.5554 87.812 80.5614 87.17 80.5734 86.462C80.5854 85.742 80.6034 84.998 80.6274 84.23C80.6514 83.45 80.6754 82.688 80.6994 81.944C80.7354 81.188 80.7714 80.486 80.8074 79.838C80.8314 79.526 80.9334 79.292 81.1134 79.136C81.3054 78.98 81.5274 78.92 81.7794 78.956C82.0434 78.98 82.2834 79.13 82.4994 79.406C82.8714 79.862 83.2854 80.36 83.7414 80.9C84.1974 81.44 84.7014 82.004 85.2534 82.592C85.7814 82.112 86.2794 81.62 86.7474 81.116C87.2274 80.6 87.6954 80.096 88.1514 79.604C88.3554 79.388 88.5714 79.268 88.7994 79.244C89.0394 79.22 89.2494 79.274 89.4294 79.406C89.6094 79.526 89.7054 79.718 89.7174 79.982C89.7534 80.582 89.7894 81.272 89.8254 82.052C89.8614 82.82 89.8914 83.612 89.9154 84.428C89.9394 85.232 89.9514 86 89.9514 86.732C89.9634 87.452 89.9634 88.058 89.9514 88.55ZM97.5939 89.162C96.7419 89.15 95.8839 89.144 95.0199 89.144C94.1559 89.144 93.2919 89.138 92.4279 89.126C92.1639 89.126 91.9299 89.036 91.7259 88.856C91.5339 88.676 91.4379 88.454 91.4379 88.19C91.4379 88.07 91.4319 87.794 91.4199 87.362C91.4199 86.918 91.4199 86.384 91.4199 85.76C91.4199 85.136 91.4139 84.494 91.4019 83.834C91.3899 83.162 91.3839 82.532 91.3839 81.944C91.3839 81.356 91.3779 80.876 91.3659 80.504C91.3659 80.132 91.3659 79.94 91.3659 79.928C91.3659 79.688 91.4499 79.49 91.6179 79.334C91.7859 79.166 92.0079 79.076 92.2839 79.064L97.5759 78.938C97.8039 78.938 97.9839 79.004 98.1159 79.136C98.2479 79.268 98.3199 79.43 98.3319 79.622C98.3559 79.802 98.3019 79.964 98.1699 80.108C98.0379 80.24 97.8279 80.312 97.5399 80.324L92.8959 80.432C92.8119 80.432 92.7699 80.492 92.7699 80.612C92.7699 80.78 92.7699 81.02 92.7699 81.332C92.7699 81.644 92.7699 81.98 92.7699 82.34C92.7699 82.7 92.7699 83.048 92.7699 83.384C93.1059 83.36 93.4959 83.342 93.9399 83.33C94.3839 83.318 94.8159 83.312 95.2359 83.312C95.6559 83.3 95.9799 83.294 96.2079 83.294C96.4599 83.294 96.6459 83.366 96.7659 83.51C96.8859 83.642 96.9399 83.798 96.9279 83.978C96.9279 84.158 96.8619 84.32 96.7299 84.464C96.6099 84.596 96.4239 84.662 96.1719 84.662C95.5359 84.662 94.9059 84.674 94.2819 84.698C93.6579 84.71 93.1599 84.728 92.7879 84.752L92.8419 87.578C92.8419 87.758 92.9079 87.848 93.0399 87.848C93.6639 87.848 94.3599 87.848 95.1279 87.848C95.9079 87.848 96.7539 87.86 97.6659 87.884C97.9059 87.884 98.0859 87.95 98.2059 88.082C98.3259 88.214 98.3859 88.364 98.3859 88.532C98.3859 88.7 98.3199 88.85 98.1879 88.982C98.0679 89.102 97.8699 89.162 97.5939 89.162ZM105.054 88.748C104.91 88.556 104.658 88.262 104.298 87.866C103.938 87.47 103.524 87.038 103.056 86.57C102.6 86.09 102.138 85.646 101.67 85.238C101.682 85.754 101.688 86.324 101.688 86.948C101.7 87.56 101.7 88.088 101.688 88.532C101.688 88.772 101.616 88.952 101.472 89.072C101.328 89.204 101.166 89.27 100.986 89.27C100.806 89.27 100.644 89.204 100.5 89.072C100.356 88.952 100.284 88.766 100.284 88.514C100.284 88.322 100.278 88.016 100.266 87.596C100.266 87.164 100.26 86.666 100.248 86.102C100.236 85.538 100.224 84.95 100.212 84.338C100.2 83.726 100.188 83.138 100.176 82.574C100.176 81.998 100.176 81.494 100.176 81.062C100.176 80.63 100.176 80.318 100.176 80.126L99.9785 80.144C99.7385 80.144 99.5585 80.084 99.4385 79.964C99.3185 79.844 99.2585 79.7 99.2585 79.532C99.2585 79.364 99.3185 79.214 99.4385 79.082C99.5585 78.938 99.7325 78.854 99.9605 78.83C102.288 78.602 103.95 78.734 104.946 79.226C105.942 79.706 106.422 80.51 106.386 81.638C106.374 82.106 106.248 82.514 106.008 82.862C105.78 83.21 105.492 83.498 105.144 83.726C104.796 83.954 104.424 84.134 104.028 84.266C103.632 84.398 103.266 84.494 102.93 84.554C103.398 84.974 103.842 85.4 104.262 85.832C104.694 86.252 105.072 86.642 105.396 87.002C105.732 87.35 105.99 87.632 106.17 87.848C106.338 88.04 106.41 88.238 106.386 88.442C106.362 88.634 106.272 88.796 106.116 88.928C105.972 89.048 105.798 89.102 105.594 89.09C105.402 89.078 105.222 88.964 105.054 88.748ZM101.616 83.402C102.276 83.39 102.858 83.3 103.362 83.132C103.866 82.964 104.262 82.742 104.55 82.466C104.838 82.19 104.988 81.896 105 81.584C105.024 81.128 104.868 80.786 104.532 80.558C104.196 80.318 103.758 80.162 103.218 80.09C102.69 80.018 102.138 80.006 101.562 80.054C101.574 80.27 101.58 80.582 101.58 80.99C101.592 81.398 101.598 81.824 101.598 82.268C101.61 82.7 101.616 83.078 101.616 83.402ZM119.974 88.172C119.566 88.52 119.074 88.79 118.498 88.982C117.934 89.162 117.292 89.246 116.572 89.234C115.66 89.21 114.856 88.964 114.16 88.496C113.476 88.028 112.948 87.404 112.576 86.624C112.216 85.832 112.066 84.944 112.126 83.96C112.186 83.06 112.402 82.256 112.774 81.548C113.158 80.828 113.668 80.252 114.304 79.82C114.952 79.376 115.678 79.118 116.482 79.046C117.094 78.986 117.688 79.034 118.264 79.19C118.84 79.346 119.314 79.58 119.686 79.892C119.878 80.048 119.974 80.228 119.974 80.432C119.986 80.624 119.932 80.792 119.812 80.936C119.692 81.08 119.53 81.17 119.326 81.206C119.134 81.242 118.936 81.182 118.732 81.026C118.432 80.786 118.108 80.63 117.76 80.558C117.412 80.486 117.004 80.468 116.536 80.504C115.996 80.54 115.51 80.72 115.078 81.044C114.646 81.368 114.292 81.794 114.016 82.322C113.752 82.85 113.602 83.444 113.566 84.104C113.53 84.764 113.638 85.376 113.89 85.94C114.142 86.504 114.496 86.96 114.952 87.308C115.42 87.644 115.954 87.83 116.554 87.866C117.13 87.89 117.61 87.83 117.994 87.686C118.39 87.53 118.756 87.302 119.092 87.002C119.296 86.81 119.494 86.726 119.686 86.75C119.89 86.774 120.052 86.864 120.172 87.02C120.304 87.176 120.358 87.362 120.334 87.578C120.322 87.782 120.202 87.98 119.974 88.172ZM122.415 88.604C122.343 88.832 122.217 88.988 122.037 89.072C121.869 89.156 121.695 89.174 121.515 89.126C121.335 89.09 121.197 88.994 121.101 88.838C121.005 88.682 120.999 88.478 121.083 88.226C121.251 87.698 121.431 87.182 121.623 86.678C121.815 86.174 121.971 85.73 122.091 85.346H122.073C121.845 85.346 121.677 85.28 121.569 85.148C121.461 85.004 121.413 84.842 121.425 84.662C121.437 84.482 121.503 84.326 121.623 84.194C121.743 84.05 121.923 83.978 122.163 83.978H122.577C123.033 82.67 123.417 81.626 123.729 80.846C124.041 80.066 124.239 79.598 124.323 79.442C124.479 79.166 124.689 79.034 124.953 79.046C125.229 79.058 125.445 79.202 125.601 79.478C125.673 79.598 125.871 80.06 126.195 80.864C126.531 81.668 126.939 82.706 127.419 83.978H127.815C128.067 83.978 128.253 84.05 128.373 84.194C128.505 84.326 128.571 84.488 128.571 84.68C128.583 84.86 128.529 85.022 128.409 85.166C128.301 85.298 128.139 85.364 127.923 85.364H127.887C128.019 85.748 128.181 86.18 128.373 86.66C128.565 87.14 128.751 87.644 128.931 88.172C129.003 88.4 128.991 88.586 128.895 88.73C128.799 88.874 128.661 88.97 128.481 89.018C128.301 89.066 128.121 89.054 127.941 88.982C127.773 88.91 127.653 88.766 127.581 88.55C127.389 88.022 127.191 87.482 126.987 86.93C126.783 86.366 126.597 85.832 126.429 85.328H123.531C123.363 85.82 123.177 86.36 122.973 86.948C122.769 87.524 122.583 88.076 122.415 88.604ZM124.035 83.978H125.961C125.877 83.702 125.769 83.384 125.637 83.024C125.505 82.664 125.379 82.316 125.259 81.98C125.139 81.644 125.037 81.386 124.953 81.206C124.893 81.398 124.809 81.662 124.701 81.998C124.593 82.322 124.479 82.664 124.359 83.024C124.239 83.372 124.131 83.69 124.035 83.978ZM139.399 88.55C139.399 88.79 139.321 88.97 139.165 89.09C139.021 89.21 138.853 89.264 138.661 89.252C138.469 89.252 138.301 89.186 138.157 89.054C138.013 88.934 137.941 88.748 137.941 88.496C137.941 88.064 137.935 87.548 137.923 86.948C137.923 86.336 137.911 85.7 137.887 85.04C137.875 84.38 137.863 83.738 137.851 83.114C137.839 82.49 137.821 81.938 137.797 81.458C137.497 81.794 137.179 82.13 136.843 82.466C136.507 82.802 136.189 83.114 135.889 83.402C135.589 83.69 135.325 83.918 135.097 84.086C134.881 84.254 134.731 84.338 134.647 84.338C134.563 84.338 134.407 84.242 134.179 84.05C133.963 83.858 133.705 83.612 133.405 83.312C133.105 83.012 132.799 82.688 132.487 82.34C132.175 81.992 131.887 81.65 131.623 81.314C131.599 81.974 131.575 82.724 131.551 83.564C131.527 84.404 131.503 85.25 131.479 86.102C131.467 86.942 131.461 87.71 131.461 88.406C131.461 88.646 131.389 88.826 131.245 88.946C131.101 89.066 130.927 89.126 130.723 89.126C130.531 89.126 130.363 89.066 130.219 88.946C130.075 88.814 130.003 88.628 130.003 88.388C130.003 87.812 130.009 87.17 130.021 86.462C130.033 85.742 130.051 84.998 130.075 84.23C130.099 83.45 130.123 82.688 130.147 81.944C130.183 81.188 130.219 80.486 130.255 79.838C130.279 79.526 130.381 79.292 130.561 79.136C130.753 78.98 130.975 78.92 131.227 78.956C131.491 78.98 131.731 79.13 131.947 79.406C132.319 79.862 132.733 80.36 133.189 80.9C133.645 81.44 134.149 82.004 134.701 82.592C135.229 82.112 135.727 81.62 136.195 81.116C136.675 80.6 137.143 80.096 137.599 79.604C137.803 79.388 138.019 79.268 138.247 79.244C138.487 79.22 138.697 79.274 138.877 79.406C139.057 79.526 139.153 79.718 139.165 79.982C139.201 80.582 139.237 81.272 139.273 82.052C139.309 82.82 139.339 83.612 139.363 84.428C139.387 85.232 139.399 86 139.399 86.732C139.411 87.452 139.411 88.058 139.399 88.55ZM141.24 88.478L141.258 80.288H141.006C140.79 80.288 140.616 80.228 140.484 80.108C140.364 79.976 140.298 79.826 140.286 79.658C140.286 79.478 140.346 79.316 140.466 79.172C140.586 79.028 140.778 78.944 141.042 78.92C141.606 78.86 142.212 78.83 142.86 78.83C143.508 78.818 144.138 78.854 144.75 78.938C145.374 79.022 145.944 79.172 146.46 79.388C146.976 79.592 147.39 79.886 147.702 80.27C148.014 80.654 148.182 81.14 148.206 81.728C148.242 82.832 147.786 83.672 146.838 84.248C145.89 84.824 144.51 85.07 142.698 84.986L142.68 88.46C142.68 88.712 142.602 88.898 142.446 89.018C142.302 89.138 142.134 89.198 141.942 89.198C141.75 89.198 141.582 89.132 141.438 89C141.294 88.88 141.228 88.706 141.24 88.478ZM142.734 83.582C144.114 83.666 145.134 83.546 145.794 83.222C146.466 82.886 146.784 82.4 146.748 81.764C146.724 81.272 146.376 80.876 145.704 80.576C145.032 80.264 144.036 80.15 142.716 80.234L142.734 83.582Z" fill="white"/>
<path fill-rule="evenodd" clip-rule="evenodd" d="M29.0809 46.5162V91.9565V46.5162Z" stroke="#B8845F" stroke-width="1.86375" stroke-linecap="round" stroke-linejoin="round"/>
<path fill-rule="evenodd" clip-rule="evenodd" d="M17 69.3169C17 75.9895 22.4083 81.3978 29.0809 81.3978C35.7534 81.3978 41.1617 75.9895 41.1617 69.3169C41.1617 62.6444 29.0809 22.8898 29.0809 22.8898C29.0809 22.8898 17 62.6444 17 69.3169Z" stroke="#B8845F" stroke-width="1.86375" stroke-linecap="round" stroke-linejoin="round"/>
<path fill-rule="evenodd" clip-rule="evenodd" d="M29.0808 74.0609L35.9275 65.2567L29.0808 74.0609Z" stroke="#B8845F" stroke-width="1.86375" stroke-linecap="round" stroke-linejoin="round"/>
<path fill-rule="evenodd" clip-rule="evenodd" d="M29.0808 60.3837L24.0498 54.0853L29.0808 60.3837Z" stroke="#B8845F" stroke-width="1.86375" stroke-linecap="round" stroke-linejoin="round"/>
<path fill-rule="evenodd" clip-rule="evenodd" d="M29.0808 53.286L31.0513 50.9253L29.0808 53.286Z" stroke="#B8845F" stroke-width="1.86375" stroke-linecap="round" stroke-linejoin="round"/>
<path d="M54.2393 40.0205C52.4333 40.0205 50.9724 41.4814 50.9724 43.2874" stroke="#B8845F" stroke-width="1.86375" stroke-linecap="round" stroke-linejoin="round"/>
<path d="M50.9723 43.2874C50.9723 41.4814 49.5081 40.0205 47.7021 40.0205" stroke="#B8845F" stroke-width="1.86375" stroke-linecap="round" stroke-linejoin="round"/>
<path d="M50.9724 36.7504C50.9724 38.5564 52.4333 40.0173 54.2393 40.0173" stroke="#B8845F" stroke-width="1.86375" stroke-linecap="round" stroke-linejoin="round"/>
<path d="M47.7021 40.0173C49.5081 40.0173 50.9723 38.5564 50.9723 36.7504" stroke="#B8845F" stroke-width="1.86375" stroke-linecap="round" stroke-linejoin="round"/>
<path d="M106.535 56.8963H105.603V56.8967L106.535 56.8963ZM107.466 57.8279L107.466 58.7598H107.466V57.8279ZM108.398 56.8963L109.33 56.8967V56.8963H108.398ZM114.009 50.3992L113.18 50.8241V50.8241L114.009 50.3992ZM117.614 56.702L116.829 57.2043L116.829 57.2043L117.614 56.702ZM118.738 58.3914L117.973 58.924V58.924L118.738 58.3914ZM119.05 58.8318L118.295 59.3778L118.296 59.3795L119.05 58.8318ZM119.103 58.9048L118.349 59.4525L118.352 59.4557L119.103 58.9048ZM119.134 58.9471L118.383 59.4979L118.386 59.5023L119.134 58.9471ZM119.157 58.9774L118.408 59.5326L118.408 59.5327L119.157 58.9774ZM119.163 58.9861L118.415 59.5431C118.441 59.578 118.47 59.611 118.5 59.6419L119.163 58.9861ZM119.164 58.9879L118.502 59.6437L118.51 59.6517L119.164 58.9879ZM119.166 58.9891L119.888 58.4C119.866 58.3739 119.844 58.349 119.82 58.3253L119.166 58.9891ZM119.226 59.0633L118.504 59.6524C118.516 59.6667 118.528 59.6806 118.54 59.6943L119.226 59.0633ZM120.47 59.1776L121.029 59.9236L121.029 59.9236L120.47 59.1776ZM120.71 57.952L121.509 57.4717C121.502 57.4593 121.494 57.4471 121.486 57.4351L120.71 57.952ZM120.658 57.8729L121.433 57.356C121.399 57.3049 121.36 57.2573 121.317 57.2139L120.658 57.8729ZM120.657 57.8719L119.878 58.3835C119.913 58.4365 119.953 58.4859 119.998 58.5308L120.657 57.8719ZM120.656 57.8701L121.434 57.3585L121.429 57.3508L120.656 57.8701ZM120.653 57.866L121.427 57.3468C121.417 57.3325 121.407 57.3186 121.397 57.3049L120.653 57.866ZM120.643 57.8524L119.895 58.4087L119.899 58.4136L120.643 57.8524ZM120.635 57.8426L119.885 58.3949L119.888 58.3989L120.635 57.8426ZM120.561 57.7401L119.806 58.286L119.806 58.286L120.561 57.7401ZM120.267 57.326L121.032 56.7935L121.032 56.7935L120.267 57.326ZM119.183 55.6971L118.398 56.1994V56.1994L119.183 55.6971ZM115.668 49.5486L114.839 49.9735L114.839 49.9735L115.668 49.5486ZM108.389 28.2269L109.307 28.0661C109.219 27.5643 108.744 27.2262 108.241 27.3068C107.738 27.3875 107.393 27.857 107.467 28.3611L108.389 28.2269ZM108.384 28.201L107.466 28.3615L107.467 28.3633L108.384 28.201ZM108.389 28.2254L107.471 28.3877C107.56 28.8894 108.035 29.2268 108.538 29.1453C109.041 29.0637 109.385 28.5933 109.31 28.0893L108.389 28.2254ZM107.828 27.5021L108.19 26.6435C107.716 26.4435 107.169 26.6657 106.969 27.1399C106.769 27.6141 106.991 28.1606 107.465 28.3607L107.828 27.5021ZM107.466 27.4295V26.4976H107.466L107.466 27.4295ZM107.306 27.4432L107.146 26.5252L107.146 26.5252L107.306 27.4432ZM107.414 27.4307L107.467 28.361C107.981 28.3315 108.374 27.8911 108.344 27.3773C108.315 26.8635 107.874 26.4709 107.361 26.5003L107.414 27.4307ZM107.33 27.4393L107.466 28.3612L107.466 28.3612L107.33 27.4393ZM85.6386 30.6414L85.5025 29.7195L85.5023 29.7196L85.6386 30.6414ZM84.8818 31.2986L83.9883 31.034C83.9808 31.0591 83.9744 31.0846 83.9691 31.1102L84.8818 31.2986ZM84.8505 31.45L83.9379 31.2616C83.9328 31.2864 83.9287 31.3114 83.9256 31.3365L84.8505 31.45ZM77.6806 48.4568L78.4258 49.0164L78.4258 49.0164L77.6806 48.4568ZM73.6044 53.1365L74.259 53.7998L74.259 53.7998L73.6044 53.1365ZM72.3105 54.3484L72.9268 55.0474L72.9268 55.0474L72.3105 54.3484ZM71.9579 54.6522L72.5568 55.3661L72.5568 55.3661L71.9579 54.6522ZM71.9462 54.662L71.3474 53.948L71.3473 53.9481L71.9462 54.662ZM71.8691 54.7264L72.4554 55.4507L72.4597 55.4472L71.8691 54.7264ZM71.8486 54.743L72.4077 55.4885C72.4169 55.4816 72.426 55.4745 72.4349 55.4673L71.8486 54.743ZM71.8447 54.7459L71.2855 54.0004C71.2776 54.0063 71.2698 54.0124 71.2621 54.0186L71.8447 54.7459ZM71.6992 56.0565L70.9718 56.639L70.9718 56.639L71.6992 56.0565ZM73.0097 56.201L73.5922 56.9283C73.6189 56.907 73.6444 56.8841 73.6686 56.8599L73.0097 56.201ZM73.0107 56.2L72.4277 55.473C72.4012 55.4943 72.3758 55.517 72.3517 55.5411L73.0107 56.2ZM73.0136 56.1981L73.5981 56.9238L73.5982 56.9238L73.0136 56.1981ZM73.0166 56.1954L73.644 56.8844L73.6445 56.884L73.0166 56.1954ZM73.0214 56.1912L72.4409 55.4622L72.4351 55.4669L73.0214 56.1912ZM73.0306 56.1839L72.4526 55.453L72.4501 55.4549L73.0306 56.1839ZM73.0507 56.1678L72.4602 55.4469L72.46 55.447L73.0507 56.1678ZM73.1562 56.0799L73.7551 56.7938L73.7551 56.7938L73.1562 56.0799ZM73.5429 55.7469L72.9266 55.0479L72.9266 55.0479L73.5429 55.7469ZM74.914 54.4627L75.5686 55.126L75.5686 55.126L74.914 54.4627ZM79.1708 49.576L79.916 50.1355L79.916 50.1355L79.1708 49.576ZM86.6044 32.3826L86.4683 31.4607C86.0609 31.5209 85.7413 31.8414 85.6822 32.249L86.6044 32.3826ZM107.602 29.283L107.739 30.2049L107.739 30.2049L107.602 29.283ZM106.548 28.5213L105.63 28.6815L105.63 28.6818L106.548 28.5213ZM106.535 56.8963H107.466V29.4407H106.535H105.603V56.8963H106.535ZM107.466 57.8279L107.466 56.8961L107.466 56.8959L106.535 56.8963L105.603 56.8967C105.603 57.9253 106.437 58.7597 107.466 58.7598L107.466 57.8279ZM108.398 56.8963L107.466 56.8959L107.466 56.8961V57.8279V58.7598C108.496 58.7598 109.329 57.9252 109.33 56.8967L108.398 56.8963ZM108.398 36.4015H107.466V56.8963H108.398H109.33V36.4015H108.398ZM108.398 36.4015L107.504 36.6644C109.146 42.2488 111.258 47.0729 113.18 50.8241L114.009 50.3992L114.839 49.9743C112.959 46.3044 110.895 41.5894 109.292 36.1386L108.398 36.4015ZM114.009 50.3992L113.18 50.8241C114.575 53.5468 115.874 55.7129 116.829 57.2043L117.614 56.702L118.399 56.1996C117.471 54.7508 116.203 52.6365 114.839 49.9743L114.009 50.3992ZM117.614 56.702L116.829 57.2043C117.306 57.9498 117.698 58.5283 117.973 58.924L118.738 58.3914L119.503 57.8589C119.24 57.4825 118.862 56.9241 118.399 56.1996L117.614 56.702ZM118.738 58.3914L117.973 58.924C118.111 59.1226 118.22 59.2745 118.295 59.3778L119.05 58.8318L119.806 58.2859C119.735 58.1886 119.633 58.046 119.503 57.8589L118.738 58.3914ZM119.05 58.8318L118.296 59.3795L118.349 59.4525L119.103 58.9048L119.857 58.3571L119.804 58.2841L119.05 58.8318ZM119.103 58.9048L118.352 59.4557L118.383 59.4979L119.134 58.9471L119.886 58.3962L119.855 58.3539L119.103 58.9048ZM119.134 58.9471L118.386 59.5023L118.408 59.5326L119.157 58.9774L119.905 58.4221L119.883 58.3918L119.134 58.9471ZM119.157 58.9774L118.408 59.5327C118.398 59.5182 118.389 59.5057 118.383 59.4968C118.377 59.4882 118.373 59.4814 118.372 59.4802C118.372 59.4798 118.372 59.4795 118.372 59.4798C118.372 59.4798 118.373 59.4805 118.373 59.4812C118.374 59.4825 118.376 59.486 118.379 59.4903C118.382 59.4947 118.386 59.5015 118.392 59.5098C118.397 59.5181 118.405 59.5296 118.415 59.5431L119.163 58.9861L119.91 58.4292C119.919 58.4422 119.927 58.4532 119.932 58.4608C119.938 58.4685 119.942 58.4748 119.944 58.4785C119.946 58.4822 119.948 58.485 119.949 58.4856C119.949 58.486 119.949 58.4863 119.949 58.486C119.949 58.4858 119.948 58.4852 119.948 58.4845C119.946 58.4817 119.941 58.4733 119.934 58.463C119.927 58.4524 119.917 58.4383 119.905 58.4221L119.157 58.9774ZM119.163 58.9861L118.5 59.6419L118.502 59.6436L119.164 58.9879L119.827 58.3322L119.825 58.3304L119.163 58.9861ZM119.164 58.9879L118.51 59.6517L118.511 59.6528L119.166 58.9891L119.82 58.3253L119.818 58.3242L119.164 58.9879ZM119.166 58.9891L118.443 59.5781L118.504 59.6524L119.226 59.0633L119.948 58.4742L119.888 58.4L119.166 58.9891ZM119.226 59.0633L118.54 59.6943C119.181 60.3902 120.256 60.502 121.029 59.9236L120.47 59.1776L119.912 58.4315L119.912 58.4323L119.226 59.0633ZM120.47 59.1776L121.029 59.9236C121.803 59.3443 121.996 58.2812 121.509 57.4717L120.71 57.952L119.912 58.4322L119.912 58.4315L120.47 59.1776ZM120.71 57.952L121.486 57.4351L121.433 57.356L120.658 57.8729L119.882 58.3898L119.935 58.4689L120.71 57.952ZM120.658 57.8729L121.317 57.2139L121.316 57.213L120.657 57.8719L119.998 58.5308L119.999 58.5318L120.658 57.8729ZM120.657 57.8719L121.436 57.3603L121.434 57.3585L120.656 57.8701L119.877 58.3817L119.878 58.3835L120.657 57.8719ZM120.656 57.8701L121.429 57.3508L121.427 57.3468L120.653 57.866L119.879 58.3853L119.882 58.3893L120.656 57.8701ZM120.653 57.866L121.397 57.3049L121.387 57.2913L120.643 57.8524L119.899 58.4136L119.909 58.4272L120.653 57.866ZM120.643 57.8524L121.39 57.2961L121.383 57.2863L120.635 57.8426L119.888 58.3989L119.895 58.4087L120.643 57.8524ZM120.635 57.8426L121.386 57.2903C121.373 57.2723 121.353 57.2453 121.316 57.1941L120.561 57.7401L119.806 58.286C119.835 58.3264 119.865 58.3686 119.885 58.3949L120.635 57.8426ZM120.561 57.7401L121.316 57.1941C121.252 57.1048 121.156 56.9711 121.032 56.7935L120.267 57.326L119.502 57.8585C119.635 58.0484 119.738 58.1918 119.806 58.286L120.561 57.7401ZM120.267 57.326L121.032 56.7935C120.782 56.4353 120.418 55.8974 119.968 55.1948L119.183 55.6971L118.398 56.1994C118.862 56.9236 119.24 57.4816 119.502 57.8585L120.267 57.326ZM119.183 55.6971L119.968 55.1948C119.068 53.7891 117.831 51.7261 116.498 49.1238L115.668 49.5486L114.839 49.9735C116.203 52.6359 117.471 54.7506 118.398 56.1994L119.183 55.6971ZM115.668 49.5486L116.498 49.1238C113.831 43.9172 110.801 36.5902 109.307 28.0661L108.389 28.2269L107.471 28.3878C109.006 37.1466 112.114 44.6541 114.839 49.9735L115.668 49.5486ZM108.389 28.2269L107.467 28.3611L107.467 28.362L108.398 28.401L109.329 28.44C109.334 28.3252 109.328 28.209 109.311 28.0928L108.389 28.2269ZM108.398 28.3611H107.466V28.401H108.398H109.33V28.3611H108.398ZM107.975 27.5805L107.466 28.3608L107.466 28.3611H108.398H109.33C109.33 27.7066 108.992 27.1314 108.485 26.8003L107.975 27.5805ZM107.975 27.5805L107.466 28.3611L107.466 28.3615L108.384 28.201L109.302 28.0405C109.21 27.5106 108.9 27.0714 108.484 26.8L107.975 27.5805ZM108.384 28.201L107.467 28.3633L107.471 28.3877L108.389 28.2254L109.306 28.0631L109.302 28.0387L108.384 28.201ZM108.389 28.2254L109.31 28.0893C109.212 27.4194 108.767 26.887 108.19 26.6435L107.828 27.5021L107.465 28.3607C107.466 28.3608 107.466 28.361 107.467 28.3614C107.467 28.3616 107.467 28.3618 107.467 28.3619C107.467 28.3621 107.467 28.3622 107.467 28.3622C107.467 28.3621 107.467 28.3617 107.467 28.3611C107.466 28.3602 107.467 28.3602 107.467 28.3615L108.389 28.2254ZM107.828 27.5021L107.465 28.3607L107.466 28.3611L107.975 27.5805L108.484 26.8C108.391 26.7395 108.293 26.687 108.19 26.6436L107.828 27.5021ZM107.466 27.4295V28.3614L107.466 28.3608L107.975 27.5805L108.485 26.8003C108.191 26.6088 107.84 26.4976 107.466 26.4976V27.4295ZM107.286 27.4469L107.465 28.3614C107.465 28.3615 107.465 28.3614 107.466 28.3614L107.466 27.4295L107.466 26.4976C107.344 26.4976 107.224 26.5095 107.107 26.5323L107.286 27.4469ZM107.286 27.4469L107.466 28.3612L107.467 28.3611L107.306 27.4432L107.146 26.5252C107.132 26.5276 107.119 26.53 107.106 26.5326L107.286 27.4469ZM107.306 27.4432L107.466 28.3612C107.467 28.361 107.468 28.361 107.467 28.361L107.414 27.4307L107.36 26.5004C107.289 26.5045 107.217 26.5128 107.146 26.5252L107.306 27.4432ZM107.414 27.4307L107.361 26.5003C107.305 26.5035 107.25 26.5092 107.194 26.5174L107.33 27.4393L107.466 28.3612C107.467 28.3611 107.467 28.361 107.467 28.361L107.414 27.4307ZM107.33 27.4393L107.194 26.5174L85.5025 29.7195L85.6386 30.6414L85.7747 31.5633L107.466 28.3612L107.33 27.4393ZM85.6386 30.6414L85.5023 29.7196C84.7749 29.8271 84.1912 30.3487 83.9883 31.034L84.8818 31.2986L85.7753 31.5633L85.7749 31.5633L85.6386 30.6414ZM84.8818 31.2986L83.9691 31.1102L83.9379 31.2616L84.8505 31.45L85.7632 31.6384L85.7944 31.4871L84.8818 31.2986ZM84.8505 31.45L83.9256 31.3365C83.0784 38.2384 79.9268 43.9132 76.9354 47.8973L77.6806 48.4568L78.4258 49.0164C81.5379 44.8715 84.8757 38.894 85.7755 31.5635L84.8505 31.45ZM77.6806 48.4568L76.9354 47.8973C75.4443 49.8832 74.0079 51.4291 72.9499 52.4733L73.6044 53.1365L74.259 53.7998C75.3698 52.7036 76.8698 51.0888 78.4258 49.0164L77.6806 48.4568ZM73.6044 53.1365L72.9499 52.4732C72.4218 52.9944 71.9896 53.389 71.6942 53.6495L72.3105 54.3484L72.9268 55.0474C73.246 54.7659 73.7039 54.3476 74.259 53.7998L73.6044 53.1365ZM72.3105 54.3484L71.6942 53.6495C71.547 53.7792 71.4334 53.8759 71.359 53.9382L71.9579 54.6522L72.5568 55.3661C72.6413 55.2952 72.7667 55.1886 72.9268 55.0474L72.3105 54.3484ZM71.9579 54.6522L71.3591 53.9382L71.3474 53.948L71.9462 54.662L72.5451 55.3759L72.5568 55.3661L71.9579 54.6522ZM71.9462 54.662L71.3473 53.9481C71.3112 53.9783 71.2904 53.9958 71.2784 54.0056L71.8691 54.7264L72.4597 55.4472C72.4822 55.4287 72.5134 55.4025 72.5452 55.3759L71.9462 54.662ZM71.8691 54.7264L71.2827 54.0021L71.2622 54.0187L71.8486 54.743L72.4349 55.4673L72.4554 55.4507L71.8691 54.7264ZM71.8486 54.743L71.2894 53.9975L71.2855 54.0004L71.8447 54.7459L72.4038 55.4914L72.4077 55.4885L71.8486 54.743ZM71.8447 54.7459L71.2621 54.0186C70.4596 54.6613 70.3277 55.8347 70.9718 56.639L71.6992 56.0565L72.4265 55.4739L72.4272 55.4733L71.8447 54.7459ZM71.6992 56.0565L70.9718 56.639C71.6157 57.4429 72.7893 57.5714 73.5922 56.9283L73.0097 56.201L72.4272 55.4736L72.4265 55.4739L71.6992 56.0565ZM73.0097 56.201L73.6686 56.8599L73.6696 56.8589L73.0107 56.2L72.3517 55.5411L72.3508 55.5421L73.0097 56.201ZM73.0107 56.2L73.5936 56.927C73.5727 56.9438 73.5546 56.9568 73.5419 56.9657C73.529 56.9746 73.5183 56.9815 73.5116 56.9858C73.5048 56.9901 73.4996 56.9933 73.4978 56.9944C73.4972 56.9947 73.4968 56.995 73.4965 56.9952C73.4962 56.9954 73.496 56.9955 73.496 56.9955C73.4957 56.9956 73.4965 56.9952 73.4972 56.9947C73.4988 56.9938 73.5028 56.9913 73.5079 56.9881C73.5131 56.9848 73.5203 56.9803 73.5287 56.9747C73.5452 56.9637 73.5698 56.9467 73.5981 56.9238L73.0136 56.1981L72.4291 55.4723C72.457 55.4499 72.481 55.4332 72.4969 55.4226C72.5051 55.4172 72.512 55.4128 72.5169 55.4097C72.5217 55.4067 72.5255 55.4044 72.5268 55.4035C72.5274 55.4032 72.528 55.4028 72.5277 55.403C72.5276 55.4031 72.5267 55.4036 72.5255 55.4043C72.5234 55.4056 72.5179 55.409 72.511 55.4134C72.5041 55.4178 72.4932 55.4249 72.48 55.434C72.4671 55.4429 72.4488 55.4561 72.4277 55.473L73.0107 56.2ZM73.0136 56.1981L73.5982 56.9238C73.6146 56.9106 73.6272 56.8995 73.6334 56.894C73.6368 56.891 73.6395 56.8885 73.6411 56.8871C73.6426 56.8857 73.644 56.8845 73.644 56.8844L73.0166 56.1954L72.3891 55.5065C72.3875 55.5079 72.3917 55.5041 72.3967 55.4997C72.4019 55.4951 72.4135 55.4848 72.4291 55.4723L73.0136 56.1981ZM73.0166 56.1954L73.6445 56.884C73.647 56.8818 73.6299 56.8976 73.6077 56.9155L73.0214 56.1912L72.4351 55.4669C72.4092 55.4879 72.389 55.5066 72.3886 55.5069L73.0166 56.1954ZM73.0214 56.1912L73.6019 56.9202L73.6111 56.9129L73.0306 56.1839L72.4501 55.4549L72.4409 55.4622L73.0214 56.1912ZM73.0306 56.1839L73.6086 56.9149C73.6142 56.9104 73.6268 56.9005 73.6414 56.8885L73.0507 56.1678L72.46 55.447C72.4594 55.4476 72.4584 55.4484 72.4526 55.453L73.0306 56.1839ZM73.0507 56.1678L73.6413 56.8886C73.6708 56.8644 73.7106 56.8312 73.7551 56.7938L73.1562 56.0799L72.5573 55.3659C72.5112 55.4046 72.4799 55.4308 72.4602 55.4469L73.0507 56.1678ZM73.1562 56.0799L73.7551 56.7938C73.8506 56.7137 73.9873 56.5975 74.1592 56.4458L73.5429 55.7469L72.9266 55.0479C72.7679 55.1879 72.643 55.2941 72.5573 55.366L73.1562 56.0799ZM73.5429 55.7469L74.1592 56.4459C74.5025 56.1431 74.9864 55.7005 75.5686 55.126L74.914 54.4627L74.2594 53.7994C73.7039 54.3477 73.2457 54.7665 72.9266 55.0479L73.5429 55.7469ZM74.914 54.4627L75.5686 55.126C76.7321 53.9777 78.2951 52.2944 79.916 50.1355L79.1708 49.576L78.4256 49.0165C76.8696 51.0889 75.3701 52.7033 74.2594 53.7994L74.914 54.4627ZM79.1708 49.576L79.916 50.1355C83.0479 45.9643 86.4507 39.9412 87.5267 32.5163L86.6044 32.3826L85.6822 32.249C84.6651 39.2671 81.4398 45.0019 78.4256 49.0165L79.1708 49.576ZM86.6044 32.3826L86.7405 33.3045L106.671 30.3625L106.535 29.4407L106.398 28.5188L86.4683 31.4607L86.6044 32.3826ZM106.535 29.4407H107.466V28.3804H106.535H105.603V29.4407H106.535ZM106.535 29.4407L106.671 30.3625L106.847 30.3365L106.711 29.4147L106.575 28.4928L106.398 28.5188L106.535 29.4407ZM106.711 29.4147L105.795 29.5873C106.26 32.0563 106.844 34.4221 107.504 36.6644L108.398 36.4015L109.292 36.1386C108.648 33.9508 108.08 31.6453 107.626 29.242L106.711 29.4147ZM108.398 28.401H107.466V36.4015H108.398H109.33V28.401H108.398ZM108.398 28.401L107.467 28.362L107.466 28.3611L107.602 29.283L107.739 30.2049C108.639 30.0719 109.292 29.317 109.329 28.44L108.398 28.401ZM107.602 29.283L107.466 28.3611L106.575 28.4928L106.711 29.4147L106.847 30.3365L107.739 30.2049L107.602 29.283ZM106.711 29.4147L107.626 29.242C107.571 28.9497 107.518 28.656 107.466 28.3608L106.548 28.5213L105.63 28.6818C105.683 28.9851 105.738 29.287 105.795 29.5873L106.711 29.4147ZM106.548 28.5213L107.466 28.3611C107.466 28.3602 107.466 28.3599 107.466 28.3601L106.535 28.3804L105.603 28.4007C105.605 28.494 105.614 28.5879 105.63 28.6815L106.548 28.5213ZM106.535 28.3611H107.466L107.466 28.3605L106.567 28.1151L105.668 27.8697C105.625 28.0273 105.603 28.1923 105.603 28.3611H106.535ZM106.535 28.3804H107.466V28.3611H106.535H105.603V28.3804H106.535ZM106.535 28.3804L107.466 28.3601C107.466 28.3606 107.466 28.3614 107.466 28.3619L106.567 28.1151L105.669 27.8683C105.622 28.0388 105.599 28.2179 105.603 28.4008L106.535 28.3804ZM106.567 28.1151L107.466 28.3606L107.466 28.3615L106.779 27.7322L106.092 27.1029C105.895 27.3172 105.748 27.5787 105.668 27.8697L106.567 28.1151ZM106.567 28.1151L107.466 28.3619C107.466 28.3624 107.466 28.3616 107.467 28.3608L106.779 27.7322L106.091 27.1036C105.893 27.3198 105.748 27.5815 105.669 27.8683L106.567 28.1151ZM106.779 27.7322L107.467 28.3608L107.466 28.3612L107.286 27.4469L107.106 26.5326C106.701 26.6123 106.351 26.8194 106.091 27.1036L106.779 27.7322ZM106.779 27.7322L107.466 28.3615L107.465 28.3614L107.286 27.4469L107.107 26.5323C106.707 26.6107 106.354 26.8163 106.092 27.1029L106.779 27.7322Z" fill="#F0DBCC"/>
<path d="M134.398 61.569C122.572 57.915 100.607 55.4608 75.4681 55.4608C69.9404 55.4608 64.5643 55.5801 59.4172 55.8027" stroke="#B8845F" stroke-width="1.86375" stroke-linecap="round" stroke-linejoin="round"/>
<path d="M134.398 61.569C122.572 57.915 100.607 55.4608 75.4681 55.4608C69.9404 55.4608 64.5643 55.5801 59.4172 55.8027" stroke="#F0DBCC" stroke-width="1.86375" stroke-linecap="round" stroke-linejoin="round"/>
<path fill-rule="evenodd" clip-rule="evenodd" d="M180.183 49.0654V85.7788V49.0654Z" stroke="#B8845F" stroke-width="1.86375" stroke-linecap="round" stroke-linejoin="round"/>
<path fill-rule="evenodd" clip-rule="evenodd" d="M170.163 67.98C170.163 73.5141 174.649 77.9969 180.183 77.9969C185.718 77.9969 190.203 73.5141 190.203 67.98C190.203 62.4459 180.183 29.4735 180.183 29.4735C180.183 29.4735 170.163 62.4459 170.163 67.98Z" stroke="#B8845F" stroke-width="1.86375" stroke-linecap="round" stroke-linejoin="round"/>
<path fill-rule="evenodd" clip-rule="evenodd" d="M180.183 71.9145L185.863 64.6131L180.183 71.9145Z" stroke="#B8845F" stroke-width="1.86375" stroke-linecap="round" stroke-linejoin="round"/>
<path fill-rule="evenodd" clip-rule="evenodd" d="M179.183 60.569L176.771 57.5504L179.183 60.569Z" stroke="#B8845F" stroke-width="1.86375" stroke-linecap="round" stroke-linejoin="round"/>
<path d="M143.584 15.2701C141.781 15.2701 140.317 16.7311 140.317 18.5371" stroke="#B8845F" stroke-width="1.86375" stroke-linecap="round" stroke-linejoin="round"/>
<path d="M140.317 18.5371C140.317 16.7311 138.856 15.2701 137.05 15.2701" stroke="#B8845F" stroke-width="1.86375" stroke-linecap="round" stroke-linejoin="round"/>
<path d="M140.317 12C140.317 13.806 141.781 15.2669 143.584 15.2669" stroke="#B8845F" stroke-width="1.86375" stroke-linecap="round" stroke-linejoin="round"/>
<path d="M137.05 15.2669C138.856 15.2669 140.317 13.806 140.317 12" stroke="#B8845F" stroke-width="1.86375" stroke-linecap="round" stroke-linejoin="round"/>
<path d="M157.591 7.46798C162.205 7.35243 166.679 9.93865 168.762 14.406C171.561 20.4089 168.986 27.5323 163.015 30.3165C159.178 32.1056 154.874 31.6715 151.545 29.5414C153.13 29.5 154.731 29.1396 156.257 28.4283C162.23 25.6428 164.803 18.5207 162.003 12.5178C161.002 10.3705 159.448 8.65387 157.591 7.46798" stroke="#B8845F" stroke-width="1.86375" stroke-linecap="round" stroke-linejoin="round"/>
<path fill-rule="evenodd" clip-rule="evenodd" d="M130.074 38.9977V44.348V38.9977Z" stroke="#B8845F" stroke-width="1.86375" stroke-linecap="round" stroke-linejoin="round"/>
<path fill-rule="evenodd" clip-rule="evenodd" d="M127.397 41.6744H132.75H127.397Z" stroke="#B8845F" stroke-width="1.86375" stroke-linecap="round" stroke-linejoin="round"/>
<path fill-rule="evenodd" clip-rule="evenodd" d="M180 13.9601V17.485V13.9601Z" stroke="#B8845F" stroke-width="1.86375" stroke-linecap="round" stroke-linejoin="round"/>
<path fill-rule="evenodd" clip-rule="evenodd" d="M178.239 15.7209H181.764H178.239Z" stroke="#B8845F" stroke-width="1.86375" stroke-linecap="round" stroke-linejoin="round"/>
<path fill-rule="evenodd" clip-rule="evenodd" d="M54.0128 9.1349V12.6598V9.1349Z" fill="#D8D8D8" stroke="#B8845F" stroke-width="1.86375" stroke-linecap="round" stroke-linejoin="round"/>
<path fill-rule="evenodd" clip-rule="evenodd" d="M52.252 10.899H55.7737H52.252Z" fill="#D8D8D8" stroke="#B8845F" stroke-width="1.86375" stroke-linecap="round" stroke-linejoin="round"/>
<path d="M95.4341 55.9962C95.4341 55.9962 105.667 43.0252 107.467 28.3611" stroke="#F0DBCC" stroke-width="1.86375" stroke-linecap="round" stroke-linejoin="round"/>
<rect x="74.5857" y="19.5858" width="4" height="4" transform="rotate(45 74.5857 19.5858)" fill="#B8845F"/>
<path d="M79.6556 22.6958C76.7725 22.6958 74.4343 25.034 74.4343 27.9203" stroke="#F0DBCC" stroke-width="1.86375" stroke-linecap="round" stroke-linejoin="round"/>
<path d="M74.4343 27.9203C74.4343 25.034 72.0929 22.6958 69.2065 22.6958" stroke="#F0DBCC" stroke-width="1.86375" stroke-linecap="round" stroke-linejoin="round"/>
<path d="M74.4343 17.4681C74.4343 20.3545 76.7725 22.6926 79.6556 22.6926" stroke="#F0DBCC" stroke-width="1.86375" stroke-linecap="round" stroke-linejoin="round"/>
<path d="M69.2065 22.6926C72.0929 22.6926 74.4343 20.3545 74.4343 17.4681" stroke="#F0DBCC" stroke-width="1.86375" stroke-linecap="round" stroke-linejoin="round"/>
<path d="M216.942 72.7078L224.562 69.7878L224.482 69.2078C224.455 68.9811 224.515 68.7878 224.662 68.6278C224.809 68.4678 224.989 68.3678 225.202 68.3278C225.415 68.2745 225.615 68.3011 225.802 68.4078C225.989 68.5145 226.109 68.7145 226.162 69.0078L226.182 69.2478L231.122 67.3878C231.389 67.3078 231.622 67.3211 231.822 67.4278C232.009 67.5211 232.135 67.6678 232.202 67.8678C232.282 68.0545 232.282 68.2545 232.202 68.4678C232.135 68.6678 231.975 68.8345 231.722 68.9678L226.282 70.9278C226.309 71.2745 226.329 71.6278 226.342 71.9878C226.355 72.3345 226.362 72.6678 226.362 72.9878C226.362 73.3878 226.355 73.7611 226.342 74.1078C226.329 74.4545 226.315 74.7811 226.302 75.0878C226.982 75.3145 227.655 75.5678 228.322 75.8478C228.975 76.1278 229.575 76.4478 230.122 76.8078C230.669 77.1678 231.109 77.6011 231.442 78.1078C231.775 78.6011 231.949 79.1811 231.962 79.8478C231.962 80.3811 231.842 80.8545 231.602 81.2678C231.349 81.6811 231.015 81.9745 230.602 82.1478C230.175 82.3211 229.715 82.3678 229.222 82.2878C228.729 82.2078 228.329 81.9878 228.022 81.6278C227.849 81.4278 227.775 81.2278 227.802 81.0278C227.815 80.8145 227.895 80.6345 228.042 80.4878C228.175 80.3411 228.349 80.2611 228.562 80.2478C228.762 80.2345 228.955 80.3211 229.142 80.5078C229.315 80.6678 229.509 80.7411 229.722 80.7278C229.922 80.7145 230.095 80.6345 230.242 80.4878C230.375 80.3278 230.435 80.1145 230.422 79.8478C230.422 79.3678 230.222 78.9411 229.822 78.5678C229.409 78.1811 228.882 77.8478 228.242 77.5678C227.602 77.2745 226.922 77.0145 226.202 76.7878C226.175 77.0145 226.155 77.2011 226.142 77.3478C226.129 77.4945 226.122 77.5811 226.122 77.6078C226.082 77.9011 225.975 78.1145 225.802 78.2478C225.615 78.3811 225.422 78.4411 225.222 78.4278C225.009 78.4011 224.829 78.3011 224.682 78.1278C224.535 77.9545 224.469 77.7145 224.482 77.4078C224.495 77.1945 224.529 76.8278 224.582 76.3078C223.235 75.8811 221.922 75.5011 220.642 75.1678C219.362 74.8345 218.189 74.5678 217.122 74.3678C216.762 74.3011 216.529 74.1478 216.422 73.9078C216.315 73.6678 216.315 73.4278 216.422 73.1878C216.515 72.9478 216.689 72.7878 216.942 72.7078ZM219.542 44.8078C219.249 45.1411 218.949 45.4545 218.642 45.7478C218.335 46.0411 218.089 46.2478 217.902 46.3678C217.649 46.5411 217.422 46.6078 217.222 46.5678C217.022 46.5278 216.869 46.4278 216.762 46.2678C216.655 46.1078 216.622 45.9278 216.662 45.7278C216.689 45.5278 216.802 45.3478 217.002 45.1878C217.189 45.0411 217.415 44.8478 217.682 44.6078C217.949 44.3545 218.189 44.1011 218.402 43.8478C218.602 43.6211 218.809 43.5011 219.022 43.4878C219.222 43.4745 219.395 43.5345 219.542 43.6678C219.689 43.8011 219.775 43.9745 219.802 44.1878C219.815 44.3878 219.729 44.5945 219.542 44.8078ZM219.662 73.3278C220.382 73.4878 221.189 73.6811 222.082 73.9078C222.962 74.1345 223.829 74.3678 224.682 74.6078C224.709 74.1411 224.722 73.6478 224.722 73.1278C224.722 72.5945 224.715 72.0545 224.702 71.5078L219.662 73.3278ZM221.622 32.4678C221.449 32.0011 221.409 31.5611 221.502 31.1478C221.582 30.7345 221.802 30.4011 222.162 30.1478C222.522 29.8945 223.035 29.7811 223.702 29.8078C223.902 29.8211 224.095 29.8411 224.282 29.8678C224.469 29.8945 224.689 29.9345 224.942 29.9878C225.075 29.6678 225.202 29.3145 225.322 28.9278C224.962 28.8611 224.575 28.7345 224.162 28.5478C223.749 28.3611 223.355 28.1078 222.982 27.7878C222.609 27.4545 222.302 27.0411 222.062 26.5478C221.809 26.0411 221.669 25.4478 221.642 24.7678C221.602 23.8745 221.695 23.1545 221.922 22.6078C222.149 22.0478 222.449 21.6278 222.822 21.3478C223.182 21.0678 223.575 20.8878 224.002 20.8078C224.415 20.7145 224.802 20.6811 225.162 20.7078C225.522 20.7211 225.795 20.7545 225.982 20.8078C226.435 20.9545 226.782 21.3345 227.022 21.9478C227.262 22.5611 227.402 23.3478 227.442 24.3078C227.469 25.2545 227.402 26.3078 227.242 27.4678C228.269 27.4011 229.109 27.0411 229.762 26.3878C230.402 25.7345 230.735 24.8811 230.762 23.8278C230.775 23.0278 230.675 22.3611 230.462 21.8278C230.235 21.2945 229.949 20.8678 229.602 20.5478C229.242 20.2278 228.869 19.9811 228.482 19.8078C228.095 19.6211 227.735 19.4945 227.402 19.4278C227.055 19.3478 226.795 19.2878 226.622 19.2478C226.369 19.1945 226.189 19.0745 226.082 18.8878C225.975 18.7011 225.942 18.5078 225.982 18.3078C226.022 18.0945 226.129 17.9278 226.302 17.8078C226.462 17.6745 226.695 17.6345 227.002 17.6878C227.202 17.7278 227.515 17.8011 227.942 17.9078C228.355 18.0011 228.815 18.1678 229.322 18.4078C229.829 18.6345 230.315 18.9678 230.782 19.4078C231.235 19.8478 231.609 20.4278 231.902 21.1478C232.182 21.8678 232.309 22.7611 232.282 23.8278C232.255 24.8411 232.022 25.7411 231.582 26.5278C231.129 27.3011 230.522 27.9145 229.762 28.3678C229.002 28.8211 228.142 29.0678 227.182 29.1078C227.102 29.1211 227.015 29.1278 226.922 29.1278C226.802 29.5945 226.669 30.0145 226.522 30.3878C227.215 30.6011 227.895 30.8545 228.562 31.1478C229.229 31.4411 229.829 31.7678 230.362 32.1278C230.895 32.4745 231.322 32.8411 231.642 33.2278C231.962 33.6011 232.122 33.9811 232.122 34.3678C232.135 34.9145 231.969 35.3878 231.622 35.7878C231.275 36.1878 230.809 36.5278 230.222 36.8078C229.622 37.0745 228.969 37.3011 228.262 37.4878C227.542 37.6611 226.822 37.8078 226.102 37.9278C225.382 38.0345 224.722 38.1278 224.122 38.2078C224.149 38.3145 224.175 38.4345 224.202 38.5678C224.215 38.6878 224.222 38.8278 224.222 38.9878C224.209 39.2945 224.122 39.5145 223.962 39.6478C223.802 39.7811 223.622 39.8478 223.422 39.8478C223.209 39.8345 223.022 39.7611 222.862 39.6278C222.702 39.4811 222.629 39.2811 222.642 39.0278C222.642 38.7611 222.602 38.5811 222.522 38.4878C222.442 38.3811 222.389 38.3211 222.362 38.3078C222.109 38.1611 221.949 37.9611 221.882 37.7078C221.815 37.4545 221.849 37.2211 221.982 37.0078C222.102 36.7945 222.315 36.6811 222.622 36.6678C223.529 36.6011 224.442 36.5011 225.362 36.3678C226.282 36.2345 227.129 36.0745 227.902 35.8878C228.675 35.7011 229.302 35.4878 229.782 35.2478C230.249 34.9945 230.489 34.7145 230.502 34.4078C230.475 34.2611 230.242 34.0278 229.802 33.7078C229.349 33.3878 228.769 33.0545 228.062 32.7078C227.355 32.3611 226.595 32.0811 225.782 31.8678C225.382 32.4278 224.995 32.8411 224.622 33.1078C224.235 33.3745 223.855 33.5345 223.482 33.5878C223.162 33.6278 222.815 33.5745 222.442 33.4278C222.069 33.2811 221.795 32.9611 221.622 32.4678ZM221.682 57.7278C221.695 57.4345 221.782 57.2145 221.942 57.0678C222.102 56.9078 222.289 56.8278 222.502 56.8278C222.702 56.8145 222.889 56.8811 223.062 57.0278C223.222 57.1745 223.309 57.3945 223.322 57.6878C223.322 57.8345 223.349 58.0211 223.402 58.2478C223.442 58.4745 223.569 58.6945 223.782 58.9078C224.009 58.8411 224.322 58.7745 224.722 58.7078C225.109 58.6278 225.555 58.5678 226.062 58.5278C226.595 58.4745 227.235 58.4278 227.982 58.3878C228.715 58.3478 229.509 58.3345 230.362 58.3478C231.215 58.3478 232.075 58.3945 232.942 58.4878C233.809 58.5678 234.642 58.7145 235.442 58.9278C236.242 59.1278 236.955 59.4078 237.582 59.7678C238.209 60.1145 238.709 60.5611 239.082 61.1078C239.455 61.6545 239.649 62.3078 239.662 63.0678C239.675 63.7878 239.569 64.3745 239.342 64.8278C239.115 65.2678 238.842 65.6078 238.522 65.8478C238.215 66.0878 237.929 66.2545 237.662 66.3478C237.409 66.4411 237.262 66.4945 237.222 66.5078C236.955 66.5745 236.735 66.5478 236.562 66.4278C236.402 66.3078 236.295 66.1478 236.242 65.9478C236.202 65.7478 236.222 65.5545 236.302 65.3678C236.382 65.1678 236.535 65.0345 236.762 64.9678C236.815 64.9545 236.915 64.9211 237.062 64.8678C237.222 64.8145 237.389 64.7211 237.562 64.5878C237.749 64.4545 237.902 64.2678 238.022 64.0278C238.142 63.7745 238.195 63.4478 238.182 63.0478C238.169 62.5145 237.969 62.0545 237.582 61.6678C237.195 61.2811 236.662 60.9611 235.982 60.7078C235.315 60.4411 234.549 60.2411 233.682 60.1078C232.829 59.9745 231.922 59.9011 230.962 59.8878C231.295 60.0878 231.609 60.4211 231.902 60.8878C232.195 61.3411 232.355 61.8945 232.382 62.5478C232.409 63.3078 232.309 63.9411 232.082 64.4478C231.869 64.9545 231.582 65.3611 231.222 65.6678C230.849 65.9611 230.449 66.1811 230.022 66.3278C229.582 66.4745 229.162 66.5745 228.762 66.6278C228.349 66.6811 228.002 66.7078 227.722 66.7078C226.655 66.7078 225.755 66.5611 225.022 66.2678C224.275 65.9745 223.669 65.5878 223.202 65.1078C222.735 64.6278 222.395 64.1011 222.182 63.5278C221.969 62.9545 221.855 62.3945 221.842 61.8478C221.829 61.1011 222.042 60.4678 222.482 59.9478C222.229 59.6545 222.049 59.3545 221.942 59.0478C221.822 58.7411 221.749 58.4678 221.722 58.2278C221.695 57.9878 221.682 57.8211 221.682 57.7278ZM221.982 52.8678C221.822 52.3611 221.815 51.7745 221.962 51.1078C222.095 50.4411 222.475 49.8011 223.102 49.1878C223.289 49.0011 223.489 48.9211 223.702 48.9478C223.902 48.9611 224.082 49.0411 224.242 49.1878C224.389 49.3345 224.475 49.5211 224.502 49.7478C224.515 49.9611 224.415 50.1745 224.202 50.3878C223.869 50.7478 223.669 51.0811 223.602 51.3878C223.522 51.6811 223.502 51.9145 223.542 52.0878C223.582 52.3278 223.702 52.5611 223.902 52.7878C224.089 53.0011 224.209 53.1078 224.262 53.1078C225.382 53.1078 226.575 53.1145 227.842 53.1278C229.095 53.1278 230.315 53.1278 231.502 53.1278C231.769 53.1278 231.969 53.2145 232.102 53.3878C232.235 53.5478 232.302 53.7411 232.302 53.9678C232.315 54.1945 232.255 54.3945 232.122 54.5678C231.989 54.7411 231.782 54.8278 231.502 54.8278C230.315 54.8278 229.109 54.8278 227.882 54.8278C226.642 54.8145 225.449 54.8211 224.302 54.8478C224.049 54.8478 223.875 54.9345 223.782 55.1078C223.689 55.2811 223.629 55.4011 223.602 55.4678C223.495 55.7611 223.342 55.9411 223.142 56.0078C222.929 56.0745 222.729 56.0611 222.542 55.9678C222.342 55.8745 222.195 55.7278 222.102 55.5278C221.995 55.3278 221.982 55.1078 222.062 54.8678C222.075 54.8011 222.129 54.6811 222.222 54.5078C222.315 54.3345 222.449 54.1478 222.622 53.9478C222.475 53.7345 222.342 53.5211 222.222 53.3078C222.089 53.0945 222.009 52.9478 221.982 52.8678ZM221.942 44.0678C221.942 43.7345 221.989 43.4278 222.082 43.1478C222.162 42.8678 222.349 42.5411 222.642 42.1678C222.442 42.1545 222.302 42.0611 222.222 41.8878C222.129 41.7011 222.095 41.5011 222.122 41.2878C222.149 41.0611 222.235 40.8678 222.382 40.7078C222.515 40.5478 222.715 40.4745 222.982 40.4878C223.342 40.5145 223.809 40.5478 224.382 40.5878C224.955 40.6145 225.549 40.6478 226.162 40.6878C226.775 40.7145 227.335 40.7411 227.842 40.7678C228.335 40.7945 228.689 40.8078 228.902 40.8078C229.329 40.8211 229.689 40.8278 229.982 40.8278C230.262 40.8278 230.435 40.7211 230.502 40.5078C230.582 40.2678 230.715 40.1078 230.902 40.0278C231.075 39.9345 231.255 39.9145 231.442 39.9678C231.629 40.0211 231.782 40.1278 231.902 40.2878C232.022 40.4478 232.069 40.6411 232.042 40.8678C231.975 41.2278 231.855 41.5145 231.682 41.7278C231.509 41.9278 231.302 42.0811 231.062 42.1878C231.395 42.5611 231.669 43.0011 231.882 43.5078C232.082 44.0011 232.182 44.5545 232.182 45.1678C232.182 46.4345 231.795 47.4345 231.022 48.1678C230.555 48.5945 229.989 48.9011 229.322 49.0878C228.655 49.2745 227.995 49.3278 227.342 49.2478C226.329 49.1411 225.415 48.8545 224.602 48.3878C223.789 47.9078 223.142 47.3011 222.662 46.5678C222.169 45.8211 221.929 44.9878 221.942 44.0678ZM222.842 31.6278C222.842 31.7878 222.902 31.8945 223.022 31.9478C223.129 32.0011 223.222 32.0211 223.302 32.0078C223.422 31.9945 223.562 31.9478 223.722 31.8678C223.882 31.7745 224.049 31.6411 224.222 31.4678C224.115 31.4411 223.995 31.4145 223.862 31.3878C223.715 31.3611 223.602 31.3411 223.522 31.3278C223.295 31.3145 223.135 31.3278 223.042 31.3678C222.949 31.4078 222.882 31.4945 222.842 31.6278ZM223.242 24.6478C223.269 25.2878 223.422 25.7878 223.702 26.1478C223.982 26.5078 224.309 26.7745 224.682 26.9478C225.055 27.1211 225.389 27.2345 225.682 27.2878C225.855 26.2878 225.929 25.4345 225.902 24.7278C225.862 24.0211 225.789 23.4745 225.682 23.0878C225.575 22.6878 225.502 22.4611 225.462 22.4078C225.329 22.3678 225.135 22.3411 224.882 22.3278C224.615 22.3011 224.355 22.3411 224.102 22.4478C223.835 22.5545 223.615 22.7811 223.442 23.1278C223.269 23.4611 223.202 23.9678 223.242 24.6478ZM223.462 61.8078C223.462 62.3011 223.595 62.8011 223.862 63.3078C224.115 63.8011 224.555 64.2211 225.182 64.5678C225.795 64.9011 226.635 65.0745 227.702 65.0878C228.022 65.0878 228.362 65.0611 228.722 65.0078C229.082 64.9411 229.422 64.8278 229.742 64.6678C230.062 64.4945 230.322 64.2478 230.522 63.9278C230.722 63.5945 230.802 63.1611 230.762 62.6278C230.735 62.0011 230.402 61.4478 229.762 60.9678C229.109 60.4878 228.222 60.2145 227.102 60.1478C226.542 60.1211 225.982 60.1545 225.422 60.2478C224.862 60.3411 224.395 60.5145 224.022 60.7678C223.649 61.0078 223.462 61.3545 223.462 61.8078ZM223.482 44.0478C223.482 44.6078 223.615 45.1011 223.882 45.5278C224.135 45.9545 224.469 46.3211 224.882 46.6278C225.282 46.9211 225.715 47.1545 226.182 47.3278C226.649 47.5011 227.095 47.6078 227.522 47.6478C227.949 47.7011 228.382 47.6678 228.822 47.5478C229.249 47.4145 229.602 47.2211 229.882 46.9678C230.122 46.7278 230.322 46.4545 230.482 46.1478C230.629 45.8278 230.695 45.4478 230.682 45.0078C230.669 44.4878 230.469 43.9678 230.082 43.4478C229.695 42.9278 229.115 42.5878 228.342 42.4278C228.235 42.4011 228.035 42.3745 227.742 42.3478C227.449 42.3211 227.115 42.2945 226.742 42.2678C226.355 42.2411 225.982 42.2278 225.622 42.2278C225.249 42.2145 224.935 42.2145 224.682 42.2278C224.429 42.2278 224.215 42.3411 224.042 42.5678C223.855 42.7945 223.715 43.0545 223.622 43.3478C223.529 43.6278 223.482 43.8611 223.482 44.0478Z" fill="#B8845F"/>
</svg>
