<svg width="1919" height="710" viewBox="0 0 1919 710" fill="none" xmlns="http://www.w3.org/2000/svg">
<path fill-rule="evenodd" clip-rule="evenodd" d="M155.04 530.233L154.991 530.526C155.056 533.143 149.96 535.629 145.894 536.195L142.762 536.607C112.07 540.81 84.3466 549.268 55.2907 533.206C44.6718 527.421 41.2159 523.915 33.913 514.402C26.3265 504.608 22.2893 495.239 23.4735 482.706C23.2833 475.848 23.8647 472.475 25.1387 465.013C18.0625 456.608 10.5918 447.991 2.45973 440.179L1.52588e-05 437.86V423.702C13.0592 433.33 25.0741 445.147 35.9549 459.696C75.7284 434.388 123.599 502.526 148.453 523.082L150.231 524.538C152.19 526.161 155.082 528.697 155.04 530.233V530.233ZM1919 324.321C1899.96 346.202 1880.92 372.31 1858.9 393.913C1880.7 397.805 1899.98 406.065 1917.22 418.595L1919 419.907V434.209C1911.65 427.313 1903.73 421.196 1894.9 416.806C1879.08 409.02 1864.13 405.464 1848.13 403.864C1831.97 417.86 1814.09 428.951 1793.49 434.121C1768.03 440.507 1743.03 439.662 1719.03 433.736C1722.01 438.433 1724.84 443.342 1727.98 448.202C1740.64 467.738 1756 478.771 1776.39 484.839C1781.04 467.46 1805.53 460.26 1822.02 463.901C1828.15 464.651 1833.74 466.899 1838.95 470.071C1862.13 480.917 1881.59 499.705 1907.01 506.901C1909.55 507.546 1910 508.106 1911.57 508.864C1926.87 514.117 1907.55 522.13 1899.66 525.217C1874.06 533.244 1858.03 548.404 1829.55 539.052C1807.11 531.771 1789.61 515.411 1772.86 499.142C1771.64 497.834 1771.08 496.428 1770.99 494.938C1756.28 490.639 1743.15 482.781 1732.17 471.381C1720.55 459.465 1714.4 442.719 1704.36 429.445C1681.62 421.804 1659.92 409.835 1639.77 395.48L1634.1 391.406C1576.2 349.526 1520.32 300.77 1445.79 294.546C1416.39 292.093 1387.06 293.867 1358.25 300.187L1354.57 301.022C1351.73 301.696 1344.81 303.425 1336.09 305.676C1346.37 310.389 1356.12 317.137 1366.09 323.412C1372.33 312.848 1393.28 313.221 1403.24 316.396C1428.56 324.533 1445.49 344.724 1466.91 359.4L1469.34 361.556C1476.86 368.389 1476.87 370.313 1464.31 371.924C1443.45 372.766 1421.21 377.53 1401.84 367.35C1388.43 360.239 1377.73 350.52 1369.72 337.616C1352.93 328.355 1337.86 313.776 1319.78 309.948L1308.68 312.941C1298.22 315.8 1288.12 318.68 1280.9 320.988C1278.09 321.856 1273.82 324.231 1269.33 326.328C1274.7 332.37 1279.74 338.572 1284.43 344.889C1307.6 376.131 1326.95 410.632 1349.24 442.72C1350.19 442.442 1351.28 442.469 1352.45 442.926L1352.96 443.149C1371.49 451.937 1447.82 454.651 1454.91 426.51C1459 410.435 1466.55 400.995 1480.97 392.767C1510.77 375.849 1560.64 383.517 1589.97 398.095L1591.17 398.576C1601 402.699 1595.12 405.541 1587.01 409.127C1561.4 420.999 1484.42 487.929 1453.97 449.506C1425.63 461.669 1389.71 469.683 1360.94 458.898C1365.83 465.373 1370.9 471.702 1376.21 477.833C1419.51 527.848 1471.77 545.071 1536.76 539.673L1538.73 539.503C1538.99 539.479 1539.24 539.466 1539.49 539.46C1542.91 518.582 1557.29 500.345 1579.61 496.245C1600.38 492.503 1617.59 497.834 1635.93 507.556C1655.39 517.839 1675.4 524.939 1696.17 532.328L1697.27 532.693C1705.18 535.491 1700.25 538.354 1693.19 541.525C1664.87 552.438 1637.42 572.992 1606.04 575.138C1584.17 576.629 1565.27 572.802 1547.67 560.374C1545.26 560.792 1542.45 559.955 1540.67 558.089L1538.2 558.297C1516.1 560.058 1496.08 559.111 1477.75 555.759C1490.73 570.31 1502.38 588.591 1505.55 607.669C1518.49 602.898 1538.51 614.396 1546.23 623.371C1564.76 645.247 1572.2 673.944 1563.18 701.609L1562.21 704.898C1560.54 710.377 1559.86 710.906 1555.73 708.995C1535.95 700.072 1516.35 686.09 1504.69 667.301L1501.12 661.337C1497.04 654.433 1492.57 646.168 1492.79 638.7L1492.91 634.965C1493.1 630.036 1493.45 626.262 1494.66 618.706C1495.36 617.081 1494.75 614.114 1495.49 613.184C1492.98 590.375 1477.72 569.158 1461.7 553.64C1461.1 553.049 1460.69 552.408 1460.45 551.748C1408.87 537.189 1371.13 502.074 1336.42 454.444C1334.51 472.832 1337.45 491.711 1331.74 509.896L1330.81 512.84C1327.93 521.824 1324.08 532.048 1317.97 539.615L1319.46 541.848C1334.96 565.365 1344.27 591.074 1331.27 618.981C1318.01 647.436 1294.34 666.883 1264.83 676.689L1263.22 677.214C1256.79 679.272 1254.28 679.568 1254.28 674.427C1255.44 668.891 1255.44 664.603 1256.41 660.318C1262.23 634.612 1260.89 605.897 1265.82 584.948L1266.32 582.812C1271.06 563.037 1281.64 529.008 1306.32 532.793C1316.93 518.772 1324.47 499.892 1324.57 482.598C1324.57 468.526 1323.63 454.683 1326.93 441.017C1322.52 434.598 1318.14 427.981 1313.78 421.186L1305.96 409.013C1291.07 385.869 1275.36 362.039 1257.45 340.412C1261.9 354.975 1262.83 370.146 1255.96 384.634C1246.28 405.015 1230.07 419.783 1208.95 425.481C1207.17 448.104 1197.21 471.942 1173.85 479.701C1150.29 487.453 1118.45 478.203 1101.78 459.788C1100.68 458.573 1095.92 455.003 1095.82 453.696C1095.3 450.778 1097.87 449.975 1101.14 448.104C1119.76 437.638 1131.4 414.829 1151.97 407.63C1171.6 400.804 1181.57 406.231 1196.19 415.766C1196.71 415.543 1197.23 415.377 1197.85 415.319L1198.33 415.297C1221.51 414.734 1247.2 393.982 1250.84 370.052C1253.03 355.392 1250.64 341.596 1246.69 328.016C1226.66 306.037 1203.81 287.192 1176.47 274.961C1134.18 256.049 1087.12 249.71 1044.08 259.7C1056.52 262.482 1069.11 268.895 1076.09 274.524C1087.45 283.682 1103.93 299.944 1111.84 316.217C1112.31 316.583 1112.77 317.055 1113.05 317.616C1113.71 319.018 1114.16 320.42 1114.54 321.823C1124.13 316.023 1140.7 315.459 1148.52 317.799C1173.93 325.371 1188.18 347.243 1206.43 364.823L1208.38 366.628C1210.96 369.104 1212.24 371.379 1203.54 373.231L1200.7 373.731C1178.29 377.607 1152.95 380.411 1132.24 369.027C1119.76 362.202 1106.16 347.529 1104.59 332.197C1099.74 326.679 1096.67 319.198 1092.57 313.126C1086.34 303.968 1079.63 294.711 1070.97 287.706C1060.08 279.009 1047.88 273.872 1034.02 272.561L1029.78 272.23C1025.26 271.863 1021 271.28 1017.15 268.676L1016.88 268.478L1014.85 269.351C994.581 278.207 975.817 291.331 959.648 309.187C950.82 318.933 942.052 329.754 933.046 340.784C958.753 341.218 987.658 358.706 1004.4 376.882C1035.14 349.301 1077.67 383.422 1107.47 397.538L1109 398.224C1123.75 405.049 1113.25 407.353 1108.36 409.659L1108.12 409.772C1089.22 419.311 1065.11 436.334 1042.58 429.967C1020.14 423.709 1000.69 409.966 993.238 387.16C993.051 386.692 993.051 386.227 993.051 385.761L985.986 380.457C965.46 365.179 946.952 353.368 919.396 357.289C900.971 379.089 881.042 400.012 857.309 413.352C878.31 416.197 897.664 423.521 915.409 436.796C943.521 457.928 962.235 483.066 995.381 493.349C997.33 479.046 1019.12 474 1032.06 474.37C1061.11 475.029 1077.56 498.726 1099.88 515.819C1101.93 517.088 1105.15 520.15 1108.23 522.247C1118.51 528.752 1113.26 530.813 1107.29 534.478C1093.5 541.916 1082.42 550.461 1066.04 551.208C1052.82 551.864 1040.16 550.088 1027.5 546.166C1009.72 540.648 993.051 526.623 991.288 507.278C971.545 504.374 955.259 492.316 940.546 477.738C912.243 449.506 883.194 425.858 841.676 423.709C840.105 423.61 838.836 423.012 837.884 422.135C834.989 423.133 832.038 424.015 829.028 424.769C822.789 426.335 816.576 427.467 810.399 428.195C839.552 442.417 857.374 465.953 873.324 500.361C879.471 513.635 896.13 507.648 906.473 511.855C915.966 515.686 921.824 519.611 929.001 526.623C942.682 540.088 941.194 568.13 948.918 584.948L949.268 585.702C950.264 587.946 950.913 590.674 945.664 591.316C932.754 593.908 921.801 593.588 909.224 590.197L907.499 589.716C906.656 589.536 906.008 589.163 905.44 588.694C876.679 579.25 865.875 537.004 860.295 510.64C859.922 508.959 860.204 507.556 860.669 506.341C854.986 495.776 850.524 482.129 845.391 474.747C827.761 449.043 810.038 437.11 781.201 428.735C744.067 425.826 708.76 409.61 677.173 387.442L671.536 383.422C612.947 341.249 556.672 291.489 481.338 285.197C472.9 284.492 464.467 284.136 456.05 284.136C455.347 284.297 454.642 284.438 453.934 284.559C452.682 284.769 451.574 284.612 450.625 284.193C431.686 284.531 412.837 286.691 394.207 290.75L390.121 291.673C385.739 292.713 371.563 296.285 356.057 300.406C371.818 303.293 385.716 312.966 399.913 322.041L402.071 323.412C408.405 312.848 429.259 313.221 439.316 316.396C464.541 324.533 481.482 344.724 502.89 359.4L504.235 360.264C516.647 368.44 511.911 371.723 500.292 371.924C479.526 372.766 457.195 379.708 437.832 369.524C424.331 362.417 412.226 353.748 400.83 334.709C378.118 322.186 363.531 302.844 335.412 310.607C332.644 311.355 330.518 309.745 329.675 307.663L324.877 309.058C321.791 309.969 318.948 310.837 316.451 311.636C313.81 312.453 309.883 314.596 305.699 316.591C314.706 325.465 322.974 334.94 330.358 344.889C354.241 377.088 374.06 412.751 397.232 445.664C426.922 454.311 454.759 474.857 482.223 450.161C482.223 449.975 482.134 449.876 482.134 449.788C478.351 380.565 569.802 411.964 606.847 396.776L607.953 396.301C617.044 392.02 612.825 406.766 610.142 410.628L608.65 412.713C591.086 437.58 576.423 469.426 542.828 473.062L541.245 473.211C526.235 474.499 498.041 473.472 489.953 458.95C472.727 478.609 442.03 480.738 416.877 471.583L418.879 474.002L422.146 477.833C465.884 528.353 518.756 545.415 584.656 539.503C584.989 539.473 585.314 539.458 585.631 539.458L586.131 535.889C588.448 519.99 592.041 506.465 612.01 501.763C651.755 492.411 697.633 501.996 738.989 511.2C746.895 514.068 746.127 516.982 739.644 522.976C707.203 541.797 683.219 576.918 640.951 580.843L639.219 580.998C618.498 582.746 589.871 581.47 584.164 558.294C559.095 560.295 536.713 558.812 516.428 554.288C519.34 559.983 521.577 566.184 523.374 572.524C526.07 581.865 527.938 591.686 530.822 601.034C531.939 601.781 532.778 602.898 533.335 604.396L534.93 604.252C539.209 603.915 546.911 603.592 548.049 603.836C585.777 612.249 581.206 659.209 604.393 682.584L605.203 683.381C608.778 686.778 616.762 692.959 602.355 693.636L599.206 693.772C578.065 694.632 551.746 693.5 536.318 676.654C516.119 654.595 519.179 635.803 519.743 607.106C519.743 605.897 520.116 604.769 520.578 603.836L519.823 600.467C516.079 583.448 512.673 563.961 502.616 550.642C445.76 533.26 405.828 490.483 367.776 433.512L367.202 437.504C365.645 448.151 363.774 458.772 359.101 468.717L357.768 471.506C353.661 480.011 348.537 489.632 341.475 496.305C354.395 522.402 361.089 550.014 343.947 576.731C326.998 603.135 300.95 619.207 270.5 624.962L268.804 625.271C262.071 626.426 256.078 627.399 256.776 622.304C257.45 617.688 261.193 611.306 263.227 606.475C275.41 584.349 275.963 554.267 283.644 534.178L284.715 531.423C292.221 512.391 307.108 480.97 330.763 487.964C343.242 475.511 353.26 457.819 355.576 440.679C356.602 433.476 357.324 426.331 358.481 419.286L356.21 415.738C349.192 404.803 342.022 393.65 334.548 382.588C305.083 339.075 270.171 305.829 222.065 284.306C206.076 277.154 189.403 271.799 172.522 268.446C197.145 289.438 215.387 318.876 218.579 348.367C235.898 348.928 250.689 363.04 257.865 378.841C270.806 407.351 262.726 439.661 258.715 469.665C257.555 478.626 259.441 483.912 252.374 482.037C220.997 473.623 200.609 449.228 193.904 420.999C188.415 398.38 191.856 373.326 205.353 351.919C205.826 351.264 206.383 350.704 206.943 350.238C203.043 317.662 179.662 284.227 149.795 265.166C135.405 263.876 121.02 264.088 106.93 265.929C97.5181 267.94 88.2129 270.479 79.083 273.435L75.6677 274.562L75.5601 272.96C53.7601 280.036 33.3044 291.614 15.4211 308.218C39.3718 307.55 62.1942 318.484 74.307 340.446C74.8816 340.703 75.4456 340.957 76.0237 341.309C90.159 331.02 108.257 334.237 123.319 347.303C149.059 369.675 152.703 403.303 167.625 432.557C169.356 435.95 166.07 440.101 162.63 440.422L160.083 440.598C132.128 442.335 92.6965 438.312 74.233 414.628C61.765 398.658 53.9043 369.034 63.2914 349.202C51.9167 327.448 26.635 317.422 2.80273 321.308L0.500122 323.983V297.812C5.85026 292.623 11.3731 287.617 17.1536 282.879C19.4547 259.223 29.4256 237.415 20.0604 212.766C15.563 200.97 9.51959 190.569 1.74255 182.09L0.500122 180.767V163.832C30.0907 186.258 42.6501 236.215 31.5203 272.106C34.1102 270.334 36.7639 268.623 39.4799 266.976C69.0276 249.059 100.761 241.844 132.446 242.718C132.424 240.424 133.657 238.054 136.291 236.982L138.605 236.057C172.631 222.742 210.201 219.615 222.495 179.4C212.35 169.773 207.69 153.973 208.723 136.96C209.002 132.196 210.926 130.617 212.971 125.363C236.529 90.8341 293.345 90.0589 323.226 93.5227L325.53 93.6546C326.866 93.7457 328.702 93.922 331.232 94.3402L332.676 94.48C344.681 95.7229 343.542 97.8213 334.577 103.308C316.332 116.491 313.543 143.035 298.65 159.766L296.609 162.023C285.704 173.95 274.373 184.014 258.239 187.533C248.464 189.587 240.089 188.837 233.204 186.13C222.742 216.446 193.662 237.148 162.353 244.923C195.862 249.329 228.519 261.492 257.624 279.174C286.706 275.118 314.192 265.291 334.397 242.863C339.798 236.798 345.667 230.064 351.152 222.675L350.867 218.333C349.092 193.008 345.491 163.748 360.285 142.006C373.68 122.287 394.798 108.389 419.858 108.453L422.264 108.594C426.583 108.891 426.789 109.341 427.083 112.541L427.119 112.939C430.567 145.931 423.397 182.857 404.031 210.342L403.174 211.534C392.962 225.534 375.298 242.39 360.377 228.94L359.915 229.41C359.671 229.644 359.399 229.857 359.058 229.969C353.76 237.256 347.99 244.082 342.304 249.974C322.928 270.236 298.705 283.631 271.605 288.289C278.311 292.955 284.781 297.925 290.983 303.161C291.481 302.842 292.025 302.568 292.612 302.351C349.113 281.535 404.666 267.491 459.203 268.068C484.448 256.164 495.924 222.604 500.764 195.944L499.075 194.291C497.587 192.805 496.667 191.737 492.836 187.286L491.377 184.726C490.546 183.235 490.37 182.788 489.773 181.271C467.466 127.129 557.029 80.1402 600.827 79.1203L602.14 79.1035C605.401 79.1035 612.405 77.8949 617.643 79.019C619.977 81.6477 613.498 87.328 611.644 90.5064C593.86 121.818 598.516 180.334 561.176 198.368C549.265 204.08 527.759 207.442 512.4 202.579C510.316 224.789 498.446 252.17 481.312 269.131C513.767 271.927 545.857 280.34 577.566 296.044C606.692 290.521 630.559 278.86 649.245 253.533C661.353 237.165 666.941 219.687 669.634 201.082C669.176 199.965 669.084 198.745 669.267 197.442C654.184 172.853 646.182 140.234 652.139 111.906C655.675 95.5489 660.419 80.4108 669.084 66.0163C676.62 53.581 691.418 46.7837 702.304 38.6015C710.157 33.1855 715.018 26.3777 717.722 30.1199C718.586 33.1855 717.214 39.56 716.474 42.8371C708.554 79.5651 733.401 113.404 725.773 150.329C720.658 174.914 702.681 186.226 684.259 199.027C684.259 201.272 683.046 203.044 681.365 204.08C678.111 227.823 670.476 250.256 652.971 268.572C636.485 285.868 618.607 300.664 596.972 306.617C601.859 309.514 606.739 312.603 611.608 315.882C615.28 318.354 619.027 320.97 622.844 323.696L625.85 323.914C647.505 325.411 671.466 325.275 689.557 313.348C698.31 307.552 706.784 299.518 715.903 293.816C715.068 289.045 715.258 283.907 717.021 278.671C717.673 276.613 718.977 275.398 720.56 274.742C726.327 262.966 741.044 255.865 754.351 252.965C788.97 245.442 799.376 249.774 833.275 255.319L835.257 255.64C842.952 256.817 847.499 258.374 848.06 258.558C848.529 258.558 852.096 259.875 856.058 261.482C865.477 266.327 863.739 269.044 856.488 269.883C815.894 275.024 797.839 325.315 753.24 323.913C740.578 323.543 728.942 317.182 721.956 307.837C713.111 316.34 699.893 324.096 691.235 328.303C675.909 335.732 658.987 338.552 642.178 337.861L656.956 348.839C714.55 391.405 782.566 436.972 846.677 398.107C885.22 369.596 887.327 296.927 887.579 253.808C886.033 253.03 884.725 251.697 884.38 249.582L883.304 239.755C880.809 216.184 878.681 186.805 889.25 166.401C902.747 140.234 936.213 117.03 942.668 112.258C946.351 110.25 949.348 107.635 950.465 107.54C957.011 104.475 955.122 110.116 954.103 114.693C946.556 148.342 960.286 187.346 946.884 219.497L946.057 221.451C937.188 241.918 922.323 260.446 899.497 257.543L899.535 262.647C899.691 297.379 897.549 329.211 884.509 363.075C883.886 364.702 883.197 366.436 882.442 368.249C919.403 330.876 948.094 285.398 993.89 257.634C1026.93 237.595 1062.71 230.941 1098.09 234.015L1101.54 232.8C1132.99 221.926 1165.32 216.142 1176.55 179.4C1166.4 169.773 1164.3 157.412 1165.32 140.403C1165.59 135.639 1167.35 131.347 1169.1 127.841C1179.24 89.5197 1250.06 90.7918 1279.94 94.2486L1282.36 94.3801C1284 94.4775 1286.2 94.6602 1288.6 95.0978C1295.5 96.3344 1293.59 99.4811 1289.69 102.528L1288.64 103.308C1270.39 116.491 1267.6 143.035 1252.71 159.766L1250.68 162.023C1239.85 173.95 1228.42 184.014 1212.3 187.533C1202.53 189.587 1194.15 188.837 1187.25 186.13C1178.57 211.326 1157.01 229.881 1132.03 239.893C1161.41 247.446 1189.78 261.097 1215.29 278.642C1243.11 274.287 1269.08 264.367 1288.44 242.863C1293.85 236.798 1299.81 230.064 1305.22 222.675L1304.93 218.333C1303.15 193.008 1299.55 163.748 1314.33 142.006C1327.83 122.287 1349.34 107.329 1373.92 108.453L1376.32 108.594C1380.81 108.903 1380.87 109.378 1381.28 112.939C1384.62 145.931 1377.46 182.857 1358.18 210.342L1356.88 212.136C1346.61 226.01 1329.15 242.198 1314.42 228.94L1313.97 229.41C1313.73 229.644 1313.46 229.857 1313.13 229.969C1307.81 237.256 1302.04 244.082 1296.37 249.974C1277.53 269.659 1254.13 282.863 1227.97 287.87C1237.85 295.457 1247.22 303.622 1255.94 312.217C1256.29 312.022 1256.67 311.849 1257.07 311.703C1289.41 299.785 1321.44 290.087 1353.15 284.081C1357.1 263.901 1380.48 250.69 1398.58 244.921C1411.34 240.911 1423.63 240.438 1436.39 240.248C1436.57 239.695 1436.76 239.223 1437.14 238.849C1464.13 204.327 1511.58 207.829 1544.32 230.311L1546 231.489C1548.35 233.217 1550 235.032 1547.88 236.654C1547.61 237.306 1544 240.061 1543.26 240.625L1540.47 242.579C1510.11 263.641 1470.96 284.375 1439.09 254.368C1438.81 254.178 1438.71 253.899 1438.53 253.617L1434.41 253.848C1407.93 255.491 1382.37 260.349 1369.06 281.379C1424.03 273.157 1478 276.848 1530.93 300.198C1553.05 292.53 1572.14 279.935 1587.57 263.991C1590.92 235.019 1577.42 191.363 1551.92 172.765C1530.78 185.292 1509 190.62 1484.52 185.098C1460.78 179.777 1444.58 161.827 1427.64 145.931C1425.96 144.346 1424.78 144.43 1421.44 141.393C1420.28 139.701 1423.99 136.789 1426.04 134.823L1426.33 134.536C1445.6 115.183 1475.21 110.412 1501.55 112.748C1530.41 115.278 1547.45 134.342 1556.48 160.89C1556.67 161.64 1556.76 162.292 1556.76 162.951C1581.99 180.151 1599.03 218.003 1599.86 249.501C1617.27 226.414 1628.07 198.368 1631.33 169.114L1630.78 168.451C1630.61 168.229 1630.45 167.994 1630.31 167.712C1629.37 167.437 1628.53 166.877 1627.88 165.657C1614.66 138.458 1593.71 115.93 1603.4 83.7725C1609.74 62.8309 1629.42 36.7657 1651.02 30.1269L1652.98 29.2956C1660.46 26.1903 1661.1 26.9604 1661.44 32.454L1661.49 33.3864C1663.07 61.9041 1681.41 96.5813 1671.73 125.275C1665.78 142.947 1655.54 155.382 1641.66 167.063C1638.4 205.571 1622.86 244.833 1596.98 273.065C1596.91 273.065 1596.89 273.104 1596.88 273.13C1596.32 275.024 1595.03 276.148 1593.53 276.705C1580.17 290.269 1564.3 301.005 1546.06 307.434C1556.09 312.602 1566.09 318.516 1576.06 325.223C1579.04 327.232 1582.07 329.335 1585.15 331.515C1612.82 329.692 1639.88 331.552 1666.7 321.203L1671.4 319.39C1688.16 312.824 1691.39 310.254 1701.46 297.827L1702.81 296.149L1703.37 298.196C1699.93 275.852 1700.03 238.285 1715.58 218.757C1731.13 199.221 1771.63 196.508 1794.07 197.625C1796.58 197.72 1796.95 198.841 1797.6 201.741C1803 227.534 1792.38 253.808 1775.36 273.153L1773.87 274.828C1758.41 291.95 1734.34 311.635 1709.99 307.647C1700.13 318.68 1688.77 327.838 1670.72 333.726C1649.46 340.724 1626.92 345.582 1604.45 345.587L1620.91 357.818C1662.28 388.411 1709.05 420.682 1755.9 422.144C1757.82 421.316 1759.8 420.511 1761.58 419.258C1769.3 413.835 1776.47 408.222 1782.24 400.751C1797.6 380.747 1808.3 360.366 1810.16 335.22C1795.46 323.543 1799.47 286.335 1807.56 273.435C1822.46 249.6 1857.46 248.589 1881.2 238.775C1885.02 237.186 1884.18 241.559 1883.81 245.114L1883.4 248.16C1878.7 281.69 1863.37 337.157 1822.64 333.356C1821.39 360.745 1806.25 399.991 1781.38 419.703C1796.25 416.272 1811.03 409.119 1825.55 397.199C1859.79 369.102 1884.97 332.013 1915.98 301.072L1919 298.098V324.321ZM253.004 46.4685C224.953 57.3653 197.746 77.9158 166.652 80.0572C144.978 81.5505 126.252 77.7186 108.819 65.3003C108.435 65.3673 108.041 65.4022 107.643 65.4057C106.454 66.3202 104.917 66.9409 103.014 67.1141C81.2472 69.0821 61.5339 68.3701 43.4623 65.307C54.6807 79.0089 64.2596 95.4705 67.0785 112.575C79.9011 107.806 99.7235 119.299 107.387 128.269C125.746 150.129 133.134 178.812 124.185 206.466L123.395 209.169C121.671 214.989 121.072 215.773 117.212 214.03L116.801 213.841C96.6882 204.691 76.7574 190.209 65.325 170.68L62.6822 166.213C58.6339 159.313 54.2085 151.047 54.4305 143.586L54.5515 139.853C54.7457 134.927 55.092 131.154 56.2853 123.599C56.9734 121.982 56.3656 119.017 57.1131 118.083C54.7919 96.7758 41.4249 76.8587 26.7257 61.6853C18.4254 59.4876 10.4818 56.757 2.84814 53.5329L-3.05176e-05 52.3008V33.7438C29.1402 47.2841 61.6099 51.7881 98.2329 48.7925L100.179 48.6235C102.222 26.0296 116.867 5.57572 140.458 1.19759C161.035 -2.53565 178.095 2.79655 196.269 12.51C215.55 22.7835 235.383 29.8872 255.959 37.2727L257.055 37.6371C264.893 40.4337 260.007 43.2958 253.004 46.4685ZM1919 162.621V179.031C1911.24 171.3 1901.82 165.383 1890.24 162.083C1879.99 182.531 1858.02 189.544 1834.51 188.21L1833.29 188.134C1820.61 187.304 1807.36 186.017 1796.84 178.278C1790.54 173.774 1782.49 171.98 1774.71 164.936C1772.08 162.74 1777.04 160.823 1779.47 159.301L1779.73 159.133C1791.37 151.87 1799.75 144.038 1810.56 137.41C1820.05 131.705 1834.42 129.953 1845.13 130.505C1860.55 131.341 1878.49 136.119 1887.52 148.914L1888.29 149.751C1890.13 151.726 1890.48 151.74 1893.62 151.867C1902.58 153.211 1910.6 156.761 1917.75 161.73L1919 162.621V179.031V162.621Z" fill="#E8ECEA"/>
</svg>
