<svg width="123" height="102" viewBox="0 0 123 102" fill="none" xmlns="http://www.w3.org/2000/svg">
<path fill-rule="evenodd" clip-rule="evenodd" d="M64.8956 74.5866C68.3905 71.5861 68.3905 71.5861 70.0623 69.8677C87.5243 73.0297 109.947 80.9504 114.8 99.2424C115.972 103.726 123.727 102.396 122.945 97.7422C119.767 79.2362 93.5469 64.7691 74.0219 62.9416C76.9239 53.7998 74.9178 40.9987 71.509 33.9089C60.7467 11.6828 25.8268 14.4545 7.14088 3.8691C5.24411 2.76545 1.85432 -1.09102 0.285593 0.29798C-0.385216 3.41589 0.336061 7.585 0.336061 9.52583C0.388632 35.2937 28.6698 89.8215 61.306 76.4099C62.5888 75.9063 62.5888 75.9063 64.8956 74.5866Z" fill="#E8ECEA"/>
</svg>
