<svg width="843" height="305" viewBox="0 0 843 305" fill="none" xmlns="http://www.w3.org/2000/svg">
<path id="Agr&#195;&#160;ve" d="M126.1 8.84L164.06 107.9L171.6 106.86C174.547 106.513 177.06 107.293 179.14 109.2C181.22 111.107 182.52 113.447 183.04 116.22C183.733 118.993 183.387 121.593 182 124.02C180.613 126.447 178.013 128.007 174.2 128.7L171.08 128.96L195.26 193.18C196.3 196.647 196.127 199.68 194.74 202.28C193.527 204.707 191.62 206.353 189.02 207.22C186.593 208.26 183.993 208.26 181.22 207.22C178.62 206.353 176.453 204.273 174.72 200.98L149.24 130.26C144.733 130.607 140.14 130.867 135.46 131.04C130.953 131.213 126.62 131.3 122.46 131.3C117.26 131.3 112.407 131.213 107.9 131.04C103.393 130.867 99.1467 130.693 95.16 130.52C92.2133 139.36 88.92 148.113 85.28 156.78C81.64 165.273 77.48 173.073 72.8 180.18C68.12 187.287 62.4867 193.007 55.9 197.34C49.4867 201.673 41.9467 203.927 33.28 204.1C26.3467 204.1 20.1933 202.54 14.82 199.42C9.44666 196.127 5.63333 191.793 3.38 186.42C1.12666 180.873 0.519997 174.893 1.56 168.48C2.6 162.067 5.46 156.867 10.14 152.88C12.74 150.627 15.34 149.673 17.94 150.02C20.7133 150.193 23.0533 151.233 24.96 153.14C26.8667 154.873 27.9067 157.127 28.08 159.9C28.2533 162.5 27.1267 165.013 24.7 167.44C22.62 169.693 21.6667 172.207 21.84 174.98C22.0133 177.58 23.0533 179.833 24.96 181.74C27.04 183.473 29.8133 184.253 33.28 184.08C39.52 184.08 45.0667 181.48 49.92 176.28C54.9467 170.907 59.28 164.06 62.92 155.74C66.7333 147.42 70.1133 138.58 73.06 129.22C70.1133 128.873 67.6867 128.613 65.78 128.44C63.8733 128.267 62.7467 128.18 62.4 128.18C58.5867 127.66 55.8133 126.273 54.08 124.02C52.3467 121.593 51.5667 119.08 51.74 116.48C52.0867 113.707 53.3867 111.367 55.64 109.46C57.8933 107.553 61.0133 106.687 65 106.86C67.7733 107.033 72.54 107.467 79.3 108.16C84.8467 90.6533 89.7867 73.58 94.12 56.94C98.4533 40.3 101.92 25.0467 104.52 11.18C105.387 6.49999 107.38 3.46666 110.5 2.07999C113.62 0.69332 116.74 0.69332 119.86 2.07999C122.98 3.29333 125.06 5.54666 126.1 8.84ZM488.8 42.64C484.467 38.8267 480.393 34.9267 476.58 30.94C472.767 26.9533 470.08 23.7467 468.52 21.32C466.267 18.0267 465.4 15.08 465.92 12.48C466.44 9.88 467.74 7.88666 469.82 6.49999C471.9 5.11333 474.24 4.67999 476.84 5.2C479.44 5.54666 481.78 7.01999 483.86 9.61999C485.767 12.0467 488.28 14.9933 491.4 18.46C494.693 21.9267 497.987 25.0467 501.28 27.82C504.227 30.42 505.787 33.1067 505.96 35.88C506.133 38.48 505.353 40.7333 503.62 42.64C501.887 44.5467 499.633 45.6733 496.86 46.02C494.26 46.1933 491.573 45.0667 488.8 42.64ZM118.04 44.2C115.96 53.56 113.447 64.0467 110.5 75.66C107.553 87.1 104.52 98.3667 101.4 109.46C107.467 109.807 113.88 109.98 120.64 109.98C127.573 109.98 134.593 109.893 141.7 109.72L118.04 44.2ZM649.22 69.68C655.287 67.4267 661.007 66.9067 666.38 68.12C671.753 69.16 676.087 72.02 679.38 76.7C682.673 81.38 684.147 88.0533 683.8 96.72C683.627 99.32 683.367 101.833 683.02 104.26C682.673 106.687 682.153 109.547 681.46 112.84C685.62 114.573 690.213 116.22 695.24 117.78C696.107 113.1 697.753 108.073 700.18 102.7C702.607 97.3267 705.9 92.2133 710.06 87.36C714.393 82.5067 719.767 78.52 726.18 75.4C732.767 72.1067 740.48 70.2867 749.32 69.94C760.933 69.42 770.293 70.6333 777.4 73.58C784.68 76.5267 790.14 80.4267 793.78 85.28C797.42 89.96 799.76 95.0733 800.8 100.62C802.013 105.993 802.447 111.02 802.1 115.7C801.927 120.38 801.493 123.933 800.8 126.36C798.893 132.253 793.953 136.76 785.98 139.88C778.007 143 767.78 144.82 755.3 145.34C742.993 145.687 729.3 144.82 714.22 142.74C715.087 156.087 719.767 167.007 728.26 175.5C736.753 183.82 747.847 188.153 761.54 188.5C771.94 188.673 780.607 187.373 787.54 184.6C794.473 181.653 800.02 177.927 804.18 173.42C808.34 168.74 811.547 163.887 813.8 158.86C816.227 153.833 817.873 149.153 818.74 144.82C819.78 140.313 820.56 136.933 821.08 134.68C821.773 131.387 823.333 129.047 825.76 127.66C828.187 126.273 830.7 125.84 833.3 126.36C836.073 126.88 838.24 128.267 839.8 130.52C841.533 132.6 842.053 135.633 841.36 139.62C840.84 142.22 839.887 146.293 838.5 151.84C837.287 157.213 835.12 163.193 832 169.78C829.053 176.367 824.72 182.693 819 188.76C813.28 194.653 805.74 199.507 796.38 203.32C787.02 206.96 775.407 208.607 761.54 208.26C748.367 207.913 736.667 204.88 726.44 199.16C716.387 193.267 708.413 185.38 702.52 175.5C696.627 165.62 693.42 154.44 692.9 141.96C692.727 140.92 692.64 139.793 692.64 138.58C686.573 137.02 681.113 135.287 676.26 133.38C673.487 142.393 670.193 151.233 666.38 159.9C662.567 168.567 658.32 176.367 653.64 183.3C649.133 190.233 644.367 195.78 639.34 199.94C634.487 204.1 629.547 206.18 624.52 206.18C617.413 206.353 611.26 204.187 606.06 199.68C600.86 195.173 596.44 189.107 592.8 181.48C589.333 173.68 586.387 165.187 583.96 156C581.707 146.64 579.8 137.28 578.24 127.92C576.853 118.56 575.64 109.98 574.6 102.18C573.213 102.527 571.653 102.873 569.92 103.22C568.36 103.393 566.54 103.48 564.46 103.48C560.473 103.307 557.613 102.18 555.88 100.1C554.147 98.02 553.28 95.68 553.28 93.08C553.453 90.3067 554.407 87.88 556.14 85.8C558.047 83.72 560.647 82.7667 563.94 82.94C567.407 82.94 569.747 82.42 570.96 81.38C572.347 80.34 573.127 79.6467 573.3 79.3C575.207 76.0067 577.807 73.9267 581.1 73.06C584.393 72.1933 587.427 72.6267 590.2 74.36C592.973 75.92 594.447 78.6933 594.62 82.68C595.487 94.4667 596.787 106.34 598.52 118.3C600.253 130.26 602.333 141.267 604.76 151.32C607.187 161.373 609.96 169.52 613.08 175.76C616.373 181.827 620.013 184.947 624 185.12C625.907 184.773 628.94 181.74 633.1 176.02C637.26 170.127 641.593 162.587 646.1 153.4C650.607 144.213 654.247 134.333 657.02 123.76C649.74 118.56 644.367 113.533 640.9 108.68C637.433 103.653 635.353 98.7133 634.66 93.86C634.14 89.7 634.833 85.1933 636.74 80.34C638.647 75.4867 642.807 71.9333 649.22 69.68ZM320.84 70.46C324.653 70.6333 327.513 71.76 329.42 73.84C331.5 75.92 332.54 78.3467 332.54 81.12C332.713 83.72 331.847 86.1467 329.94 88.4C328.033 90.48 325.173 91.6067 321.36 91.78C319.453 91.78 317.027 92.1267 314.08 92.82C311.133 93.34 308.273 94.9867 305.5 97.76C306.367 100.707 307.233 104.78 308.1 109.98C309.14 115.007 309.92 120.813 310.44 127.4C311.133 134.333 311.74 142.653 312.26 152.36C312.78 161.893 312.953 172.207 312.78 183.3C312.78 194.393 312.173 205.573 310.96 216.84C309.92 228.107 308.013 238.94 305.24 249.34C302.64 259.74 299 269.013 294.32 277.16C289.813 285.307 284.007 291.807 276.9 296.66C269.793 301.513 261.3 304.027 251.42 304.2C242.06 304.373 234.433 302.987 228.54 300.04C222.82 297.093 218.4 293.54 215.28 289.38C212.16 285.393 209.993 281.667 208.78 278.2C207.567 274.907 206.873 273 206.7 272.48C205.833 269.013 206.18 266.153 207.74 263.9C209.3 261.82 211.38 260.433 213.98 259.74C216.58 259.22 219.093 259.48 221.52 260.52C224.12 261.56 225.853 263.553 226.72 266.5C226.893 267.193 227.327 268.493 228.02 270.4C228.713 272.48 229.927 274.647 231.66 276.9C233.393 279.327 235.82 281.32 238.94 282.88C242.233 284.44 246.48 285.133 251.68 284.96C258.613 284.787 264.593 282.187 269.62 277.16C274.647 272.133 278.807 265.2 282.1 256.36C285.567 247.693 288.167 237.727 289.9 226.46C291.633 215.367 292.587 203.58 292.76 191.1C290.16 195.433 285.827 199.507 279.76 203.32C273.867 207.133 266.673 209.213 258.18 209.56C248.3 209.907 240.067 208.607 233.48 205.66C226.893 202.887 221.607 199.16 217.62 194.48C213.807 189.627 210.947 184.427 209.04 178.88C207.133 173.16 205.833 167.7 205.14 162.5C204.447 157.127 204.1 152.62 204.1 148.98C204.1 135.113 206.007 123.413 209.82 113.88C213.633 104.173 218.66 96.2867 224.9 90.22C231.14 84.1533 237.987 79.7333 245.44 76.96C252.893 74.1867 260.173 72.7133 267.28 72.54C276.987 72.3667 285.22 75.14 291.98 80.86C295.793 77.5667 299.693 75.2267 303.68 73.84C307.667 72.28 311.22 71.3267 314.34 70.98C317.46 70.6333 319.627 70.46 320.84 70.46ZM384.02 74.36C390.607 72.28 398.233 72.1933 406.9 74.1C415.567 75.8333 423.887 80.7733 431.86 88.92C434.287 91.3467 435.327 93.9467 434.98 96.72C434.807 99.32 433.767 101.66 431.86 103.74C429.953 105.647 427.527 106.773 424.58 107.12C421.807 107.293 419.033 105.993 416.26 103.22C411.58 98.8867 407.247 96.2867 403.26 95.42C399.447 94.38 396.413 94.12 394.16 94.64C391.04 95.16 388.007 96.72 385.06 99.32C382.287 101.747 380.9 103.307 380.9 104C380.9 118.56 380.813 134.073 380.64 150.54C380.64 166.833 380.64 182.693 380.64 198.12C380.64 201.587 379.513 204.187 377.26 205.92C375.18 207.653 372.667 208.52 369.72 208.52C366.773 208.693 364.173 207.913 361.92 206.18C359.667 204.447 358.54 201.76 358.54 198.12C358.54 182.693 358.54 167.007 358.54 151.06C358.713 134.94 358.627 119.427 358.28 104.52C358.28 101.227 357.153 98.9733 354.9 97.76C352.647 96.5467 351.087 95.7667 350.22 95.42C346.407 94.0333 344.067 92.04 343.2 89.44C342.333 86.6667 342.507 84.0667 343.72 81.64C344.933 79.04 346.84 77.1333 349.44 75.92C352.04 74.5333 354.9 74.36 358.02 75.4C358.887 75.5733 360.447 76.2667 362.7 77.48C364.953 78.6933 367.38 80.4267 369.98 82.68C372.753 80.7733 375.527 79.04 378.3 77.48C381.073 75.7467 382.98 74.7067 384.02 74.36ZM498.42 73.84C502.753 73.84 506.74 74.4467 510.38 75.66C514.02 76.7 518.267 79.1267 523.12 82.94C523.293 80.34 524.507 78.52 526.76 77.48C529.187 76.2667 531.787 75.8333 534.56 76.18C537.507 76.5267 540.02 77.6533 542.1 79.56C544.18 81.2933 545.133 83.8933 544.96 87.36C544.613 92.04 544.18 98.1067 543.66 105.56C543.313 113.013 542.88 120.727 542.36 128.7C542.013 136.673 541.667 143.953 541.32 150.54C540.973 156.953 540.8 161.547 540.8 164.32C540.627 169.867 540.54 174.547 540.54 178.36C540.54 182 541.927 184.253 544.7 185.12C547.82 186.16 549.9 187.893 550.94 190.32C552.153 192.573 552.413 194.913 551.72 197.34C551.027 199.767 549.64 201.76 547.56 203.32C545.48 204.88 542.967 205.487 540.02 205.14C535.34 204.273 531.613 202.713 528.84 200.46C526.24 198.207 524.247 195.52 522.86 192.4C518.007 196.733 512.287 200.287 505.7 203.06C499.287 205.66 492.093 206.96 484.12 206.96C467.653 206.96 454.653 201.933 445.12 191.88C439.573 185.813 435.587 178.447 433.16 169.78C430.733 161.113 430.04 152.533 431.08 144.04C432.467 130.867 436.193 118.993 442.26 108.42C448.5 97.8467 456.387 89.44 465.92 83.2C475.627 76.7867 486.46 73.6667 498.42 73.84ZM660.14 85.54C658.06 85.54 656.673 86.32 655.98 87.88C655.287 89.2667 655.027 90.48 655.2 91.52C655.373 93.08 655.98 94.9 657.02 96.98C658.233 99.06 659.967 101.227 662.22 103.48C662.567 102.093 662.913 100.533 663.26 98.8C663.607 96.8933 663.867 95.42 664.04 94.38C664.213 91.4333 664.04 89.3533 663.52 88.14C663 86.9267 661.873 86.06 660.14 85.54ZM750.88 90.74C742.56 91.0867 736.06 93.08 731.38 96.72C726.7 100.36 723.233 104.607 720.98 109.46C718.727 114.313 717.253 118.647 716.56 122.46C729.56 124.713 740.653 125.667 749.84 125.32C759.027 124.8 766.133 123.847 771.16 122.46C776.36 121.073 779.307 120.12 780 119.6C780.52 117.867 780.867 115.353 781.04 112.06C781.387 108.593 780.867 105.213 779.48 101.92C778.093 98.4533 775.147 95.5933 770.64 93.34C766.307 91.0867 759.72 90.22 750.88 90.74ZM267.8 93.6C261.387 93.6 254.887 95.3333 248.3 98.8C241.887 102.093 236.427 107.813 231.92 115.96C227.587 123.933 225.333 134.853 225.16 148.72C225.16 152.88 225.507 157.3 226.2 161.98C227.067 166.66 228.54 171.08 230.62 175.24C232.873 179.4 236.08 182.78 240.24 185.38C244.573 187.98 250.207 189.02 257.14 188.5C265.287 188.153 272.48 183.82 278.72 175.5C284.96 167.007 288.513 155.48 289.38 140.92C289.727 133.64 289.293 126.36 288.08 119.08C286.867 111.8 284.613 105.733 281.32 100.88C278.2 96.0267 273.693 93.6 267.8 93.6ZM498.68 93.86C491.4 93.86 484.987 95.5933 479.44 99.06C473.893 102.353 469.127 106.687 465.14 112.06C461.327 117.26 458.293 122.893 456.04 128.96C453.787 135.027 452.4 140.833 451.88 146.38C451.187 151.927 451.62 157.56 453.18 163.28C454.913 168.827 457.427 173.42 460.72 177.06C463.84 180.18 467.393 182.78 471.38 184.86C475.54 186.767 480.48 187.633 486.2 187.46C492.96 187.287 499.72 184.687 506.48 179.66C513.24 174.633 517.66 167.093 519.74 157.04C520.087 155.653 520.433 153.053 520.78 149.24C521.127 145.427 521.473 141.093 521.82 136.24C522.167 131.213 522.34 126.36 522.34 121.68C522.513 116.827 522.513 112.753 522.34 109.46C522.34 106.167 520.867 103.393 517.92 101.14C514.973 98.7133 511.593 96.8933 507.78 95.68C504.14 94.4667 501.107 93.86 498.68 93.86Z" fill="#945625"/>
</svg>
