<svg width="160" height="614" viewBox="0 0 160 614" fill="none" xmlns="http://www.w3.org/2000/svg">
<path d="M148.096 411.156V490.227L114.986 509.345V560.462L159.252 586.022L160 585.59V613.565L159.248 614L90.7803 574.465V495.394L123.891 476.275V425.158L79.625 399.602L35.3613 425.158V476.275L68.4697 495.394V574.465L0 614V586.022L44.2656 560.462V509.345L11.1572 490.227V411.154L79.625 371.62L148.096 411.156Z" fill="#F0DBCC"/>
<path d="M148.096 188.987V268.062L114.986 287.176V338.293L159.252 363.852L160 363.419V391.399L159.252 391.832L90.7803 352.297V273.226L123.891 254.108V202.989L79.625 177.431L35.3613 202.989V254.108L68.4697 273.226V352.297L0 391.832V363.852L44.2656 338.293V287.176L11.1572 268.06V188.987L79.625 149.451L148.096 188.987Z" fill="#F0DBCC"/>
<path d="M35.3613 31.9365L68.4697 51.0566V130.126L0 169.665V141.684L44.2656 116.127V65.0078L11.1572 45.8896V0H35.3613V31.9365Z" fill="#F0DBCC"/>
<path d="M148.096 45.8896L114.986 65.0078V116.127L159.252 141.684L160 141.251V169.232L159.252 169.665L90.7803 130.126V51.0566L123.891 31.9365V0H148.096V45.8896Z" fill="#F0DBCC"/>
<path d="M22.5044 521.44V546.793L0 559.471V508.8V508.763L22.5044 521.44Z" fill="#CDDFEA"/>
<path d="M160 508.763L159.999 559.471L138.044 546.793V521.44L160 508.763Z" fill="#CDDFEA"/>
<path d="M102.328 437.256V462.608L80.3735 475.286L58.4194 462.608V437.256L80.3735 424.578L102.328 437.256Z" fill="#CDDFEA"/>
<path d="M22.5044 299.272V324.625L0 337.303V337.265V286.595L22.5044 299.272Z" fill="#CDDFEA"/>
<path d="M160 286.595L159.999 337.303L138.044 324.625V299.272L160 286.595Z" fill="#CDDFEA"/>
<path d="M102.328 215.085V240.438L80.3735 253.115L58.4194 240.438V215.085L80.3735 202.408L102.328 215.085Z" fill="#CDDFEA"/>
<path d="M22.5044 77.1035V102.457L0 115.134V64.4268L22.5044 77.1035Z" fill="#CDDFEA"/>
<path d="M160 64.4268V115.133L159.999 115.134L138.044 102.457V77.1035L160 64.4268Z" fill="#CDDFEA"/>
<path d="M102.328 18.2695L80.3735 30.9473L58.4194 18.2695V0H102.328V18.2695Z" fill="#CDDFEA"/>
</svg>
