<svg width="255" height="100" viewBox="0 0 255 100" fill="none" xmlns="http://www.w3.org/2000/svg">
<path fill-rule="evenodd" clip-rule="evenodd" d="M199.999 21.8748C198.275 21.8748 196.874 20.4746 196.874 18.7499C196.874 17.0248 198.275 15.6249 199.999 15.6249C201.724 15.6249 203.124 17.0248 203.124 18.7499C203.124 20.4746 201.724 21.8748 199.999 21.8748ZM199.999 34.3751C198.275 34.3751 196.874 32.9748 196.874 31.2501C196.874 29.5251 198.275 28.1248 199.999 28.1248C201.724 28.1248 203.124 29.5251 203.124 31.2501C203.124 32.9748 201.724 34.3751 199.999 34.3751ZM199.999 46.875C198.275 46.875 196.874 45.4747 196.874 43.75C196.874 42.0254 198.275 40.6247 199.999 40.6247C201.724 40.6247 203.124 42.0254 203.124 43.75C203.124 45.4747 201.724 46.875 199.999 46.875ZM199.999 59.3753C198.275 59.3753 196.874 57.9747 196.874 56.25C196.874 54.5253 198.275 53.125 199.999 53.125C201.724 53.125 203.124 54.5253 203.124 56.25C203.124 57.9747 201.724 59.3753 199.999 59.3753ZM199.999 71.8748C198.275 71.8748 196.874 70.4749 196.874 68.7502C196.874 67.0252 198.275 65.6253 199.999 65.6253C201.724 65.6253 203.124 67.0252 203.124 68.7502C203.124 70.4749 201.724 71.8748 199.999 71.8748ZM199.999 84.3751C198.275 84.3751 196.874 82.9748 196.874 81.2501C196.874 79.5254 198.275 78.1252 199.999 78.1252C201.724 78.1252 203.124 79.5254 203.124 81.2501C203.124 82.9748 201.724 84.3751 199.999 84.3751ZM255 15.6249V9.37493C249.825 9.37493 245.625 5.17447 245.625 0H209.374C209.374 5.17447 205.174 9.37493 199.999 9.37493C194.824 9.37493 190.624 5.17447 190.624 0H9.37523C9.37523 5.17447 5.17518 9.37493 0 9.37493V15.6249C1.72468 15.6249 3.12495 17.0248 3.12495 18.7499C3.12495 20.4746 1.72468 21.8748 0 21.8748V28.1248C1.72468 28.1248 3.12495 29.5251 3.12495 31.2501C3.12495 32.9748 1.72468 34.3751 0 34.3751V40.6247C1.72468 40.6247 3.12495 42.0253 3.12495 43.75C3.12495 45.4747 1.72468 46.875 0 46.875V53.125C1.72468 53.125 3.12495 54.5253 3.12495 56.25C3.12495 57.9747 1.72468 59.3753 0 59.3753V65.6253C1.72468 65.6253 3.12495 67.0252 3.12495 68.7502C3.12495 70.4749 1.72468 71.8748 0 71.8748V78.1252C1.72468 78.1252 3.12495 79.5254 3.12495 81.2501C3.12495 82.9748 1.72468 84.3751 0 84.3751V90.6251C5.17518 90.6251 9.37523 94.8244 9.37523 100H190.624C190.624 94.8244 194.824 90.6251 199.999 90.6251C205.174 90.6251 209.374 94.8244 209.374 100H245.625C245.625 94.8244 249.825 90.6251 255 90.6251V84.3751C253.275 84.3751 251.875 82.9748 251.875 81.2501C251.875 79.5254 253.275 78.1252 255 78.1252V71.8748C253.275 71.8748 251.875 70.4749 251.875 68.7502C251.875 67.0252 253.275 65.6253 255 65.6253V59.3753C253.275 59.3753 251.875 57.9747 251.875 56.25C251.875 54.5253 253.275 53.125 255 53.125V46.875C253.275 46.875 251.875 45.4747 251.875 43.75C251.875 42.0253 253.275 40.6247 255 40.6247V34.3751C253.275 34.3751 251.875 32.9748 251.875 31.2501C251.875 29.5251 253.275 28.1248 255 28.1248V21.8748C253.275 21.8748 251.875 20.4746 251.875 18.7499C251.875 17.0248 253.275 15.6249 255 15.6249Z" fill="#286F9B"/>
<path fill-rule="evenodd" clip-rule="evenodd" d="M106 38H126V30H106V38Z" stroke="#77A6C5" stroke-width="1.86375" stroke-linecap="round" stroke-linejoin="round"/>
<path fill-rule="evenodd" clip-rule="evenodd" d="M106 27H126V16H106V27Z" stroke="#77A6C5" stroke-width="1.86375" stroke-linecap="round" stroke-linejoin="round"/>
<path fill-rule="evenodd" clip-rule="evenodd" d="M127.9 38.5906C127.67 38.2659 127.162 38 126.773 38H106.226C105.84 38 105.332 38.2659 105.098 38.5906L103.114 41.4071C102.884 41.7341 103.014 42 103.403 42H129.595C129.985 42 130.118 41.7341 129.885 41.4071L127.9 38.5906Z" stroke="#77A6C5" stroke-width="1.86375" stroke-linecap="round" stroke-linejoin="round"/>
<path fill-rule="evenodd" clip-rule="evenodd" d="M128.887 29.4197C129.119 29.7401 128.982 30 128.584 30H104.418C104.021 30 103.88 29.7401 104.112 29.4197L105.445 27.5807C105.672 27.2621 106.188 27 106.585 27H126.414C126.811 27 127.327 27.2621 127.558 27.5807L128.887 29.4197Z" stroke="#77A6C5" stroke-width="1.86375" stroke-linecap="round" stroke-linejoin="round"/>
<path fill-rule="evenodd" clip-rule="evenodd" d="M128.364 42C130.027 45.6245 131 50.0155 131 54.7495C131 60.4425 129.591 65.643 127.269 69.6071C126.765 70.4639 126.568 71.2649 126.496 72H105.504C105.432 71.2649 105.239 70.4639 104.735 69.6071C102.409 65.643 101 60.4425 101 54.7495C101 50.0155 101.973 45.6245 103.64 42H128.364Z" stroke="#77A6C5" stroke-width="1.86375" stroke-linecap="round" stroke-linejoin="round"/>
<path fill-rule="evenodd" clip-rule="evenodd" d="M94.9311 71.4544C94.7656 72.503 95.0119 73.4649 95.6277 74.165C96.2396 74.8642 97.1748 75.2481 98.2601 75.2481H105.476L98.3101 81H98.2601C95.4738 81 92.8876 79.8736 91.1634 77.9112C89.4393 75.9459 88.6927 73.2764 89.1161 70.5836L95.7085 28.5433C96.1126 25.9735 97.5096 23.5716 99.6455 21.7783C101.762 20.0037 104.368 19.0181 107 19V24.7511C104.456 24.7936 101.905 26.9554 101.52 29.4142L94.9311 71.4544Z" stroke="#77A6C5" stroke-width="1.86375" stroke-linecap="round" stroke-linejoin="round"/>
<path fill-rule="evenodd" clip-rule="evenodd" d="M141.837 77.9112C140.112 79.8736 137.53 81 134.744 81H134.69L127.528 75.2481H134.744C135.825 75.2481 136.76 74.8642 137.376 74.165C137.988 73.4649 138.238 72.503 138.073 71.4544L131.48 29.4142C131.095 26.9554 128.544 24.7936 126 24.7511V19C128.632 19.0181 131.242 20.0037 133.354 21.7783C135.49 23.5716 136.891 25.9735 137.291 28.5433L143.884 70.5836C144.307 73.2764 143.561 75.9459 141.837 77.9112Z" stroke="#77A6C5" stroke-width="1.86375" stroke-linecap="round" stroke-linejoin="round"/>
<path fill-rule="evenodd" clip-rule="evenodd" d="M131.262 14.2282C132.464 15.2021 132.166 16 130.597 16H102.403C100.834 16 100.536 15.2021 101.738 14.2282C101.738 14.2282 106.738 10.1801 112.254 9.32473C113.621 9.11198 115.04 9 116.5 9C117.96 9 119.383 9.11198 120.75 9.32473C126.262 10.1801 131.262 14.2282 131.262 14.2282Z" stroke="#77A6C5" stroke-width="1.86375" stroke-linecap="round" stroke-linejoin="round"/>
<path fill-rule="evenodd" clip-rule="evenodd" d="M126.387 73C127.11 73.2979 126.603 74.3855 127.095 74.7846L134.796 81.0377C136.006 82.0193 136.133 83.3908 136.133 84.9373V85.6262C136.133 87.1726 137.22 89.1085 138.55 89.9274L141.12 91.5121C142.445 92.3303 142.252 93 140.688 93H92.3117C90.7476 93 90.554 92.3303 91.8835 91.5121L94.4494 89.9274C95.7789 89.1085 96.8663 87.1726 96.8663 85.6262V84.9373C96.8663 83.3908 96.9966 82.0193 98.2033 81.0377L105.905 74.7846C106.396 74.3855 105.893 73.2979 106.612 73.0011L126.387 73Z" stroke="#77A6C5" stroke-width="1.86375" stroke-linecap="round" stroke-linejoin="round"/>
<path fill-rule="evenodd" clip-rule="evenodd" d="M124 77.5005C124 78.8806 120.642 80 116.498 80C112.355 80 109 78.8806 109 77.5005C109 76.1204 112.355 75 116.498 75C120.642 75 124 76.1204 124 77.5005Z" fill="#4081AA"/>
<path fill-rule="evenodd" clip-rule="evenodd" d="M67 51H54H67Z" stroke="#CDDFEA" stroke-width="1.86375" stroke-linecap="round" stroke-linejoin="round"/>
<path fill-rule="evenodd" clip-rule="evenodd" d="M86 51H73H86Z" stroke="#77A6C5" stroke-width="1.86375" stroke-linecap="round" stroke-linejoin="round"/>
<path fill-rule="evenodd" clip-rule="evenodd" d="M84 81L72 93L84 81Z" stroke="#CDDFEA" stroke-width="1.86375" stroke-linecap="round" stroke-linejoin="round"/>
<path fill-rule="evenodd" clip-rule="evenodd" d="M87 25L72 10L87 25Z" stroke="#CDDFEA" stroke-width="1.86375" stroke-linecap="round" stroke-linejoin="round"/>
<path fill-rule="evenodd" clip-rule="evenodd" d="M71 69L59 74L71 69Z" stroke="#CDDFEA" stroke-width="1.86375" stroke-linecap="round" stroke-linejoin="round"/>
<path fill-rule="evenodd" clip-rule="evenodd" d="M84 64L76 67L84 64Z" stroke="#77A6C5" stroke-width="1.86375" stroke-linecap="round" stroke-linejoin="round"/>
<path fill-rule="evenodd" clip-rule="evenodd" d="M79 37L59 29L79 37Z" stroke="#CDDFEA" stroke-width="1.86375" stroke-linecap="round" stroke-linejoin="round"/>
<path fill-rule="evenodd" clip-rule="evenodd" d="M75 77L64 84L75 77Z" stroke="#CDDFEA" stroke-width="1.86375" stroke-linecap="round" stroke-linejoin="round"/>
<path fill-rule="evenodd" clip-rule="evenodd" d="M76 44L55 40L76 44Z" stroke="#CDDFEA" stroke-width="1.86375" stroke-linecap="round" stroke-linejoin="round"/>
<path fill-rule="evenodd" clip-rule="evenodd" d="M79 29L89 35L79 29Z" stroke="#77A6C5" stroke-width="1.86375" stroke-linecap="round" stroke-linejoin="round"/>
<path fill-rule="evenodd" clip-rule="evenodd" d="M64 18L74 25L64 18Z" stroke="#CDDFEA" stroke-width="1.86375" stroke-linecap="round" stroke-linejoin="round"/>
<path fill-rule="evenodd" clip-rule="evenodd" d="M76 59L55 63L76 59Z" stroke="#CDDFEA" stroke-width="1.86375" stroke-linecap="round" stroke-linejoin="round"/>
<path fill-rule="evenodd" clip-rule="evenodd" d="M84 71L80 73L84 71Z" stroke="#77A6C5" stroke-width="1.86375" stroke-linecap="round" stroke-linejoin="round"/>
<path fill-rule="evenodd" clip-rule="evenodd" d="M162 51H147H162Z" stroke="#77A6C5" stroke-width="1.86375" stroke-linecap="round" stroke-linejoin="round"/>
<path fill-rule="evenodd" clip-rule="evenodd" d="M179 51H168H179Z" stroke="#CDDFEA" stroke-width="1.86375" stroke-linecap="round" stroke-linejoin="round"/>
<path fill-rule="evenodd" clip-rule="evenodd" d="M161 9L143 27L161 9Z" stroke="#77A6C5" stroke-width="1.86375" stroke-linecap="round" stroke-linejoin="round"/>
<path fill-rule="evenodd" clip-rule="evenodd" d="M161 93L146 78L161 93Z" stroke="#CDDFEA" stroke-width="1.86375" stroke-linecap="round" stroke-linejoin="round"/>
<path fill-rule="evenodd" clip-rule="evenodd" d="M159 35L146 40L159 35Z" stroke="#77A6C5" stroke-width="1.86375" stroke-linecap="round" stroke-linejoin="round"/>
<path fill-rule="evenodd" clip-rule="evenodd" d="M174 29L164 33L174 29Z" stroke="#CDDFEA" stroke-width="1.86375" stroke-linecap="round" stroke-linejoin="round"/>
<path fill-rule="evenodd" clip-rule="evenodd" d="M88 41L84 39L88 41Z" stroke="#77A6C5" stroke-width="1.86375" stroke-linecap="round" stroke-linejoin="round"/>
<path fill-rule="evenodd" clip-rule="evenodd" d="M174 74L150 64L174 74Z" stroke="#CDDFEA" stroke-width="1.86375" stroke-linecap="round" stroke-linejoin="round"/>
<path fill-rule="evenodd" clip-rule="evenodd" d="M90 17L93 21L90 17Z" stroke="#77A6C5" stroke-width="1.86375" stroke-linecap="round" stroke-linejoin="round"/>
<path fill-rule="evenodd" clip-rule="evenodd" d="M83 5L87 12L83 5Z" stroke="#CDDFEA" stroke-width="1.86375" stroke-linecap="round" stroke-linejoin="round"/>
<path fill-rule="evenodd" clip-rule="evenodd" d="M155 27L145 34L155 27Z" stroke="#77A6C5" stroke-width="1.86375" stroke-linecap="round" stroke-linejoin="round"/>
<path fill-rule="evenodd" clip-rule="evenodd" d="M169 18L160 24L169 18Z" stroke="#CDDFEA" stroke-width="1.86375" stroke-linecap="round" stroke-linejoin="round"/>
<path fill-rule="evenodd" clip-rule="evenodd" d="M87 46L82 45L87 46Z" stroke="#77A6C5" stroke-width="1.86375" stroke-linecap="round" stroke-linejoin="round"/>
<path fill-rule="evenodd" clip-rule="evenodd" d="M152 58L148 57L152 58Z" stroke="#77A6C5" stroke-width="1.86375" stroke-linecap="round" stroke-linejoin="round"/>
<path fill-rule="evenodd" clip-rule="evenodd" d="M177 63L157 59L177 63Z" stroke="#CDDFEA" stroke-width="1.86375" stroke-linecap="round" stroke-linejoin="round"/>
<path d="M161 79L169 84" stroke="#CDDFEA" stroke-width="1.86375" stroke-linecap="round" stroke-linejoin="round"/>
<path d="M156 75L151 72" stroke="#77A6C5" stroke-width="1.86375" stroke-linecap="round" stroke-linejoin="round"/>
<path fill-rule="evenodd" clip-rule="evenodd" d="M143 16L140 21L143 16Z" stroke="#77A6C5" stroke-width="1.86375" stroke-linecap="round" stroke-linejoin="round"/>
<path fill-rule="evenodd" clip-rule="evenodd" d="M150 6L146 11L150 6Z" stroke="#CDDFEA" stroke-width="1.86375" stroke-linecap="round" stroke-linejoin="round"/>
<path fill-rule="evenodd" clip-rule="evenodd" d="M86 57L82 58L86 57Z" stroke="#77A6C5" stroke-width="1.86375" stroke-linecap="round" stroke-linejoin="round"/>
<path fill-rule="evenodd" clip-rule="evenodd" d="M152 45L147 46L152 45Z" stroke="#77A6C5" stroke-width="1.86375" stroke-linecap="round" stroke-linejoin="round"/>
<path fill-rule="evenodd" clip-rule="evenodd" d="M177 40L157 44L177 40Z" stroke="#CDDFEA" stroke-width="1.86375" stroke-linecap="round" stroke-linejoin="round"/>
<path d="M34.014 82.9532C34.242 82.9412 34.416 83.0132 34.536 83.1692C34.668 83.3132 34.734 83.4812 34.734 83.6732C34.746 83.8652 34.692 84.0392 34.572 84.1952C34.452 84.3392 34.26 84.4112 33.996 84.4112C33.42 84.4112 32.808 84.4112 32.16 84.4112C31.5 84.3992 30.882 84.3932 30.306 84.3932C30.318 85.7492 30.306 87.1592 30.27 88.6232C30.786 88.6472 31.386 88.6712 32.07 88.6952C32.742 88.7072 33.39 88.7372 34.014 88.7852C34.254 88.7972 34.428 88.8812 34.536 89.0372C34.644 89.1932 34.692 89.3672 34.68 89.5592C34.668 89.7392 34.596 89.9012 34.464 90.0452C34.332 90.1772 34.14 90.2372 33.888 90.2252C33.276 90.1772 32.64 90.1412 31.98 90.1172C31.32 90.0932 30.738 90.0752 30.234 90.0632V90.1712C30.21 90.4112 30.126 90.5852 29.982 90.6932C29.838 90.8012 29.676 90.8492 29.496 90.8372C29.316 90.8252 29.16 90.7652 29.028 90.6572C28.884 90.5372 28.806 90.3752 28.794 90.1712V90.0092C28.002 89.9852 27.288 89.9732 26.652 89.9732C26.004 89.9732 25.584 89.9732 25.392 89.9732C25.128 89.9852 24.936 89.9192 24.816 89.7752C24.684 89.6312 24.618 89.4692 24.618 89.2892C24.618 89.0972 24.678 88.9292 24.798 88.7852C24.918 88.6292 25.092 88.5512 25.32 88.5512C25.464 88.5392 25.716 88.5332 26.076 88.5332C26.424 88.5332 26.844 88.5392 27.336 88.5512C27.828 88.5512 28.338 88.5512 28.866 88.5512C28.89 87.8072 28.902 87.0932 28.902 86.4092C28.902 85.7252 28.896 85.0652 28.884 84.4292C28.236 84.4172 27.624 84.4112 27.048 84.4112C26.472 84.3992 25.962 84.3992 25.518 84.4112C25.266 84.4112 25.074 84.3392 24.942 84.1952C24.81 84.0392 24.744 83.8652 24.744 83.6732C24.744 83.4812 24.81 83.3132 24.942 83.1692C25.074 83.0132 25.266 82.9352 25.518 82.9352C25.662 82.9352 25.938 82.9352 26.346 82.9352C26.754 82.9352 27.246 82.9352 27.822 82.9352C28.386 82.9352 28.986 82.9352 29.622 82.9352C30.246 82.9352 30.858 82.9352 31.458 82.9352C32.046 82.9352 32.568 82.9412 33.024 82.9532C33.48 82.9532 33.81 82.9532 34.014 82.9532ZM34.698 80.9942C34.71 81.2222 34.65 81.3962 34.518 81.5162C34.398 81.6362 34.254 81.7022 34.086 81.7142C33.918 81.7262 33.768 81.6782 33.636 81.5702C33.504 81.4622 33.432 81.2882 33.42 81.0482L33.402 80.5262C31.89 80.5142 30.516 80.5142 29.28 80.5262C28.044 80.5262 26.874 80.5202 25.77 80.5082C25.758 80.5802 25.752 80.6642 25.752 80.7602C25.752 80.8562 25.746 80.9522 25.734 81.0482C25.71 81.2882 25.632 81.4622 25.5 81.5702C25.356 81.6782 25.2 81.7262 25.032 81.7142C24.852 81.7022 24.702 81.6302 24.582 81.4982C24.45 81.3662 24.39 81.1802 24.402 80.9402C24.414 80.5562 24.426 80.1482 24.438 79.7162C24.45 79.2722 24.45 78.9002 24.438 78.6002C24.438 78.3722 24.498 78.2042 24.618 78.0962C24.738 77.9762 24.882 77.9162 25.05 77.9162C25.218 77.9042 25.374 77.9522 25.518 78.0602C25.662 78.1682 25.746 78.3362 25.77 78.5642C25.782 78.6482 25.788 78.7562 25.788 78.8882C25.788 79.0082 25.788 79.1042 25.788 79.1762C26.892 79.1762 28.056 79.1762 29.28 79.1762C30.492 79.1762 31.848 79.1762 33.348 79.1762L33.33 78.7982C33.33 78.5582 33.396 78.3782 33.528 78.2582C33.648 78.1382 33.792 78.0782 33.96 78.0782C34.128 78.0662 34.278 78.1202 34.41 78.2402C34.542 78.3482 34.614 78.5222 34.626 78.7622L34.698 80.9942ZM34.302 71.0892L30.864 75.1932C31.044 75.1932 31.278 75.1992 31.566 75.2112C31.854 75.2112 32.154 75.2112 32.466 75.2112C32.766 75.2112 33.042 75.2172 33.294 75.2292C33.546 75.2292 33.726 75.2292 33.834 75.2292C34.086 75.2412 34.272 75.3252 34.392 75.4812C34.512 75.6252 34.572 75.7932 34.572 75.9852C34.572 76.1652 34.512 76.3272 34.392 76.4712C34.26 76.6152 34.068 76.6812 33.816 76.6692C33.684 76.6692 33.372 76.6632 32.88 76.6512C32.388 76.6392 31.8 76.6272 31.116 76.6152C30.42 76.6032 29.694 76.5912 28.938 76.5792C28.182 76.5672 27.474 76.5612 26.814 76.5612C26.142 76.5492 25.59 76.5372 25.158 76.5252C24.894 76.5252 24.702 76.4532 24.582 76.3092C24.45 76.1532 24.384 75.9852 24.384 75.8052C24.384 75.6132 24.456 75.4512 24.6 75.3192C24.732 75.1752 24.93 75.1032 25.194 75.1032C25.83 75.1152 26.412 75.1332 26.94 75.1572C27.468 75.1692 27.882 75.1752 28.182 75.1752L24.654 71.0352C24.498 70.8552 24.438 70.6692 24.474 70.4772C24.498 70.2852 24.588 70.1292 24.744 70.0092C24.888 69.8772 25.062 69.8172 25.266 69.8292C25.47 69.8412 25.662 69.9552 25.842 70.1712L29.55 74.5812L33.168 70.1712C33.336 69.9552 33.522 69.8412 33.726 69.8292C33.93 69.8172 34.11 69.8712 34.266 69.9912C34.41 70.1112 34.494 70.2732 34.518 70.4772C34.554 70.6692 34.482 70.8732 34.302 71.0892ZM34.698 68.2325C34.71 68.4605 34.65 68.6345 34.518 68.7545C34.398 68.8745 34.254 68.9405 34.086 68.9525C33.918 68.9645 33.768 68.9165 33.636 68.8085C33.504 68.7005 33.432 68.5265 33.42 68.2865L33.402 67.7645C31.89 67.7525 30.516 67.7525 29.28 67.7645C28.044 67.7645 26.874 67.7585 25.77 67.7465C25.758 67.8185 25.752 67.9025 25.752 67.9985C25.752 68.0945 25.746 68.1905 25.734 68.2865C25.71 68.5265 25.632 68.7005 25.5 68.8085C25.356 68.9165 25.2 68.9645 25.032 68.9525C24.852 68.9405 24.702 68.8685 24.582 68.7365C24.45 68.6045 24.39 68.4185 24.402 68.1785C24.414 67.7945 24.426 67.3865 24.438 66.9545C24.45 66.5105 24.45 66.1385 24.438 65.8385C24.438 65.6105 24.498 65.4425 24.618 65.3345C24.738 65.2145 24.882 65.1545 25.05 65.1545C25.218 65.1425 25.374 65.1905 25.518 65.2985C25.662 65.4065 25.746 65.5745 25.77 65.8025C25.782 65.8865 25.788 65.9945 25.788 66.1265C25.788 66.2465 25.788 66.3425 25.788 66.4145C26.892 66.4145 28.056 66.4145 29.28 66.4145C30.492 66.4145 31.848 66.4145 33.348 66.4145L33.33 66.0365C33.33 65.7965 33.396 65.6165 33.528 65.4965C33.648 65.3765 33.792 65.3165 33.96 65.3165C34.128 65.3045 34.278 65.3585 34.41 65.4785C34.542 65.5865 34.614 65.7605 34.626 66.0005L34.698 68.2325ZM34.32 57.9993C33.96 58.3713 33.51 58.7553 32.97 59.1513C32.43 59.5353 31.848 59.9253 31.224 60.3213C30.588 60.7053 29.952 61.0893 29.316 61.4733C28.668 61.8573 28.056 62.2233 27.48 62.5713C28.068 62.5833 28.752 62.5953 29.532 62.6073C30.312 62.6073 31.092 62.6133 31.872 62.6253C32.64 62.6373 33.312 62.6433 33.888 62.6433C34.128 62.6433 34.308 62.7213 34.428 62.8773C34.548 63.0213 34.608 63.1893 34.608 63.3813C34.608 63.5613 34.548 63.7233 34.428 63.8673C34.296 64.0113 34.104 64.0833 33.852 64.0833C33.108 64.0713 32.268 64.0593 31.332 64.0473C30.396 64.0353 29.424 64.0233 28.416 64.0113C27.408 63.9993 26.424 63.9873 25.464 63.9753C25.164 63.9753 24.948 63.8673 24.816 63.6513C24.672 63.4233 24.63 63.1773 24.69 62.9133C24.75 62.6373 24.918 62.4213 25.194 62.2653C26.178 61.6893 27.144 61.1313 28.092 60.5913C29.04 60.0513 29.91 59.5413 30.702 59.0613C31.494 58.5693 32.148 58.1133 32.664 57.6933C32.22 57.6693 31.698 57.6513 31.098 57.6393C30.486 57.6153 29.844 57.5973 29.172 57.5853C28.488 57.5733 27.81 57.5673 27.138 57.5673C26.466 57.5673 25.836 57.5733 25.248 57.5853C25.008 57.5853 24.822 57.5193 24.69 57.3873C24.558 57.2433 24.492 57.0813 24.492 56.9013C24.492 56.7093 24.552 56.5413 24.672 56.3973C24.792 56.2533 24.978 56.1753 25.23 56.1633C25.722 56.1633 26.292 56.1693 26.94 56.1813C27.588 56.1813 28.26 56.1873 28.956 56.1993C29.652 56.2113 30.324 56.2293 30.972 56.2533C31.608 56.2653 32.178 56.2893 32.682 56.3253C33.174 56.3493 33.54 56.3793 33.78 56.4153C34.032 56.4513 34.236 56.5593 34.392 56.7393C34.548 56.9073 34.626 57.1113 34.626 57.3513C34.626 57.5793 34.524 57.7953 34.32 57.9993ZM34.752 50.9065C34.752 51.5665 34.608 52.1605 34.32 52.6885C34.02 53.2165 33.618 53.6605 33.114 54.0205C32.61 54.3805 32.034 54.6565 31.386 54.8485C30.726 55.0285 30.036 55.1185 29.316 55.1185C28.488 55.1065 27.732 54.9625 27.048 54.6865C26.352 54.4105 25.77 54.0085 25.302 53.4805C24.822 52.9525 24.51 52.3105 24.366 51.5545C24.21 50.7745 24.24 50.0605 24.456 49.4125C24.66 48.7525 25.044 48.2125 25.608 47.7925C25.812 47.6365 26.01 47.5825 26.202 47.6305C26.394 47.6665 26.55 47.7625 26.67 47.9185C26.79 48.0625 26.844 48.2365 26.832 48.4405C26.82 48.6325 26.712 48.8065 26.508 48.9625C26.16 49.2385 25.92 49.5625 25.788 49.9345C25.644 50.2945 25.632 50.7265 25.752 51.2305C25.932 52.0225 26.358 52.6285 27.03 53.0485C27.702 53.4685 28.482 53.6905 29.37 53.7145C30.054 53.7265 30.708 53.6245 31.332 53.4085C31.956 53.1805 32.466 52.8505 32.862 52.4185C33.258 51.9745 33.456 51.4405 33.456 50.8165C33.456 50.3845 33.396 49.9885 33.276 49.6285C33.144 49.2685 32.982 48.9805 32.79 48.7645C32.586 48.5485 32.382 48.4405 32.178 48.4405C31.986 48.4285 31.758 48.4225 31.494 48.4225C31.218 48.4105 30.954 48.4045 30.702 48.4045C30.438 48.3925 30.234 48.3865 30.09 48.3865V49.4845C30.09 49.7365 30.024 49.9285 29.892 50.0605C29.76 50.1925 29.604 50.2585 29.424 50.2585C29.244 50.2585 29.088 50.1985 28.956 50.0785C28.824 49.9585 28.758 49.7845 28.758 49.5565L28.74 47.1445C28.74 46.8925 28.812 46.7065 28.956 46.5865C29.088 46.4545 29.244 46.3885 29.424 46.3885C29.592 46.3765 29.748 46.4245 29.892 46.5325C30.024 46.6405 30.09 46.7965 30.09 47.0005V47.1085C30.294 47.1085 30.552 47.1145 30.864 47.1265C31.176 47.1265 31.488 47.1325 31.8 47.1445C32.1 47.1565 32.352 47.1805 32.556 47.2165C33.216 47.3365 33.744 47.7205 34.14 48.3685C34.536 49.0045 34.74 49.8505 34.752 50.9065ZM33.996 38.5019L25.824 38.4659V40.9139C25.824 41.1659 25.752 41.3639 25.608 41.5079C25.464 41.6399 25.302 41.7119 25.122 41.7239C24.942 41.7359 24.78 41.6819 24.636 41.5619C24.492 41.4299 24.42 41.2259 24.42 40.9499L24.384 34.8299C24.384 34.5779 24.456 34.3859 24.6 34.2539C24.744 34.1219 24.912 34.0619 25.104 34.0739C25.284 34.0739 25.446 34.1399 25.59 34.2719C25.734 34.4039 25.806 34.6019 25.806 34.8659L25.824 36.9719L34.014 37.0259C34.254 37.0259 34.434 37.1039 34.554 37.2599C34.674 37.4039 34.734 37.5719 34.734 37.7639C34.734 37.9559 34.674 38.1299 34.554 38.2859C34.434 38.4299 34.248 38.5019 33.996 38.5019ZM34.842 30.6984C34.854 31.8864 34.44 32.8344 33.6 33.5424C32.748 34.2384 31.506 34.5984 29.874 34.6224C28.806 34.6344 27.864 34.4724 27.048 34.1364C26.22 33.8004 25.566 33.3324 25.086 32.7324C24.606 32.1324 24.354 31.4364 24.33 30.6444C24.294 29.7684 24.474 29.0244 24.87 28.4124C25.266 27.7884 25.842 27.3144 26.598 26.9904C27.342 26.6544 28.23 26.4864 29.262 26.4864C31.146 26.4864 32.544 26.8584 33.456 27.6024C34.356 28.3464 34.818 29.3784 34.842 30.6984ZM33.51 30.6984C33.498 29.8104 33.15 29.1264 32.466 28.6464C31.77 28.1544 30.714 27.9024 29.298 27.8904C28.134 27.8784 27.246 28.1064 26.634 28.5744C26.022 29.0424 25.728 29.6904 25.752 30.5184C25.764 31.2984 26.142 31.9524 26.886 32.4804C27.618 32.9964 28.614 33.2544 29.874 33.2544C31.038 33.2544 31.938 33.0204 32.574 32.5524C33.21 32.0844 33.522 31.4664 33.51 30.6984ZM34.734 21.8604C34.71 22.8924 34.428 23.7204 33.888 24.3444C33.348 24.9564 32.694 25.3284 31.926 25.4604C31.458 25.5444 30.924 25.5984 30.324 25.6224C29.712 25.6344 29.088 25.6344 28.452 25.6224C27.804 25.5984 27.192 25.5624 26.616 25.5144C26.04 25.4664 25.548 25.4184 25.14 25.3704C24.888 25.3344 24.708 25.2384 24.6 25.0824C24.48 24.9264 24.426 24.7584 24.438 24.5784C24.45 24.3864 24.528 24.2304 24.672 24.1104C24.816 23.9784 25.014 23.9304 25.266 23.9664C25.662 24.0144 26.148 24.0624 26.724 24.1104C27.288 24.1584 27.876 24.1884 28.488 24.2004C29.1 24.2124 29.688 24.2124 30.252 24.2004C30.804 24.1764 31.266 24.1284 31.638 24.0564C32.082 23.9604 32.478 23.7324 32.826 23.3724C33.174 23.0124 33.36 22.5204 33.384 21.8964C33.396 21.4764 33.318 21.0924 33.15 20.7444C32.97 20.3844 32.766 20.0904 32.538 19.8624C32.298 19.6224 32.088 19.4904 31.908 19.4664C31.536 19.4064 31.086 19.3584 30.558 19.3224C30.018 19.2864 29.442 19.2624 28.83 19.2504C28.206 19.2384 27.588 19.2324 26.976 19.2324C26.352 19.2324 25.776 19.2444 25.248 19.2684C24.996 19.2804 24.81 19.2204 24.69 19.0884C24.57 18.9444 24.516 18.7824 24.528 18.6024C24.528 18.4224 24.594 18.2604 24.726 18.1164C24.846 17.9724 25.032 17.8944 25.284 17.8824C25.788 17.8584 26.364 17.8464 27.012 17.8464C27.648 17.8464 28.302 17.8584 28.974 17.8824C29.646 17.8944 30.27 17.9184 30.846 17.9544C31.422 17.9784 31.896 18.0144 32.268 18.0624C32.496 18.0864 32.7 18.0264 32.88 17.8824C33.06 17.7264 33.156 17.5164 33.168 17.2524C33.18 17.0364 33.252 16.8744 33.384 16.7664C33.516 16.6584 33.672 16.6104 33.852 16.6224C34.02 16.6344 34.176 16.7004 34.32 16.8204C34.452 16.9404 34.518 17.1144 34.518 17.3424C34.53 17.7144 34.452 18.0564 34.284 18.3684C34.116 18.6804 33.924 18.9024 33.708 19.0344C33.996 19.3224 34.242 19.7364 34.446 20.2764C34.65 20.8044 34.746 21.3324 34.734 21.8604ZM34.248 10.4924C34.056 10.6364 33.762 10.8884 33.366 11.2484C32.97 11.6084 32.538 12.0224 32.07 12.4904C31.59 12.9464 31.146 13.4084 30.738 13.8764C31.254 13.8644 31.824 13.8584 32.448 13.8584C33.06 13.8464 33.588 13.8464 34.032 13.8584C34.272 13.8584 34.452 13.9304 34.572 14.0744C34.704 14.2184 34.77 14.3804 34.77 14.5604C34.77 14.7404 34.704 14.9024 34.572 15.0464C34.452 15.1904 34.266 15.2624 34.014 15.2624C33.822 15.2624 33.516 15.2684 33.096 15.2804C32.664 15.2804 32.166 15.2864 31.602 15.2984C31.038 15.3104 30.45 15.3224 29.838 15.3344C29.226 15.3464 28.638 15.3584 28.074 15.3704C27.498 15.3704 26.994 15.3704 26.562 15.3704C26.13 15.3704 25.818 15.3704 25.626 15.3704L25.644 15.5684C25.644 15.8084 25.584 15.9884 25.464 16.1084C25.344 16.2284 25.2 16.2884 25.032 16.2884C24.864 16.2884 24.714 16.2284 24.582 16.1084C24.438 15.9884 24.354 15.8144 24.33 15.5864C24.102 13.2584 24.234 11.5964 24.726 10.6004C25.206 9.60439 26.01 9.12439 27.138 9.16039C27.606 9.17239 28.014 9.29839 28.362 9.53839C28.71 9.76639 28.998 10.0544 29.226 10.4024C29.454 10.7504 29.634 11.1224 29.766 11.5184C29.898 11.9144 29.994 12.2804 30.054 12.6164C30.474 12.1484 30.9 11.7044 31.332 11.2844C31.752 10.8524 32.142 10.4744 32.502 10.1504C32.85 9.81439 33.132 9.55639 33.348 9.37639C33.54 9.20839 33.738 9.13639 33.942 9.16039C34.134 9.18439 34.296 9.27439 34.428 9.43039C34.548 9.57439 34.602 9.74839 34.59 9.95239C34.578 10.1444 34.464 10.3244 34.248 10.4924ZM28.902 13.9304C28.89 13.2704 28.8 12.6884 28.632 12.1844C28.464 11.6804 28.242 11.2844 27.966 10.9964C27.69 10.7084 27.396 10.5584 27.084 10.5464C26.628 10.5224 26.286 10.6784 26.058 11.0144C25.818 11.3504 25.662 11.7884 25.59 12.3284C25.518 12.8564 25.506 13.4084 25.554 13.9844C25.77 13.9724 26.082 13.9664 26.49 13.9664C26.898 13.9544 27.324 13.9484 27.768 13.9484C28.2 13.9364 28.578 13.9304 28.902 13.9304Z" fill="white"/>
<path d="M10.72 65.9817C10.499 65.6567 10.642 65.2667 11.097 65.2797L17.415 65.4357L17.402 64.9287C17.389 64.4997 18 64.4737 18 64.9027L18.013 66.6187C18.013 67.0737 17.428 67.0477 17.415 66.6447L17.402 66.0987L11.513 65.9427L11.903 66.4887C12.215 66.9307 11.643 67.3467 11.383 66.9567L10.72 65.9817ZM10.681 61.3288C10.772 59.4308 12.423 58.5728 14.646 58.7418C16.895 58.9238 18.156 59.9378 18.156 61.6928C18.143 63.4738 16.609 64.4488 14.321 64.3578C12.202 64.2668 10.59 62.9798 10.681 61.3288ZM11.292 61.3938C11.253 62.6158 12.67 63.6428 14.334 63.7078C15.595 63.7468 16.492 63.3958 16.804 63.0968C14.152 61.8488 12.319 60.8348 11.591 60.4188C11.461 60.5748 11.305 60.9388 11.292 61.3938ZM12.033 59.9378C12.891 60.4188 14.685 61.3678 17.285 62.5898C17.415 62.4338 17.545 62.0698 17.545 61.6278C17.519 60.2758 16.388 59.5218 14.594 59.3788C13.255 59.2618 12.371 59.6518 12.033 59.9378ZM17.753 57.5184C18.351 57.7394 17.987 58.6104 17.467 58.3634C16.908 58.0904 17.22 57.3364 17.753 57.5184ZM10.59 54.9528C10.525 53.5618 11.37 52.4958 12.813 52.5348C13.892 52.5608 14.646 53.2498 14.867 53.9388C15.14 53.2368 15.985 52.0278 18.104 52.1058C19.664 52.1578 21.133 53.0808 21.146 54.9658C21.159 56.7208 20.145 57.3578 20.002 57.4618C19.586 57.7998 19.183 57.2018 19.573 56.9158C19.742 56.7858 20.535 56.2918 20.522 54.9528C20.509 53.4708 19.248 52.7948 18.065 52.7558C16.271 52.7038 15.322 53.7568 15.231 55.0828C15.192 55.5898 14.451 55.5248 14.464 55.0438C14.49 53.8998 13.749 53.2238 12.787 53.1978C11.851 53.1848 11.201 53.8348 11.227 54.9138C11.266 56.0708 12.02 56.3698 12.202 56.4348C12.605 56.6038 12.462 57.2408 12.02 57.1108C11.812 57.0458 10.655 56.6558 10.59 54.9528ZM10.72 50.2141C10.499 49.8891 10.642 49.4991 11.097 49.5121L17.415 49.6681L17.402 49.1611C17.389 48.7321 18 48.7061 18 49.1351L18.013 50.8511C18.013 51.3061 17.428 51.2801 17.415 50.8771L17.402 50.3311L11.513 50.1751L11.903 50.7211C12.215 51.1631 11.643 51.5791 11.383 51.1891L10.72 50.2141ZM17.753 47.1082C18.351 47.3292 17.987 48.2002 17.467 47.9532C16.908 47.6802 17.22 46.9262 17.753 47.1082ZM10.642 43.5536C10.668 42.3056 11.37 41.4606 12.319 41.3826C14.23 41.1876 16.167 43.8916 17.389 45.2436C17.454 44.0346 17.428 42.1626 17.35 41.0056C17.324 40.5506 17.974 40.5246 18 40.9796C18.065 42.1756 18.078 44.1906 18 45.5946C17.961 46.1796 17.402 46.2576 17.09 45.9066C16.011 44.6976 13.944 41.8376 12.371 42.0456C11.721 42.1236 11.305 42.7216 11.292 43.5796C11.266 44.8796 12.007 45.1656 12.371 45.2956C12.787 45.4386 12.631 46.1406 12.15 45.9716C11.786 45.8416 10.603 45.3996 10.642 43.5536ZM10.681 37.4997C10.772 35.6017 12.423 34.7437 14.646 34.9127C16.895 35.0947 18.156 36.1087 18.156 37.8637C18.143 39.6447 16.609 40.6197 14.321 40.5287C12.202 40.4377 10.59 39.1507 10.681 37.4997ZM11.292 37.5647C11.253 38.7867 12.67 39.8137 14.334 39.8787C15.595 39.9177 16.492 39.5667 16.804 39.2677C14.152 38.0197 12.319 37.0057 11.591 36.5897C11.461 36.7457 11.305 37.1097 11.292 37.5647ZM12.033 36.1087C12.891 36.5897 14.685 37.5387 17.285 38.7607C17.415 38.6047 17.545 38.2407 17.545 37.7987C17.519 36.4467 16.388 35.6927 14.594 35.5497C13.255 35.4327 12.371 35.8227 12.033 36.1087Z" fill="#B4CFE0"/>
<path fill-rule="evenodd" clip-rule="evenodd" d="M115.251 65.7175C115.251 63.2759 116.737 62.5771 116.737 58C117.845 58.8581 121.635 69 115.939 69C111.592 69 113.28 64.0698 113.532 62.4511C113.555 63.3118 113.987 64.7869 115.251 65.7175Z" fill="#CDDFEA"/>
<path fill-rule="evenodd" clip-rule="evenodd" d="M116.036 45C117.912 50.9012 122.362 51.487 121.022 59.8036C121.998 58.0147 123.03 58.4766 123.496 55.9817C125.284 63.9148 122.16 70 116.524 70C109.144 70 108.212 61.9008 109.467 56.4835C110.36 59.1703 111.355 58.3325 112.335 61.0623C112.115 53.7123 116.697 51.7204 116.036 45Z" stroke="#CDDFEA" stroke-width="1.86375" stroke-linecap="round" stroke-linejoin="round"/>
<path fill-rule="evenodd" clip-rule="evenodd" d="M104 72.0006L106 71.9994L104 72.0006Z" stroke="#77A6C5" stroke-width="1.86375" stroke-linecap="round" stroke-linejoin="round"/>
<path fill-rule="evenodd" clip-rule="evenodd" d="M128 72H126H128Z" stroke="#77A6C5" stroke-width="1.86375" stroke-linecap="round" stroke-linejoin="round"/>
<path d="M216.94 73.7078L224.56 70.7878L224.48 70.2078C224.453 69.9811 224.513 69.7878 224.66 69.6278C224.807 69.4678 224.987 69.3678 225.2 69.3278C225.413 69.2745 225.613 69.3011 225.8 69.4078C225.987 69.5145 226.107 69.7145 226.16 70.0078L226.18 70.2478L231.12 68.3878C231.387 68.3078 231.62 68.3211 231.82 68.4278C232.007 68.5211 232.133 68.6678 232.2 68.8678C232.28 69.0545 232.28 69.2545 232.2 69.4678C232.133 69.6678 231.973 69.8345 231.72 69.9678L226.28 71.9278C226.307 72.2745 226.327 72.6278 226.34 72.9878C226.353 73.3345 226.36 73.6678 226.36 73.9878C226.36 74.3878 226.353 74.7611 226.34 75.1078C226.327 75.4545 226.313 75.7811 226.3 76.0878C226.98 76.3145 227.653 76.5678 228.32 76.8478C228.973 77.1278 229.573 77.4478 230.12 77.8078C230.667 78.1678 231.107 78.6011 231.44 79.1078C231.773 79.6011 231.947 80.1811 231.96 80.8478C231.96 81.3811 231.84 81.8545 231.6 82.2678C231.347 82.6811 231.013 82.9745 230.6 83.1478C230.173 83.3211 229.713 83.3678 229.22 83.2878C228.727 83.2078 228.327 82.9878 228.02 82.6278C227.847 82.4278 227.773 82.2278 227.8 82.0278C227.813 81.8145 227.893 81.6345 228.04 81.4878C228.173 81.3411 228.347 81.2611 228.56 81.2478C228.76 81.2345 228.953 81.3211 229.14 81.5078C229.313 81.6678 229.507 81.7411 229.72 81.7278C229.92 81.7145 230.093 81.6345 230.24 81.4878C230.373 81.3278 230.433 81.1145 230.42 80.8478C230.42 80.3678 230.22 79.9411 229.82 79.5678C229.407 79.1811 228.88 78.8478 228.24 78.5678C227.6 78.2745 226.92 78.0145 226.2 77.7878C226.173 78.0145 226.153 78.2011 226.14 78.3478C226.127 78.4945 226.12 78.5811 226.12 78.6078C226.08 78.9011 225.973 79.1145 225.8 79.2478C225.613 79.3811 225.42 79.4411 225.22 79.4278C225.007 79.4011 224.827 79.3011 224.68 79.1278C224.533 78.9545 224.467 78.7145 224.48 78.4078C224.493 78.1945 224.527 77.8278 224.58 77.3078C223.233 76.8811 221.92 76.5011 220.64 76.1678C219.36 75.8345 218.187 75.5678 217.12 75.3678C216.76 75.3011 216.527 75.1478 216.42 74.9078C216.313 74.6678 216.313 74.4278 216.42 74.1878C216.513 73.9478 216.687 73.7878 216.94 73.7078ZM219.54 45.8078C219.247 46.1411 218.947 46.4545 218.64 46.7478C218.333 47.0411 218.087 47.2478 217.9 47.3678C217.647 47.5411 217.42 47.6078 217.22 47.5678C217.02 47.5278 216.867 47.4278 216.76 47.2678C216.653 47.1078 216.62 46.9278 216.66 46.7278C216.687 46.5278 216.8 46.3478 217 46.1878C217.187 46.0411 217.413 45.8478 217.68 45.6078C217.947 45.3545 218.187 45.1011 218.4 44.8478C218.6 44.6211 218.807 44.5011 219.02 44.4878C219.22 44.4745 219.393 44.5345 219.54 44.6678C219.687 44.8011 219.773 44.9745 219.8 45.1878C219.813 45.3878 219.727 45.5945 219.54 45.8078ZM219.66 74.3278C220.38 74.4878 221.187 74.6811 222.08 74.9078C222.96 75.1345 223.827 75.3678 224.68 75.6078C224.707 75.1411 224.72 74.6478 224.72 74.1278C224.72 73.5945 224.713 73.0545 224.7 72.5078L219.66 74.3278ZM221.62 33.4678C221.447 33.0011 221.407 32.5611 221.5 32.1478C221.58 31.7345 221.8 31.4011 222.16 31.1478C222.52 30.8945 223.033 30.7811 223.7 30.8078C223.9 30.8211 224.093 30.8411 224.28 30.8678C224.467 30.8945 224.687 30.9345 224.94 30.9878C225.073 30.6678 225.2 30.3145 225.32 29.9278C224.96 29.8611 224.573 29.7345 224.16 29.5478C223.747 29.3611 223.353 29.1078 222.98 28.7878C222.607 28.4545 222.3 28.0411 222.06 27.5478C221.807 27.0411 221.667 26.4478 221.64 25.7678C221.6 24.8745 221.693 24.1545 221.92 23.6078C222.147 23.0478 222.447 22.6278 222.82 22.3478C223.18 22.0678 223.573 21.8878 224 21.8078C224.413 21.7145 224.8 21.6811 225.16 21.7078C225.52 21.7211 225.793 21.7545 225.98 21.8078C226.433 21.9545 226.78 22.3345 227.02 22.9478C227.26 23.5611 227.4 24.3478 227.44 25.3078C227.467 26.2545 227.4 27.3078 227.24 28.4678C228.267 28.4011 229.107 28.0411 229.76 27.3878C230.4 26.7345 230.733 25.8811 230.76 24.8278C230.773 24.0278 230.673 23.3611 230.46 22.8278C230.233 22.2945 229.947 21.8678 229.6 21.5478C229.24 21.2278 228.867 20.9811 228.48 20.8078C228.093 20.6211 227.733 20.4945 227.4 20.4278C227.053 20.3478 226.793 20.2878 226.62 20.2478C226.367 20.1945 226.187 20.0745 226.08 19.8878C225.973 19.7011 225.94 19.5078 225.98 19.3078C226.02 19.0945 226.127 18.9278 226.3 18.8078C226.46 18.6745 226.693 18.6345 227 18.6878C227.2 18.7278 227.513 18.8011 227.94 18.9078C228.353 19.0011 228.813 19.1678 229.32 19.4078C229.827 19.6345 230.313 19.9678 230.78 20.4078C231.233 20.8478 231.607 21.4278 231.9 22.1478C232.18 22.8678 232.307 23.7611 232.28 24.8278C232.253 25.8411 232.02 26.7411 231.58 27.5278C231.127 28.3011 230.52 28.9145 229.76 29.3678C229 29.8211 228.14 30.0678 227.18 30.1078C227.1 30.1211 227.013 30.1278 226.92 30.1278C226.8 30.5945 226.667 31.0145 226.52 31.3878C227.213 31.6011 227.893 31.8545 228.56 32.1478C229.227 32.4411 229.827 32.7678 230.36 33.1278C230.893 33.4745 231.32 33.8411 231.64 34.2278C231.96 34.6011 232.12 34.9811 232.12 35.3678C232.133 35.9145 231.967 36.3878 231.62 36.7878C231.273 37.1878 230.807 37.5278 230.22 37.8078C229.62 38.0745 228.967 38.3011 228.26 38.4878C227.54 38.6611 226.82 38.8078 226.1 38.9278C225.38 39.0345 224.72 39.1278 224.12 39.2078C224.147 39.3145 224.173 39.4345 224.2 39.5678C224.213 39.6878 224.22 39.8278 224.22 39.9878C224.207 40.2945 224.12 40.5145 223.96 40.6478C223.8 40.7811 223.62 40.8478 223.42 40.8478C223.207 40.8345 223.02 40.7611 222.86 40.6278C222.7 40.4811 222.627 40.2811 222.64 40.0278C222.64 39.7611 222.6 39.5811 222.52 39.4878C222.44 39.3811 222.387 39.3211 222.36 39.3078C222.107 39.1611 221.947 38.9611 221.88 38.7078C221.813 38.4545 221.847 38.2211 221.98 38.0078C222.1 37.7945 222.313 37.6811 222.62 37.6678C223.527 37.6011 224.44 37.5011 225.36 37.3678C226.28 37.2345 227.127 37.0745 227.9 36.8878C228.673 36.7011 229.3 36.4878 229.78 36.2478C230.247 35.9945 230.487 35.7145 230.5 35.4078C230.473 35.2611 230.24 35.0278 229.8 34.7078C229.347 34.3878 228.767 34.0545 228.06 33.7078C227.353 33.3611 226.593 33.0811 225.78 32.8678C225.38 33.4278 224.993 33.8411 224.62 34.1078C224.233 34.3745 223.853 34.5345 223.48 34.5878C223.16 34.6278 222.813 34.5745 222.44 34.4278C222.067 34.2811 221.793 33.9611 221.62 33.4678ZM221.68 58.7278C221.693 58.4345 221.78 58.2145 221.94 58.0678C222.1 57.9078 222.287 57.8278 222.5 57.8278C222.7 57.8145 222.887 57.8811 223.06 58.0278C223.22 58.1745 223.307 58.3945 223.32 58.6878C223.32 58.8345 223.347 59.0211 223.4 59.2478C223.44 59.4745 223.567 59.6945 223.78 59.9078C224.007 59.8411 224.32 59.7745 224.72 59.7078C225.107 59.6278 225.553 59.5678 226.06 59.5278C226.593 59.4745 227.233 59.4278 227.98 59.3878C228.713 59.3478 229.507 59.3345 230.36 59.3478C231.213 59.3478 232.073 59.3945 232.94 59.4878C233.807 59.5678 234.64 59.7145 235.44 59.9278C236.24 60.1278 236.953 60.4078 237.58 60.7678C238.207 61.1145 238.707 61.5611 239.08 62.1078C239.453 62.6545 239.647 63.3078 239.66 64.0678C239.673 64.7878 239.567 65.3745 239.34 65.8278C239.113 66.2678 238.84 66.6078 238.52 66.8478C238.213 67.0878 237.927 67.2545 237.66 67.3478C237.407 67.4411 237.26 67.4945 237.22 67.5078C236.953 67.5745 236.733 67.5478 236.56 67.4278C236.4 67.3078 236.293 67.1478 236.24 66.9478C236.2 66.7478 236.22 66.5545 236.3 66.3678C236.38 66.1678 236.533 66.0345 236.76 65.9678C236.813 65.9545 236.913 65.9211 237.06 65.8678C237.22 65.8145 237.387 65.7211 237.56 65.5878C237.747 65.4545 237.9 65.2678 238.02 65.0278C238.14 64.7745 238.193 64.4478 238.18 64.0478C238.167 63.5145 237.967 63.0545 237.58 62.6678C237.193 62.2811 236.66 61.9611 235.98 61.7078C235.313 61.4411 234.547 61.2411 233.68 61.1078C232.827 60.9745 231.92 60.9011 230.96 60.8878C231.293 61.0878 231.607 61.4211 231.9 61.8878C232.193 62.3411 232.353 62.8945 232.38 63.5478C232.407 64.3078 232.307 64.9411 232.08 65.4478C231.867 65.9545 231.58 66.3611 231.22 66.6678C230.847 66.9611 230.447 67.1811 230.02 67.3278C229.58 67.4745 229.16 67.5745 228.76 67.6278C228.347 67.6811 228 67.7078 227.72 67.7078C226.653 67.7078 225.753 67.5611 225.02 67.2678C224.273 66.9745 223.667 66.5878 223.2 66.1078C222.733 65.6278 222.393 65.1011 222.18 64.5278C221.967 63.9545 221.853 63.3945 221.84 62.8478C221.827 62.1011 222.04 61.4678 222.48 60.9478C222.227 60.6545 222.047 60.3545 221.94 60.0478C221.82 59.7411 221.747 59.4678 221.72 59.2278C221.693 58.9878 221.68 58.8211 221.68 58.7278ZM221.98 53.8678C221.82 53.3611 221.813 52.7745 221.96 52.1078C222.093 51.4411 222.473 50.8011 223.1 50.1878C223.287 50.0011 223.487 49.9211 223.7 49.9478C223.9 49.9611 224.08 50.0411 224.24 50.1878C224.387 50.3345 224.473 50.5211 224.5 50.7478C224.513 50.9611 224.413 51.1745 224.2 51.3878C223.867 51.7478 223.667 52.0811 223.6 52.3878C223.52 52.6811 223.5 52.9145 223.54 53.0878C223.58 53.3278 223.7 53.5611 223.9 53.7878C224.087 54.0011 224.207 54.1078 224.26 54.1078C225.38 54.1078 226.573 54.1145 227.84 54.1278C229.093 54.1278 230.313 54.1278 231.5 54.1278C231.767 54.1278 231.967 54.2145 232.1 54.3878C232.233 54.5478 232.3 54.7411 232.3 54.9678C232.313 55.1945 232.253 55.3945 232.12 55.5678C231.987 55.7411 231.78 55.8278 231.5 55.8278C230.313 55.8278 229.107 55.8278 227.88 55.8278C226.64 55.8145 225.447 55.8211 224.3 55.8478C224.047 55.8478 223.873 55.9345 223.78 56.1078C223.687 56.2811 223.627 56.4011 223.6 56.4678C223.493 56.7611 223.34 56.9411 223.14 57.0078C222.927 57.0745 222.727 57.0611 222.54 56.9678C222.34 56.8745 222.193 56.7278 222.1 56.5278C221.993 56.3278 221.98 56.1078 222.06 55.8678C222.073 55.8011 222.127 55.6811 222.22 55.5078C222.313 55.3345 222.447 55.1478 222.62 54.9478C222.473 54.7345 222.34 54.5211 222.22 54.3078C222.087 54.0945 222.007 53.9478 221.98 53.8678ZM221.94 45.0678C221.94 44.7345 221.987 44.4278 222.08 44.1478C222.16 43.8678 222.347 43.5411 222.64 43.1678C222.44 43.1545 222.3 43.0611 222.22 42.8878C222.127 42.7011 222.093 42.5011 222.12 42.2878C222.147 42.0611 222.233 41.8678 222.38 41.7078C222.513 41.5478 222.713 41.4745 222.98 41.4878C223.34 41.5145 223.807 41.5478 224.38 41.5878C224.953 41.6145 225.547 41.6478 226.16 41.6878C226.773 41.7145 227.333 41.7411 227.84 41.7678C228.333 41.7945 228.687 41.8078 228.9 41.8078C229.327 41.8211 229.687 41.8278 229.98 41.8278C230.26 41.8278 230.433 41.7211 230.5 41.5078C230.58 41.2678 230.713 41.1078 230.9 41.0278C231.073 40.9345 231.253 40.9145 231.44 40.9678C231.627 41.0211 231.78 41.1278 231.9 41.2878C232.02 41.4478 232.067 41.6411 232.04 41.8678C231.973 42.2278 231.853 42.5145 231.68 42.7278C231.507 42.9278 231.3 43.0811 231.06 43.1878C231.393 43.5611 231.667 44.0011 231.88 44.5078C232.08 45.0011 232.18 45.5545 232.18 46.1678C232.18 47.4345 231.793 48.4345 231.02 49.1678C230.553 49.5945 229.987 49.9011 229.32 50.0878C228.653 50.2745 227.993 50.3278 227.34 50.2478C226.327 50.1411 225.413 49.8545 224.6 49.3878C223.787 48.9078 223.14 48.3011 222.66 47.5678C222.167 46.8211 221.927 45.9878 221.94 45.0678ZM222.84 32.6278C222.84 32.7878 222.9 32.8945 223.02 32.9478C223.127 33.0011 223.22 33.0211 223.3 33.0078C223.42 32.9945 223.56 32.9478 223.72 32.8678C223.88 32.7745 224.047 32.6411 224.22 32.4678C224.113 32.4411 223.993 32.4145 223.86 32.3878C223.713 32.3611 223.6 32.3411 223.52 32.3278C223.293 32.3145 223.133 32.3278 223.04 32.3678C222.947 32.4078 222.88 32.4945 222.84 32.6278ZM223.24 25.6478C223.267 26.2878 223.42 26.7878 223.7 27.1478C223.98 27.5078 224.307 27.7745 224.68 27.9478C225.053 28.1211 225.387 28.2345 225.68 28.2878C225.853 27.2878 225.927 26.4345 225.9 25.7278C225.86 25.0211 225.787 24.4745 225.68 24.0878C225.573 23.6878 225.5 23.4611 225.46 23.4078C225.327 23.3678 225.133 23.3411 224.88 23.3278C224.613 23.3011 224.353 23.3411 224.1 23.4478C223.833 23.5545 223.613 23.7811 223.44 24.1278C223.267 24.4611 223.2 24.9678 223.24 25.6478ZM223.46 62.8078C223.46 63.3011 223.593 63.8011 223.86 64.3078C224.113 64.8011 224.553 65.2211 225.18 65.5678C225.793 65.9011 226.633 66.0745 227.7 66.0878C228.02 66.0878 228.36 66.0611 228.72 66.0078C229.08 65.9411 229.42 65.8278 229.74 65.6678C230.06 65.4945 230.32 65.2478 230.52 64.9278C230.72 64.5945 230.8 64.1611 230.76 63.6278C230.733 63.0011 230.4 62.4478 229.76 61.9678C229.107 61.4878 228.22 61.2145 227.1 61.1478C226.54 61.1211 225.98 61.1545 225.42 61.2478C224.86 61.3411 224.393 61.5145 224.02 61.7678C223.647 62.0078 223.46 62.3545 223.46 62.8078ZM223.48 45.0478C223.48 45.6078 223.613 46.1011 223.88 46.5278C224.133 46.9545 224.467 47.3211 224.88 47.6278C225.28 47.9211 225.713 48.1545 226.18 48.3278C226.647 48.5011 227.093 48.6078 227.52 48.6478C227.947 48.7011 228.38 48.6678 228.82 48.5478C229.247 48.4145 229.6 48.2211 229.88 47.9678C230.12 47.7278 230.32 47.4545 230.48 47.1478C230.627 46.8278 230.693 46.4478 230.68 46.0078C230.667 45.4878 230.467 44.9678 230.08 44.4478C229.693 43.9278 229.113 43.5878 228.34 43.4278C228.233 43.4011 228.033 43.3745 227.74 43.3478C227.447 43.3211 227.113 43.2945 226.74 43.2678C226.353 43.2411 225.98 43.2278 225.62 43.2278C225.247 43.2145 224.933 43.2145 224.68 43.2278C224.427 43.2278 224.213 43.3411 224.04 43.5678C223.853 43.7945 223.713 44.0545 223.62 44.3478C223.527 44.6278 223.48 44.8611 223.48 45.0478Z" fill="#77A6C5"/>
</svg>
