<svg width="255" height="100" viewBox="0 0 255 100" fill="none" xmlns="http://www.w3.org/2000/svg">
<path fill-rule="evenodd" clip-rule="evenodd" d="M255 15.6249V9.37493C249.824 9.37493 245.626 5.17447 245.626 0H209.373C209.373 5.17447 205.174 9.37493 199.998 9.37493C194.823 9.37493 190.624 5.17447 190.624 0H9.3741C9.3741 5.17447 5.17518 9.37493 0 9.37493V15.6249C1.72506 15.6249 3.12457 17.0248 3.12457 18.7499C3.12457 20.4746 1.72506 21.8748 0 21.8748V28.1248C1.72506 28.1248 3.12457 29.5251 3.12457 31.2501C3.12457 32.9748 1.72506 34.3751 0 34.3751V40.6247C1.72506 40.6247 3.12457 42.0253 3.12457 43.75C3.12457 45.4747 1.72506 46.875 0 46.875V53.125C1.72506 53.125 3.12457 54.5253 3.12457 56.25C3.12457 57.9747 1.72506 59.3753 0 59.3753V65.6253C1.72506 65.6253 3.12457 67.0252 3.12457 68.7502C3.12457 70.4749 1.72506 71.8748 0 71.8748V78.1252C1.72506 78.1252 3.12457 79.5254 3.12457 81.2501C3.12457 82.9748 1.72506 84.3751 0 84.3751V90.6251C5.17518 90.6251 9.3741 94.8244 9.3741 100H190.624C190.624 94.8244 194.823 90.6251 199.998 90.6251C205.174 90.6251 209.373 94.8244 209.373 100H245.626C245.626 94.8244 249.824 90.6251 255 90.6251V84.3751C253.276 84.3751 251.877 82.9748 251.877 81.2501C251.877 79.5254 253.276 78.1252 255 78.1252V71.8748C253.276 71.8748 251.877 70.4749 251.877 68.7502C251.877 67.0252 253.276 65.6253 255 65.6253V59.3753C253.276 59.3753 251.877 57.9747 251.877 56.25C251.877 54.5253 253.276 53.125 255 53.125V46.875C253.276 46.875 251.877 45.4747 251.877 43.75C251.877 42.0253 253.276 40.6247 255 40.6247V34.3751C253.276 34.3751 251.877 32.9748 251.877 31.2501C251.877 29.5251 253.276 28.1248 255 28.1248V21.8748C253.276 21.8748 251.877 20.4746 251.877 18.7499C251.877 17.0248 253.276 15.6249 255 15.6249ZM199.998 21.8748C198.275 21.8748 196.875 20.4746 196.875 18.7499C196.875 17.0248 198.275 15.6249 199.998 15.6249C201.722 15.6249 203.126 17.0248 203.126 18.7499C203.126 20.4746 201.722 21.8748 199.998 21.8748ZM196.875 31.2501C196.875 32.9748 198.275 34.3751 199.998 34.3751C201.722 34.3751 203.126 32.9748 203.126 31.2501C203.126 29.5251 201.722 28.1248 199.998 28.1248C198.275 28.1248 196.875 29.5251 196.875 31.2501ZM199.998 46.875C198.275 46.875 196.875 45.4747 196.875 43.75C196.875 42.0254 198.275 40.6247 199.998 40.6247C201.722 40.6247 203.126 42.0254 203.126 43.75C203.126 45.4747 201.722 46.875 199.998 46.875ZM196.875 56.25C196.875 57.9747 198.275 59.3753 199.998 59.3753C201.722 59.3753 203.126 57.9747 203.126 56.25C203.126 54.5253 201.722 53.125 199.998 53.125C198.275 53.125 196.875 54.5253 196.875 56.25ZM199.998 71.8748C198.275 71.8748 196.875 70.4749 196.875 68.7502C196.875 67.0252 198.275 65.6253 199.998 65.6253C201.722 65.6253 203.126 67.0252 203.126 68.7502C203.126 70.4749 201.722 71.8748 199.998 71.8748ZM196.875 81.2501C196.875 82.9748 198.275 84.3751 199.998 84.3751C201.722 84.3751 203.126 82.9748 203.126 81.2501C203.126 79.5254 201.722 78.1252 199.998 78.1252C198.275 78.1252 196.875 79.5254 196.875 81.2501Z" fill="#F0DBCC"/>
<path fill-rule="evenodd" clip-rule="evenodd" d="M133.921 57.3C135.804 58.8563 137 61.2011 137 63.8245C137 68.5056 133.193 72.3 128.5 72.3C123.803 72.3 120 68.5056 120 63.8245C120 61.2011 121.196 58.8563 123.075 57.3H133.921Z" fill="#F9F1EB"/>
<path fill-rule="evenodd" clip-rule="evenodd" d="M154.925 57.3C156.804 58.8563 158 61.2011 158 63.8245C158 68.5056 154.197 72.3 149.5 72.3C144.807 72.3 141 68.5056 141 63.8245C141 61.2011 142.196 58.8563 144.075 57.3H154.925Z" fill="#F9F1EB"/>
<path fill-rule="evenodd" clip-rule="evenodd" d="M133.921 57.3C135.804 58.8563 137 61.2011 137 63.8245C137 68.5056 133.193 72.3 128.5 72.3C123.803 72.3 120 68.5056 120 63.8245C120 61.2011 121.196 58.8563 123.075 57.3H133.921Z" stroke="#A06537" stroke-width="1.86375" stroke-linecap="round" stroke-linejoin="round"/>
<path fill-rule="evenodd" clip-rule="evenodd" d="M154.925 57.3C156.804 58.8563 158 61.2011 158 63.8245C158 68.5056 154.197 72.3 149.5 72.3C144.807 72.3 141 68.5056 141 63.8245C141 61.2011 142.196 58.8563 144.075 57.3H154.925Z" stroke="#A06537" stroke-width="1.86375" stroke-linecap="round" stroke-linejoin="round"/>
<path fill-rule="evenodd" clip-rule="evenodd" d="M153 63.8007C153 65.7319 151.432 67.3 149.5 67.3C147.568 67.3 146 65.7319 146 63.8007C146 61.8685 147.568 60.3 149.5 60.3C151.432 60.3 153 61.8685 153 63.8007Z" fill="#F0DBCC" stroke="#B8845F" stroke-width="1.86375" stroke-linecap="round" stroke-linejoin="round"/>
<path fill-rule="evenodd" clip-rule="evenodd" d="M37.993 61C35.7978 61 33.5426 59.27 32.9854 57.1582L30.2254 46.7055C29.6644 44.5927 30.188 41.3633 31.381 39.5313L47.7989 14.3317C48.9957 12.4986 51.7706 11 53.9659 11H163.738C172.13 11 179 17.8312 179 26.1811V61H163.222L160.779 57.2795H117.846L115.404 61H37.993Z" stroke="#B8845F" stroke-width="1.86375" stroke-linecap="round" stroke-linejoin="round"/>
<path fill-rule="evenodd" clip-rule="evenodd" d="M22 59V61H37L22 59Z" stroke="#B8845F" stroke-width="1.86375" stroke-linecap="round" stroke-linejoin="round"/>
<path fill-rule="evenodd" clip-rule="evenodd" d="M28 73V61V73Z" stroke="#B8845F" stroke-width="1.86375" stroke-linecap="round" stroke-linejoin="round"/>
<path fill-rule="evenodd" clip-rule="evenodd" d="M87 56.0242C87 57.1127 86.0886 58 84.9759 58H74.0278C72.9114 58 72 57.1127 72 56.0242V24.9769C72 23.8881 72.9114 23 74.0278 23H84.9759C86.0886 23 87 23.8881 87 24.9769V56.0242Z" fill="#F9F1EB"/>
<path fill-rule="evenodd" clip-rule="evenodd" d="M64 34.0641C64 35.1279 63.0886 36 61.9759 36H51.0278C49.9114 36 49 35.1279 49 34.0641V24.9366C49 23.87 49.9114 23 51.0278 23H61.9759C63.0886 23 64 23.87 64 24.9366V34.0641Z" fill="#F9F1EB"/>
<path fill-rule="evenodd" clip-rule="evenodd" d="M126 29.9368C126 31.0723 125.085 32 123.973 32H113.027C111.915 32 111 31.0723 111 29.9368V24.0609C111 22.9258 111.915 22 113.027 22H123.973C125.085 22 126 22.9258 126 24.0609V29.9368Z" fill="#F9F1EB"/>
<path fill-rule="evenodd" clip-rule="evenodd" d="M165 34.0641C165 35.1279 164.112 36 163.024 36H134.976C133.888 36 133 35.1279 133 34.0641V24.9366C133 23.87 133.888 23 134.976 23H163.024C164.112 23 165 23.87 165 24.9366V34.0641Z" fill="#F9F1EB"/>
<path fill-rule="evenodd" clip-rule="evenodd" d="M87 56.0242C87 57.1127 86.0886 58 84.9759 58H74.0278C72.9114 58 72 57.1127 72 56.0242V24.9769C72 23.8881 72.9114 23 74.0278 23H84.9759C86.0886 23 87 23.8881 87 24.9769V56.0242Z" stroke="#A06537" stroke-width="1.86375" stroke-linecap="round" stroke-linejoin="round"/>
<path fill-rule="evenodd" clip-rule="evenodd" d="M64 34.0641C64 35.1279 63.0886 36 61.9759 36H51.0278C49.9114 36 49 35.1279 49 34.0641V24.9366C49 23.87 49.9114 23 51.0278 23H61.9759C63.0886 23 64 23.87 64 24.9366V34.0641Z" stroke="#A06537" stroke-width="1.86375" stroke-linecap="round" stroke-linejoin="round"/>
<path fill-rule="evenodd" clip-rule="evenodd" d="M126 29.9368C126 31.0723 125.085 32 123.973 32H113.027C111.915 32 111 31.0723 111 29.9368V24.0609C111 22.9258 111.915 22 113.027 22H123.973C125.085 22 126 22.9258 126 24.0609V29.9368Z" stroke="#A06537" stroke-width="1.86375" stroke-linecap="round" stroke-linejoin="round"/>
<path fill-rule="evenodd" clip-rule="evenodd" d="M165 34.0641C165 35.1279 164.112 36 163.024 36H134.976C133.888 36 133 35.1279 133 34.0641V24.9366C133 23.87 133.888 23 134.976 23H163.024C164.112 23 165 23.87 165 24.9366V34.0641Z" stroke="#A06537" stroke-width="1.86375" stroke-linecap="round" stroke-linejoin="round"/>
<path fill-rule="evenodd" clip-rule="evenodd" d="M172 41H144H172Z" stroke="#B8845F" stroke-width="1.86375" stroke-linecap="round" stroke-linejoin="round"/>
<path fill-rule="evenodd" clip-rule="evenodd" d="M119 37H91H119Z" stroke="#B8845F" stroke-width="1.86375" stroke-linecap="round" stroke-linejoin="round"/>
<path fill-rule="evenodd" clip-rule="evenodd" d="M98 47H90H98Z" stroke="#B8845F" stroke-width="1.86375" stroke-linecap="round" stroke-linejoin="round"/>
<path fill-rule="evenodd" clip-rule="evenodd" d="M104 52H91H104Z" stroke="#B8845F" stroke-width="1.86375" stroke-linecap="round" stroke-linejoin="round"/>
<path fill-rule="evenodd" clip-rule="evenodd" d="M98 26H90H98Z" stroke="#B8845F" stroke-width="1.86375" stroke-linecap="round" stroke-linejoin="round"/>
<path fill-rule="evenodd" clip-rule="evenodd" d="M104 29H91H104Z" stroke="#B8845F" stroke-width="1.86375" stroke-linecap="round" stroke-linejoin="round"/>
<path fill-rule="evenodd" clip-rule="evenodd" d="M154 47H126H154Z" stroke="#B8845F" stroke-width="1.86375" stroke-linecap="round" stroke-linejoin="round"/>
<path fill-rule="evenodd" clip-rule="evenodd" d="M174 50H146H174Z" stroke="#B8845F" stroke-width="1.86375" stroke-linecap="round" stroke-linejoin="round"/>
<path fill-rule="evenodd" clip-rule="evenodd" d="M67 42H45H67Z" stroke="#B8845F" stroke-width="1.86375" stroke-linecap="round" stroke-linejoin="round"/>
<path fill-rule="evenodd" clip-rule="evenodd" d="M62 45H40H62Z" stroke="#B8845F" stroke-width="1.86375" stroke-linecap="round" stroke-linejoin="round"/>
<path fill-rule="evenodd" clip-rule="evenodd" d="M69 50H46H69Z" stroke="#B8845F" stroke-width="1.86375" stroke-linecap="round" stroke-linejoin="round"/>
<path fill-rule="evenodd" clip-rule="evenodd" d="M149 23V36V23Z" stroke="#A06537" stroke-width="1.86375" stroke-linecap="round" stroke-linejoin="round"/>
<path fill-rule="evenodd" clip-rule="evenodd" d="M89 64H70H89Z" stroke="#B8845F" stroke-width="1.86375" stroke-linecap="round" stroke-linejoin="round"/>
<path fill-rule="evenodd" clip-rule="evenodd" d="M88 67H72H88Z" stroke="#B8845F" stroke-width="1.86375" stroke-linecap="round" stroke-linejoin="round"/>
<path fill-rule="evenodd" clip-rule="evenodd" d="M132 63.8007C132 65.7319 130.432 67.3 128.5 67.3C126.568 67.3 125 65.7319 125 63.8007C125 61.8685 126.568 60.3 128.5 60.3C130.432 60.3 132 61.8685 132 63.8007Z" fill="#F0DBCC" stroke="#B8845F" stroke-width="1.86375" stroke-linecap="round" stroke-linejoin="round"/>
<path d="M56.1094 88.496L56.1454 80.324H53.6974C53.4454 80.324 53.2474 80.252 53.1034 80.108C52.9714 79.964 52.8994 79.802 52.8874 79.622C52.8754 79.442 52.9294 79.28 53.0494 79.136C53.1814 78.992 53.3854 78.92 53.6614 78.92L59.7814 78.884C60.0334 78.884 60.2254 78.956 60.3574 79.1C60.4894 79.244 60.5494 79.412 60.5374 79.604C60.5374 79.784 60.4714 79.946 60.3394 80.09C60.2074 80.234 60.0094 80.306 59.7454 80.306L57.6394 80.324L57.5854 88.514C57.5854 88.754 57.5074 88.934 57.3514 89.054C57.2074 89.174 57.0394 89.234 56.8474 89.234C56.6554 89.234 56.4814 89.174 56.3254 89.054C56.1814 88.934 56.1094 88.748 56.1094 88.496ZM67.033 88.748C66.889 88.556 66.637 88.262 66.277 87.866C65.917 87.47 65.503 87.038 65.035 86.57C64.579 86.09 64.117 85.646 63.649 85.238C63.661 85.754 63.667 86.324 63.667 86.948C63.679 87.56 63.679 88.088 63.667 88.532C63.667 88.772 63.595 88.952 63.451 89.072C63.307 89.204 63.145 89.27 62.965 89.27C62.785 89.27 62.623 89.204 62.479 89.072C62.335 88.952 62.263 88.766 62.263 88.514C62.263 88.322 62.257 88.016 62.245 87.596C62.245 87.164 62.239 86.666 62.227 86.102C62.215 85.538 62.203 84.95 62.191 84.338C62.179 83.726 62.167 83.138 62.155 82.574C62.155 81.998 62.155 81.494 62.155 81.062C62.155 80.63 62.155 80.318 62.155 80.126L61.957 80.144C61.717 80.144 61.537 80.084 61.417 79.964C61.297 79.844 61.237 79.7 61.237 79.532C61.237 79.364 61.297 79.214 61.417 79.082C61.537 78.938 61.711 78.854 61.939 78.83C64.267 78.602 65.929 78.734 66.925 79.226C67.921 79.706 68.401 80.51 68.365 81.638C68.353 82.106 68.227 82.514 67.987 82.862C67.759 83.21 67.471 83.498 67.123 83.726C66.775 83.954 66.403 84.134 66.007 84.266C65.611 84.398 65.245 84.494 64.909 84.554C65.377 84.974 65.821 85.4 66.241 85.832C66.673 86.252 67.051 86.642 67.375 87.002C67.711 87.35 67.969 87.632 68.149 87.848C68.317 88.04 68.389 88.238 68.365 88.442C68.341 88.634 68.251 88.796 68.095 88.928C67.951 89.048 67.777 89.102 67.573 89.09C67.381 89.078 67.201 88.964 67.033 88.748ZM63.595 83.402C64.255 83.39 64.837 83.3 65.341 83.132C65.845 82.964 66.241 82.742 66.529 82.466C66.817 82.19 66.967 81.896 66.979 81.584C67.003 81.128 66.847 80.786 66.511 80.558C66.175 80.318 65.737 80.162 65.197 80.09C64.669 80.018 64.117 80.006 63.541 80.054C63.553 80.27 63.559 80.582 63.559 80.99C63.571 81.398 63.577 81.824 63.577 82.268C63.589 82.7 63.595 83.078 63.595 83.402ZM70.6126 88.604C70.5406 88.832 70.4146 88.988 70.2346 89.072C70.0666 89.156 69.8926 89.174 69.7126 89.126C69.5326 89.09 69.3946 88.994 69.2986 88.838C69.2026 88.682 69.1966 88.478 69.2806 88.226C69.4486 87.698 69.6286 87.182 69.8206 86.678C70.0126 86.174 70.1686 85.73 70.2886 85.346H70.2706C70.0426 85.346 69.8746 85.28 69.7666 85.148C69.6586 85.004 69.6106 84.842 69.6226 84.662C69.6346 84.482 69.7006 84.326 69.8206 84.194C69.9406 84.05 70.1206 83.978 70.3606 83.978H70.7746C71.2306 82.67 71.6146 81.626 71.9266 80.846C72.2386 80.066 72.4366 79.598 72.5206 79.442C72.6766 79.166 72.8866 79.034 73.1506 79.046C73.4266 79.058 73.6426 79.202 73.7986 79.478C73.8706 79.598 74.0686 80.06 74.3926 80.864C74.7286 81.668 75.1366 82.706 75.6166 83.978H76.0126C76.2646 83.978 76.4506 84.05 76.5706 84.194C76.7026 84.326 76.7686 84.488 76.7686 84.68C76.7806 84.86 76.7266 85.022 76.6066 85.166C76.4986 85.298 76.3366 85.364 76.1206 85.364H76.0846C76.2166 85.748 76.3786 86.18 76.5706 86.66C76.7626 87.14 76.9486 87.644 77.1286 88.172C77.2006 88.4 77.1886 88.586 77.0926 88.73C76.9966 88.874 76.8586 88.97 76.6786 89.018C76.4986 89.066 76.3186 89.054 76.1386 88.982C75.9706 88.91 75.8506 88.766 75.7786 88.55C75.5866 88.022 75.3886 87.482 75.1846 86.93C74.9806 86.366 74.7946 85.832 74.6266 85.328H71.7286C71.5606 85.82 71.3746 86.36 71.1706 86.948C70.9666 87.524 70.7806 88.076 70.6126 88.604ZM72.2326 83.978H74.1586C74.0746 83.702 73.9666 83.384 73.8346 83.024C73.7026 82.664 73.5766 82.316 73.4566 81.98C73.3366 81.644 73.2346 81.386 73.1506 81.206C73.0906 81.398 73.0066 81.662 72.8986 81.998C72.7906 82.322 72.6766 82.664 72.5566 83.024C72.4366 83.372 72.3286 83.69 72.2326 83.978ZM78.5683 89.198C78.3403 89.21 78.1663 89.15 78.0463 89.018C77.9263 88.898 77.8603 88.754 77.8483 88.586C77.8363 88.418 77.8843 88.268 77.9923 88.136C78.1003 88.004 78.2743 87.932 78.5143 87.92L79.0363 87.902C79.0483 86.39 79.0483 85.016 79.0363 83.78C79.0363 82.544 79.0423 81.374 79.0543 80.27C78.9823 80.258 78.8983 80.252 78.8023 80.252C78.7063 80.252 78.6103 80.246 78.5143 80.234C78.2743 80.21 78.1003 80.132 77.9923 80C77.8843 79.856 77.8363 79.7 77.8483 79.532C77.8603 79.352 77.9323 79.202 78.0643 79.082C78.1963 78.95 78.3823 78.89 78.6223 78.902C79.0063 78.914 79.4143 78.926 79.8463 78.938C80.2903 78.95 80.6623 78.95 80.9623 78.938C81.1903 78.938 81.3583 78.998 81.4663 79.118C81.5863 79.238 81.6463 79.382 81.6463 79.55C81.6583 79.718 81.6103 79.874 81.5023 80.018C81.3943 80.162 81.2263 80.246 80.9983 80.27C80.9143 80.282 80.8063 80.288 80.6743 80.288C80.5543 80.288 80.4583 80.288 80.3863 80.288C80.3863 81.392 80.3863 82.556 80.3863 83.78C80.3863 84.992 80.3863 86.348 80.3863 87.848L80.7643 87.83C81.0043 87.83 81.1843 87.896 81.3043 88.028C81.4243 88.148 81.4843 88.292 81.4843 88.46C81.4963 88.628 81.4423 88.778 81.3223 88.91C81.2143 89.042 81.0403 89.114 80.8003 89.126L78.5683 89.198ZM88.6437 89.126C88.1397 89.138 87.5697 89.138 86.9337 89.126C86.2977 89.126 85.6797 89.114 85.0797 89.09C84.4797 89.066 83.9697 89.036 83.5497 89C83.1297 88.952 82.8777 88.892 82.7937 88.82C82.7097 88.748 82.6437 88.55 82.5957 88.226C82.5597 87.89 82.5417 87.374 82.5417 86.678C82.5417 85.982 82.5597 85.07 82.5957 83.942C82.6437 82.802 82.7097 81.398 82.7937 79.73C82.8057 79.466 82.8837 79.28 83.0277 79.172C83.1837 79.052 83.3517 78.998 83.5317 79.01C83.7237 79.022 83.8857 79.1 84.0177 79.244C84.1617 79.376 84.2277 79.562 84.2157 79.802C84.1557 81.446 84.1077 82.778 84.0717 83.798C84.0477 84.806 84.0297 85.586 84.0177 86.138C84.0057 86.69 84.0057 87.074 84.0177 87.29C84.0417 87.506 84.0657 87.632 84.0897 87.668C84.1017 87.692 84.2457 87.716 84.5217 87.74C84.7977 87.752 85.1577 87.77 85.6017 87.794C86.0577 87.806 86.5497 87.818 87.0777 87.83C87.6177 87.83 88.1457 87.824 88.6617 87.812C88.9137 87.8 89.0997 87.86 89.2197 87.992C89.3397 88.124 89.3997 88.28 89.3997 88.46C89.3997 88.628 89.3337 88.784 89.2017 88.928C89.0817 89.06 88.8957 89.126 88.6437 89.126ZM96.5041 89.162C95.6521 89.15 94.7941 89.144 93.9301 89.144C93.0661 89.144 92.2021 89.138 91.3381 89.126C91.0741 89.126 90.8401 89.036 90.6361 88.856C90.4441 88.676 90.3481 88.454 90.3481 88.19C90.3481 88.07 90.3421 87.794 90.3301 87.362C90.3301 86.918 90.3301 86.384 90.3301 85.76C90.3301 85.136 90.3241 84.494 90.3121 83.834C90.3001 83.162 90.2941 82.532 90.2941 81.944C90.2941 81.356 90.2881 80.876 90.2761 80.504C90.2761 80.132 90.2761 79.94 90.2761 79.928C90.2761 79.688 90.3601 79.49 90.5281 79.334C90.6961 79.166 90.9181 79.076 91.1941 79.064L96.4861 78.938C96.7141 78.938 96.8941 79.004 97.0261 79.136C97.1581 79.268 97.2301 79.43 97.2421 79.622C97.2661 79.802 97.2121 79.964 97.0801 80.108C96.9481 80.24 96.7381 80.312 96.4501 80.324L91.8061 80.432C91.7221 80.432 91.6801 80.492 91.6801 80.612C91.6801 80.78 91.6801 81.02 91.6801 81.332C91.6801 81.644 91.6801 81.98 91.6801 82.34C91.6801 82.7 91.6801 83.048 91.6801 83.384C92.0161 83.36 92.4061 83.342 92.8501 83.33C93.2941 83.318 93.7261 83.312 94.1461 83.312C94.5661 83.3 94.8901 83.294 95.1181 83.294C95.3701 83.294 95.5561 83.366 95.6761 83.51C95.7961 83.642 95.8501 83.798 95.8381 83.978C95.8381 84.158 95.7721 84.32 95.6401 84.464C95.5201 84.596 95.3341 84.662 95.0821 84.662C94.4461 84.662 93.8161 84.674 93.1921 84.698C92.5681 84.71 92.0701 84.728 91.6981 84.752L91.7521 87.578C91.7521 87.758 91.8181 87.848 91.9501 87.848C92.5741 87.848 93.2701 87.848 94.0381 87.848C94.8181 87.848 95.6641 87.86 96.5761 87.884C96.8161 87.884 96.9961 87.95 97.1161 88.082C97.2361 88.214 97.2961 88.364 97.2961 88.532C97.2961 88.7 97.2301 88.85 97.0981 88.982C96.9781 89.102 96.7801 89.162 96.5041 89.162ZM103.965 88.748C103.821 88.556 103.569 88.262 103.209 87.866C102.849 87.47 102.435 87.038 101.967 86.57C101.511 86.09 101.049 85.646 100.581 85.238C100.593 85.754 100.599 86.324 100.599 86.948C100.611 87.56 100.611 88.088 100.599 88.532C100.599 88.772 100.527 88.952 100.383 89.072C100.239 89.204 100.077 89.27 99.8966 89.27C99.7166 89.27 99.5546 89.204 99.4106 89.072C99.2666 88.952 99.1946 88.766 99.1946 88.514C99.1946 88.322 99.1886 88.016 99.1766 87.596C99.1766 87.164 99.1706 86.666 99.1586 86.102C99.1466 85.538 99.1346 84.95 99.1226 84.338C99.1106 83.726 99.0986 83.138 99.0866 82.574C99.0866 81.998 99.0866 81.494 99.0866 81.062C99.0866 80.63 99.0866 80.318 99.0866 80.126L98.8886 80.144C98.6486 80.144 98.4686 80.084 98.3486 79.964C98.2286 79.844 98.1686 79.7 98.1686 79.532C98.1686 79.364 98.2286 79.214 98.3486 79.082C98.4686 78.938 98.6426 78.854 98.8706 78.83C101.199 78.602 102.861 78.734 103.857 79.226C104.853 79.706 105.333 80.51 105.297 81.638C105.285 82.106 105.159 82.514 104.919 82.862C104.691 83.21 104.403 83.498 104.055 83.726C103.707 83.954 103.335 84.134 102.939 84.266C102.543 84.398 102.177 84.494 101.841 84.554C102.309 84.974 102.753 85.4 103.173 85.832C103.605 86.252 103.983 86.642 104.307 87.002C104.643 87.35 104.901 87.632 105.081 87.848C105.249 88.04 105.321 88.238 105.297 88.442C105.273 88.634 105.183 88.796 105.027 88.928C104.883 89.048 104.709 89.102 104.505 89.09C104.313 89.078 104.133 88.964 103.965 88.748ZM100.527 83.402C101.187 83.39 101.769 83.3 102.273 83.132C102.777 82.964 103.173 82.742 103.461 82.466C103.749 82.19 103.899 81.896 103.911 81.584C103.935 81.128 103.779 80.786 103.443 80.558C103.107 80.318 102.669 80.162 102.129 80.09C101.601 80.018 101.049 80.006 100.473 80.054C100.485 80.27 100.491 80.582 100.491 80.99C100.503 81.398 100.509 81.824 100.509 82.268C100.521 82.7 100.527 83.078 100.527 83.402ZM118.884 88.172C118.476 88.52 117.984 88.79 117.408 88.982C116.844 89.162 116.202 89.246 115.482 89.234C114.57 89.21 113.766 88.964 113.07 88.496C112.386 88.028 111.858 87.404 111.486 86.624C111.126 85.832 110.976 84.944 111.036 83.96C111.096 83.06 111.312 82.256 111.684 81.548C112.068 80.828 112.578 80.252 113.214 79.82C113.862 79.376 114.588 79.118 115.392 79.046C116.004 78.986 116.598 79.034 117.174 79.19C117.75 79.346 118.224 79.58 118.596 79.892C118.788 80.048 118.884 80.228 118.884 80.432C118.896 80.624 118.842 80.792 118.722 80.936C118.602 81.08 118.44 81.17 118.236 81.206C118.044 81.242 117.846 81.182 117.642 81.026C117.342 80.786 117.018 80.63 116.67 80.558C116.322 80.486 115.914 80.468 115.446 80.504C114.906 80.54 114.42 80.72 113.988 81.044C113.556 81.368 113.202 81.794 112.926 82.322C112.662 82.85 112.512 83.444 112.476 84.104C112.44 84.764 112.548 85.376 112.8 85.94C113.052 86.504 113.406 86.96 113.862 87.308C114.33 87.644 114.864 87.83 115.464 87.866C116.04 87.89 116.52 87.83 116.904 87.686C117.3 87.53 117.666 87.302 118.002 87.002C118.206 86.81 118.404 86.726 118.596 86.75C118.8 86.774 118.962 86.864 119.082 87.02C119.214 87.176 119.268 87.362 119.244 87.578C119.232 87.782 119.112 87.98 118.884 88.172ZM121.326 88.604C121.254 88.832 121.128 88.988 120.948 89.072C120.78 89.156 120.606 89.174 120.426 89.126C120.246 89.09 120.108 88.994 120.012 88.838C119.916 88.682 119.91 88.478 119.994 88.226C120.162 87.698 120.342 87.182 120.534 86.678C120.726 86.174 120.882 85.73 121.002 85.346H120.984C120.756 85.346 120.588 85.28 120.48 85.148C120.372 85.004 120.324 84.842 120.336 84.662C120.348 84.482 120.414 84.326 120.534 84.194C120.654 84.05 120.834 83.978 121.074 83.978H121.488C121.944 82.67 122.328 81.626 122.64 80.846C122.952 80.066 123.15 79.598 123.234 79.442C123.39 79.166 123.6 79.034 123.864 79.046C124.14 79.058 124.356 79.202 124.512 79.478C124.584 79.598 124.782 80.06 125.106 80.864C125.442 81.668 125.85 82.706 126.33 83.978H126.726C126.978 83.978 127.164 84.05 127.284 84.194C127.416 84.326 127.482 84.488 127.482 84.68C127.494 84.86 127.44 85.022 127.32 85.166C127.212 85.298 127.05 85.364 126.834 85.364H126.798C126.93 85.748 127.092 86.18 127.284 86.66C127.476 87.14 127.662 87.644 127.842 88.172C127.914 88.4 127.902 88.586 127.806 88.73C127.71 88.874 127.572 88.97 127.392 89.018C127.212 89.066 127.032 89.054 126.852 88.982C126.684 88.91 126.564 88.766 126.492 88.55C126.3 88.022 126.102 87.482 125.898 86.93C125.694 86.366 125.508 85.832 125.34 85.328H122.442C122.274 85.82 122.088 86.36 121.884 86.948C121.68 87.524 121.494 88.076 121.326 88.604ZM122.946 83.978H124.872C124.788 83.702 124.68 83.384 124.548 83.024C124.416 82.664 124.29 82.316 124.17 81.98C124.05 81.644 123.948 81.386 123.864 81.206C123.804 81.398 123.72 81.662 123.612 81.998C123.504 82.322 123.39 82.664 123.27 83.024C123.15 83.372 123.042 83.69 122.946 83.978ZM138.309 88.55C138.309 88.79 138.231 88.97 138.075 89.09C137.931 89.21 137.763 89.264 137.571 89.252C137.379 89.252 137.211 89.186 137.067 89.054C136.923 88.934 136.851 88.748 136.851 88.496C136.851 88.064 136.845 87.548 136.833 86.948C136.833 86.336 136.821 85.7 136.797 85.04C136.785 84.38 136.773 83.738 136.761 83.114C136.749 82.49 136.731 81.938 136.707 81.458C136.407 81.794 136.089 82.13 135.753 82.466C135.417 82.802 135.099 83.114 134.799 83.402C134.499 83.69 134.235 83.918 134.007 84.086C133.791 84.254 133.641 84.338 133.557 84.338C133.473 84.338 133.317 84.242 133.089 84.05C132.873 83.858 132.615 83.612 132.315 83.312C132.015 83.012 131.709 82.688 131.397 82.34C131.085 81.992 130.797 81.65 130.533 81.314C130.509 81.974 130.485 82.724 130.461 83.564C130.437 84.404 130.413 85.25 130.389 86.102C130.377 86.942 130.371 87.71 130.371 88.406C130.371 88.646 130.299 88.826 130.155 88.946C130.011 89.066 129.837 89.126 129.633 89.126C129.441 89.126 129.273 89.066 129.129 88.946C128.985 88.814 128.913 88.628 128.913 88.388C128.913 87.812 128.919 87.17 128.931 86.462C128.943 85.742 128.961 84.998 128.985 84.23C129.009 83.45 129.033 82.688 129.057 81.944C129.093 81.188 129.129 80.486 129.165 79.838C129.189 79.526 129.291 79.292 129.471 79.136C129.663 78.98 129.885 78.92 130.137 78.956C130.401 78.98 130.641 79.13 130.857 79.406C131.229 79.862 131.643 80.36 132.099 80.9C132.555 81.44 133.059 82.004 133.611 82.592C134.139 82.112 134.637 81.62 135.105 81.116C135.585 80.6 136.053 80.096 136.509 79.604C136.713 79.388 136.929 79.268 137.157 79.244C137.397 79.22 137.607 79.274 137.787 79.406C137.967 79.526 138.063 79.718 138.075 79.982C138.111 80.582 138.147 81.272 138.183 82.052C138.219 82.82 138.249 83.612 138.273 84.428C138.297 85.232 138.309 86 138.309 86.732C138.321 87.452 138.321 88.058 138.309 88.55ZM140.15 88.478L140.168 80.288H139.916C139.7 80.288 139.526 80.228 139.394 80.108C139.274 79.976 139.208 79.826 139.196 79.658C139.196 79.478 139.256 79.316 139.376 79.172C139.496 79.028 139.688 78.944 139.952 78.92C140.516 78.86 141.122 78.83 141.77 78.83C142.418 78.818 143.048 78.854 143.66 78.938C144.284 79.022 144.854 79.172 145.37 79.388C145.886 79.592 146.3 79.886 146.612 80.27C146.924 80.654 147.092 81.14 147.116 81.728C147.152 82.832 146.696 83.672 145.748 84.248C144.8 84.824 143.42 85.07 141.608 84.986L141.59 88.46C141.59 88.712 141.512 88.898 141.356 89.018C141.212 89.138 141.044 89.198 140.852 89.198C140.66 89.198 140.492 89.132 140.348 89C140.204 88.88 140.138 88.706 140.15 88.478ZM141.644 83.582C143.024 83.666 144.044 83.546 144.704 83.222C145.376 82.886 145.694 82.4 145.658 81.764C145.634 81.272 145.286 80.876 144.614 80.576C143.942 80.264 142.946 80.15 141.626 80.234L141.644 83.582Z" fill="#A06537"/>
<path d="M216.94 72.7078L224.56 69.7878L224.48 69.2078C224.453 68.9811 224.513 68.7878 224.66 68.6278C224.807 68.4678 224.987 68.3678 225.2 68.3278C225.413 68.2745 225.613 68.3011 225.8 68.4078C225.987 68.5145 226.107 68.7145 226.16 69.0078L226.18 69.2478L231.12 67.3878C231.387 67.3078 231.62 67.3211 231.82 67.4278C232.007 67.5211 232.133 67.6678 232.2 67.8678C232.28 68.0545 232.28 68.2545 232.2 68.4678C232.133 68.6678 231.973 68.8345 231.72 68.9678L226.28 70.9278C226.307 71.2745 226.327 71.6278 226.34 71.9878C226.353 72.3345 226.36 72.6678 226.36 72.9878C226.36 73.3878 226.353 73.7611 226.34 74.1078C226.327 74.4545 226.313 74.7811 226.3 75.0878C226.98 75.3145 227.653 75.5678 228.32 75.8478C228.973 76.1278 229.573 76.4478 230.12 76.8078C230.667 77.1678 231.107 77.6011 231.44 78.1078C231.773 78.6011 231.947 79.1811 231.96 79.8478C231.96 80.3811 231.84 80.8545 231.6 81.2678C231.347 81.6811 231.013 81.9745 230.6 82.1478C230.173 82.3211 229.713 82.3678 229.22 82.2878C228.727 82.2078 228.327 81.9878 228.02 81.6278C227.847 81.4278 227.773 81.2278 227.8 81.0278C227.813 80.8145 227.893 80.6345 228.04 80.4878C228.173 80.3411 228.347 80.2611 228.56 80.2478C228.76 80.2345 228.953 80.3211 229.14 80.5078C229.313 80.6678 229.507 80.7411 229.72 80.7278C229.92 80.7145 230.093 80.6345 230.24 80.4878C230.373 80.3278 230.433 80.1145 230.42 79.8478C230.42 79.3678 230.22 78.9411 229.82 78.5678C229.407 78.1811 228.88 77.8478 228.24 77.5678C227.6 77.2745 226.92 77.0145 226.2 76.7878C226.173 77.0145 226.153 77.2011 226.14 77.3478C226.127 77.4945 226.12 77.5811 226.12 77.6078C226.08 77.9011 225.973 78.1145 225.8 78.2478C225.613 78.3811 225.42 78.4411 225.22 78.4278C225.007 78.4011 224.827 78.3011 224.68 78.1278C224.533 77.9545 224.467 77.7145 224.48 77.4078C224.493 77.1945 224.527 76.8278 224.58 76.3078C223.233 75.8811 221.92 75.5011 220.64 75.1678C219.36 74.8345 218.187 74.5678 217.12 74.3678C216.76 74.3011 216.527 74.1478 216.42 73.9078C216.313 73.6678 216.313 73.4278 216.42 73.1878C216.513 72.9478 216.687 72.7878 216.94 72.7078ZM219.54 44.8078C219.247 45.1411 218.947 45.4545 218.64 45.7478C218.333 46.0411 218.087 46.2478 217.9 46.3678C217.647 46.5411 217.42 46.6078 217.22 46.5678C217.02 46.5278 216.867 46.4278 216.76 46.2678C216.653 46.1078 216.62 45.9278 216.66 45.7278C216.687 45.5278 216.8 45.3478 217 45.1878C217.187 45.0411 217.413 44.8478 217.68 44.6078C217.947 44.3545 218.187 44.1011 218.4 43.8478C218.6 43.6211 218.807 43.5011 219.02 43.4878C219.22 43.4745 219.393 43.5345 219.54 43.6678C219.687 43.8011 219.773 43.9745 219.8 44.1878C219.813 44.3878 219.727 44.5945 219.54 44.8078ZM219.66 73.3278C220.38 73.4878 221.187 73.6811 222.08 73.9078C222.96 74.1345 223.827 74.3678 224.68 74.6078C224.707 74.1411 224.72 73.6478 224.72 73.1278C224.72 72.5945 224.713 72.0545 224.7 71.5078L219.66 73.3278ZM221.62 32.4678C221.447 32.0011 221.407 31.5611 221.5 31.1478C221.58 30.7345 221.8 30.4011 222.16 30.1478C222.52 29.8945 223.033 29.7811 223.7 29.8078C223.9 29.8211 224.093 29.8411 224.28 29.8678C224.467 29.8945 224.687 29.9345 224.94 29.9878C225.073 29.6678 225.2 29.3145 225.32 28.9278C224.96 28.8611 224.573 28.7345 224.16 28.5478C223.747 28.3611 223.353 28.1078 222.98 27.7878C222.607 27.4545 222.3 27.0411 222.06 26.5478C221.807 26.0411 221.667 25.4478 221.64 24.7678C221.6 23.8745 221.693 23.1545 221.92 22.6078C222.147 22.0478 222.447 21.6278 222.82 21.3478C223.18 21.0678 223.573 20.8878 224 20.8078C224.413 20.7145 224.8 20.6811 225.16 20.7078C225.52 20.7211 225.793 20.7545 225.98 20.8078C226.433 20.9545 226.78 21.3345 227.02 21.9478C227.26 22.5611 227.4 23.3478 227.44 24.3078C227.467 25.2545 227.4 26.3078 227.24 27.4678C228.267 27.4011 229.107 27.0411 229.76 26.3878C230.4 25.7345 230.733 24.8811 230.76 23.8278C230.773 23.0278 230.673 22.3611 230.46 21.8278C230.233 21.2945 229.947 20.8678 229.6 20.5478C229.24 20.2278 228.867 19.9811 228.48 19.8078C228.093 19.6211 227.733 19.4945 227.4 19.4278C227.053 19.3478 226.793 19.2878 226.62 19.2478C226.367 19.1945 226.187 19.0745 226.08 18.8878C225.973 18.7011 225.94 18.5078 225.98 18.3078C226.02 18.0945 226.127 17.9278 226.3 17.8078C226.46 17.6745 226.693 17.6345 227 17.6878C227.2 17.7278 227.513 17.8011 227.94 17.9078C228.353 18.0011 228.813 18.1678 229.32 18.4078C229.827 18.6345 230.313 18.9678 230.78 19.4078C231.233 19.8478 231.607 20.4278 231.9 21.1478C232.18 21.8678 232.307 22.7611 232.28 23.8278C232.253 24.8411 232.02 25.7411 231.58 26.5278C231.127 27.3011 230.52 27.9145 229.76 28.3678C229 28.8211 228.14 29.0678 227.18 29.1078C227.1 29.1211 227.013 29.1278 226.92 29.1278C226.8 29.5945 226.667 30.0145 226.52 30.3878C227.213 30.6011 227.893 30.8545 228.56 31.1478C229.227 31.4411 229.827 31.7678 230.36 32.1278C230.893 32.4745 231.32 32.8411 231.64 33.2278C231.96 33.6011 232.12 33.9811 232.12 34.3678C232.133 34.9145 231.967 35.3878 231.62 35.7878C231.273 36.1878 230.807 36.5278 230.22 36.8078C229.62 37.0745 228.967 37.3011 228.26 37.4878C227.54 37.6611 226.82 37.8078 226.1 37.9278C225.38 38.0345 224.72 38.1278 224.12 38.2078C224.147 38.3145 224.173 38.4345 224.2 38.5678C224.213 38.6878 224.22 38.8278 224.22 38.9878C224.207 39.2945 224.12 39.5145 223.96 39.6478C223.8 39.7811 223.62 39.8478 223.42 39.8478C223.207 39.8345 223.02 39.7611 222.86 39.6278C222.7 39.4811 222.627 39.2811 222.64 39.0278C222.64 38.7611 222.6 38.5811 222.52 38.4878C222.44 38.3811 222.387 38.3211 222.36 38.3078C222.107 38.1611 221.947 37.9611 221.88 37.7078C221.813 37.4545 221.847 37.2211 221.98 37.0078C222.1 36.7945 222.313 36.6811 222.62 36.6678C223.527 36.6011 224.44 36.5011 225.36 36.3678C226.28 36.2345 227.127 36.0745 227.9 35.8878C228.673 35.7011 229.3 35.4878 229.78 35.2478C230.247 34.9945 230.487 34.7145 230.5 34.4078C230.473 34.2611 230.24 34.0278 229.8 33.7078C229.347 33.3878 228.767 33.0545 228.06 32.7078C227.353 32.3611 226.593 32.0811 225.78 31.8678C225.38 32.4278 224.993 32.8411 224.62 33.1078C224.233 33.3745 223.853 33.5345 223.48 33.5878C223.16 33.6278 222.813 33.5745 222.44 33.4278C222.067 33.2811 221.793 32.9611 221.62 32.4678ZM221.68 57.7278C221.693 57.4345 221.78 57.2145 221.94 57.0678C222.1 56.9078 222.287 56.8278 222.5 56.8278C222.7 56.8145 222.887 56.8811 223.06 57.0278C223.22 57.1745 223.307 57.3945 223.32 57.6878C223.32 57.8345 223.347 58.0211 223.4 58.2478C223.44 58.4745 223.567 58.6945 223.78 58.9078C224.007 58.8411 224.32 58.7745 224.72 58.7078C225.107 58.6278 225.553 58.5678 226.06 58.5278C226.593 58.4745 227.233 58.4278 227.98 58.3878C228.713 58.3478 229.507 58.3345 230.36 58.3478C231.213 58.3478 232.073 58.3945 232.94 58.4878C233.807 58.5678 234.64 58.7145 235.44 58.9278C236.24 59.1278 236.953 59.4078 237.58 59.7678C238.207 60.1145 238.707 60.5611 239.08 61.1078C239.453 61.6545 239.647 62.3078 239.66 63.0678C239.673 63.7878 239.567 64.3745 239.34 64.8278C239.113 65.2678 238.84 65.6078 238.52 65.8478C238.213 66.0878 237.927 66.2545 237.66 66.3478C237.407 66.4411 237.26 66.4945 237.22 66.5078C236.953 66.5745 236.733 66.5478 236.56 66.4278C236.4 66.3078 236.293 66.1478 236.24 65.9478C236.2 65.7478 236.22 65.5545 236.3 65.3678C236.38 65.1678 236.533 65.0345 236.76 64.9678C236.813 64.9545 236.913 64.9211 237.06 64.8678C237.22 64.8145 237.387 64.7211 237.56 64.5878C237.747 64.4545 237.9 64.2678 238.02 64.0278C238.14 63.7745 238.193 63.4478 238.18 63.0478C238.167 62.5145 237.967 62.0545 237.58 61.6678C237.193 61.2811 236.66 60.9611 235.98 60.7078C235.313 60.4411 234.547 60.2411 233.68 60.1078C232.827 59.9745 231.92 59.9011 230.96 59.8878C231.293 60.0878 231.607 60.4211 231.9 60.8878C232.193 61.3411 232.353 61.8945 232.38 62.5478C232.407 63.3078 232.307 63.9411 232.08 64.4478C231.867 64.9545 231.58 65.3611 231.22 65.6678C230.847 65.9611 230.447 66.1811 230.02 66.3278C229.58 66.4745 229.16 66.5745 228.76 66.6278C228.347 66.6811 228 66.7078 227.72 66.7078C226.653 66.7078 225.753 66.5611 225.02 66.2678C224.273 65.9745 223.667 65.5878 223.2 65.1078C222.733 64.6278 222.393 64.1011 222.18 63.5278C221.967 62.9545 221.853 62.3945 221.84 61.8478C221.827 61.1011 222.04 60.4678 222.48 59.9478C222.227 59.6545 222.047 59.3545 221.94 59.0478C221.82 58.7411 221.747 58.4678 221.72 58.2278C221.693 57.9878 221.68 57.8211 221.68 57.7278ZM221.98 52.8678C221.82 52.3611 221.813 51.7745 221.96 51.1078C222.093 50.4411 222.473 49.8011 223.1 49.1878C223.287 49.0011 223.487 48.9211 223.7 48.9478C223.9 48.9611 224.08 49.0411 224.24 49.1878C224.387 49.3345 224.473 49.5211 224.5 49.7478C224.513 49.9611 224.413 50.1745 224.2 50.3878C223.867 50.7478 223.667 51.0811 223.6 51.3878C223.52 51.6811 223.5 51.9145 223.54 52.0878C223.58 52.3278 223.7 52.5611 223.9 52.7878C224.087 53.0011 224.207 53.1078 224.26 53.1078C225.38 53.1078 226.573 53.1145 227.84 53.1278C229.093 53.1278 230.313 53.1278 231.5 53.1278C231.767 53.1278 231.967 53.2145 232.1 53.3878C232.233 53.5478 232.3 53.7411 232.3 53.9678C232.313 54.1945 232.253 54.3945 232.12 54.5678C231.987 54.7411 231.78 54.8278 231.5 54.8278C230.313 54.8278 229.107 54.8278 227.88 54.8278C226.64 54.8145 225.447 54.8211 224.3 54.8478C224.047 54.8478 223.873 54.9345 223.78 55.1078C223.687 55.2811 223.627 55.4011 223.6 55.4678C223.493 55.7611 223.34 55.9411 223.14 56.0078C222.927 56.0745 222.727 56.0611 222.54 55.9678C222.34 55.8745 222.193 55.7278 222.1 55.5278C221.993 55.3278 221.98 55.1078 222.06 54.8678C222.073 54.8011 222.127 54.6811 222.22 54.5078C222.313 54.3345 222.447 54.1478 222.62 53.9478C222.473 53.7345 222.34 53.5211 222.22 53.3078C222.087 53.0945 222.007 52.9478 221.98 52.8678ZM221.94 44.0678C221.94 43.7345 221.987 43.4278 222.08 43.1478C222.16 42.8678 222.347 42.5411 222.64 42.1678C222.44 42.1545 222.3 42.0611 222.22 41.8878C222.127 41.7011 222.093 41.5011 222.12 41.2878C222.147 41.0611 222.233 40.8678 222.38 40.7078C222.513 40.5478 222.713 40.4745 222.98 40.4878C223.34 40.5145 223.807 40.5478 224.38 40.5878C224.953 40.6145 225.547 40.6478 226.16 40.6878C226.773 40.7145 227.333 40.7411 227.84 40.7678C228.333 40.7945 228.687 40.8078 228.9 40.8078C229.327 40.8211 229.687 40.8278 229.98 40.8278C230.26 40.8278 230.433 40.7211 230.5 40.5078C230.58 40.2678 230.713 40.1078 230.9 40.0278C231.073 39.9345 231.253 39.9145 231.44 39.9678C231.627 40.0211 231.78 40.1278 231.9 40.2878C232.02 40.4478 232.067 40.6411 232.04 40.8678C231.973 41.2278 231.853 41.5145 231.68 41.7278C231.507 41.9278 231.3 42.0811 231.06 42.1878C231.393 42.5611 231.667 43.0011 231.88 43.5078C232.08 44.0011 232.18 44.5545 232.18 45.1678C232.18 46.4345 231.793 47.4345 231.02 48.1678C230.553 48.5945 229.987 48.9011 229.32 49.0878C228.653 49.2745 227.993 49.3278 227.34 49.2478C226.327 49.1411 225.413 48.8545 224.6 48.3878C223.787 47.9078 223.14 47.3011 222.66 46.5678C222.167 45.8211 221.927 44.9878 221.94 44.0678ZM222.84 31.6278C222.84 31.7878 222.9 31.8945 223.02 31.9478C223.127 32.0011 223.22 32.0211 223.3 32.0078C223.42 31.9945 223.56 31.9478 223.72 31.8678C223.88 31.7745 224.047 31.6411 224.22 31.4678C224.113 31.4411 223.993 31.4145 223.86 31.3878C223.713 31.3611 223.6 31.3411 223.52 31.3278C223.293 31.3145 223.133 31.3278 223.04 31.3678C222.947 31.4078 222.88 31.4945 222.84 31.6278ZM223.24 24.6478C223.267 25.2878 223.42 25.7878 223.7 26.1478C223.98 26.5078 224.307 26.7745 224.68 26.9478C225.053 27.1211 225.387 27.2345 225.68 27.2878C225.853 26.2878 225.927 25.4345 225.9 24.7278C225.86 24.0211 225.787 23.4745 225.68 23.0878C225.573 22.6878 225.5 22.4611 225.46 22.4078C225.327 22.3678 225.133 22.3411 224.88 22.3278C224.613 22.3011 224.353 22.3411 224.1 22.4478C223.833 22.5545 223.613 22.7811 223.44 23.1278C223.267 23.4611 223.2 23.9678 223.24 24.6478ZM223.46 61.8078C223.46 62.3011 223.593 62.8011 223.86 63.3078C224.113 63.8011 224.553 64.2211 225.18 64.5678C225.793 64.9011 226.633 65.0745 227.7 65.0878C228.02 65.0878 228.36 65.0611 228.72 65.0078C229.08 64.9411 229.42 64.8278 229.74 64.6678C230.06 64.4945 230.32 64.2478 230.52 63.9278C230.72 63.5945 230.8 63.1611 230.76 62.6278C230.733 62.0011 230.4 61.4478 229.76 60.9678C229.107 60.4878 228.22 60.2145 227.1 60.1478C226.54 60.1211 225.98 60.1545 225.42 60.2478C224.86 60.3411 224.393 60.5145 224.02 60.7678C223.647 61.0078 223.46 61.3545 223.46 61.8078ZM223.48 44.0478C223.48 44.6078 223.613 45.1011 223.88 45.5278C224.133 45.9545 224.467 46.3211 224.88 46.6278C225.28 46.9211 225.713 47.1545 226.18 47.3278C226.647 47.5011 227.093 47.6078 227.52 47.6478C227.947 47.7011 228.38 47.6678 228.82 47.5478C229.247 47.4145 229.6 47.2211 229.88 46.9678C230.12 46.7278 230.32 46.4545 230.48 46.1478C230.627 45.8278 230.693 45.4478 230.68 45.0078C230.667 44.4878 230.467 43.9678 230.08 43.4478C229.693 42.9278 229.113 42.5878 228.34 42.4278C228.233 42.4011 228.033 42.3745 227.74 42.3478C227.447 42.3211 227.113 42.2945 226.74 42.2678C226.353 42.2411 225.98 42.2278 225.62 42.2278C225.247 42.2145 224.933 42.2145 224.68 42.2278C224.427 42.2278 224.213 42.3411 224.04 42.5678C223.853 42.7945 223.713 43.0545 223.62 43.3478C223.527 43.6278 223.48 43.8611 223.48 44.0478Z" fill="#E0B699"/>
</svg>
